<svg width="143" height="27" viewBox="0 0 143 27" fill="none" xmlns="http://www.w3.org/2000/svg">
<mask id="path-1-outside-1_117_211" maskUnits="userSpaceOnUse" x="0" y="0" width="143" height="27" fill="black">
<rect fill="white" width="143" height="27"/>
<path fill-rule="evenodd" clip-rule="evenodd" d="M126.666 2.73324C126.666 3.00578 126.517 3.24359 126.296 3.36998V5.46003C130.34 3.20859 132.173 3.31998 134.364 5.666V8.96528C137.501 10.4619 139.097 9.53021 140.751 8.56467C140.942 8.45301 141.134 8.3409 141.33 8.23204V18.4974C137.498 20.6357 135.39 20.7695 131.798 18.4974V14.3361C130.094 13.9568 128.598 14.6518 126.296 16.0713V24.364H125.563V3.36677C125.345 3.2396 125.199 3.00349 125.199 2.73324C125.199 2.32828 125.528 2 125.932 2C126.337 2 126.666 2.32828 126.666 2.73324ZM17.724 5.42412L17.934 9.87669H17.402C17.2993 9.09259 17.1593 8.53252 16.9819 8.19647C16.6925 7.65507 16.3052 7.25835 15.8198 7.00632C15.3437 6.74496 14.7136 6.61427 13.9295 6.61427H11.2552V21.1201C11.2552 22.2869 11.3812 23.015 11.6332 23.3044C11.9879 23.6965 12.534 23.8925 13.2714 23.8925H13.9295V24.4105H5.8785V23.8925H6.55058C7.35335 23.8925 7.92276 23.6498 8.2588 23.1644C8.46416 22.8657 8.56684 22.1843 8.56684 21.1201V6.61427H6.28455C5.39777 6.61427 4.76769 6.67961 4.39431 6.8103C3.90891 6.98765 3.49352 7.32836 3.14815 7.83243C2.80277 8.33649 2.59741 9.01791 2.53207 9.87669H2L2.22403 5.42412H17.724ZM23.5898 13.8812V4.5H22.9458L19.1093 6.0682L19.3053 6.55826C19.744 6.40891 20.0614 6.33423 20.2574 6.33423C20.5001 6.33423 20.6915 6.39491 20.8315 6.51626C20.9808 6.63761 21.0882 6.8663 21.1535 7.20235C21.2282 7.53839 21.2655 8.43917 21.2655 9.90469V21.5122C21.2655 22.3149 21.2095 22.847 21.0975 23.1084C20.9855 23.3697 20.8362 23.5471 20.6495 23.6404C20.3228 23.8178 19.8747 23.9065 19.3053 23.9065V24.4105H25.6621V23.9065C25.0087 23.9065 24.5466 23.8365 24.2759 23.6965C24.0146 23.5471 23.8325 23.3651 23.7299 23.1504C23.6365 22.9357 23.5898 22.3896 23.5898 21.5122V14.7353C24.2806 13.9979 24.8733 13.5078 25.3681 13.2651C25.8628 13.0224 26.3389 12.9011 26.7963 12.9011C27.2443 12.9011 27.627 13.0131 27.9444 13.2371C28.2618 13.4518 28.4905 13.7785 28.6305 14.2172C28.7798 14.656 28.8545 15.5754 28.8545 16.9756V21.5122C28.8545 22.2403 28.8405 22.679 28.8125 22.8283C28.7192 23.1831 28.5558 23.4538 28.3224 23.6404C28.0891 23.8178 27.6737 23.9065 27.0763 23.9065H26.7822V24.4105H33.0831V23.9065C32.4856 23.9065 32.0749 23.8411 31.8509 23.7105C31.6269 23.5798 31.4682 23.4024 31.3748 23.1784C31.2442 22.8797 31.1788 22.3243 31.1788 21.5122V16.9756C31.1788 15.3887 31.0901 14.2966 30.9128 13.6992C30.6607 12.8404 30.2734 12.2103 29.7506 11.8089C29.2279 11.4075 28.6025 11.2069 27.8744 11.2069C27.2676 11.2069 26.6609 11.3702 26.0542 11.6969C25.4474 12.0143 24.626 12.7424 23.5898 13.8812ZM35.7879 16.4706C35.7786 18.3749 36.2407 19.8684 37.1741 20.9512C38.1076 22.034 39.2044 22.5754 40.4645 22.5754C41.3046 22.5754 42.0327 22.3467 42.6488 21.8893C43.2742 21.4226 43.797 20.6291 44.217 19.509L44.6511 19.789C44.455 21.0679 43.8856 22.2347 42.9428 23.2895C42.0001 24.335 40.8192 24.8577 39.4004 24.8577C37.8602 24.8577 36.5394 24.2603 35.4379 23.0655C34.3457 21.8613 33.7997 20.2464 33.7997 18.2208C33.7997 16.0272 34.3597 14.319 35.4799 13.0962C36.6094 11.864 38.0235 11.2479 39.7224 11.2479C41.1599 11.2479 42.3408 11.724 43.2649 12.6761C44.189 13.6189 44.6511 14.8837 44.6511 16.4706H35.7879ZM35.7879 15.6585H41.7247C41.678 14.8371 41.58 14.2583 41.4306 13.9223C41.1973 13.3996 40.8472 12.9888 40.3805 12.6901C39.9231 12.3914 39.4424 12.2421 38.9383 12.2421C38.1636 12.2421 37.4681 12.5454 36.8521 13.1522C36.2453 13.7496 35.8906 14.585 35.7879 15.6585ZM54.1958 18.0542H61.5467L62.6949 20.7846C63.0682 21.6714 63.2549 22.3201 63.2549 22.7308C63.2549 23.0389 63.1196 23.3002 62.8489 23.5149C62.5875 23.7296 62.0788 23.8556 61.3227 23.893V24.411H68.8136V24.4105H73.6916V23.9065C73.1128 23.9065 72.6694 23.8225 72.3614 23.6544C72.0533 23.4864 71.8386 23.2764 71.7173 23.0244C71.5399 22.6603 71.4513 22.1236 71.4513 21.4142V15.2674C71.8993 14.3899 72.3334 13.7599 72.7534 13.3771C72.9495 13.1904 73.1315 13.0971 73.2995 13.0971C73.4955 13.0971 73.7942 13.2605 74.1956 13.5872C74.6063 13.9045 74.975 14.0632 75.3018 14.0632C75.6378 14.0632 75.9272 13.9372 76.1699 13.6852C76.3717 13.4756 76.4895 13.2274 76.5236 12.9404H78.358V21.5655C78.358 22.4896 78.4561 23.1757 78.6521 23.6238C78.8481 24.0625 79.1515 24.4032 79.5622 24.6459C79.9729 24.8793 80.393 24.996 80.8224 24.996C81.4571 24.996 82.0732 24.7673 82.6706 24.3099C83.268 23.8431 83.7301 23.1524 84.0568 22.2376H83.5107C83.352 22.611 83.128 22.8957 82.8386 23.0917C82.5493 23.2784 82.2505 23.3717 81.9425 23.3717C81.5691 23.3717 81.2611 23.2271 81.0184 22.9377C80.785 22.6483 80.6683 22.0883 80.6683 21.2575V12.9404H83.6647V11.9603H80.6683V7.74575H80.2343C79.8516 8.68854 79.5529 9.33729 79.3382 9.692C78.9181 10.3641 78.4374 10.9475 77.896 11.4422C77.4197 11.8767 76.9509 12.199 76.4896 12.4091C76.4195 12.1417 76.2662 11.8996 76.0298 11.6829C75.6938 11.3655 75.2691 11.2069 74.7557 11.2069C73.6262 11.2069 72.5247 12.1683 71.4513 14.0912V11.2069H70.8632L66.9847 12.7751L67.1247 13.2791C67.4888 13.1391 67.8155 13.0691 68.1048 13.0691C68.3475 13.0691 68.5482 13.1344 68.7069 13.2651C68.8749 13.3958 68.9869 13.6058 69.043 13.8952C69.1083 14.1752 69.141 15.062 69.141 16.5555V21.5262C69.141 22.2729 69.1176 22.7257 69.071 22.8844C68.9776 23.2111 68.8143 23.4491 68.5809 23.5984C68.453 23.6812 68.2979 23.7472 68.1155 23.7966C67.6645 23.6936 67.2904 23.5157 66.9934 23.2629C66.564 22.8802 66.0833 22.0541 65.5512 20.7846L58.9424 4.99055H58.4523L51.7735 20.6166C51.1947 21.9887 50.6673 22.8988 50.1913 23.3469C49.9579 23.5709 49.4445 23.753 48.6511 23.893V24.411H54.6298V23.893C53.715 23.8276 53.1176 23.6876 52.8376 23.4729C52.5669 23.2489 52.4315 22.9922 52.4315 22.7028C52.4315 22.3388 52.5902 21.788 52.9076 21.0506L54.1958 18.0542ZM57.9343 9.34511L61.1547 17.0181H54.6298L57.9343 9.34511ZM87.5203 4.5C87.9123 4.5 88.2437 4.64002 88.5144 4.92005C88.7944 5.19076 88.9345 5.52213 88.9345 5.91418C88.9345 6.30623 88.7944 6.64227 88.5144 6.92231C88.2437 7.20235 87.9123 7.34236 87.5203 7.34236C87.1282 7.34236 86.7922 7.20235 86.5121 6.92231C86.2321 6.64227 86.0921 6.30623 86.0921 5.91418C86.0921 5.52213 86.2274 5.19076 86.4981 4.92005C86.7782 4.64002 87.1189 4.5 87.5203 4.5ZM88.6824 11.2069V21.5122C88.6824 22.3149 88.7384 22.8517 88.8504 23.1224C88.9718 23.3837 89.1445 23.5798 89.3685 23.7105C89.6019 23.8411 90.0219 23.9065 90.6287 23.9065V24.4105H84.3979V23.9065C85.0233 23.9065 85.4433 23.8458 85.658 23.7245C85.8727 23.6031 86.0407 23.4024 86.1621 23.1224C86.2928 22.8423 86.3581 22.3056 86.3581 21.5122V16.5695C86.3581 15.1787 86.3161 14.2779 86.2321 13.8672C86.1668 13.5685 86.0641 13.3631 85.9241 13.2511C85.784 13.1298 85.5927 13.0691 85.35 13.0691C85.0886 13.0691 84.7713 13.1391 84.3979 13.2791L84.2018 12.7751L88.0663 11.2069H88.6824ZM99.5906 15.6165V11.2479H99.1285C99.0165 11.472 98.9185 11.6167 98.8345 11.682C98.7505 11.7473 98.6338 11.78 98.4845 11.78C98.3258 11.78 98.0084 11.71 97.5323 11.57C96.8136 11.3553 96.2022 11.2479 95.6981 11.2479C94.5499 11.2479 93.6118 11.6027 92.8837 12.3121C92.165 13.0215 91.8056 13.9036 91.8056 14.9584C91.8056 15.7705 92.0156 16.4426 92.4357 16.9747C92.8557 17.5161 93.7425 18.1228 95.096 18.7949C96.4495 19.467 97.3503 20.0224 97.7984 20.4611C98.2558 20.8998 98.4845 21.4412 98.4845 22.0853C98.4845 22.6174 98.2791 23.0748 97.8684 23.4575C97.467 23.8309 96.9443 24.0176 96.3002 24.0176C95.3854 24.0176 94.5593 23.6862 93.8219 23.0235C93.0844 22.3607 92.585 21.3759 92.3237 20.0691H91.8616V24.6477H92.3237C92.445 24.405 92.613 24.2836 92.8277 24.2836C93.0238 24.2836 93.2758 24.3303 93.5838 24.4236C94.592 24.7037 95.4881 24.8437 96.2722 24.8437C97.3643 24.8437 98.3491 24.489 99.2265 23.7795C100.113 23.0608 100.557 22.118 100.557 20.9512C100.557 19.439 99.6093 18.2208 97.7144 17.2967L95.6701 16.3026C94.7833 15.8732 94.1952 15.4672 93.9059 15.0844C93.6072 14.7111 93.4578 14.263 93.4578 13.7403C93.4578 13.3202 93.6585 12.9375 94.0599 12.5921C94.4613 12.2467 94.9887 12.074 95.6421 12.074C96.5009 12.074 97.2056 12.3214 97.7564 12.8161C98.3164 13.3109 98.7738 14.2443 99.1285 15.6165H99.5906ZM105.313 7.74533V11.9599H108.31V12.94H105.313V21.2571C105.313 22.0878 105.43 22.6479 105.663 22.9373C105.906 23.2266 106.214 23.3713 106.587 23.3713C106.895 23.3713 107.194 23.278 107.483 23.0913C107.773 22.8953 107.997 22.6106 108.156 22.2372H108.702C108.375 23.152 107.913 23.8427 107.315 24.3094C106.718 24.7668 106.102 24.9955 105.467 24.9955C105.038 24.9955 104.618 24.8789 104.207 24.6455C103.796 24.4028 103.493 24.0621 103.297 23.6234C103.101 23.1753 103.003 22.4892 103.003 21.5651V12.94H100.973V12.4779C101.486 12.2726 102.009 11.9272 102.541 11.4418C103.082 10.9471 103.563 10.3637 103.983 9.69158C104.198 9.33687 104.496 8.68812 104.879 7.74533H105.313ZM117.661 15.6167V11.2481H117.199C117.087 11.4721 116.989 11.6168 116.905 11.6822C116.821 11.7475 116.705 11.7802 116.555 11.7802C116.397 11.7802 116.079 11.7102 115.603 11.5701C114.884 11.3554 114.273 11.2481 113.769 11.2481C112.621 11.2481 111.683 11.6028 110.955 12.3122C110.236 13.0217 109.876 13.9038 109.876 14.9586C109.876 15.7707 110.086 16.4428 110.507 16.9748C110.927 17.5162 111.813 18.123 113.167 18.7951C114.52 19.4671 115.421 20.0226 115.869 20.4613C116.327 20.9 116.555 21.4414 116.555 22.0855C116.555 22.6175 116.35 23.0749 115.939 23.4577C115.538 23.831 115.015 24.0177 114.371 24.0177C113.456 24.0177 112.63 23.6864 111.893 23.0236C111.155 22.3608 110.656 21.3761 110.394 20.0692H109.932V24.6478H110.394C110.516 24.4051 110.684 24.2838 110.899 24.2838C111.095 24.2838 111.347 24.3304 111.655 24.4238C112.663 24.7038 113.559 24.8438 114.343 24.8438C115.435 24.8438 116.42 24.4891 117.297 23.7797C118.184 23.0609 118.628 22.1182 118.628 20.9513C118.628 19.4391 117.68 18.221 115.785 17.2969L113.741 16.3027C112.854 15.8734 112.266 15.4673 111.977 15.0846C111.678 14.7112 111.529 14.2631 111.529 13.7404C111.529 13.3204 111.729 12.9376 112.131 12.5923C112.532 12.2469 113.059 12.0742 113.713 12.0742C114.572 12.0742 115.276 12.3216 115.827 12.8163C116.387 13.311 116.845 14.2445 117.199 15.6167H117.661Z"/>
</mask>
<path fill-rule="evenodd" clip-rule="evenodd" d="M126.666 2.73324C126.666 3.00578 126.517 3.24359 126.296 3.36998V5.46003C130.34 3.20859 132.173 3.31998 134.364 5.666V8.96528C137.501 10.4619 139.097 9.53021 140.751 8.56467C140.942 8.45301 141.134 8.3409 141.33 8.23204V18.4974C137.498 20.6357 135.39 20.7695 131.798 18.4974V14.3361C130.094 13.9568 128.598 14.6518 126.296 16.0713V24.364H125.563V3.36677C125.345 3.2396 125.199 3.00349 125.199 2.73324C125.199 2.32828 125.528 2 125.932 2C126.337 2 126.666 2.32828 126.666 2.73324ZM17.724 5.42412L17.934 9.87669H17.402C17.2993 9.09259 17.1593 8.53252 16.9819 8.19647C16.6925 7.65507 16.3052 7.25835 15.8198 7.00632C15.3437 6.74496 14.7136 6.61427 13.9295 6.61427H11.2552V21.1201C11.2552 22.2869 11.3812 23.015 11.6332 23.3044C11.9879 23.6965 12.534 23.8925 13.2714 23.8925H13.9295V24.4105H5.8785V23.8925H6.55058C7.35335 23.8925 7.92276 23.6498 8.2588 23.1644C8.46416 22.8657 8.56684 22.1843 8.56684 21.1201V6.61427H6.28455C5.39777 6.61427 4.76769 6.67961 4.39431 6.8103C3.90891 6.98765 3.49352 7.32836 3.14815 7.83243C2.80277 8.33649 2.59741 9.01791 2.53207 9.87669H2L2.22403 5.42412H17.724ZM23.5898 13.8812V4.5H22.9458L19.1093 6.0682L19.3053 6.55826C19.744 6.40891 20.0614 6.33423 20.2574 6.33423C20.5001 6.33423 20.6915 6.39491 20.8315 6.51626C20.9808 6.63761 21.0882 6.8663 21.1535 7.20235C21.2282 7.53839 21.2655 8.43917 21.2655 9.90469V21.5122C21.2655 22.3149 21.2095 22.847 21.0975 23.1084C20.9855 23.3697 20.8362 23.5471 20.6495 23.6404C20.3228 23.8178 19.8747 23.9065 19.3053 23.9065V24.4105H25.6621V23.9065C25.0087 23.9065 24.5466 23.8365 24.2759 23.6965C24.0146 23.5471 23.8325 23.3651 23.7299 23.1504C23.6365 22.9357 23.5898 22.3896 23.5898 21.5122V14.7353C24.2806 13.9979 24.8733 13.5078 25.3681 13.2651C25.8628 13.0224 26.3389 12.9011 26.7963 12.9011C27.2443 12.9011 27.627 13.0131 27.9444 13.2371C28.2618 13.4518 28.4905 13.7785 28.6305 14.2172C28.7798 14.656 28.8545 15.5754 28.8545 16.9756V21.5122C28.8545 22.2403 28.8405 22.679 28.8125 22.8283C28.7192 23.1831 28.5558 23.4538 28.3224 23.6404C28.0891 23.8178 27.6737 23.9065 27.0763 23.9065H26.7822V24.4105H33.0831V23.9065C32.4856 23.9065 32.0749 23.8411 31.8509 23.7105C31.6269 23.5798 31.4682 23.4024 31.3748 23.1784C31.2442 22.8797 31.1788 22.3243 31.1788 21.5122V16.9756C31.1788 15.3887 31.0901 14.2966 30.9128 13.6992C30.6607 12.8404 30.2734 12.2103 29.7506 11.8089C29.2279 11.4075 28.6025 11.2069 27.8744 11.2069C27.2676 11.2069 26.6609 11.3702 26.0542 11.6969C25.4474 12.0143 24.626 12.7424 23.5898 13.8812ZM35.7879 16.4706C35.7786 18.3749 36.2407 19.8684 37.1741 20.9512C38.1076 22.034 39.2044 22.5754 40.4645 22.5754C41.3046 22.5754 42.0327 22.3467 42.6488 21.8893C43.2742 21.4226 43.797 20.6291 44.217 19.509L44.6511 19.789C44.455 21.0679 43.8856 22.2347 42.9428 23.2895C42.0001 24.335 40.8192 24.8577 39.4004 24.8577C37.8602 24.8577 36.5394 24.2603 35.4379 23.0655C34.3457 21.8613 33.7997 20.2464 33.7997 18.2208C33.7997 16.0272 34.3597 14.319 35.4799 13.0962C36.6094 11.864 38.0235 11.2479 39.7224 11.2479C41.1599 11.2479 42.3408 11.724 43.2649 12.6761C44.189 13.6189 44.6511 14.8837 44.6511 16.4706H35.7879ZM35.7879 15.6585H41.7247C41.678 14.8371 41.58 14.2583 41.4306 13.9223C41.1973 13.3996 40.8472 12.9888 40.3805 12.6901C39.9231 12.3914 39.4424 12.2421 38.9383 12.2421C38.1636 12.2421 37.4681 12.5454 36.8521 13.1522C36.2453 13.7496 35.8906 14.585 35.7879 15.6585ZM54.1958 18.0542H61.5467L62.6949 20.7846C63.0682 21.6714 63.2549 22.3201 63.2549 22.7308C63.2549 23.0389 63.1196 23.3002 62.8489 23.5149C62.5875 23.7296 62.0788 23.8556 61.3227 23.893V24.411H68.8136V24.4105H73.6916V23.9065C73.1128 23.9065 72.6694 23.8225 72.3614 23.6544C72.0533 23.4864 71.8386 23.2764 71.7173 23.0244C71.5399 22.6603 71.4513 22.1236 71.4513 21.4142V15.2674C71.8993 14.3899 72.3334 13.7599 72.7534 13.3771C72.9495 13.1904 73.1315 13.0971 73.2995 13.0971C73.4955 13.0971 73.7942 13.2605 74.1956 13.5872C74.6063 13.9045 74.975 14.0632 75.3018 14.0632C75.6378 14.0632 75.9272 13.9372 76.1699 13.6852C76.3717 13.4756 76.4895 13.2274 76.5236 12.9404H78.358V21.5655C78.358 22.4896 78.4561 23.1757 78.6521 23.6238C78.8481 24.0625 79.1515 24.4032 79.5622 24.6459C79.9729 24.8793 80.393 24.996 80.8224 24.996C81.4571 24.996 82.0732 24.7673 82.6706 24.3099C83.268 23.8431 83.7301 23.1524 84.0568 22.2376H83.5107C83.352 22.611 83.128 22.8957 82.8386 23.0917C82.5493 23.2784 82.2505 23.3717 81.9425 23.3717C81.5691 23.3717 81.2611 23.2271 81.0184 22.9377C80.785 22.6483 80.6683 22.0883 80.6683 21.2575V12.9404H83.6647V11.9603H80.6683V7.74575H80.2343C79.8516 8.68854 79.5529 9.33729 79.3382 9.692C78.9181 10.3641 78.4374 10.9475 77.896 11.4422C77.4197 11.8767 76.9509 12.199 76.4896 12.4091C76.4195 12.1417 76.2662 11.8996 76.0298 11.6829C75.6938 11.3655 75.2691 11.2069 74.7557 11.2069C73.6262 11.2069 72.5247 12.1683 71.4513 14.0912V11.2069H70.8632L66.9847 12.7751L67.1247 13.2791C67.4888 13.1391 67.8155 13.0691 68.1048 13.0691C68.3475 13.0691 68.5482 13.1344 68.7069 13.2651C68.8749 13.3958 68.9869 13.6058 69.043 13.8952C69.1083 14.1752 69.141 15.062 69.141 16.5555V21.5262C69.141 22.2729 69.1176 22.7257 69.071 22.8844C68.9776 23.2111 68.8143 23.4491 68.5809 23.5984C68.453 23.6812 68.2979 23.7472 68.1155 23.7966C67.6645 23.6936 67.2904 23.5157 66.9934 23.2629C66.564 22.8802 66.0833 22.0541 65.5512 20.7846L58.9424 4.99055H58.4523L51.7735 20.6166C51.1947 21.9887 50.6673 22.8988 50.1913 23.3469C49.9579 23.5709 49.4445 23.753 48.6511 23.893V24.411H54.6298V23.893C53.715 23.8276 53.1176 23.6876 52.8376 23.4729C52.5669 23.2489 52.4315 22.9922 52.4315 22.7028C52.4315 22.3388 52.5902 21.788 52.9076 21.0506L54.1958 18.0542ZM57.9343 9.34511L61.1547 17.0181H54.6298L57.9343 9.34511ZM87.5203 4.5C87.9123 4.5 88.2437 4.64002 88.5144 4.92005C88.7944 5.19076 88.9345 5.52213 88.9345 5.91418C88.9345 6.30623 88.7944 6.64227 88.5144 6.92231C88.2437 7.20235 87.9123 7.34236 87.5203 7.34236C87.1282 7.34236 86.7922 7.20235 86.5121 6.92231C86.2321 6.64227 86.0921 6.30623 86.0921 5.91418C86.0921 5.52213 86.2274 5.19076 86.4981 4.92005C86.7782 4.64002 87.1189 4.5 87.5203 4.5ZM88.6824 11.2069V21.5122C88.6824 22.3149 88.7384 22.8517 88.8504 23.1224C88.9718 23.3837 89.1445 23.5798 89.3685 23.7105C89.6019 23.8411 90.0219 23.9065 90.6287 23.9065V24.4105H84.3979V23.9065C85.0233 23.9065 85.4433 23.8458 85.658 23.7245C85.8727 23.6031 86.0407 23.4024 86.1621 23.1224C86.2928 22.8423 86.3581 22.3056 86.3581 21.5122V16.5695C86.3581 15.1787 86.3161 14.2779 86.2321 13.8672C86.1668 13.5685 86.0641 13.3631 85.9241 13.2511C85.784 13.1298 85.5927 13.0691 85.35 13.0691C85.0886 13.0691 84.7713 13.1391 84.3979 13.2791L84.2018 12.7751L88.0663 11.2069H88.6824ZM99.5906 15.6165V11.2479H99.1285C99.0165 11.472 98.9185 11.6167 98.8345 11.682C98.7505 11.7473 98.6338 11.78 98.4845 11.78C98.3258 11.78 98.0084 11.71 97.5323 11.57C96.8136 11.3553 96.2022 11.2479 95.6981 11.2479C94.5499 11.2479 93.6118 11.6027 92.8837 12.3121C92.165 13.0215 91.8056 13.9036 91.8056 14.9584C91.8056 15.7705 92.0156 16.4426 92.4357 16.9747C92.8557 17.5161 93.7425 18.1228 95.096 18.7949C96.4495 19.467 97.3503 20.0224 97.7984 20.4611C98.2558 20.8998 98.4845 21.4412 98.4845 22.0853C98.4845 22.6174 98.2791 23.0748 97.8684 23.4575C97.467 23.8309 96.9443 24.0176 96.3002 24.0176C95.3854 24.0176 94.5593 23.6862 93.8219 23.0235C93.0844 22.3607 92.585 21.3759 92.3237 20.0691H91.8616V24.6477H92.3237C92.445 24.405 92.613 24.2836 92.8277 24.2836C93.0238 24.2836 93.2758 24.3303 93.5838 24.4236C94.592 24.7037 95.4881 24.8437 96.2722 24.8437C97.3643 24.8437 98.3491 24.489 99.2265 23.7795C100.113 23.0608 100.557 22.118 100.557 20.9512C100.557 19.439 99.6093 18.2208 97.7144 17.2967L95.6701 16.3026C94.7833 15.8732 94.1952 15.4672 93.9059 15.0844C93.6072 14.7111 93.4578 14.263 93.4578 13.7403C93.4578 13.3202 93.6585 12.9375 94.0599 12.5921C94.4613 12.2467 94.9887 12.074 95.6421 12.074C96.5009 12.074 97.2056 12.3214 97.7564 12.8161C98.3164 13.3109 98.7738 14.2443 99.1285 15.6165H99.5906ZM105.313 7.74533V11.9599H108.31V12.94H105.313V21.2571C105.313 22.0878 105.43 22.6479 105.663 22.9373C105.906 23.2266 106.214 23.3713 106.587 23.3713C106.895 23.3713 107.194 23.278 107.483 23.0913C107.773 22.8953 107.997 22.6106 108.156 22.2372H108.702C108.375 23.152 107.913 23.8427 107.315 24.3094C106.718 24.7668 106.102 24.9955 105.467 24.9955C105.038 24.9955 104.618 24.8789 104.207 24.6455C103.796 24.4028 103.493 24.0621 103.297 23.6234C103.101 23.1753 103.003 22.4892 103.003 21.5651V12.94H100.973V12.4779C101.486 12.2726 102.009 11.9272 102.541 11.4418C103.082 10.9471 103.563 10.3637 103.983 9.69158C104.198 9.33687 104.496 8.68812 104.879 7.74533H105.313ZM117.661 15.6167V11.2481H117.199C117.087 11.4721 116.989 11.6168 116.905 11.6822C116.821 11.7475 116.705 11.7802 116.555 11.7802C116.397 11.7802 116.079 11.7102 115.603 11.5701C114.884 11.3554 114.273 11.2481 113.769 11.2481C112.621 11.2481 111.683 11.6028 110.955 12.3122C110.236 13.0217 109.876 13.9038 109.876 14.9586C109.876 15.7707 110.086 16.4428 110.507 16.9748C110.927 17.5162 111.813 18.123 113.167 18.7951C114.52 19.4671 115.421 20.0226 115.869 20.4613C116.327 20.9 116.555 21.4414 116.555 22.0855C116.555 22.6175 116.35 23.0749 115.939 23.4577C115.538 23.831 115.015 24.0177 114.371 24.0177C113.456 24.0177 112.63 23.6864 111.893 23.0236C111.155 22.3608 110.656 21.3761 110.394 20.0692H109.932V24.6478H110.394C110.516 24.4051 110.684 24.2838 110.899 24.2838C111.095 24.2838 111.347 24.3304 111.655 24.4238C112.663 24.7038 113.559 24.8438 114.343 24.8438C115.435 24.8438 116.42 24.4891 117.297 23.7797C118.184 23.0609 118.628 22.1182 118.628 20.9513C118.628 19.4391 117.68 18.221 115.785 17.2969L113.741 16.3027C112.854 15.8734 112.266 15.4673 111.977 15.0846C111.678 14.7112 111.529 14.2631 111.529 13.7404C111.529 13.3204 111.729 12.9376 112.131 12.5923C112.532 12.2469 113.059 12.0742 113.713 12.0742C114.572 12.0742 115.276 12.3216 115.827 12.8163C116.387 13.311 116.845 14.2445 117.199 15.6167H117.661Z" fill="white"/>
<path d="M126.296 3.36998L125.712 2.35013C125.347 2.55951 125.121 2.94862 125.121 3.36998H126.296ZM126.296 5.46003H125.121C125.121 5.87663 125.342 6.2621 125.701 6.47321C126.06 6.68431 126.504 6.6895 126.868 6.48684L126.296 5.46003ZM134.364 5.666H135.539C135.539 5.3682 135.426 5.0815 135.223 4.86385L134.364 5.666ZM134.364 8.96528H133.189C133.189 9.41827 133.449 9.83093 133.858 10.026L134.364 8.96528ZM140.751 8.56467L141.344 9.57962L141.344 9.57962L140.751 8.56467ZM141.33 8.23204H142.505C142.505 7.81534 142.284 7.4298 141.925 7.21873C141.566 7.00766 141.121 7.00263 140.757 7.20551L141.33 8.23204ZM141.33 18.4974L141.902 19.5236C142.274 19.316 142.505 18.9234 142.505 18.4974H141.33ZM131.798 18.4974H130.622C130.622 18.9003 130.829 19.2752 131.169 19.4906L131.798 18.4974ZM131.798 14.3361H132.973C132.973 13.7854 132.59 13.3085 132.053 13.1889L131.798 14.3361ZM126.296 16.0713L125.679 15.0711C125.332 15.2851 125.121 15.6636 125.121 16.0713H126.296ZM126.296 24.364V25.5392C126.945 25.5392 127.472 25.0131 127.472 24.364H126.296ZM125.563 24.364H124.388C124.388 25.0131 124.914 25.5392 125.563 25.5392V24.364ZM125.563 3.36677H126.738C126.738 2.94908 126.517 2.56278 126.156 2.35206L125.563 3.36677ZM17.934 9.87669V11.0519C18.2553 11.0519 18.5626 10.9204 18.7844 10.6879C19.0062 10.4554 19.1231 10.1423 19.108 9.82132L17.934 9.87669ZM17.724 5.42412L18.8979 5.36875C18.8684 4.74191 18.3515 4.24889 17.724 4.24889V5.42412ZM17.402 9.87669L16.2367 10.0293C16.3133 10.6144 16.8119 11.0519 17.402 11.0519V9.87669ZM16.9819 8.19647L18.0213 7.64792L18.0184 7.6425L16.9819 8.19647ZM15.8198 7.00632L15.2542 8.03651C15.2621 8.04088 15.2701 8.04515 15.2782 8.04934L15.8198 7.00632ZM11.2552 6.61427V5.43904C10.6061 5.43904 10.08 5.96521 10.08 6.61427H11.2552ZM11.6332 23.3044L10.747 24.0763C10.7519 24.0819 10.7568 24.0874 10.7618 24.0929L11.6332 23.3044ZM13.9295 23.8925H15.1048C15.1048 23.2434 14.5786 22.7172 13.9295 22.7172V23.8925ZM13.9295 24.4105V25.5858C14.5786 25.5858 15.1048 25.0596 15.1048 24.4105H13.9295ZM5.8785 24.4105H4.70326C4.70326 25.0596 5.22943 25.5858 5.8785 25.5858V24.4105ZM5.8785 23.8925V22.7172C5.22943 22.7172 4.70326 23.2434 4.70326 23.8925H5.8785ZM8.2588 23.1644L9.22507 23.8333L9.22724 23.8302L8.2588 23.1644ZM8.56684 6.61427H9.74207C9.74207 5.96521 9.2159 5.43904 8.56684 5.43904V6.61427ZM4.39431 6.8103L4.00607 5.70104C4.00102 5.70281 3.99599 5.70461 3.99097 5.70644L4.39431 6.8103ZM3.14815 7.83243L4.11763 8.49671L4.11763 8.49671L3.14815 7.83243ZM2.53207 9.87669V11.0519C3.14655 11.0519 3.65729 10.5786 3.70391 9.96585L2.53207 9.87669ZM2 9.87669L0.826253 9.81763C0.810075 10.1392 0.926509 10.4533 1.14836 10.6866C1.37021 10.9199 1.67806 11.0519 2 11.0519L2 9.87669ZM2.22403 5.42412V4.24889C1.59792 4.24889 1.08174 4.73975 1.05028 5.36506L2.22403 5.42412ZM23.5898 4.5H24.7651C24.7651 3.85094 24.2389 3.32477 23.5898 3.32477V4.5ZM23.5898 13.8812H22.4146C22.4146 14.3666 22.7131 14.8021 23.1658 14.9773C23.6186 15.1524 24.1324 15.0312 24.4591 14.6721L23.5898 13.8812ZM22.9458 4.5V3.32477C22.7933 3.32477 22.6422 3.35444 22.5011 3.41214L22.9458 4.5ZM19.1093 6.0682L18.6646 4.98034C18.067 5.22462 17.7783 5.90524 18.0181 6.50467L19.1093 6.0682ZM19.3053 6.55826L18.2141 6.99474C18.4463 7.57517 19.0922 7.87226 19.684 7.6708L19.3053 6.55826ZM20.8315 6.51626L20.0618 7.40436C20.0712 7.41252 20.0807 7.42052 20.0904 7.42837L20.8315 6.51626ZM21.1535 7.20235L19.9999 7.42666C20.0019 7.4369 20.004 7.44711 20.0063 7.45728L21.1535 7.20235ZM21.0975 23.1084L22.1777 23.5713L22.1777 23.5713L21.0975 23.1084ZM20.6495 23.6404L20.1239 22.5893C20.1121 22.5952 20.1004 22.6013 20.0888 22.6076L20.6495 23.6404ZM19.3053 23.9065V22.7313C18.6562 22.7313 18.1301 23.2574 18.1301 23.9065H19.3053ZM19.3053 24.4105H18.1301C18.1301 25.0596 18.6562 25.5858 19.3053 25.5858V24.4105ZM25.6621 24.4105V25.5858C26.3112 25.5858 26.8373 25.0596 26.8373 24.4105H25.6621ZM25.6621 23.9065H26.8373C26.8373 23.2574 26.3112 22.7313 25.6621 22.7313V23.9065ZM24.2759 23.6965L23.6929 24.7168C23.7071 24.725 23.7215 24.7328 23.736 24.7403L24.2759 23.6965ZM23.7299 23.1504L22.6521 23.619C22.6577 23.6319 22.6636 23.6447 22.6696 23.6575L23.7299 23.1504ZM23.5898 14.7353L22.7321 13.9319C22.5281 14.1497 22.4146 14.4369 22.4146 14.7353H23.5898ZM27.9444 13.2371L27.2667 14.1972C27.273 14.2017 27.2794 14.2062 27.2859 14.2105L27.9444 13.2371ZM28.6305 14.2172L27.5109 14.5746C27.5132 14.5817 27.5155 14.5889 27.518 14.596L28.6305 14.2172ZM28.8125 22.8283L29.949 23.1274C29.9562 23.1002 29.9624 23.0726 29.9676 23.0449L28.8125 22.8283ZM28.3224 23.6404L29.0336 24.5761C29.0413 24.5702 29.049 24.5642 29.0566 24.5582L28.3224 23.6404ZM26.7822 23.9065V22.7313C26.1332 22.7313 25.607 23.2574 25.607 23.9065H26.7822ZM26.7822 24.4105H25.607C25.607 25.0596 26.1332 25.5858 26.7822 25.5858V24.4105ZM33.0831 24.4105V25.5858C33.7321 25.5858 34.2583 25.0596 34.2583 24.4105H33.0831ZM33.0831 23.9065H34.2583C34.2583 23.2574 33.7321 22.7313 33.0831 22.7313V23.9065ZM31.8509 23.7105L32.4431 22.6953L32.4431 22.6953L31.8509 23.7105ZM31.3748 23.1784L32.4597 22.7264C32.457 22.72 32.4543 22.7137 32.4515 22.7073L31.3748 23.1784ZM30.9128 13.6992L29.7851 14.0301L29.7861 14.0336L30.9128 13.6992ZM29.7506 11.8089L29.0349 12.7411L29.0349 12.7411L29.7506 11.8089ZM26.0542 11.6969L26.5989 12.7384L26.6113 12.7317L26.0542 11.6969ZM37.1741 20.9512L36.284 21.7185L36.284 21.7185L37.1741 20.9512ZM35.7879 16.4706V15.2954C35.1411 15.2954 34.6159 15.818 34.6127 16.4649L35.7879 16.4706ZM42.6488 21.8893L43.3494 22.8329L43.3517 22.8312L42.6488 21.8893ZM44.217 19.509L44.8541 18.5215C44.5554 18.3287 44.1854 18.2816 43.8478 18.3933C43.5103 18.5049 43.2414 18.7634 43.1166 19.0963L44.217 19.509ZM44.6511 19.789L45.8127 19.9671C45.8829 19.5091 45.6775 19.0527 45.2882 18.8015L44.6511 19.789ZM42.9428 23.2895L43.8156 24.0765L43.8191 24.0727L42.9428 23.2895ZM35.4379 23.0655L34.5673 23.855L34.5738 23.862L35.4379 23.0655ZM35.4799 13.0962L34.6136 12.302L34.6133 12.3023L35.4799 13.0962ZM43.2649 12.6761L42.4215 13.4947L42.4256 13.4988L43.2649 12.6761ZM44.6511 16.4706V17.6458C45.3001 17.6458 45.8263 17.1197 45.8263 16.4706H44.6511ZM41.7247 15.6585V16.8337C42.048 16.8337 42.3569 16.7006 42.5789 16.4656C42.801 16.2306 42.9164 15.9146 42.898 15.5918L41.7247 15.6585ZM35.7879 15.6585L34.618 15.5466C34.5865 15.8763 34.6955 16.2039 34.9182 16.449C35.141 16.694 35.4568 16.8337 35.7879 16.8337V15.6585ZM41.4306 13.9223L42.5046 13.445L42.5038 13.4432L41.4306 13.9223ZM40.3805 12.6901L39.7379 13.6742L39.747 13.68L40.3805 12.6901ZM36.8521 13.1522L37.6766 13.9896L37.6767 13.9895L36.8521 13.1522ZM61.5467 18.0542L62.6301 17.5987C62.4467 17.1626 62.0198 16.879 61.5467 16.879V18.0542ZM54.1958 18.0542V16.879C53.7261 16.879 53.3016 17.1586 53.1161 17.5901L54.1958 18.0542ZM62.6949 20.7846L61.6115 21.2401L61.6117 21.2406L62.6949 20.7846ZM62.8489 23.5149L62.1186 22.5941C62.1133 22.5983 62.1081 22.6025 62.1029 22.6068L62.8489 23.5149ZM61.3227 23.893L61.2647 22.7192C60.639 22.7501 60.1475 23.2664 60.1475 23.893H61.3227ZM61.3227 24.411H60.1475C60.1475 25.0601 60.6736 25.5863 61.3227 25.5863V24.411ZM68.8136 24.411V25.5863C69.4627 25.5863 69.9889 25.0601 69.9889 24.411H68.8136ZM68.8136 24.4105V23.2353C68.1646 23.2353 67.6384 23.7615 67.6384 24.4105H68.8136ZM73.6916 24.4105V25.5858C74.3406 25.5858 74.8668 25.0596 74.8668 24.4105H73.6916ZM73.6916 23.9065H74.8668C74.8668 23.2574 74.3406 22.7313 73.6916 22.7313V23.9065ZM72.3614 23.6544L72.9241 22.6227L72.9241 22.6227L72.3614 23.6544ZM71.7173 23.0244L72.7762 22.5145L72.7738 22.5097L71.7173 23.0244ZM71.4513 15.2674L70.4046 14.7329C70.3201 14.8984 70.276 15.0816 70.276 15.2674H71.4513ZM72.7534 13.3771L73.5449 14.2459C73.5513 14.24 73.5577 14.2341 73.5639 14.2282L72.7534 13.3771ZM74.1956 13.5872L73.4537 14.4986C73.4614 14.5049 73.4692 14.511 73.477 14.5171L74.1956 13.5872ZM76.1699 13.6852L75.3233 12.87L75.3233 12.87L76.1699 13.6852ZM76.5236 12.9404V11.7652C75.928 11.7652 75.4266 12.2107 75.3565 12.8021L76.5236 12.9404ZM78.358 12.9404H79.5333C79.5333 12.2914 79.0071 11.7652 78.358 11.7652V12.9404ZM78.6521 23.6238L77.5754 24.0948L77.5791 24.1032L78.6521 23.6238ZM79.5622 24.6459L78.9643 25.6577C78.9701 25.6611 78.9758 25.6644 78.9816 25.6677L79.5622 24.6459ZM82.6706 24.3099L83.3851 25.2431L83.3941 25.236L82.6706 24.3099ZM84.0568 22.2376L85.1635 22.6329C85.2921 22.273 85.2376 21.873 85.0174 21.5606C84.7973 21.2482 84.439 21.0624 84.0568 21.0624V22.2376ZM83.5107 22.2376V21.0624C83.0393 21.0624 82.6135 21.3441 82.4291 21.7779L83.5107 22.2376ZM82.8386 23.0917L83.4758 24.0793C83.4831 24.0745 83.4905 24.0696 83.4978 24.0647L82.8386 23.0917ZM81.0184 22.9377L80.1036 23.6754C80.1083 23.6813 80.1131 23.6871 80.1179 23.6929L81.0184 22.9377ZM80.6683 12.9404V11.7652C80.0193 11.7652 79.4931 12.2914 79.4931 12.9404H80.6683ZM83.6647 12.9404V14.1156C84.3138 14.1156 84.84 13.5895 84.84 12.9404H83.6647ZM83.6647 11.9603H84.84C84.84 11.3112 84.3138 10.7851 83.6647 10.7851V11.9603ZM80.6683 11.9603H79.4931C79.4931 12.6094 80.0193 13.1355 80.6683 13.1355V11.9603ZM80.6683 7.74575H81.8436C81.8436 7.09669 81.3174 6.57052 80.6683 6.57052V7.74575ZM80.2343 7.74575V6.57052C79.7559 6.57052 79.3253 6.86047 79.1454 7.30371L80.2343 7.74575ZM79.3382 9.692L80.3348 10.3149C80.3377 10.3101 80.3407 10.3053 80.3436 10.3005L79.3382 9.692ZM77.896 11.4422L78.688 12.3104L78.6888 12.3098L77.896 11.4422ZM76.4896 12.4091L75.3527 12.7071C75.4406 13.0425 75.6721 13.3219 75.9852 13.4707C76.2984 13.6194 76.6612 13.6224 76.9767 13.4787L76.4896 12.4091ZM76.0298 11.6829L75.2229 12.5373C75.2271 12.5413 75.2314 12.5453 75.2357 12.5493L76.0298 11.6829ZM71.4513 14.0912H70.276C70.276 14.6263 70.6375 15.0938 71.1553 15.2286C71.6731 15.3633 72.2166 15.1313 72.4774 14.6641L71.4513 14.0912ZM71.4513 11.2069H72.6265C72.6265 10.5578 72.1003 10.0316 71.4513 10.0316V11.2069ZM70.8632 11.2069V10.0316C70.7122 10.0316 70.5626 10.0607 70.4227 10.1173L70.8632 11.2069ZM66.9847 12.7751L66.5442 11.6855C65.9901 11.9095 65.6924 12.5137 65.8523 13.0896L66.9847 12.7751ZM67.1247 13.2791L65.9924 13.5937C66.081 13.9129 66.3003 14.1799 66.5963 14.3289C66.8923 14.4778 67.2373 14.495 67.5466 14.376L67.1247 13.2791ZM68.7069 13.2651L67.9598 14.1723C67.9682 14.1793 67.9768 14.1861 67.9854 14.1928L68.7069 13.2651ZM69.043 13.8952L67.8891 14.1185C67.892 14.1332 67.8951 14.1477 67.8985 14.1623L69.043 13.8952ZM69.071 22.8844L67.9434 22.5528L67.9409 22.5615L69.071 22.8844ZM68.5809 23.5984L67.9474 22.6086L67.9424 22.6118L68.5809 23.5984ZM68.1155 23.7966L67.8538 24.9423C68.0416 24.9852 68.2369 24.9813 68.4228 24.931L68.1155 23.7966ZM66.9934 23.2629L66.2115 24.1402C66.2181 24.1462 66.2249 24.1521 66.2317 24.1579L66.9934 23.2629ZM65.5512 20.7846L64.4671 21.2382L64.4673 21.2388L65.5512 20.7846ZM58.9424 4.99055L60.0265 4.5369C59.8436 4.09983 59.4162 3.81532 58.9424 3.81532V4.99055ZM58.4523 4.99055V3.81532C57.9818 3.81532 57.5566 4.09598 57.3717 4.52866L58.4523 4.99055ZM51.7735 20.6166L50.6928 20.1547L50.6906 20.1598L51.7735 20.6166ZM50.1913 23.3469L49.3858 22.4911L49.3774 22.4991L50.1913 23.3469ZM48.6511 23.893L48.4468 22.7356C47.8852 22.8347 47.4758 23.3227 47.4758 23.893H48.6511ZM48.6511 24.411H47.4758C47.4758 25.0601 48.002 25.5863 48.6511 25.5863V24.411ZM54.6298 24.411V25.5863C55.2789 25.5863 55.8051 25.0601 55.8051 24.411H54.6298ZM54.6298 23.893H55.8051C55.8051 23.2764 55.3286 22.7647 54.7136 22.7207L54.6298 23.893ZM52.8376 23.4729L52.0883 24.3783C52.0996 24.3876 52.111 24.3967 52.1226 24.4056L52.8376 23.4729ZM52.9076 21.0506L53.9871 21.5152L53.9873 21.5148L52.9076 21.0506ZM61.1547 17.0181V18.1933C61.5481 18.1933 61.9155 17.9964 62.1334 17.6687C62.3512 17.341 62.3906 16.9261 62.2383 16.5633L61.1547 17.0181ZM57.9343 9.34511L59.0179 8.89029C58.8355 8.45566 58.4111 8.17207 57.9397 8.16989C57.4684 8.1677 57.0413 8.44734 56.8549 8.88026L57.9343 9.34511ZM54.6298 17.0181L53.5504 16.5532C53.394 16.9164 53.4307 17.3339 53.6481 17.6642C53.8655 17.9945 54.2344 18.1933 54.6298 18.1933V17.0181ZM88.5144 4.92005L87.6694 5.73686C87.6786 5.74641 87.688 5.7558 87.6976 5.76503L88.5144 4.92005ZM88.5144 6.92231L87.6834 6.09129C87.6787 6.09599 87.674 6.10073 87.6694 6.1055L88.5144 6.92231ZM86.5121 6.92231L87.3432 6.09131L87.3432 6.09129L86.5121 6.92231ZM86.4981 4.92005L85.6671 4.08904L85.6671 4.08904L86.4981 4.92005ZM88.6824 11.2069H89.8577C89.8577 10.5578 89.3315 10.0316 88.6824 10.0316V11.2069ZM88.8504 23.1224L87.7645 23.5717C87.7708 23.5871 87.7775 23.6023 87.7845 23.6173L88.8504 23.1224ZM89.3685 23.7105L88.7763 24.7256C88.7823 24.7291 88.7883 24.7325 88.7943 24.7358L89.3685 23.7105ZM90.6287 23.9065H91.8039C91.8039 23.2574 91.2777 22.7313 90.6287 22.7313V23.9065ZM90.6287 24.4105V25.5858C91.2777 25.5858 91.8039 25.0596 91.8039 24.4105H90.6287ZM84.3979 24.4105H83.2226C83.2226 25.0596 83.7488 25.5858 84.3979 25.5858V24.4105ZM84.3979 23.9065V22.7313C83.7488 22.7313 83.2226 23.2574 83.2226 23.9065H84.3979ZM85.658 23.7245L86.2363 24.7476L86.2363 24.7476L85.658 23.7245ZM86.1621 23.1224L85.0971 22.6254C85.0925 22.6352 85.0881 22.6451 85.0838 22.6551L86.1621 23.1224ZM86.2321 13.8672L87.3835 13.6317C87.3824 13.6265 87.3813 13.6213 87.3802 13.616L86.2321 13.8672ZM85.9241 13.2511L85.1544 14.1392C85.166 14.1493 85.1779 14.1592 85.1899 14.1688L85.9241 13.2511ZM84.3979 13.2791L83.3026 13.7051C83.5358 14.3048 84.208 14.6055 84.8105 14.3795L84.3979 13.2791ZM84.2018 12.7751L83.7599 11.6861C83.1647 11.9276 82.8737 12.6023 83.1065 13.201L84.2018 12.7751ZM88.0663 11.2069V10.0316C87.9149 10.0316 87.7648 10.0609 87.6244 10.1179L88.0663 11.2069ZM99.5906 11.2479H100.766C100.766 10.5989 100.24 10.0727 99.5906 10.0727V11.2479ZM99.5906 15.6165V16.7917C100.24 16.7917 100.766 16.2656 100.766 15.6165H99.5906ZM99.1285 11.2479V10.0727C98.6834 10.0727 98.2764 10.3242 98.0774 10.7224L99.1285 11.2479ZM98.8345 11.682L98.113 10.7543L98.113 10.7543L98.8345 11.682ZM97.5323 11.57L97.196 12.6961L97.2007 12.6975L97.5323 11.57ZM92.8837 12.3121L92.0636 11.4703L92.0582 11.4757L92.8837 12.3121ZM92.4357 16.9747L93.3642 16.2542L93.3581 16.2465L92.4357 16.9747ZM95.096 18.7949L95.6187 17.7423L95.6187 17.7423L95.096 18.7949ZM97.7984 20.4611L96.9761 21.3009L96.9848 21.3093L97.7984 20.4611ZM97.8684 23.4575L98.6688 24.318L98.6696 24.3173L97.8684 23.4575ZM93.8219 23.0235L93.0363 23.8975L93.0363 23.8975L93.8219 23.0235ZM92.3237 20.0691L93.4761 19.8386C93.3662 19.2893 92.8839 18.8938 92.3237 18.8938V20.0691ZM91.8616 20.0691V18.8938C91.2125 18.8938 90.6864 19.42 90.6864 20.0691H91.8616ZM91.8616 24.6477H90.6864C90.6864 25.2967 91.2125 25.8229 91.8616 25.8229V24.6477ZM92.3237 24.6477V25.8229C92.7688 25.8229 93.1757 25.5714 93.3748 25.1733L92.3237 24.6477ZM93.5838 24.4236L93.243 25.5484C93.2517 25.551 93.2605 25.5535 93.2693 25.556L93.5838 24.4236ZM99.2265 23.7795L99.9654 24.6934L99.9666 24.6925L99.2265 23.7795ZM97.7144 17.2967L98.2295 16.2404L98.2283 16.2398L97.7144 17.2967ZM95.6701 16.3026L96.1841 15.2457L96.1823 15.2448L95.6701 16.3026ZM93.9059 15.0844L94.8433 14.3756C94.8368 14.3671 94.8303 14.3586 94.8236 14.3503L93.9059 15.0844ZM94.0599 12.5921L94.8264 13.483L94.8264 13.483L94.0599 12.5921ZM97.7564 12.8161L96.971 13.6905L96.9783 13.6969L97.7564 12.8161ZM99.1285 15.6165L97.9907 15.9106C98.1248 16.4294 98.5928 16.7917 99.1285 16.7917V15.6165ZM105.313 11.9599H104.138C104.138 12.6089 104.664 13.1351 105.313 13.1351V11.9599ZM105.313 7.74533H106.488C106.488 7.09627 105.962 6.5701 105.313 6.5701V7.74533ZM108.31 11.9599H109.485C109.485 11.3108 108.959 10.7846 108.31 10.7846V11.9599ZM108.31 12.94V14.1152C108.959 14.1152 109.485 13.5891 109.485 12.94H108.31ZM105.313 12.94V11.7648C104.664 11.7648 104.138 12.2909 104.138 12.94H105.313ZM105.663 22.9373L104.748 23.675C104.753 23.6809 104.758 23.6867 104.763 23.6925L105.663 22.9373ZM107.483 23.0913L108.121 24.0788C108.128 24.0741 108.135 24.0692 108.143 24.0643L107.483 23.0913ZM108.156 22.2372V21.0619C107.684 21.0619 107.258 21.3436 107.074 21.7775L108.156 22.2372ZM108.702 22.2372L109.808 22.6325C109.937 22.2725 109.882 21.8726 109.662 21.5602C109.442 21.2478 109.084 21.0619 108.702 21.0619V22.2372ZM107.315 24.3094L108.03 25.2426L108.039 25.2356L107.315 24.3094ZM104.207 24.6455L103.609 25.6573C103.615 25.6607 103.621 25.664 103.626 25.6673L104.207 24.6455ZM103.297 23.6234L102.22 24.0944L102.224 24.1028L103.297 23.6234ZM103.003 12.94H104.178C104.178 12.2909 103.652 11.7648 103.003 11.7648V12.94ZM100.973 12.94H99.7974C99.7974 13.5891 100.324 14.1152 100.973 14.1152V12.94ZM100.973 12.4779L100.536 11.3868C100.09 11.5652 99.7974 11.9974 99.7974 12.4779H100.973ZM102.541 11.4418L103.333 12.31L103.334 12.3094L102.541 11.4418ZM103.983 9.69158L104.98 10.3144C104.983 10.3097 104.985 10.3049 104.988 10.3001L103.983 9.69158ZM104.879 7.74533V6.5701C104.401 6.5701 103.97 6.86005 103.79 7.30329L104.879 7.74533ZM117.661 11.2481H118.837C118.837 10.599 118.31 10.0729 117.661 10.0729V11.2481ZM117.661 15.6167V16.7919C118.31 16.7919 118.837 16.2657 118.837 15.6167H117.661ZM117.199 11.2481V10.0729C116.754 10.0729 116.347 10.3244 116.148 10.7225L117.199 11.2481ZM116.905 11.6822L117.627 12.6098L117.627 12.6098L116.905 11.6822ZM115.603 11.5701L115.267 12.6962L115.272 12.6976L115.603 11.5701ZM110.955 12.3122L110.134 11.4705L110.129 11.4758L110.955 12.3122ZM110.507 16.9748L111.435 16.2544L111.429 16.2466L110.507 16.9748ZM113.167 18.7951L113.69 17.7425L113.69 17.7425L113.167 18.7951ZM115.869 20.4613L115.047 21.301L115.056 21.3094L115.869 20.4613ZM115.939 23.4577L116.74 24.3181L116.74 24.3175L115.939 23.4577ZM111.893 23.0236L111.107 23.8977L111.107 23.8977L111.893 23.0236ZM110.394 20.0692L111.547 19.8387C111.437 19.2894 110.955 18.894 110.394 18.894V20.0692ZM109.932 20.0692V18.894C109.283 18.894 108.757 19.4202 108.757 20.0692H109.932ZM109.932 24.6478H108.757C108.757 25.2969 109.283 25.823 109.932 25.823V24.6478ZM110.394 24.6478V25.823C110.84 25.823 111.247 25.5715 111.446 25.1734L110.394 24.6478ZM111.655 24.4238L111.314 25.5485C111.323 25.5512 111.331 25.5537 111.34 25.5561L111.655 24.4238ZM117.297 23.7797L118.036 24.6936L118.037 24.6927L117.297 23.7797ZM115.785 17.2969L116.3 16.2406L116.299 16.24L115.785 17.2969ZM113.741 16.3027L114.255 15.2459L114.253 15.245L113.741 16.3027ZM111.977 15.0846L112.914 14.3758C112.908 14.3672 112.901 14.3588 112.894 14.3504L111.977 15.0846ZM112.131 12.5923L112.897 13.4831L112.897 13.4831L112.131 12.5923ZM115.827 12.8163L115.042 13.6906L115.049 13.6971L115.827 12.8163ZM117.199 15.6167L116.062 15.9108C116.196 16.4295 116.664 16.7919 117.199 16.7919V15.6167ZM126.88 4.38983C127.452 4.06263 127.841 3.44411 127.841 2.73324H125.49C125.49 2.56745 125.582 2.42455 125.712 2.35013L126.88 4.38983ZM127.472 5.46003V3.36998H125.121V5.46003H127.472ZM135.223 4.86385C134.024 3.58015 132.743 2.71821 131.063 2.66434C129.483 2.6137 127.771 3.29377 125.725 4.43322L126.868 6.48684C128.865 5.37485 130.092 4.9849 130.987 5.0136C131.782 5.03906 132.513 5.40583 133.505 6.46816L135.223 4.86385ZM135.539 8.96528V5.666H133.189V8.96528H135.539ZM140.159 7.54972C139.307 8.04679 138.673 8.4034 137.92 8.5291C137.211 8.64737 136.273 8.57411 134.87 7.90458L133.858 10.026C135.592 10.8531 137.02 11.0623 138.307 10.8475C139.55 10.6401 140.541 10.0481 141.344 9.57962L140.159 7.54972ZM140.757 7.20551C140.55 7.321 140.348 7.43901 140.159 7.54972L141.344 9.57962C141.536 9.46701 141.718 9.36081 141.902 9.25858L140.757 7.20551ZM142.505 18.4974V8.23204H140.154V18.4974H142.505ZM131.169 19.4906C133.052 20.6817 134.707 21.3469 136.487 21.3264C138.243 21.3063 139.94 20.6187 141.902 19.5236L140.757 17.4711C138.887 18.5144 137.614 18.9629 136.46 18.9761C135.331 18.9891 134.135 18.5852 132.426 17.5041L131.169 19.4906ZM130.622 14.3361V18.4974H132.973V14.3361H130.622ZM126.913 17.0716C129.243 15.6342 130.355 15.2191 131.542 15.4832L132.053 13.1889C129.832 12.6946 127.952 13.6693 125.679 15.0711L126.913 17.0716ZM127.472 24.364V16.0713H125.121V24.364H127.472ZM125.563 25.5392H126.296V23.1888H125.563V25.5392ZM124.388 3.36677V24.364H126.738V3.36677H124.388ZM124.024 2.73324C124.024 3.43812 124.407 4.05228 124.97 4.38148L126.156 2.35206C126.284 2.42693 126.374 2.56887 126.374 2.73324H124.024ZM125.932 0.824768C124.878 0.824768 124.024 1.67921 124.024 2.73324H126.374C126.374 2.97735 126.177 3.17523 125.932 3.17523V0.824768ZM127.841 2.73324C127.841 1.67921 126.986 0.824768 125.932 0.824768V3.17523C125.688 3.17523 125.49 2.97735 125.49 2.73324H127.841ZM19.108 9.82132L18.8979 5.36875L16.5501 5.47949L16.7601 9.93206L19.108 9.82132ZM17.402 11.0519H17.934V8.70146H17.402V11.0519ZM15.9426 8.74502C16.0162 8.88457 16.1369 9.26691 16.2367 10.0293L18.5673 9.72409C18.4617 8.91827 18.3023 8.18046 18.0213 7.64793L15.9426 8.74502ZM15.2782 8.04934C15.5278 8.17892 15.7537 8.39167 15.9454 8.75045L18.0184 7.6425C17.6314 6.91847 17.0825 6.33779 16.3613 5.96331L15.2782 8.04934ZM13.9295 7.7895C14.598 7.7895 15.0114 7.90323 15.2542 8.03651L16.3854 5.97614C15.676 5.58668 14.8293 5.43904 13.9295 5.43904V7.7895ZM11.2552 7.7895H13.9295V5.43904H11.2552V7.7895ZM12.4304 21.1201V6.61427H10.08V21.1201H12.4304ZM12.5195 22.5325C12.5794 22.6014 12.5862 22.6408 12.5695 22.5958C12.5546 22.5556 12.531 22.4753 12.5077 22.3409C12.4608 22.0696 12.4304 21.6701 12.4304 21.1201H10.08C10.08 21.737 10.1126 22.285 10.1917 22.7417C10.263 23.154 10.4006 23.6785 10.747 24.0763L12.5195 22.5325ZM13.2714 22.7172C12.7307 22.7172 12.5596 22.5766 12.5047 22.5159L10.7618 24.0929C11.4163 24.8163 12.3373 25.0677 13.2714 25.0677V22.7172ZM13.9295 22.7172H13.2714V25.0677H13.9295V22.7172ZM15.1048 24.4105V23.8925H12.7543V24.4105H15.1048ZM5.8785 25.5858H13.9295V23.2353H5.8785V25.5858ZM4.70326 23.8925V24.4105H7.05373V23.8925H4.70326ZM6.55058 22.7172H5.8785V25.0677H6.55058V22.7172ZM7.29253 22.4954C7.25008 22.5567 7.11929 22.7172 6.55058 22.7172V25.0677C7.58741 25.0677 8.59543 24.7428 9.22507 23.8333L7.29253 22.4954ZM7.39161 21.1201C7.39161 21.6214 7.36697 21.9937 7.32772 22.2542C7.28317 22.5498 7.23721 22.5759 7.29036 22.4986L9.22724 23.8302C9.48575 23.4542 9.59381 22.9902 9.65194 22.6044C9.71537 22.1835 9.74207 21.6829 9.74207 21.1201H7.39161ZM7.39161 6.61427V21.1201H9.74207V6.61427H7.39161ZM6.28455 7.7895H8.56684V5.43904H6.28455V7.7895ZM4.78254 7.91955C4.95234 7.86012 5.40697 7.7895 6.28455 7.7895V5.43904C5.38856 5.43904 4.58304 5.49911 4.00607 5.70104L4.78254 7.91955ZM4.11763 8.49671C4.35059 8.15672 4.58174 7.99304 4.79764 7.91415L3.99097 5.70644C3.23608 5.98227 2.63646 6.50001 2.17866 7.16815L4.11763 8.49671ZM3.70391 9.96585C3.75966 9.23321 3.92739 8.77436 4.11763 8.49671L2.17866 7.16815C1.67815 7.89863 1.43516 8.80262 1.36022 9.78753L3.70391 9.96585ZM2 11.0519H2.53207V8.70146H2V11.0519ZM1.05028 5.36506L0.826253 9.81763L3.17375 9.93575L3.39778 5.48318L1.05028 5.36506ZM17.724 4.24889H2.22403V6.59935H17.724V4.24889ZM22.4146 4.5V13.8812H24.7651V4.5H22.4146ZM22.9458 5.67523H23.5898V3.32477H22.9458V5.67523ZM19.5539 7.15606L23.3904 5.58786L22.5011 3.41214L18.6646 4.98034L19.5539 7.15606ZM20.3965 6.12179L20.2004 5.63173L18.0181 6.50467L18.2141 6.99474L20.3965 6.12179ZM20.2574 5.159C19.8477 5.159 19.3661 5.29609 18.9266 5.44573L19.684 7.6708C19.881 7.60373 20.0316 7.56009 20.1415 7.53423C20.2619 7.50591 20.2899 7.50947 20.2574 7.50947V5.159ZM21.6012 5.62815C21.1886 5.27054 20.6937 5.159 20.2574 5.159V7.50947C20.2826 7.50947 20.268 7.51278 20.2278 7.50001C20.1838 7.48606 20.1225 7.45698 20.0618 7.40436L21.6012 5.62815ZM22.3072 6.97803C22.2259 6.56025 22.0485 5.99083 21.5726 5.60414L20.0904 7.42837C20.0407 7.38799 20.0077 7.34939 19.9879 7.32239C19.9684 7.29584 19.9605 7.27889 19.9602 7.27816C19.9598 7.27735 19.9648 7.28812 19.9728 7.3141C19.9807 7.33987 19.9902 7.37675 19.9999 7.42666L22.3072 6.97803ZM22.4408 9.90469C22.4408 9.16436 22.4314 8.55471 22.4118 8.08129C22.3934 7.63787 22.3637 7.23061 22.3008 6.94741L20.0063 7.45728C20.0062 7.45668 20.0071 7.46104 20.0089 7.47137C20.0107 7.48152 20.0129 7.49565 20.0154 7.51426C20.0206 7.55195 20.0263 7.60202 20.0321 7.66627C20.0438 7.79541 20.0545 7.96487 20.0633 8.17864C20.081 8.606 20.0903 9.1795 20.0903 9.90469H22.4408ZM22.4408 21.5122V9.90469H20.0903V21.5122H22.4408ZM22.1777 23.5713C22.3046 23.2754 22.3608 22.9355 22.3923 22.6363C22.4262 22.3147 22.4408 21.9365 22.4408 21.5122H20.0903C20.0903 21.8906 20.0769 22.1799 20.0548 22.3903C20.0303 22.6231 20.0025 22.68 20.0173 22.6454L22.1777 23.5713ZM21.1751 24.6916C21.6877 24.4353 21.9959 23.9955 22.1777 23.5713L20.0173 22.6454C19.997 22.6928 19.988 22.6977 20.0026 22.6804C20.0195 22.6603 20.0589 22.6218 20.1239 22.5893L21.1751 24.6916ZM19.3053 25.0817C19.9754 25.0817 20.6436 24.9809 21.2102 24.6733L20.0888 22.6076C20.0019 22.6547 19.774 22.7313 19.3053 22.7313V25.0817ZM20.4805 24.4105V23.9065H18.1301V24.4105H20.4805ZM25.6621 23.2353H19.3053V25.5858H25.6621V23.2353ZM24.4869 23.9065V24.4105H26.8373V23.9065H24.4869ZM23.736 24.7403C24.277 25.0201 24.9888 25.0817 25.6621 25.0817V22.7313C25.373 22.7313 25.1565 22.7155 25.0016 22.692C24.8372 22.6671 24.7934 22.641 24.8159 22.6526L23.736 24.7403ZM22.6696 23.6575C22.8998 24.1387 23.279 24.4804 23.6929 24.7168L24.859 22.6761C24.8041 22.6447 24.7803 22.6228 24.7744 22.6169C24.7699 22.6124 24.7794 22.621 24.7901 22.6433L22.6696 23.6575ZM22.4146 21.5122C22.4146 21.9671 22.4265 22.36 22.4539 22.6799C22.4774 22.9554 22.5213 23.3183 22.6521 23.619L24.8076 22.6818C24.8355 22.7459 24.8348 22.7707 24.8244 22.7145C24.8159 22.6685 24.8055 22.5927 24.7958 22.4797C24.7765 22.2536 24.7651 21.9347 24.7651 21.5122H22.4146ZM22.4146 14.7353V21.5122H24.7651V14.7353H22.4146ZM24.8505 12.21C24.1625 12.5475 23.4529 13.1624 22.7321 13.9319L24.4476 15.5387C25.1082 14.8334 25.5842 14.4681 25.8857 14.3202L24.8505 12.21ZM26.7963 11.7258C26.1264 11.7258 25.4737 11.9043 24.8505 12.21L25.8857 14.3202C26.2519 14.1406 26.5514 14.0763 26.7963 14.0763V11.7258ZM28.6221 12.277C28.0772 11.8923 27.4485 11.7258 26.7963 11.7258V14.0763C27.0401 14.0763 27.1768 14.1338 27.2667 14.1972L28.6221 12.277ZM29.7501 13.8599C29.5466 13.2224 29.1804 12.6543 28.6029 12.2637L27.2859 14.2105C27.3432 14.2493 27.4343 14.3347 27.5109 14.5746L29.7501 13.8599ZM30.0297 16.9756C30.0297 16.2582 30.0107 15.6438 29.9699 15.1407C29.9308 14.6598 29.8664 14.2009 29.743 13.8385L27.518 14.596C27.5439 14.6723 27.5915 14.8925 27.6271 15.331C27.661 15.7474 27.6793 16.2928 27.6793 16.9756H30.0297ZM30.0297 21.5122V16.9756H27.6793V21.5122H30.0297ZM29.9676 23.0449C30.0009 22.8675 30.0121 22.6314 30.0186 22.4248C30.0262 22.1875 30.0297 21.8818 30.0297 21.5122H27.6793C27.6793 21.8707 27.6758 22.1484 27.6694 22.3498C27.6662 22.4507 27.6624 22.5257 27.6586 22.5783C27.6542 22.6404 27.6517 22.642 27.6574 22.6118L29.9676 23.0449ZM29.0566 24.5582C29.5283 24.1808 29.8064 23.6696 29.949 23.1274L27.676 22.5293C27.6534 22.6151 27.6291 22.6647 27.6138 22.6902C27.5996 22.7138 27.5905 22.721 27.5883 22.7227L29.0566 24.5582ZM27.0763 25.0817C27.7093 25.0817 28.4708 25.0038 29.0336 24.5761L27.6113 22.7048C27.6798 22.6527 27.6993 22.6674 27.5905 22.6906C27.4886 22.7124 27.323 22.7313 27.0763 22.7313V25.0817ZM26.7822 25.0817H27.0763V22.7313H26.7822V25.0817ZM27.9575 24.4105V23.9065H25.607V24.4105H27.9575ZM33.0831 23.2353H26.7822V25.5858H33.0831V23.2353ZM31.9078 23.9065V24.4105H34.2583V23.9065H31.9078ZM31.2587 24.7256C31.5492 24.895 31.8695 24.9747 32.1423 25.0181C32.4288 25.0637 32.7468 25.0817 33.0831 25.0817V22.7313C32.8219 22.7313 32.6359 22.7166 32.5116 22.6968C32.3737 22.6749 32.3766 22.6565 32.4431 22.6953L31.2587 24.7256ZM30.29 23.6304C30.4888 24.1075 30.8297 24.4753 31.2587 24.7256L32.4431 22.6953C32.4349 22.6906 32.4317 22.6879 32.432 22.6882C32.4324 22.6885 32.4354 22.691 32.4397 22.6958C32.4441 22.7007 32.4485 22.7065 32.4524 22.7127C32.4563 22.7189 32.4586 22.7238 32.4597 22.7264L30.29 23.6304ZM30.0036 21.5122C30.0036 22.3136 30.0575 23.0995 30.2981 23.6494L32.4515 22.7073C32.4542 22.7135 32.4223 22.6328 32.395 22.4005C32.3695 22.1837 32.354 21.8909 32.354 21.5122H30.0036ZM30.0036 16.9756V21.5122H32.354V16.9756H30.0036ZM29.7861 14.0336C29.909 14.4474 30.0036 15.38 30.0036 16.9756H32.354C32.354 15.3974 32.2713 14.1458 32.0394 13.3647L29.7861 14.0336ZM29.0349 12.7411C29.3003 12.9449 29.5785 13.3262 29.7851 14.0301L32.0405 13.3682C31.743 12.3546 31.2464 11.4757 30.4664 10.8768L29.0349 12.7411ZM27.8744 12.3821C28.3723 12.3821 28.7391 12.5139 29.0349 12.7411L30.4664 10.8768C29.7167 10.3012 28.8327 10.0316 27.8744 10.0316V12.3821ZM26.6113 12.7317C27.0704 12.4845 27.4872 12.3821 27.8744 12.3821V10.0316C27.0481 10.0316 26.2514 10.2559 25.497 10.6622L26.6113 12.7317ZM24.4591 14.6721C25.4893 13.5399 26.1915 12.9514 26.5989 12.7383L25.5094 10.6555C24.7033 11.0772 23.7627 11.9449 22.7206 13.0903L24.4591 14.6721ZM38.0642 20.1838C37.37 19.3785 36.9547 18.1923 36.9631 16.4764L34.6127 16.4649C34.6025 18.5574 35.1113 20.3582 36.284 21.7185L38.0642 20.1838ZM40.4645 21.4002C39.5945 21.4002 38.8079 21.0465 38.0642 20.1838L36.284 21.7185C37.4072 23.0215 38.8143 23.7506 40.4645 23.7506V21.4002ZM41.9482 20.9457C41.5542 21.2383 41.0776 21.4002 40.4645 21.4002V23.7506C41.5317 23.7506 42.5113 23.4551 43.3494 22.8329L41.9482 20.9457ZM43.1166 19.0963C42.7366 20.1098 42.3187 20.6693 41.9459 20.9474L43.3517 22.8312C44.2298 22.1759 44.8573 21.1485 45.3174 19.9217L43.1166 19.0963ZM45.2882 18.8015L44.8541 18.5215L43.5799 20.4965L44.0139 20.7766L45.2882 18.8015ZM43.8191 24.0727C44.8989 22.8646 45.579 21.492 45.8127 19.9671L43.4894 19.611C43.3311 20.6438 42.8724 21.6048 42.0666 22.5063L43.8191 24.0727ZM39.4004 26.0329C41.149 26.0329 42.648 25.3713 43.8156 24.0765L42.0701 22.5024C41.3521 23.2986 40.4895 23.6825 39.4004 23.6825V26.0329ZM34.5738 23.862C35.884 25.2832 37.5121 26.0329 39.4004 26.0329V23.6825C38.2083 23.6825 37.1947 23.2373 36.302 22.2689L34.5738 23.862ZM32.6244 18.2208C32.6244 20.4635 33.2341 22.385 34.5674 23.855L36.3084 22.2759C35.4574 21.3376 34.9749 20.0294 34.9749 18.2208H32.6244ZM34.6133 12.3023C33.2376 13.8041 32.6244 15.8303 32.6244 18.2208H34.9749C34.9749 16.2241 35.4819 14.8339 36.3465 13.89L34.6133 12.3023ZM39.7224 10.0727C37.7003 10.0727 35.9698 10.8226 34.6136 12.302L36.3462 13.8903C37.249 12.9055 38.3468 12.4232 39.7224 12.4232V10.0727ZM44.1082 11.8576C42.9431 10.6572 41.4483 10.0727 39.7224 10.0727V12.4232C40.8716 12.4232 41.7384 12.7908 42.4216 13.4946L44.1082 11.8576ZM45.8263 16.4706C45.8263 14.6424 45.2859 13.0591 44.1042 11.8535L42.4256 13.4988C43.0921 14.1787 43.4758 15.1251 43.4758 16.4706H45.8263ZM35.7879 17.6458H44.6511V15.2954H35.7879V17.6458ZM41.7247 14.4833H35.7879V16.8337H41.7247V14.4833ZM40.3567 14.3996C40.4119 14.5238 40.5052 14.9135 40.5513 15.7252L42.898 15.5918C42.8508 14.7606 42.7481 13.9928 42.5046 13.445L40.3567 14.3996ZM39.747 13.68C40.0138 13.8507 40.2144 14.0808 40.3575 14.4014L42.5038 13.4432C42.1802 12.7183 41.6807 12.1269 41.014 11.7003L39.747 13.68ZM38.9383 13.4173C39.195 13.4173 39.4549 13.4893 39.7379 13.6741L41.0231 11.7061C40.3913 11.2936 39.6898 11.0668 38.9383 11.0668V13.4173ZM37.6767 13.9895C38.1008 13.5719 38.5092 13.4173 38.9383 13.4173V11.0668C37.818 11.0668 36.8355 11.519 36.0274 12.3149L37.6767 13.9895ZM36.9578 15.7704C37.0414 14.8968 37.3144 14.3462 37.6766 13.9896L36.0275 12.3148C35.1762 13.153 34.7398 14.2733 34.618 15.5466L36.9578 15.7704ZM61.5467 16.879H54.1958V19.2295H61.5467V16.879ZM63.7782 20.329L62.6301 17.5987L60.4634 18.5098L61.6115 21.2401L63.7782 20.329ZM64.4302 22.7308C64.4302 22.0601 64.152 21.2167 63.778 20.3285L61.6117 21.2406C61.9845 22.126 62.0797 22.5801 62.0797 22.7308H64.4302ZM63.5792 24.4357C64.0921 24.0289 64.4302 23.4444 64.4302 22.7308H62.0797C62.0797 22.7211 62.0809 22.7037 62.0862 22.6813C62.0916 22.6587 62.0998 22.6367 62.1098 22.6174C62.1307 22.5772 62.1462 22.5722 62.1186 22.5941L63.5792 24.4357ZM61.3807 25.0668C61.8042 25.0459 62.2014 24.9985 62.5539 24.9112C62.894 24.827 63.275 24.6858 63.5949 24.4231L62.1029 22.6068C62.1614 22.5588 62.1574 22.5879 61.9887 22.6297C61.8325 22.6684 61.5973 22.7027 61.2647 22.7192L61.3807 25.0668ZM62.4979 24.411V23.893H60.1475V24.411H62.4979ZM68.8136 23.2358H61.3227V25.5863H68.8136V23.2358ZM67.6384 24.4105V24.411H69.9889V24.4105H67.6384ZM73.6916 23.2353H68.8136V25.5858H73.6916V23.2353ZM72.5163 23.9065V24.4105H74.8668V23.9065H72.5163ZM71.7986 24.6862C72.357 24.9908 73.0294 25.0817 73.6916 25.0817V22.7313C73.1962 22.7313 72.9818 22.6542 72.9241 22.6227L71.7986 24.6862ZM70.6584 23.5342C70.9109 24.0586 71.3301 24.4306 71.7986 24.6862L72.9241 22.6227C72.8494 22.5819 72.8097 22.5489 72.7912 22.5308C72.7742 22.5142 72.7734 22.5087 72.7762 22.5145L70.6584 23.5342ZM70.276 21.4142C70.276 22.187 70.3671 22.9362 70.6608 23.5391L72.7738 22.5097C72.7128 22.3845 72.6265 22.0602 72.6265 21.4142H70.276ZM70.276 15.2674V21.4142H72.6265V15.2674H70.276ZM71.9619 12.5084C71.3877 13.0316 70.8769 13.808 70.4046 14.7329L72.4979 15.8018C72.9218 14.9718 73.279 14.4881 73.5449 14.2459L71.9619 12.5084ZM73.2995 11.9219C72.6908 11.9219 72.2303 12.2525 71.9429 12.5261L73.5639 14.2282C73.605 14.189 73.6089 14.1946 73.5732 14.2129C73.5339 14.233 73.4383 14.2723 73.2995 14.2723V11.9219ZM74.9375 12.6757C74.7067 12.4878 74.4701 12.3174 74.2344 12.1885C74.0227 12.0727 73.6907 11.9219 73.2995 11.9219V14.2723C73.1898 14.2723 73.1177 14.2504 73.0973 14.2437C73.0747 14.2362 73.0766 14.2343 73.1067 14.2507C73.1697 14.2852 73.2831 14.3598 73.4537 14.4986L74.9375 12.6757ZM75.3018 12.888C75.3302 12.888 75.315 12.8949 75.2448 12.8647C75.173 12.8338 75.063 12.7722 74.9142 12.6572L73.477 14.5171C73.9806 14.9062 74.6014 15.2385 75.3018 15.2385V12.888ZM75.3233 12.87C75.3098 12.8841 75.3012 12.8906 75.2984 12.8925C75.2958 12.8944 75.297 12.8932 75.3016 12.8912C75.3062 12.8892 75.3105 12.888 75.3129 12.8875C75.3151 12.8871 75.312 12.888 75.3018 12.888V15.2385C75.9716 15.2385 76.5624 14.9718 77.0164 14.5004L75.3233 12.87ZM75.3565 12.8021C75.3538 12.8253 75.3494 12.8348 75.348 12.8377C75.3466 12.8406 75.3414 12.8512 75.3233 12.87L77.0164 14.5004C77.3947 14.1075 77.6262 13.6221 77.6906 13.0788L75.3565 12.8021ZM78.358 11.7652H76.5236V14.1156H78.358V11.7652ZM79.5333 21.5655V12.9404H77.1828V21.5655H79.5333ZM79.7288 23.1527C79.6326 22.933 79.5333 22.4462 79.5333 21.5655H77.1828C77.1828 22.5331 77.2795 23.4185 77.5754 24.0948L79.7288 23.1527ZM80.1601 23.6341C79.9607 23.5163 79.8225 23.3624 79.7251 23.1443L77.5791 24.1032C77.8737 24.7626 78.3423 25.2901 78.9643 25.6577L80.1601 23.6341ZM80.8224 23.8207C80.6165 23.8207 80.3947 23.7672 80.1428 23.6241L78.9816 25.6677C79.5511 25.9913 80.1695 26.1712 80.8224 26.1712V23.8207ZM81.9562 23.3767C81.5245 23.7072 81.1533 23.8207 80.8224 23.8207V26.1712C81.7609 26.1712 82.6219 25.8273 83.385 25.243L81.9562 23.3767ZM82.95 21.8423C82.6774 22.6057 82.3259 23.0878 81.9471 23.3838L83.3941 25.236C84.2101 24.5985 84.7828 23.699 85.1635 22.6329L82.95 21.8423ZM83.5107 23.4128H84.0568V21.0624H83.5107V23.4128ZM83.4978 24.0647C84.003 23.7225 84.3597 23.2447 84.5923 22.6973L82.4291 21.7779C82.3444 21.9773 82.253 22.0689 82.1795 22.1187L83.4978 24.0647ZM81.9425 24.547C82.5026 24.547 83.0196 24.3735 83.4758 24.0793L82.2015 22.1042C82.0789 22.1833 81.9985 22.1965 81.9425 22.1965V24.547ZM80.1179 23.6929C80.581 24.245 81.217 24.547 81.9425 24.547V22.1965C81.9253 22.1965 81.9182 22.1949 81.9188 22.195C81.9198 22.1952 81.9246 22.1964 81.9311 22.1995C81.9375 22.2025 81.9408 22.2051 81.9401 22.2046C81.9392 22.2038 81.9317 22.1978 81.9188 22.1825L80.1179 23.6929ZM79.4931 21.2575C79.4931 21.7207 79.525 22.1548 79.6053 22.5403C79.6831 22.9135 79.8237 23.3284 80.1036 23.6754L81.9332 22.1999C81.9797 22.2576 81.9453 22.2478 81.9064 22.0609C81.87 21.8863 81.8436 21.625 81.8436 21.2575H79.4931ZM79.4931 12.9404V21.2575H81.8436V12.9404H79.4931ZM83.6647 11.7652H80.6683V14.1156H83.6647V11.7652ZM82.4895 11.9603V12.9404H84.84V11.9603H82.4895ZM80.6683 13.1355H83.6647V10.7851H80.6683V13.1355ZM79.4931 7.74575V11.9603H81.8436V7.74575H79.4931ZM80.2343 8.92098H80.6683V6.57052H80.2343V8.92098ZM80.3436 10.3005C80.612 9.85711 80.9411 9.12923 81.3232 8.1878L79.1454 7.30371C78.7621 8.24785 78.4938 8.81747 78.3328 9.08345L80.3436 10.3005ZM78.6888 12.3098C79.315 11.7376 79.8627 11.0701 80.3348 10.3149L78.3416 9.06913C77.9735 9.65803 77.5598 10.1574 77.1032 10.5747L78.6888 12.3098ZM76.9767 13.4787C77.5751 13.2061 78.1446 12.8062 78.688 12.3104L77.1039 10.574C76.6948 10.9472 76.3267 11.1919 76.0025 11.3396L76.9767 13.4787ZM75.2357 12.5493C75.3328 12.6382 75.3486 12.6912 75.3527 12.7071L77.6264 12.1112C77.4904 11.5921 77.1996 11.161 76.824 10.8166L75.2357 12.5493ZM74.7557 12.3821C75.0051 12.3821 75.1299 12.4495 75.2229 12.5373L76.8368 10.8285C76.2577 10.2816 75.5331 10.0316 74.7557 10.0316V12.3821ZM72.4774 14.6641C73.534 12.7714 74.3358 12.3821 74.7557 12.3821V10.0316C72.9167 10.0316 71.5154 11.5652 70.4251 13.5184L72.4774 14.6641ZM70.276 11.2069V14.0912H72.6265V11.2069H70.276ZM70.8632 12.3821H71.4513V10.0316H70.8632V12.3821ZM67.4252 13.8646L71.3037 12.2964L70.4227 10.1173L66.5442 11.6855L67.4252 13.8646ZM68.2571 12.9646L68.1171 12.4605L65.8523 13.0896L65.9924 13.5937L68.2571 12.9646ZM68.1048 11.8939C67.6306 11.8939 67.1576 12.0073 66.7028 12.1822L67.5466 14.376C67.8199 14.2709 68.0003 14.2443 68.1048 14.2443V11.8939ZM69.454 12.3579C69.0483 12.0238 68.5686 11.8939 68.1048 11.8939V14.2443C68.1208 14.2443 68.1068 14.2464 68.0735 14.2356C68.0379 14.224 67.997 14.2029 67.9598 14.1723L69.454 12.3579ZM70.1968 13.6719C70.1075 13.2105 69.8945 12.7 69.4284 12.3374L67.9854 14.1928C67.9245 14.1454 67.8924 14.0971 67.88 14.0737C67.8695 14.054 67.8783 14.0627 67.8891 14.1185L70.1968 13.6719ZM70.3162 16.5555C70.3162 15.8026 70.308 15.1913 70.2909 14.727C70.2754 14.3054 70.2504 13.8978 70.1874 13.6281L67.8985 14.1623C67.8945 14.1452 67.9034 14.1828 67.9147 14.3174C67.9249 14.4381 67.9342 14.602 67.942 14.8136C67.9576 15.2361 67.9657 15.8149 67.9657 16.5555H70.3162ZM70.3162 21.5262V16.5555H67.9657V21.5262H70.3162ZM70.1984 23.2159C70.2664 22.9848 70.2862 22.6982 70.2971 22.4863C70.3103 22.2311 70.3162 21.9087 70.3162 21.5262H67.9657C67.9657 21.8905 67.96 22.1677 67.9498 22.3653C67.9447 22.4643 67.939 22.5328 67.934 22.5765C67.9276 22.6325 67.9263 22.611 67.9435 22.5528L70.1984 23.2159ZM69.2144 24.5883C69.7405 24.2516 70.0475 23.7443 70.201 23.2072L67.9409 22.5615C67.9231 22.6239 67.9079 22.6451 67.9094 22.6429C67.9103 22.6417 67.9142 22.6363 67.9217 22.629C67.9294 22.6215 67.9383 22.6144 67.9474 22.6086L69.2144 24.5883ZM68.4228 24.931C68.6955 24.8571 68.9682 24.7476 69.2193 24.5851L67.9424 22.6118C67.9379 22.6147 67.9004 22.6373 67.8083 22.6623L68.4228 24.931ZM66.2317 24.1579C66.6973 24.5541 67.2526 24.805 67.8538 24.9423L68.3773 22.6509C68.0764 22.5822 67.8835 22.4772 67.7551 22.3679L66.2317 24.1579ZM64.4673 21.2388C64.9979 22.5046 65.5627 23.562 66.2115 24.1402L67.7754 22.3856C67.5653 22.1984 67.1687 21.6035 66.6351 20.3303L64.4673 21.2388ZM57.8582 5.4442L64.4671 21.2382L66.6354 20.3309L60.0265 4.5369L57.8582 5.4442ZM58.4523 6.16578H58.9424V3.81532H58.4523V6.16578ZM52.8541 21.0784L59.533 5.45245L57.3717 4.52866L50.6928 20.1547L52.8541 21.0784ZM50.9967 24.2027C51.6692 23.5698 52.275 22.4516 52.8563 21.0733L50.6906 20.1598C50.1145 21.5259 49.6655 22.2279 49.3858 22.4911L50.9967 24.2027ZM48.8553 25.0503C49.2888 24.9738 49.6843 24.8795 50.0239 24.7591C50.3445 24.6454 50.7128 24.4753 51.0052 24.1947L49.3774 22.4991C49.4363 22.4425 49.4313 22.4754 49.2385 22.5438C49.0646 22.6054 48.8068 22.6721 48.4468 22.7356L48.8553 25.0503ZM49.8263 24.411V23.893H47.4758V24.411H49.8263ZM54.6298 23.2358H48.6511V25.5863H54.6298V23.2358ZM53.4546 23.893V24.411H55.8051V23.893H53.4546ZM52.1226 24.4056C52.4586 24.6632 52.8692 24.7992 53.2275 24.8832C53.6086 24.9725 54.0538 25.03 54.5461 25.0652L54.7136 22.7207C54.2911 22.6905 53.9802 22.6454 53.7639 22.5947C53.5248 22.5387 53.4966 22.4973 53.5526 22.5402L52.1226 24.4056ZM51.2563 22.7028C51.2563 23.4173 51.6114 23.9837 52.0883 24.3783L53.5869 22.5675C53.5464 22.534 53.5545 22.5299 53.5726 22.5642C53.5817 22.5814 53.591 22.6041 53.5976 22.631C53.6043 22.6578 53.6068 22.6826 53.6068 22.7028H51.2563ZM51.8281 20.586C51.5056 21.3353 51.2563 22.0786 51.2563 22.7028H53.6068C53.6068 22.5989 53.6749 22.2407 53.9871 21.5152L51.8281 20.586ZM53.1161 17.5901L51.8279 20.5864L53.9873 21.5148L55.2755 18.5184L53.1161 17.5901ZM62.2383 16.5633L59.0179 8.89029L56.8506 9.79993L60.071 17.4729L62.2383 16.5633ZM54.6298 18.1933H61.1547V15.8429H54.6298V18.1933ZM56.8549 8.88026L53.5504 16.5532L55.7092 17.4829L59.0136 9.80996L56.8549 8.88026ZM89.3594 4.10325C88.8656 3.59244 88.2285 3.32477 87.5203 3.32477V5.67523C87.5734 5.67523 87.597 5.68403 87.6054 5.68757C87.6137 5.69105 87.6349 5.70112 87.6694 5.73686L89.3594 4.10325ZM90.1097 5.91418C90.1097 5.2059 89.842 4.56885 89.3312 4.07507L87.6976 5.76503C87.7333 5.79959 87.7434 5.8208 87.7469 5.82904C87.7504 5.83744 87.7592 5.86108 87.7592 5.91418H90.1097ZM89.3454 7.75333C89.8433 7.25541 90.1097 6.62147 90.1097 5.91418H87.7592C87.7592 5.99099 87.7455 6.02913 87.6834 6.09129L89.3454 7.75333ZM87.5203 8.5176C88.2285 8.5176 88.8656 8.24993 89.3594 7.73912L87.6694 6.1055C87.6349 6.14125 87.6137 6.15131 87.6054 6.15479C87.597 6.15834 87.5734 6.16713 87.5203 6.16713V8.5176ZM85.6811 7.75331C86.179 8.25125 86.813 8.5176 87.5203 8.5176V6.16713C87.4434 6.16713 87.4053 6.15345 87.3432 6.09131L85.6811 7.75331ZM84.9169 5.91418C84.9169 6.62147 85.1832 7.25541 85.6811 7.75333L87.3432 6.09129C87.281 6.02913 87.2673 5.99099 87.2673 5.91418H84.9169ZM85.6671 4.08904C85.1702 4.58601 84.9169 5.21884 84.9169 5.91418H87.2673C87.2673 5.82542 87.2847 5.7955 87.3292 5.75106L85.6671 4.08904ZM87.5203 3.32477C86.8119 3.32477 86.1709 3.58528 85.6671 4.08904L87.3292 5.75107C87.3855 5.69476 87.4258 5.67523 87.5203 5.67523V3.32477ZM89.8577 21.5122V11.2069H87.5072V21.5122H89.8577ZM89.9364 22.673C89.9458 22.6958 89.9177 22.6284 89.8933 22.3948C89.871 22.1813 89.8577 21.8904 89.8577 21.5122H87.5072C87.5072 21.9367 87.5218 22.3155 87.5555 22.6388C87.5872 22.942 87.6431 23.2783 87.7645 23.5717L89.9364 22.673ZM89.9607 22.6953C89.9582 22.6938 89.9566 22.6929 89.9528 22.6886C89.9483 22.6834 89.9344 22.6663 89.9164 22.6275L87.7845 23.6173C87.9952 24.0711 88.3222 24.4607 88.7763 24.7256L89.9607 22.6953ZM90.6287 22.7313C90.3625 22.7313 90.1702 22.7166 90.0392 22.6962C89.8957 22.6739 89.887 22.6538 89.9427 22.6851L88.7943 24.7358C89.3179 25.0291 90.0156 25.0817 90.6287 25.0817V22.7313ZM91.8039 24.4105V23.9065H89.4534V24.4105H91.8039ZM84.3979 25.5858H90.6287V23.2353H84.3979V25.5858ZM83.2226 23.9065V24.4105H85.5731V23.9065H83.2226ZM85.0798 22.7013C85.1282 22.674 85.1531 22.6691 85.1345 22.6744C85.1184 22.679 85.0803 22.6882 85.014 22.6978C84.8789 22.7173 84.678 22.7313 84.3979 22.7313V25.0817C84.7431 25.0817 85.065 25.0653 85.35 25.0241C85.6155 24.9858 85.9423 24.9138 86.2363 24.7476L85.0798 22.7013ZM85.0838 22.6551C85.0608 22.7081 85.0445 22.7278 85.044 22.7285C85.0438 22.7287 85.0468 22.7251 85.0536 22.7193C85.0605 22.7135 85.0694 22.7072 85.0797 22.7013L86.2363 24.7476C86.7223 24.4729 87.042 24.0476 87.2404 23.5897L85.0838 22.6551ZM85.1829 21.5122C85.1829 21.8812 85.1675 22.1627 85.1425 22.3678C85.1154 22.5907 85.085 22.6514 85.0971 22.6254L87.2271 23.6193C87.3699 23.3133 87.4375 22.9656 87.4757 22.6518C87.5161 22.3201 87.5334 21.9366 87.5334 21.5122H85.1829ZM85.1829 16.5695V21.5122H87.5334V16.5695H85.1829ZM85.0807 14.1027C85.1363 14.3747 85.1829 15.1494 85.1829 16.5695H87.5334C87.5334 15.208 87.4959 14.1812 87.3835 13.6317L85.0807 14.1027ZM85.1899 14.1688C85.0954 14.0932 85.0591 14.023 85.0549 14.0147C85.0522 14.0093 85.0551 14.0141 85.0612 14.0323C85.0672 14.0504 85.0753 14.0785 85.084 14.1184L87.3802 13.616C87.2942 13.223 87.1123 12.6967 86.6582 12.3334L85.1899 14.1688ZM85.35 14.2443C85.3751 14.2443 85.3606 14.2476 85.3203 14.2349C85.2763 14.2209 85.2151 14.1918 85.1544 14.1392L86.6938 12.363C86.2811 12.0054 85.7862 11.8939 85.35 11.8939V14.2443ZM84.8105 14.3795C85.114 14.2657 85.2834 14.2443 85.35 14.2443V11.8939C84.8939 11.8939 84.4285 12.0125 83.9852 12.1787L84.8105 14.3795ZM83.1065 13.201L83.3026 13.7051L85.4932 12.8532L85.2972 12.3491L83.1065 13.201ZM87.6244 10.1179L83.7599 11.6861L84.6437 13.864L88.5083 12.2958L87.6244 10.1179ZM88.6824 10.0316H88.0663V12.3821H88.6824V10.0316ZM98.4154 11.2479V15.6165H100.766V11.2479H98.4154ZM99.1285 12.4232H99.5906V10.0727H99.1285V12.4232ZM99.556 12.6097C99.8709 12.3648 100.068 11.9971 100.18 11.7735L98.0774 10.7224C98.0572 10.7627 98.04 10.7947 98.026 10.8194C98.0117 10.8444 98.0023 10.859 97.998 10.8654C97.9933 10.8723 97.9978 10.8649 98.012 10.8484C98.0195 10.8398 98.0311 10.827 98.047 10.8116C98.0627 10.7963 98.0847 10.7763 98.113 10.7543L99.556 12.6097ZM98.4845 12.9552C98.7919 12.9552 99.1969 12.889 99.556 12.6097L98.113 10.7543C98.3041 10.6057 98.4757 10.6048 98.4845 10.6048V12.9552ZM97.2007 12.6975C97.4527 12.7716 97.6793 12.8322 97.8743 12.8751C98.0485 12.9136 98.2711 12.9552 98.4845 12.9552V10.6048C98.5232 10.6048 98.5353 10.6084 98.5067 10.6042C98.4823 10.6006 98.4414 10.5933 98.3806 10.5799C98.2581 10.5529 98.088 10.5084 97.8639 10.4425L97.2007 12.6975ZM95.6981 12.4232C96.0473 12.4232 96.5386 12.4997 97.196 12.6961L97.8687 10.4439C97.0885 10.2109 96.357 10.0727 95.6981 10.0727V12.4232ZM93.7039 13.1538C94.1835 12.6865 94.8133 12.4232 95.6981 12.4232V10.0727C94.2866 10.0727 93.0402 10.5188 92.0636 11.4703L93.7039 13.1538ZM92.9808 14.9584C92.9808 14.2024 93.2251 13.6264 93.7093 13.1485L92.0582 11.4757C91.1048 12.4166 90.6304 13.6049 90.6304 14.9584H92.9808ZM93.3581 16.2465C93.1325 15.9607 92.9808 15.5604 92.9808 14.9584H90.6304C90.6304 15.9806 90.8988 16.9246 91.5133 17.7029L93.3581 16.2465ZM95.6187 17.7423C94.2771 17.0761 93.6071 16.5673 93.3642 16.2543L91.5071 17.6951C92.1044 18.4649 93.2079 19.1695 94.5734 19.8475L95.6187 17.7423ZM98.6206 19.6214C98.0257 19.0389 96.9706 18.4136 95.6187 17.7423L94.5733 19.8475C95.9284 20.5204 96.6749 21.0059 96.9761 21.3008L98.6206 19.6214ZM99.6597 22.0853C99.6597 21.1269 99.3046 20.2774 98.6119 19.613L96.9848 21.3093C97.207 21.5223 97.3092 21.7555 97.3092 22.0853H99.6597ZM98.6696 24.3173C99.3041 23.7261 99.6597 22.9631 99.6597 22.0853H97.3092C97.3092 22.2716 97.2541 22.4235 97.0672 22.5977L98.6696 24.3173ZM96.3002 25.1928C97.1859 25.1928 98.0126 24.9285 98.6688 24.318L97.0679 22.597C96.9214 22.7333 96.7026 22.8423 96.3002 22.8423V25.1928ZM93.0363 23.8975C93.9698 24.7365 95.07 25.1928 96.3002 25.1928V22.8423C95.7008 22.8423 95.1488 22.6359 94.6074 22.1494L93.0363 23.8975ZM91.1713 20.2996C91.4654 21.7702 92.055 23.0156 93.0363 23.8975L94.6074 22.1494C94.1139 21.7058 93.7047 20.9816 93.4761 19.8386L91.1713 20.2996ZM91.8616 21.2443H92.3237V18.8938H91.8616V21.2443ZM93.0368 24.6477V20.0691H90.6864V24.6477H93.0368ZM92.3237 23.4724H91.8616V25.8229H92.3237V23.4724ZM92.8277 23.1084C92.0432 23.1084 91.5303 23.6065 91.2725 24.1221L93.3748 25.1733C93.3746 25.1737 93.3656 25.1918 93.3434 25.2197C93.3208 25.2482 93.2837 25.2877 93.2288 25.3274C93.105 25.4168 92.958 25.4588 92.8277 25.4588V23.1084ZM93.9247 23.2989C93.5673 23.1906 93.1893 23.1084 92.8277 23.1084V25.4588C92.8582 25.4588 92.9843 25.47 93.243 25.5484L93.9247 23.2989ZM96.2722 23.6685C95.623 23.6685 94.836 23.5517 93.8984 23.2913L93.2693 25.556C94.348 25.8556 95.3531 26.0189 96.2722 26.0189V23.6685ZM98.4877 22.8657C97.8118 23.4121 97.0859 23.6685 96.2722 23.6685V26.0189C97.6428 26.0189 98.8864 25.5659 99.9654 24.6934L98.4877 22.8657ZM99.3815 20.9512C99.3815 21.7727 99.091 22.3766 98.4865 22.8666L99.9666 24.6925C101.136 23.745 101.732 22.4633 101.732 20.9512H99.3815ZM97.1992 18.353C98.8742 19.1699 99.3815 20.0619 99.3815 20.9512H101.732C101.732 18.8161 100.344 17.2718 98.2295 16.2404L97.1992 18.353ZM95.1561 17.3595L97.2004 18.3536L98.2283 16.2398L96.1841 15.2457L95.1561 17.3595ZM92.9684 15.7932C93.4365 16.4124 94.2445 16.9181 95.1579 17.3603L96.1823 15.2448C95.3221 14.8283 94.9539 14.5219 94.8433 14.3756L92.9684 15.7932ZM92.2826 13.7403C92.2826 14.5033 92.5069 15.217 92.9882 15.8186L94.8236 14.3503C94.7074 14.2051 94.633 14.0226 94.633 13.7403H92.2826ZM93.2934 11.7013C92.7055 12.2071 92.2826 12.8921 92.2826 13.7403H94.633C94.633 13.726 94.6345 13.712 94.6491 13.684C94.667 13.6498 94.7135 13.5801 94.8264 13.483L93.2934 11.7013ZM95.6421 10.8988C94.7756 10.8988 93.9546 11.1323 93.2934 11.7013L94.8264 13.483C94.968 13.3612 95.2017 13.2493 95.6421 13.2493V10.8988ZM98.5417 11.9419C97.7412 11.2227 96.7414 10.8988 95.6421 10.8988V13.2493C96.2603 13.2493 96.6701 13.4201 96.971 13.6904L98.5417 11.9419ZM100.266 15.3224C99.8976 13.8959 99.3683 12.6719 98.5344 11.9353L96.9783 13.6969C97.2646 13.9498 97.65 14.5927 97.9907 15.9106L100.266 15.3224ZM99.5906 14.4413H99.1285V16.7917H99.5906V14.4413ZM106.488 11.9599V7.74533H104.138V11.9599H106.488ZM108.31 10.7846H105.313V13.1351H108.31V10.7846ZM109.485 12.94V11.9599H107.134V12.94H109.485ZM105.313 14.1152H108.31V11.7648H105.313V14.1152ZM106.488 21.2571V12.94H104.138V21.2571H106.488ZM106.578 22.1995C106.624 22.2572 106.59 22.2474 106.551 22.0605C106.515 21.8859 106.488 21.6246 106.488 21.2571H104.138C104.138 21.7203 104.17 22.1544 104.25 22.5399C104.328 22.913 104.469 23.328 104.748 23.675L106.578 22.1995ZM106.587 22.1961C106.57 22.1961 106.563 22.1945 106.564 22.1946C106.565 22.1948 106.569 22.196 106.576 22.1991C106.582 22.2021 106.586 22.2047 106.585 22.2041C106.584 22.2034 106.576 22.1974 106.564 22.182L104.763 23.6925C105.226 24.2446 105.862 24.5466 106.587 24.5466V22.1961ZM106.846 22.1038C106.724 22.1828 106.643 22.1961 106.587 22.1961V24.5466C107.147 24.5466 107.664 24.3731 108.121 24.0788L106.846 22.1038ZM107.074 21.7775C106.989 21.9769 106.898 22.0685 106.824 22.1183L108.143 24.0643C108.648 23.722 109.004 23.2442 109.237 22.6969L107.074 21.7775ZM108.702 21.0619H108.156V23.4124H108.702V21.0619ZM108.039 25.2356C108.855 24.5981 109.428 23.6986 109.808 22.6325L107.595 21.8419C107.322 22.6053 106.971 23.0874 106.592 23.3833L108.039 25.2356ZM105.467 26.1708C106.406 26.1708 107.267 25.8269 108.03 25.2426L106.601 23.3763C106.169 23.7068 105.798 23.8203 105.467 23.8203V26.1708ZM103.626 25.6673C104.196 25.9909 104.814 26.1708 105.467 26.1708V23.8203C105.261 23.8203 105.04 23.7668 104.788 23.6237L103.626 25.6673ZM102.224 24.1028C102.519 24.7622 102.987 25.2897 103.609 25.6573L104.805 23.6337C104.606 23.5159 104.467 23.362 104.37 23.1439L102.224 24.1028ZM101.828 21.5651C101.828 22.5327 101.924 23.4181 102.22 24.0944L104.374 23.1523C104.277 22.9325 104.178 22.4458 104.178 21.5651H101.828ZM101.828 12.94V21.5651H104.178V12.94H101.828ZM100.973 14.1152H103.003V11.7648H100.973V14.1152ZM99.7974 12.4779V12.94H102.148V12.4779H99.7974ZM101.749 10.5736C101.291 10.9912 100.886 11.2469 100.536 11.3868L101.409 13.5691C102.086 13.2982 102.726 12.8632 103.333 12.31L101.749 10.5736ZM102.986 9.06871C102.618 9.65761 102.205 10.157 101.748 10.5742L103.334 12.3094C103.96 11.7372 104.508 11.0697 104.98 10.3144L102.986 9.06871ZM103.79 7.30329C103.407 8.24742 103.139 8.81704 102.978 9.08303L104.988 10.3001C105.257 9.85669 105.586 9.12881 105.968 8.18737L103.79 7.30329ZM105.313 6.5701H104.879V8.92056H105.313V6.5701ZM116.486 11.2481V15.6167H118.837V11.2481H116.486ZM117.199 12.4233H117.661V10.0729H117.199V12.4233ZM117.627 12.6098C117.942 12.3649 118.139 11.9973 118.251 11.7737L116.148 10.7225C116.128 10.7628 116.111 10.7948 116.097 10.8196C116.083 10.8446 116.073 10.8592 116.069 10.8655C116.064 10.8725 116.069 10.865 116.083 10.8486C116.09 10.8399 116.102 10.8272 116.118 10.8118C116.134 10.7964 116.155 10.7765 116.184 10.7545L117.627 12.6098ZM116.555 12.9554C116.863 12.9554 117.268 12.8892 117.627 12.6098L116.184 10.7545C116.375 10.6058 116.546 10.6049 116.555 10.6049V12.9554ZM115.272 12.6976C115.524 12.7717 115.75 12.8323 115.945 12.8753C116.119 12.9137 116.342 12.9554 116.555 12.9554V10.6049C116.594 10.6049 116.606 10.6085 116.577 10.6043C116.553 10.6007 116.512 10.5934 116.451 10.58C116.329 10.553 116.159 10.5086 115.935 10.4427L115.272 12.6976ZM113.769 12.4233C114.118 12.4233 114.609 12.4998 115.267 12.6962L115.94 10.4441C115.159 10.211 114.428 10.0729 113.769 10.0729V12.4233ZM111.775 13.154C112.254 12.6867 112.884 12.4233 113.769 12.4233V10.0729C112.357 10.0729 111.111 10.519 110.134 11.4705L111.775 13.154ZM111.052 14.9586C111.052 14.2025 111.296 13.6265 111.78 13.1487L110.129 11.4758C109.176 12.4168 108.701 13.605 108.701 14.9586H111.052ZM111.429 16.2466C111.203 15.9608 111.052 15.5606 111.052 14.9586H108.701C108.701 15.9808 108.97 16.9247 109.584 17.7031L111.429 16.2466ZM113.69 17.7425C112.348 17.0763 111.678 16.5674 111.435 16.2544L109.578 17.6952C110.175 18.465 111.279 19.1697 112.644 19.8477L113.69 17.7425ZM116.691 19.6216C116.097 19.0391 115.041 18.4138 113.69 17.7425L112.644 19.8477C113.999 20.5205 114.746 21.006 115.047 21.301L116.691 19.6216ZM117.731 22.0855C117.731 21.1271 117.375 20.2775 116.683 19.6131L115.056 21.3094C115.278 21.5225 115.38 21.7557 115.38 22.0855H117.731ZM116.74 24.3175C117.375 23.7262 117.731 22.9633 117.731 22.0855H115.38C115.38 22.2718 115.325 22.4237 115.138 22.5978L116.74 24.3175ZM114.371 25.193C115.257 25.193 116.083 24.9286 116.74 24.3181L115.139 22.5972C114.992 22.7335 114.773 22.8425 114.371 22.8425V25.193ZM111.107 23.8977C112.041 24.7367 113.141 25.193 114.371 25.193V22.8425C113.772 22.8425 113.22 22.636 112.678 22.1495L111.107 23.8977ZM109.242 20.2997C109.536 21.7704 110.126 23.0158 111.107 23.8977L112.678 22.1495C112.185 21.7059 111.775 20.9817 111.547 19.8387L109.242 20.2997ZM109.932 21.2445H110.394V18.894H109.932V21.2445ZM111.108 24.6478V20.0692H108.757V24.6478H111.108ZM110.394 23.4726H109.932V25.823H110.394V23.4726ZM110.899 23.1085C110.114 23.1085 109.601 23.6067 109.343 24.1222L111.446 25.1734C111.445 25.1739 111.436 25.192 111.414 25.2198C111.392 25.2483 111.355 25.2879 111.3 25.3275C111.176 25.4169 111.029 25.459 110.899 25.459V23.1085ZM111.995 23.2991C111.638 23.1908 111.26 23.1085 110.899 23.1085V25.459C110.929 25.459 111.055 25.4701 111.314 25.5485L111.995 23.2991ZM114.343 23.6686C113.694 23.6686 112.907 23.5519 111.969 23.2914L111.34 25.5561C112.419 25.8558 113.424 26.0191 114.343 26.0191V23.6686ZM116.558 22.8658C115.883 23.4122 115.157 23.6686 114.343 23.6686V26.0191C115.714 26.0191 116.957 25.566 118.036 24.6936L116.558 22.8658ZM117.452 20.9513C117.452 21.7729 117.162 22.3768 116.557 22.8667L118.037 24.6927C119.206 23.7451 119.803 22.4634 119.803 20.9513H117.452ZM115.27 18.3532C116.945 19.17 117.452 20.0621 117.452 20.9513H119.803C119.803 18.8162 118.415 17.2719 116.3 16.2406L115.27 18.3532ZM113.227 17.3596L115.271 18.3538L116.299 16.24L114.255 15.2459L113.227 17.3596ZM111.039 15.7934C111.507 16.4125 112.315 16.9182 113.229 17.3605L114.253 15.245C113.393 14.8285 113.025 14.5221 112.914 14.3758L111.039 15.7934ZM110.353 13.7404C110.353 14.5035 110.578 15.2172 111.059 15.8188L112.894 14.3504C112.778 14.2052 112.704 14.0228 112.704 13.7404H110.353ZM111.364 11.7014C110.776 12.2072 110.353 12.8922 110.353 13.7404H112.704C112.704 13.7261 112.705 13.7121 112.72 13.6841C112.738 13.65 112.784 13.5802 112.897 13.4831L111.364 11.7014ZM113.713 10.899C112.846 10.899 112.025 11.1325 111.364 11.7014L112.897 13.4831C113.039 13.3613 113.273 13.2494 113.713 13.2494V10.899ZM116.613 11.942C115.812 11.2229 114.812 10.899 113.713 10.899V13.2494C114.331 13.2494 114.741 13.4203 115.042 13.6906L116.613 11.942ZM118.337 15.3225C117.968 13.8961 117.439 12.6721 116.605 11.9355L115.049 13.6971C115.335 13.95 115.721 14.5929 116.062 15.9108L118.337 15.3225ZM117.661 14.4414H117.199V16.7919H117.661V14.4414Z" fill="white" mask="url(#path-1-outside-1_117_211)"/>
</svg>
