<svg width="152" height="26" viewBox="0 0 152 26" fill="none" xmlns="http://www.w3.org/2000/svg">
<mask id="path-1-outside-1_117_68" maskUnits="userSpaceOnUse" x="0" y="0" width="152" height="26" fill="black">
<rect fill="white" width="152" height="26"/>
<path fill-rule="evenodd" clip-rule="evenodd" d="M135.324 2.73324C135.324 3.00578 135.175 3.24359 134.955 3.36998V5.46003C138.998 3.20859 140.831 3.31998 143.022 5.666V8.96528C146.159 10.4619 147.755 9.53021 149.409 8.56467C149.6 8.45301 149.793 8.3409 149.988 8.23204V18.4974C146.156 20.6357 144.048 20.7695 140.456 18.4974V14.3361C138.752 13.9568 137.256 14.6518 134.955 16.0713V24.364H134.221V3.36677C134.004 3.2396 133.857 3.00349 133.857 2.73324C133.857 2.32828 134.186 2 134.591 2C134.996 2 135.324 2.32828 135.324 2.73324ZM16.7182 5.42373L16.9148 9.8744H16.4167C16.3206 9.09064 16.1896 8.5308 16.0236 8.1949C15.7527 7.65373 15.3901 7.25718 14.9358 7.00526C14.4901 6.744 13.9004 6.61337 13.1664 6.61337H10.6632V21.1131C10.6632 22.2794 10.7811 23.0072 11.017 23.2964C11.349 23.6883 11.8602 23.8842 12.5504 23.8842H13.1664V24.4021H5.6304V23.8842H6.25949C7.01091 23.8842 7.54389 23.6416 7.85844 23.1565C8.05066 22.8579 8.14678 22.1767 8.14678 21.1131V6.61337H6.01048C5.18042 6.61337 4.59065 6.67869 4.24115 6.80931C3.7868 6.9866 3.39799 7.32716 3.0747 7.83101C2.75142 8.33486 2.55919 9.01599 2.49803 9.8744H2L2.2097 5.42373H16.7182ZM22.5709 13.8772V4.5H21.9271L18.0923 6.06753L18.2882 6.55739C18.7267 6.4081 19.044 6.33346 19.2399 6.33346C19.4825 6.33346 19.6738 6.3941 19.8138 6.5154C19.963 6.6367 20.0703 6.8653 20.1357 7.2012C20.2103 7.5371 20.2476 8.4375 20.2476 9.90239V21.5049C20.2476 22.3074 20.1916 22.8392 20.0797 23.1005C19.9677 23.3617 19.8184 23.539 19.6318 23.6323C19.3052 23.8096 18.8574 23.8982 18.2882 23.8982V24.4021H24.6423V23.8982C23.9892 23.8982 23.5273 23.8283 23.2567 23.6883C22.9955 23.539 22.8135 23.3571 22.7109 23.1425C22.6176 22.9279 22.5709 22.382 22.5709 21.5049V14.731C23.2614 13.9938 23.8539 13.504 24.3484 13.2614C24.8429 13.0188 25.3188 12.8975 25.776 12.8975C26.2239 12.8975 26.6064 13.0095 26.9236 13.2334C27.2409 13.448 27.4695 13.7746 27.6094 14.2131C27.7587 14.6516 27.8334 15.5707 27.8334 16.9703V21.5049C27.8334 22.2327 27.8194 22.6713 27.7914 22.8206C27.6981 23.1751 27.5348 23.4457 27.3015 23.6323C27.0683 23.8096 26.6531 23.8982 26.0559 23.8982H25.762V24.4021H32.0601V23.8982C31.463 23.8982 31.0524 23.8329 30.8285 23.7023C30.6045 23.5717 30.4459 23.3944 30.3526 23.1704C30.222 22.8719 30.1567 22.3167 30.1567 21.5049V16.9703C30.1567 15.3841 30.068 14.2924 29.8908 13.6953C29.6388 12.8369 29.2516 12.207 28.7291 11.8058C28.2066 11.4046 27.5814 11.204 26.8537 11.204C26.2472 11.204 25.6407 11.3673 25.0342 11.6939C24.4277 12.0111 23.6066 12.7389 22.5709 13.8772ZM34.7983 16.4346C34.789 18.338 35.2509 19.8309 36.1839 20.9133C37.117 21.9956 38.2133 22.5368 39.4729 22.5368C40.3127 22.5368 41.0405 22.3082 41.6563 21.851C42.2814 21.3845 42.804 20.5914 43.2238 19.4717L43.6577 19.7516C43.4618 21.0299 42.8926 22.1962 41.9502 23.2506C41.0078 24.2956 39.8275 24.8181 38.4093 24.8181C36.8697 24.8181 35.5494 24.221 34.4484 23.0266C33.3568 21.823 32.8109 20.2088 32.8109 18.1841C32.8109 15.9914 33.3708 14.2839 34.4904 13.0616C35.6194 11.83 37.033 11.2142 38.7312 11.2142C40.1681 11.2142 41.3484 11.69 42.2721 12.6417C43.1958 13.5841 43.6577 14.8484 43.6577 16.4346H34.7983ZM34.7983 15.6229H40.7326C40.6859 14.8018 40.588 14.2233 40.4387 13.8874C40.2054 13.3649 39.8555 12.9543 39.389 12.6557C38.9318 12.3572 38.4513 12.2079 37.9474 12.2079C37.173 12.2079 36.4778 12.5111 35.862 13.1176C35.2555 13.7148 34.901 14.5498 34.7983 15.6229ZM47.5765 8.43283L54.9104 24.4021H55.3722L62.692 8.43283V21.1131C62.692 22.1767 62.5894 22.8579 62.3841 23.1565C62.0576 23.6416 61.4884 23.8842 60.6766 23.8842H60.0048V24.4021H68.0664V23.8842H67.4086C66.6622 23.8842 66.1164 23.6883 65.7711 23.2964C65.5099 23.0072 65.3792 22.2794 65.3792 21.1131V8.71275C65.3792 7.64907 65.4819 6.96793 65.6872 6.66936C66.023 6.18417 66.5969 5.94157 67.4086 5.94157H68.0664V5.42373H62.692L55.9181 20.2733L49.0321 5.42373H43.6577V5.94157C44.4321 5.94157 44.992 6.03488 45.3372 6.22149C45.6918 6.39877 45.9344 6.6227 46.065 6.89329C46.2516 7.26651 46.3449 7.873 46.3449 8.71275V21.1131C46.3449 22.1767 46.2423 22.8579 46.037 23.1565C45.7011 23.6416 45.1319 23.8842 44.3295 23.8842H43.6577V24.4021H50.2637V23.8842H49.5919C48.8455 23.8842 48.2997 23.6883 47.9544 23.2964C47.7025 23.0072 47.5765 22.2794 47.5765 21.1131V8.43283ZM71.3488 4.5C71.7407 4.5 72.0719 4.63996 72.3425 4.91988C72.6224 5.19046 72.7624 5.5217 72.7624 5.91358C72.7624 6.30546 72.6224 6.64136 72.3425 6.92128C72.0719 7.2012 71.7407 7.34116 71.3488 7.34116C70.9569 7.34116 70.621 7.2012 70.3411 6.92128C70.0612 6.64136 69.9212 6.30546 69.9212 5.91358C69.9212 5.5217 70.0565 5.19046 70.3271 4.91988C70.607 4.63996 70.9476 4.5 71.3488 4.5ZM72.5105 11.204V21.5049C72.5105 22.3074 72.5665 22.8439 72.6784 23.1145C72.7997 23.3757 72.9723 23.5717 73.1963 23.7023C73.4295 23.8329 73.8494 23.8982 74.4559 23.8982V24.4021H68.2277V23.8982C68.8529 23.8982 69.2728 23.8376 69.4874 23.7163C69.702 23.595 69.8699 23.3944 69.9912 23.1145C70.1218 22.8345 70.1872 22.298 70.1872 21.5049V16.5644C70.1872 15.1742 70.1452 14.2738 70.0612 13.8632C69.9959 13.5646 69.8933 13.3594 69.7533 13.2474C69.6133 13.1261 69.4221 13.0655 69.1795 13.0655C68.9182 13.0655 68.601 13.1354 68.2277 13.2754L68.0318 12.7715L71.8947 11.204H72.5105ZM83.4319 15.5809V11.2142H82.97C82.858 11.4381 82.7601 11.5827 82.6761 11.648C82.5921 11.7133 82.4755 11.746 82.3262 11.746C82.1676 11.746 81.8503 11.676 81.3745 11.5361C80.656 11.3215 80.0449 11.2142 79.541 11.2142C78.3934 11.2142 77.4557 11.5687 76.7279 12.2778C76.0094 12.987 75.6502 13.8687 75.6502 14.9231C75.6502 15.7348 75.8601 16.4066 76.28 16.9385C76.6999 17.4796 77.5863 18.0861 78.9392 18.7579C80.2921 19.4297 81.1925 19.9849 81.6404 20.4234C82.0976 20.862 82.3262 21.4031 82.3262 22.0469C82.3262 22.5788 82.1209 23.036 81.7104 23.4185C81.3092 23.7918 80.7867 23.9784 80.1429 23.9784C79.2285 23.9784 78.4027 23.6471 77.6656 22.9847C76.9285 22.3222 76.4293 21.3378 76.168 20.0315H75.7062V24.6082H76.168C76.2893 24.3656 76.4573 24.2443 76.6719 24.2443C76.8678 24.2443 77.1198 24.2909 77.4277 24.3842C78.4354 24.6642 79.3311 24.8041 80.1149 24.8041C81.2065 24.8041 82.1909 24.4496 83.068 23.7404C83.9544 23.022 84.3976 22.0796 84.3976 20.9133C84.3976 19.4017 83.4505 18.1841 81.5564 17.2604L79.513 16.2667C78.6266 15.8375 78.0388 15.4316 77.7496 15.049C77.451 14.6758 77.3017 14.2279 77.3017 13.7054C77.3017 13.2855 77.5023 12.903 77.9035 12.5578C78.3047 12.2125 78.8319 12.0399 79.485 12.0399C80.3435 12.0399 81.0479 12.2872 81.5984 12.7817C82.1582 13.2762 82.6154 14.2093 82.97 15.5809H83.4319ZM92.8518 11.2142V15.5809H92.39C92.0354 14.2093 91.5782 13.2762 91.0184 12.7817C90.4679 12.2872 89.7634 12.0399 88.905 12.0399C88.2518 12.0399 87.7247 12.2125 87.3235 12.5578C86.9222 12.903 86.7216 13.2855 86.7216 13.7054C86.7216 14.2279 86.8709 14.6758 87.1695 15.049C87.4588 15.4316 88.0466 15.8375 88.933 16.2667L90.9764 17.2604C92.8705 18.1841 93.8175 19.4017 93.8175 20.9133C93.8175 22.0796 93.3743 23.022 92.4879 23.7404C91.6108 24.4496 90.6265 24.8041 89.5348 24.8041C88.751 24.8041 87.8553 24.6642 86.8476 24.3842C86.5397 24.2909 86.2878 24.2443 86.0918 24.2443C85.8772 24.2443 85.7093 24.3656 85.588 24.6082H85.1261V20.0315H85.588C85.8492 21.3378 86.3484 22.3222 87.0855 22.9847C87.8226 23.6471 88.6484 23.9784 89.5628 23.9784C90.2066 23.9784 90.7291 23.7918 91.1303 23.4185C91.5409 23.036 91.7461 22.5788 91.7461 22.0469C91.7461 21.4031 91.5175 20.862 91.0603 20.4234C90.6125 19.9849 89.7121 19.4297 88.3592 18.7579C87.0062 18.0861 86.1198 17.4796 85.6999 16.9385C85.2801 16.4066 85.0701 15.7348 85.0701 14.9231C85.0701 13.8687 85.4294 12.987 86.1478 12.2778C86.8756 11.5687 87.8133 11.2142 88.961 11.2142C89.4648 11.2142 90.076 11.3215 90.7944 11.5361C91.2703 11.676 91.5875 11.746 91.7461 11.746C91.8954 11.746 92.0121 11.7133 92.096 11.648C92.18 11.5827 92.278 11.4381 92.39 11.2142H92.8518ZM99.0716 4.91988C98.801 4.63996 98.4698 4.5 98.0779 4.5C97.6767 4.5 97.3361 4.63996 97.0562 4.91988C96.7856 5.19046 96.6503 5.5217 96.6503 5.91358C96.6503 6.30546 96.7903 6.64136 97.0702 6.92128C97.3501 7.2012 97.686 7.34116 98.0779 7.34116C98.4698 7.34116 98.801 7.2012 99.0716 6.92128C99.3515 6.64136 99.4915 6.30546 99.4915 5.91358C99.4915 5.5217 99.3515 5.19046 99.0716 4.91988ZM99.2396 21.5049V11.204H98.6237L94.7609 12.7715L94.9568 13.2754C95.3301 13.1354 95.6473 13.0655 95.9086 13.0655C96.1511 13.0655 96.3424 13.1261 96.4824 13.2474C96.6223 13.3594 96.725 13.5646 96.7903 13.8632C96.8743 14.2738 96.9163 15.1742 96.9163 16.5644V21.5049C96.9163 22.298 96.8509 22.8345 96.7203 23.1145C96.599 23.3944 96.4311 23.595 96.2165 23.7163C96.0019 23.8376 95.582 23.8982 94.9568 23.8982V24.4021H101.185V23.8982C100.578 23.8982 100.159 23.8329 99.9254 23.7023C99.7014 23.5717 99.5288 23.3757 99.4075 23.1145C99.2955 22.8439 99.2396 22.3074 99.2396 21.5049ZM107.32 10.812C109.26 10.812 110.819 11.5491 111.994 13.0233C112.993 14.2829 113.492 15.7292 113.492 17.362C113.492 18.5097 113.217 19.6713 112.666 20.847C112.116 22.0226 111.355 22.909 110.385 23.5062C109.424 24.1034 108.351 24.4019 107.166 24.4019C105.234 24.4019 103.699 23.6322 102.561 22.0926C101.6 20.7957 101.119 19.3401 101.119 17.7259C101.119 16.5503 101.409 15.3839 101.987 14.227C102.575 13.0606 103.345 12.2022 104.297 11.6517C105.248 11.0919 106.256 10.812 107.32 10.812ZM106.886 11.7217C106.391 11.7217 105.892 11.871 105.388 12.1696C104.894 12.4588 104.492 12.972 104.185 13.7091C103.877 14.4462 103.723 15.3933 103.723 16.5503C103.723 18.4164 104.091 20.0259 104.828 21.3788C105.575 22.7318 106.555 23.4082 107.768 23.4082C108.673 23.4082 109.419 23.035 110.007 22.2886C110.595 21.5421 110.889 20.2592 110.889 18.4397C110.889 16.1631 110.399 14.3716 109.419 13.0653C108.757 12.1696 107.912 11.7217 106.886 11.7217ZM122.009 11.2039C120.647 11.2039 119.214 12.109 117.712 13.9191V11.2039H117.11L113.248 12.7714L113.457 13.2753C113.821 13.1353 114.134 13.0653 114.395 13.0653C114.638 13.0653 114.829 13.126 114.969 13.2473C115.118 13.3686 115.226 13.5972 115.291 13.9331C115.366 14.269 115.403 15.2067 115.403 16.7462V21.5048C115.403 22.4379 115.286 23.0724 115.053 23.4083C114.829 23.7348 114.391 23.8981 113.737 23.8981H113.457V24.402H119.798V23.8981C119.098 23.8981 118.631 23.8375 118.398 23.7162C118.174 23.5855 117.997 23.3849 117.866 23.1143C117.764 22.9091 117.712 22.3726 117.712 21.5048V14.7448C118.813 13.5319 119.919 12.9254 121.029 12.9254C121.748 12.9254 122.256 13.1913 122.555 13.7231C122.863 14.2457 123.017 15.0901 123.017 16.2564V21.5048C123.017 22.2419 122.998 22.6805 122.961 22.8204C122.867 23.175 122.699 23.4456 122.457 23.6322C122.224 23.8095 121.808 23.8981 121.211 23.8981H120.945V24.402H127.285V23.8981C126.67 23.8981 126.245 23.8328 126.012 23.7022C125.788 23.5715 125.625 23.3896 125.522 23.1563C125.391 22.8671 125.326 22.3166 125.326 21.5048V16.0325C125.326 14.8755 125.223 14.0171 125.018 13.4572C124.719 12.6548 124.318 12.081 123.814 11.7357C123.311 11.3812 122.709 11.2039 122.009 11.2039Z"/>
</mask>
<path fill-rule="evenodd" clip-rule="evenodd" d="M135.324 2.73324C135.324 3.00578 135.175 3.24359 134.955 3.36998V5.46003C138.998 3.20859 140.831 3.31998 143.022 5.666V8.96528C146.159 10.4619 147.755 9.53021 149.409 8.56467C149.6 8.45301 149.793 8.3409 149.988 8.23204V18.4974C146.156 20.6357 144.048 20.7695 140.456 18.4974V14.3361C138.752 13.9568 137.256 14.6518 134.955 16.0713V24.364H134.221V3.36677C134.004 3.2396 133.857 3.00349 133.857 2.73324C133.857 2.32828 134.186 2 134.591 2C134.996 2 135.324 2.32828 135.324 2.73324ZM16.7182 5.42373L16.9148 9.8744H16.4167C16.3206 9.09064 16.1896 8.5308 16.0236 8.1949C15.7527 7.65373 15.3901 7.25718 14.9358 7.00526C14.4901 6.744 13.9004 6.61337 13.1664 6.61337H10.6632V21.1131C10.6632 22.2794 10.7811 23.0072 11.017 23.2964C11.349 23.6883 11.8602 23.8842 12.5504 23.8842H13.1664V24.4021H5.6304V23.8842H6.25949C7.01091 23.8842 7.54389 23.6416 7.85844 23.1565C8.05066 22.8579 8.14678 22.1767 8.14678 21.1131V6.61337H6.01048C5.18042 6.61337 4.59065 6.67869 4.24115 6.80931C3.7868 6.9866 3.39799 7.32716 3.0747 7.83101C2.75142 8.33486 2.55919 9.01599 2.49803 9.8744H2L2.2097 5.42373H16.7182ZM22.5709 13.8772V4.5H21.9271L18.0923 6.06753L18.2882 6.55739C18.7267 6.4081 19.044 6.33346 19.2399 6.33346C19.4825 6.33346 19.6738 6.3941 19.8138 6.5154C19.963 6.6367 20.0703 6.8653 20.1357 7.2012C20.2103 7.5371 20.2476 8.4375 20.2476 9.90239V21.5049C20.2476 22.3074 20.1916 22.8392 20.0797 23.1005C19.9677 23.3617 19.8184 23.539 19.6318 23.6323C19.3052 23.8096 18.8574 23.8982 18.2882 23.8982V24.4021H24.6423V23.8982C23.9892 23.8982 23.5273 23.8283 23.2567 23.6883C22.9955 23.539 22.8135 23.3571 22.7109 23.1425C22.6176 22.9279 22.5709 22.382 22.5709 21.5049V14.731C23.2614 13.9938 23.8539 13.504 24.3484 13.2614C24.8429 13.0188 25.3188 12.8975 25.776 12.8975C26.2239 12.8975 26.6064 13.0095 26.9236 13.2334C27.2409 13.448 27.4695 13.7746 27.6094 14.2131C27.7587 14.6516 27.8334 15.5707 27.8334 16.9703V21.5049C27.8334 22.2327 27.8194 22.6713 27.7914 22.8206C27.6981 23.1751 27.5348 23.4457 27.3015 23.6323C27.0683 23.8096 26.6531 23.8982 26.0559 23.8982H25.762V24.4021H32.0601V23.8982C31.463 23.8982 31.0524 23.8329 30.8285 23.7023C30.6045 23.5717 30.4459 23.3944 30.3526 23.1704C30.222 22.8719 30.1567 22.3167 30.1567 21.5049V16.9703C30.1567 15.3841 30.068 14.2924 29.8908 13.6953C29.6388 12.8369 29.2516 12.207 28.7291 11.8058C28.2066 11.4046 27.5814 11.204 26.8537 11.204C26.2472 11.204 25.6407 11.3673 25.0342 11.6939C24.4277 12.0111 23.6066 12.7389 22.5709 13.8772ZM34.7983 16.4346C34.789 18.338 35.2509 19.8309 36.1839 20.9133C37.117 21.9956 38.2133 22.5368 39.4729 22.5368C40.3127 22.5368 41.0405 22.3082 41.6563 21.851C42.2814 21.3845 42.804 20.5914 43.2238 19.4717L43.6577 19.7516C43.4618 21.0299 42.8926 22.1962 41.9502 23.2506C41.0078 24.2956 39.8275 24.8181 38.4093 24.8181C36.8697 24.8181 35.5494 24.221 34.4484 23.0266C33.3568 21.823 32.8109 20.2088 32.8109 18.1841C32.8109 15.9914 33.3708 14.2839 34.4904 13.0616C35.6194 11.83 37.033 11.2142 38.7312 11.2142C40.1681 11.2142 41.3484 11.69 42.2721 12.6417C43.1958 13.5841 43.6577 14.8484 43.6577 16.4346H34.7983ZM34.7983 15.6229H40.7326C40.6859 14.8018 40.588 14.2233 40.4387 13.8874C40.2054 13.3649 39.8555 12.9543 39.389 12.6557C38.9318 12.3572 38.4513 12.2079 37.9474 12.2079C37.173 12.2079 36.4778 12.5111 35.862 13.1176C35.2555 13.7148 34.901 14.5498 34.7983 15.6229ZM47.5765 8.43283L54.9104 24.4021H55.3722L62.692 8.43283V21.1131C62.692 22.1767 62.5894 22.8579 62.3841 23.1565C62.0576 23.6416 61.4884 23.8842 60.6766 23.8842H60.0048V24.4021H68.0664V23.8842H67.4086C66.6622 23.8842 66.1164 23.6883 65.7711 23.2964C65.5099 23.0072 65.3792 22.2794 65.3792 21.1131V8.71275C65.3792 7.64907 65.4819 6.96793 65.6872 6.66936C66.023 6.18417 66.5969 5.94157 67.4086 5.94157H68.0664V5.42373H62.692L55.9181 20.2733L49.0321 5.42373H43.6577V5.94157C44.4321 5.94157 44.992 6.03488 45.3372 6.22149C45.6918 6.39877 45.9344 6.6227 46.065 6.89329C46.2516 7.26651 46.3449 7.873 46.3449 8.71275V21.1131C46.3449 22.1767 46.2423 22.8579 46.037 23.1565C45.7011 23.6416 45.1319 23.8842 44.3295 23.8842H43.6577V24.4021H50.2637V23.8842H49.5919C48.8455 23.8842 48.2997 23.6883 47.9544 23.2964C47.7025 23.0072 47.5765 22.2794 47.5765 21.1131V8.43283ZM71.3488 4.5C71.7407 4.5 72.0719 4.63996 72.3425 4.91988C72.6224 5.19046 72.7624 5.5217 72.7624 5.91358C72.7624 6.30546 72.6224 6.64136 72.3425 6.92128C72.0719 7.2012 71.7407 7.34116 71.3488 7.34116C70.9569 7.34116 70.621 7.2012 70.3411 6.92128C70.0612 6.64136 69.9212 6.30546 69.9212 5.91358C69.9212 5.5217 70.0565 5.19046 70.3271 4.91988C70.607 4.63996 70.9476 4.5 71.3488 4.5ZM72.5105 11.204V21.5049C72.5105 22.3074 72.5665 22.8439 72.6784 23.1145C72.7997 23.3757 72.9723 23.5717 73.1963 23.7023C73.4295 23.8329 73.8494 23.8982 74.4559 23.8982V24.4021H68.2277V23.8982C68.8529 23.8982 69.2728 23.8376 69.4874 23.7163C69.702 23.595 69.8699 23.3944 69.9912 23.1145C70.1218 22.8345 70.1872 22.298 70.1872 21.5049V16.5644C70.1872 15.1742 70.1452 14.2738 70.0612 13.8632C69.9959 13.5646 69.8933 13.3594 69.7533 13.2474C69.6133 13.1261 69.4221 13.0655 69.1795 13.0655C68.9182 13.0655 68.601 13.1354 68.2277 13.2754L68.0318 12.7715L71.8947 11.204H72.5105ZM83.4319 15.5809V11.2142H82.97C82.858 11.4381 82.7601 11.5827 82.6761 11.648C82.5921 11.7133 82.4755 11.746 82.3262 11.746C82.1676 11.746 81.8503 11.676 81.3745 11.5361C80.656 11.3215 80.0449 11.2142 79.541 11.2142C78.3934 11.2142 77.4557 11.5687 76.7279 12.2778C76.0094 12.987 75.6502 13.8687 75.6502 14.9231C75.6502 15.7348 75.8601 16.4066 76.28 16.9385C76.6999 17.4796 77.5863 18.0861 78.9392 18.7579C80.2921 19.4297 81.1925 19.9849 81.6404 20.4234C82.0976 20.862 82.3262 21.4031 82.3262 22.0469C82.3262 22.5788 82.1209 23.036 81.7104 23.4185C81.3092 23.7918 80.7867 23.9784 80.1429 23.9784C79.2285 23.9784 78.4027 23.6471 77.6656 22.9847C76.9285 22.3222 76.4293 21.3378 76.168 20.0315H75.7062V24.6082H76.168C76.2893 24.3656 76.4573 24.2443 76.6719 24.2443C76.8678 24.2443 77.1198 24.2909 77.4277 24.3842C78.4354 24.6642 79.3311 24.8041 80.1149 24.8041C81.2065 24.8041 82.1909 24.4496 83.068 23.7404C83.9544 23.022 84.3976 22.0796 84.3976 20.9133C84.3976 19.4017 83.4505 18.1841 81.5564 17.2604L79.513 16.2667C78.6266 15.8375 78.0388 15.4316 77.7496 15.049C77.451 14.6758 77.3017 14.2279 77.3017 13.7054C77.3017 13.2855 77.5023 12.903 77.9035 12.5578C78.3047 12.2125 78.8319 12.0399 79.485 12.0399C80.3435 12.0399 81.0479 12.2872 81.5984 12.7817C82.1582 13.2762 82.6154 14.2093 82.97 15.5809H83.4319ZM92.8518 11.2142V15.5809H92.39C92.0354 14.2093 91.5782 13.2762 91.0184 12.7817C90.4679 12.2872 89.7634 12.0399 88.905 12.0399C88.2518 12.0399 87.7247 12.2125 87.3235 12.5578C86.9222 12.903 86.7216 13.2855 86.7216 13.7054C86.7216 14.2279 86.8709 14.6758 87.1695 15.049C87.4588 15.4316 88.0466 15.8375 88.933 16.2667L90.9764 17.2604C92.8705 18.1841 93.8175 19.4017 93.8175 20.9133C93.8175 22.0796 93.3743 23.022 92.4879 23.7404C91.6108 24.4496 90.6265 24.8041 89.5348 24.8041C88.751 24.8041 87.8553 24.6642 86.8476 24.3842C86.5397 24.2909 86.2878 24.2443 86.0918 24.2443C85.8772 24.2443 85.7093 24.3656 85.588 24.6082H85.1261V20.0315H85.588C85.8492 21.3378 86.3484 22.3222 87.0855 22.9847C87.8226 23.6471 88.6484 23.9784 89.5628 23.9784C90.2066 23.9784 90.7291 23.7918 91.1303 23.4185C91.5409 23.036 91.7461 22.5788 91.7461 22.0469C91.7461 21.4031 91.5175 20.862 91.0603 20.4234C90.6125 19.9849 89.7121 19.4297 88.3592 18.7579C87.0062 18.0861 86.1198 17.4796 85.6999 16.9385C85.2801 16.4066 85.0701 15.7348 85.0701 14.9231C85.0701 13.8687 85.4294 12.987 86.1478 12.2778C86.8756 11.5687 87.8133 11.2142 88.961 11.2142C89.4648 11.2142 90.076 11.3215 90.7944 11.5361C91.2703 11.676 91.5875 11.746 91.7461 11.746C91.8954 11.746 92.0121 11.7133 92.096 11.648C92.18 11.5827 92.278 11.4381 92.39 11.2142H92.8518ZM99.0716 4.91988C98.801 4.63996 98.4698 4.5 98.0779 4.5C97.6767 4.5 97.3361 4.63996 97.0562 4.91988C96.7856 5.19046 96.6503 5.5217 96.6503 5.91358C96.6503 6.30546 96.7903 6.64136 97.0702 6.92128C97.3501 7.2012 97.686 7.34116 98.0779 7.34116C98.4698 7.34116 98.801 7.2012 99.0716 6.92128C99.3515 6.64136 99.4915 6.30546 99.4915 5.91358C99.4915 5.5217 99.3515 5.19046 99.0716 4.91988ZM99.2396 21.5049V11.204H98.6237L94.7609 12.7715L94.9568 13.2754C95.3301 13.1354 95.6473 13.0655 95.9086 13.0655C96.1511 13.0655 96.3424 13.1261 96.4824 13.2474C96.6223 13.3594 96.725 13.5646 96.7903 13.8632C96.8743 14.2738 96.9163 15.1742 96.9163 16.5644V21.5049C96.9163 22.298 96.8509 22.8345 96.7203 23.1145C96.599 23.3944 96.4311 23.595 96.2165 23.7163C96.0019 23.8376 95.582 23.8982 94.9568 23.8982V24.4021H101.185V23.8982C100.578 23.8982 100.159 23.8329 99.9254 23.7023C99.7014 23.5717 99.5288 23.3757 99.4075 23.1145C99.2955 22.8439 99.2396 22.3074 99.2396 21.5049ZM107.32 10.812C109.26 10.812 110.819 11.5491 111.994 13.0233C112.993 14.2829 113.492 15.7292 113.492 17.362C113.492 18.5097 113.217 19.6713 112.666 20.847C112.116 22.0226 111.355 22.909 110.385 23.5062C109.424 24.1034 108.351 24.4019 107.166 24.4019C105.234 24.4019 103.699 23.6322 102.561 22.0926C101.6 20.7957 101.119 19.3401 101.119 17.7259C101.119 16.5503 101.409 15.3839 101.987 14.227C102.575 13.0606 103.345 12.2022 104.297 11.6517C105.248 11.0919 106.256 10.812 107.32 10.812ZM106.886 11.7217C106.391 11.7217 105.892 11.871 105.388 12.1696C104.894 12.4588 104.492 12.972 104.185 13.7091C103.877 14.4462 103.723 15.3933 103.723 16.5503C103.723 18.4164 104.091 20.0259 104.828 21.3788C105.575 22.7318 106.555 23.4082 107.768 23.4082C108.673 23.4082 109.419 23.035 110.007 22.2886C110.595 21.5421 110.889 20.2592 110.889 18.4397C110.889 16.1631 110.399 14.3716 109.419 13.0653C108.757 12.1696 107.912 11.7217 106.886 11.7217ZM122.009 11.2039C120.647 11.2039 119.214 12.109 117.712 13.9191V11.2039H117.11L113.248 12.7714L113.457 13.2753C113.821 13.1353 114.134 13.0653 114.395 13.0653C114.638 13.0653 114.829 13.126 114.969 13.2473C115.118 13.3686 115.226 13.5972 115.291 13.9331C115.366 14.269 115.403 15.2067 115.403 16.7462V21.5048C115.403 22.4379 115.286 23.0724 115.053 23.4083C114.829 23.7348 114.391 23.8981 113.737 23.8981H113.457V24.402H119.798V23.8981C119.098 23.8981 118.631 23.8375 118.398 23.7162C118.174 23.5855 117.997 23.3849 117.866 23.1143C117.764 22.9091 117.712 22.3726 117.712 21.5048V14.7448C118.813 13.5319 119.919 12.9254 121.029 12.9254C121.748 12.9254 122.256 13.1913 122.555 13.7231C122.863 14.2457 123.017 15.0901 123.017 16.2564V21.5048C123.017 22.2419 122.998 22.6805 122.961 22.8204C122.867 23.175 122.699 23.4456 122.457 23.6322C122.224 23.8095 121.808 23.8981 121.211 23.8981H120.945V24.402H127.285V23.8981C126.67 23.8981 126.245 23.8328 126.012 23.7022C125.788 23.5715 125.625 23.3896 125.522 23.1563C125.391 22.8671 125.326 22.3166 125.326 21.5048V16.0325C125.326 14.8755 125.223 14.0171 125.018 13.4572C124.719 12.6548 124.318 12.081 123.814 11.7357C123.311 11.3812 122.709 11.2039 122.009 11.2039Z" fill="white"/>
<path d="M134.955 3.36998L134.369 2.34817C134.003 2.55796 133.777 2.94782 133.777 3.36998H134.955ZM134.955 5.46003H133.777C133.777 5.87743 133.998 6.26364 134.358 6.47515C134.718 6.68666 135.163 6.69186 135.527 6.48881L134.955 5.46003ZM143.022 5.666H144.2C144.2 5.36762 144.086 5.08037 143.883 4.8623L143.022 5.666ZM143.022 8.96528H141.845C141.845 9.41914 142.105 9.8326 142.515 10.028L143.022 8.96528ZM149.409 8.56467L150.003 9.58158L150.003 9.58157L149.409 8.56467ZM149.988 8.23204H151.165C151.165 7.81454 150.944 7.42825 150.584 7.21678C150.224 7.0053 149.779 7.00026 149.415 7.20354L149.988 8.23204ZM149.988 18.4974L150.562 19.5256C150.934 19.3176 151.165 18.9242 151.165 18.4974H149.988ZM140.456 18.4974H139.278C139.278 18.9011 139.485 19.2767 139.826 19.4925L140.456 18.4974ZM140.456 14.3361H141.633C141.633 13.7843 141.25 13.3066 140.712 13.1867L140.456 14.3361ZM134.955 16.0713L134.336 15.0691C133.989 15.2836 133.777 15.6628 133.777 16.0713H134.955ZM134.955 24.364V25.5415C135.605 25.5415 136.132 25.0143 136.132 24.364H134.955ZM134.221 24.364H133.044C133.044 25.0143 133.571 25.5415 134.221 25.5415V24.364ZM134.221 3.36677H135.399C135.399 2.94829 135.177 2.56125 134.815 2.35012L134.221 3.36677ZM16.9148 9.8744V11.0519C17.2361 11.0519 17.5434 10.9206 17.7656 10.6884C17.9877 10.4563 18.1053 10.1434 18.0911 9.82244L16.9148 9.8744ZM16.7182 5.42373L17.8945 5.37177C17.8667 4.74228 17.3483 4.24623 16.7182 4.24623V5.42373ZM16.4167 9.8744L15.248 10.0177C15.3204 10.6082 15.8219 11.0519 16.4167 11.0519V9.8744ZM16.0236 8.1949L17.0792 7.67319L17.0765 7.66789L16.0236 8.1949ZM14.9358 7.00526L14.3402 8.02104C14.3483 8.02581 14.3565 8.03047 14.3648 8.03504L14.9358 7.00526ZM10.6632 6.61337V5.43588C10.0128 5.43588 9.48566 5.96306 9.48566 6.61337H10.6632ZM11.017 23.2964L10.1045 24.0406C10.1092 24.0463 10.1139 24.052 10.1186 24.0576L11.017 23.2964ZM13.1664 23.8842H14.3439C14.3439 23.2339 13.8167 22.7067 13.1664 22.7067V23.8842ZM13.1664 24.4021V25.5796C13.8167 25.5796 14.3439 25.0524 14.3439 24.4021H13.1664ZM5.6304 24.4021H4.45291C4.45291 25.0524 4.98009 25.5796 5.6304 25.5796V24.4021ZM5.6304 23.8842V22.7067C4.98009 22.7067 4.45291 23.2339 4.45291 23.8842H5.6304ZM7.85844 23.1565L8.84647 23.797L8.8485 23.7938L7.85844 23.1565ZM8.14678 6.61337H9.32427C9.32427 5.96306 8.79709 5.43588 8.14678 5.43588V6.61337ZM4.24115 6.80931L3.8289 5.70634C3.82363 5.70831 3.81837 5.71032 3.81313 5.71237L4.24115 6.80931ZM3.0747 7.83101L4.06574 8.46689L4.06574 8.46689L3.0747 7.83101ZM2.49803 9.8744V11.0519C3.11587 11.0519 3.62864 10.5744 3.67255 9.95809L2.49803 9.8744ZM2 9.8744L0.823812 9.81899C0.808662 10.1405 0.925817 10.4543 1.14802 10.6872C1.37022 10.9201 1.67809 11.0519 2 11.0519V9.8744ZM2.2097 5.42373V4.24623C1.58093 4.24623 1.0631 4.74024 1.03351 5.36831L2.2097 5.42373ZM22.5709 4.5H23.7484C23.7484 3.84969 23.2212 3.32251 22.5709 3.32251V4.5ZM22.5709 13.8772H21.3934C21.3934 14.3636 21.6925 14.7999 22.1461 14.9754C22.5997 15.1509 23.1146 15.0294 23.4419 14.6696L22.5709 13.8772ZM21.9271 4.5V3.32251C21.7743 3.32251 21.623 3.35224 21.4816 3.41005L21.9271 4.5ZM18.0923 6.06753L17.6467 4.97758C17.048 5.22233 16.7588 5.90426 16.999 6.50484L18.0923 6.06753ZM18.2882 6.55739L17.1949 6.9947C17.4276 7.57625 18.0747 7.87391 18.6677 7.67206L18.2882 6.55739ZM19.8138 6.5154L19.0426 7.40522C19.052 7.41339 19.0616 7.4214 19.0712 7.42927L19.8138 6.5154ZM20.1357 7.2012L18.9798 7.42594C18.9818 7.4362 18.9839 7.44643 18.9862 7.45663L20.1357 7.2012ZM20.0797 23.1005L21.162 23.5643L21.162 23.5643L20.0797 23.1005ZM19.6318 23.6323L19.1052 22.5791C19.0934 22.585 19.0817 22.5912 19.07 22.5975L19.6318 23.6323ZM18.2882 23.8982V22.7207C17.6379 22.7207 17.1107 23.2479 17.1107 23.8982H18.2882ZM18.2882 24.4021H17.1107C17.1107 25.0524 17.6379 25.5796 18.2882 25.5796V24.4021ZM24.6423 24.4021V25.5796C25.2926 25.5796 25.8198 25.0524 25.8198 24.4021H24.6423ZM24.6423 23.8982H25.8198C25.8198 23.2479 25.2926 22.7207 24.6423 22.7207V23.8982ZM23.2567 23.6883L22.6725 24.7106C22.6868 24.7188 22.7012 24.7266 22.7158 24.7342L23.2567 23.6883ZM22.7109 23.1425L21.6311 23.612C21.6367 23.6249 21.6425 23.6378 21.6486 23.6505L22.7109 23.1425ZM22.5709 14.731L21.7116 13.926C21.5072 14.1442 21.3934 14.432 21.3934 14.731H22.5709ZM24.3484 13.2614L23.8298 12.2043L23.8298 12.2043L24.3484 13.2614ZM26.9236 13.2334L26.2446 14.1954C26.251 14.1999 26.2574 14.2043 26.2639 14.2087L26.9236 13.2334ZM27.6094 14.2131L26.4877 14.5711C26.49 14.5783 26.4923 14.5854 26.4948 14.5926L27.6094 14.2131ZM27.7914 22.8206L28.9301 23.1202C28.9373 23.0929 28.9435 23.0653 28.9487 23.0376L27.7914 22.8206ZM27.3015 23.6323L28.014 24.5698C28.0218 24.5639 28.0295 24.5579 28.0371 24.5518L27.3015 23.6323ZM25.762 23.8982V22.7207C25.1117 22.7207 24.5845 23.2479 24.5845 23.8982H25.762ZM25.762 24.4021H24.5845C24.5845 25.0524 25.1117 25.5796 25.762 25.5796V24.4021ZM32.0601 24.4021V25.5796C32.7104 25.5796 33.2376 25.0524 33.2376 24.4021H32.0601ZM32.0601 23.8982H33.2376C33.2376 23.2479 32.7104 22.7207 32.0601 22.7207V23.8982ZM30.8285 23.7023L31.4218 22.6852L31.4218 22.6852L30.8285 23.7023ZM30.3526 23.1704L31.4395 22.7176C31.4369 22.7112 31.4342 22.7048 31.4314 22.6985L30.3526 23.1704ZM29.8908 13.6953L28.7609 14.0269L28.762 14.0304L29.8908 13.6953ZM28.7291 11.8058L28.012 12.7398L28.012 12.7398L28.7291 11.8058ZM25.0342 11.6939L25.58 12.7373L25.5925 12.7306L25.0342 11.6939ZM36.1839 20.9133L37.0758 20.1444L37.0758 20.1444L36.1839 20.9133ZM34.7983 16.4346V15.2571C34.1503 15.2571 33.624 15.7808 33.6209 16.4288L34.7983 16.4346ZM41.6563 21.851L42.3582 22.7964L42.3605 22.7947L41.6563 21.851ZM43.2238 19.4717L43.8622 18.4823C43.5628 18.2891 43.1922 18.2419 42.854 18.3538C42.5158 18.4657 42.2464 18.7247 42.1213 19.0583L43.2238 19.4717ZM43.6577 19.7516L44.8216 19.93C44.8919 19.4712 44.6861 19.0138 44.2961 18.7622L43.6577 19.7516ZM41.9502 23.2506L42.8247 24.0392L42.8281 24.0353L41.9502 23.2506ZM34.4484 23.0266L33.5762 23.8177L33.5827 23.8248L34.4484 23.0266ZM34.4904 13.0616L33.6224 12.266L33.6222 12.2663L34.4904 13.0616ZM42.2721 12.6417L41.4272 13.4618L41.4312 13.466L42.2721 12.6417ZM43.6577 16.4346V17.6121C44.308 17.6121 44.8352 17.0849 44.8352 16.4346H43.6577ZM40.7326 15.6229V16.8003C41.0565 16.8003 41.366 16.6669 41.5885 16.4315C41.8109 16.1961 41.9265 15.8794 41.9082 15.5561L40.7326 15.6229ZM34.7983 15.6229L33.6262 15.5107C33.5946 15.841 33.7038 16.1693 33.927 16.4148C34.1502 16.6604 34.4665 16.8003 34.7983 16.8003V15.6229ZM40.4387 13.8874L41.5147 13.4091L41.5139 13.4074L40.4387 13.8874ZM39.389 12.6557L38.7451 13.6417L38.7542 13.6475L39.389 12.6557ZM35.862 13.1176L36.6882 13.9566L36.6883 13.9565L35.862 13.1176ZM54.9104 24.4021L53.8403 24.8935C54.0323 25.3116 54.4503 25.5796 54.9104 25.5796V24.4021ZM47.5765 8.43283L48.6466 7.94142C48.4156 7.43852 47.8656 7.16431 47.325 7.28251C46.7844 7.40072 46.399 7.87944 46.399 8.43283H47.5765ZM55.3722 24.4021V25.5796C55.8326 25.5796 56.2508 25.3112 56.4426 24.8927L55.3722 24.4021ZM62.692 8.43283H63.8695C63.8695 7.87928 63.484 7.40047 62.9431 7.28242C62.4023 7.16438 61.8523 7.43898 61.6216 7.94219L62.692 8.43283ZM62.3841 23.1565L61.4138 22.4893L61.4073 22.499L62.3841 23.1565ZM60.0048 23.8842V22.7067C59.3545 22.7067 58.8273 23.2339 58.8273 23.8842H60.0048ZM60.0048 24.4021H58.8273C58.8273 25.0524 59.3545 25.5796 60.0048 25.5796V24.4021ZM68.0664 24.4021V25.5796C68.7168 25.5796 69.2439 25.0524 69.2439 24.4021H68.0664ZM68.0664 23.8842H69.2439C69.2439 23.2339 68.7168 22.7067 68.0664 22.7067V23.8842ZM65.7711 23.2964L66.6547 22.5181C66.6515 22.5144 66.6482 22.5108 66.645 22.5072L65.7711 23.2964ZM65.6872 6.66936L64.719 5.99912L64.7168 6.00227L65.6872 6.66936ZM68.0664 5.94157V7.11907C68.7168 7.11907 69.2439 6.59188 69.2439 5.94157H68.0664ZM68.0664 5.42373H69.2439C69.2439 4.77342 68.7168 4.24623 68.0664 4.24623V5.42373ZM62.692 5.42373V4.24623C62.2309 4.24623 61.8122 4.51545 61.6208 4.93503L62.692 5.42373ZM55.9181 20.2733L54.8498 20.7687C55.0433 21.1858 55.4619 21.4522 55.9217 21.4508C56.3816 21.4494 56.7985 21.1804 56.9893 20.762L55.9181 20.2733ZM49.0321 5.42373L50.1003 4.92837C49.9074 4.5124 49.4906 4.24623 49.0321 4.24623V5.42373ZM43.6577 5.42373V4.24623C43.0074 4.24623 42.4802 4.77342 42.4802 5.42373H43.6577ZM43.6577 5.94157H42.4802C42.4802 6.59188 43.0074 7.11907 43.6577 7.11907V5.94157ZM45.3372 6.22149L44.7773 7.25734C44.7883 7.26329 44.7994 7.26907 44.8106 7.27467L45.3372 6.22149ZM46.065 6.89329L45.0046 7.4052C45.007 7.41011 45.0094 7.415 45.0118 7.41988L46.065 6.89329ZM46.037 23.1565L47.0051 23.8267L47.0073 23.8235L46.037 23.1565ZM43.6577 23.8842V22.7067C43.0074 22.7067 42.4802 23.2339 42.4802 23.8842H43.6577ZM43.6577 24.4021H42.4802C42.4802 25.0524 43.0074 25.5796 43.6577 25.5796V24.4021ZM50.2637 24.4021V25.5796C50.914 25.5796 51.4412 25.0524 51.4412 24.4021H50.2637ZM50.2637 23.8842H51.4412C51.4412 23.2339 50.914 22.7067 50.2637 22.7067V23.8842ZM47.9544 23.2964L47.0665 24.0698L47.0709 24.0748L47.9544 23.2964ZM72.3425 4.91988L71.4959 5.73827C71.5052 5.74783 71.5146 5.75723 71.5241 5.76648L72.3425 4.91988ZM72.3425 6.92128L71.5099 6.08867C71.5052 6.09337 71.5006 6.09811 71.4959 6.10289L72.3425 6.92128ZM70.3411 6.92128L69.5085 7.75389L69.5085 7.7539L70.3411 6.92128ZM70.3271 4.91988L69.4945 4.08726L69.4945 4.08727L70.3271 4.91988ZM72.5105 11.204H73.688C73.688 10.5537 73.1608 10.0265 72.5105 10.0265V11.204ZM72.6784 23.1145L71.5904 23.5647C71.5968 23.58 71.6034 23.5952 71.6104 23.6103L72.6784 23.1145ZM73.1963 23.7023L72.603 24.7194C72.6089 24.7229 72.6149 24.7263 72.6209 24.7297L73.1963 23.7023ZM74.4559 23.8982H75.6334C75.6334 23.2479 75.1062 22.7207 74.4559 22.7207V23.8982ZM74.4559 24.4021V25.5796C75.1062 25.5796 75.6334 25.0524 75.6334 24.4021H74.4559ZM68.2277 24.4021H67.0503C67.0503 25.0524 67.5774 25.5796 68.2277 25.5796V24.4021ZM68.2277 23.8982V22.7207C67.5774 22.7207 67.0503 23.2479 67.0503 23.8982H68.2277ZM69.4874 23.7163L68.908 22.6912L68.908 22.6912L69.4874 23.7163ZM69.9912 23.1145L68.9242 22.6165C68.9196 22.6264 68.9151 22.6363 68.9108 22.6463L69.9912 23.1145ZM70.0612 13.8632L71.2148 13.6272C71.2137 13.622 71.2126 13.6168 71.2115 13.6116L70.0612 13.8632ZM69.7533 13.2474L68.9821 14.1372C68.9938 14.1473 69.0057 14.1572 69.0177 14.1669L69.7533 13.2474ZM68.2277 13.2754L67.1303 13.7022C67.364 14.3031 68.0375 14.6043 68.6412 14.3779L68.2277 13.2754ZM68.0318 12.7715L67.589 11.6805C66.9927 11.9225 66.7011 12.5985 66.9344 13.1983L68.0318 12.7715ZM71.8947 11.204V10.0265C71.7429 10.0265 71.5925 10.0559 71.4519 10.1129L71.8947 11.204ZM83.4319 11.2142H84.6094C84.6094 10.5639 84.0822 10.0367 83.4319 10.0367V11.2142ZM83.4319 15.5809V16.7584C84.0822 16.7584 84.6094 16.2312 84.6094 15.5809H83.4319ZM82.97 11.2142V10.0367C82.524 10.0367 82.1163 10.2887 81.9168 10.6876L82.97 11.2142ZM82.6761 11.648L81.9532 10.7186L81.9531 10.7186L82.6761 11.648ZM81.3745 11.5361L81.0375 12.6643L81.0422 12.6657L81.3745 11.5361ZM76.7279 12.2778L75.9061 11.4345L75.9007 11.4398L76.7279 12.2778ZM76.28 16.9385L77.2104 16.2166L77.2042 16.2088L76.28 16.9385ZM81.6404 20.4234L80.8166 21.2648L80.8253 21.2732L81.6404 20.4234ZM81.7104 23.4185L82.5124 24.2807L82.5131 24.28L81.7104 23.4185ZM76.168 20.0315L77.3227 19.8006C77.2126 19.2502 76.7293 18.854 76.168 18.854V20.0315ZM75.7062 20.0315V18.854C75.0559 18.854 74.5287 19.3812 74.5287 20.0315H75.7062ZM75.7062 24.6082H74.5287C74.5287 25.2585 75.0559 25.7857 75.7062 25.7857V24.6082ZM76.168 24.6082V25.7857C76.614 25.7857 77.0217 25.5337 77.2212 25.1348L76.168 24.6082ZM77.4277 24.3842L77.0862 25.5111C77.0949 25.5138 77.1037 25.5163 77.1125 25.5188L77.4277 24.3842ZM83.068 23.7404L83.8083 24.6561L83.8094 24.6552L83.068 23.7404ZM81.5564 17.2604L82.0726 16.202L82.0714 16.2014L81.5564 17.2604ZM79.513 16.2667L80.028 15.2077L80.0262 15.2069L79.513 16.2667ZM77.7496 15.049L78.6888 14.3389C78.6823 14.3303 78.6757 14.3218 78.669 14.3134L77.7496 15.049ZM81.5984 12.7817L80.8115 13.6577L80.8189 13.6642L81.5984 12.7817ZM82.97 15.5809L81.83 15.8756C81.9643 16.3953 82.4332 16.7584 82.97 16.7584V15.5809ZM92.8518 15.5809V16.7584C93.5021 16.7584 94.0293 16.2312 94.0293 15.5809H92.8518ZM92.8518 11.2142H94.0293C94.0293 10.5639 93.5021 10.0367 92.8518 10.0367V11.2142ZM92.39 15.5809L91.2499 15.8756C91.3843 16.3953 91.8531 16.7584 92.39 16.7584V15.5809ZM91.0184 12.7817L90.2315 13.6577L90.2388 13.6642L91.0184 12.7817ZM87.1695 15.049L88.1087 14.3389C88.1023 14.3303 88.0957 14.3218 88.089 14.3134L87.1695 15.049ZM88.933 16.2667L89.4479 15.2077L89.4461 15.2069L88.933 16.2667ZM90.9764 17.2604L91.4925 16.202L91.4913 16.2014L90.9764 17.2604ZM92.4879 23.7404L93.2282 24.6561L93.2294 24.6552L92.4879 23.7404ZM86.8476 24.3842L86.5061 25.5111C86.5149 25.5138 86.5236 25.5163 86.5325 25.5188L86.8476 24.3842ZM85.588 24.6082V25.7857C86.034 25.7857 86.4417 25.5337 86.6412 25.1348L85.588 24.6082ZM85.1261 24.6082H83.9486C83.9486 25.2585 84.4758 25.7857 85.1261 25.7857V24.6082ZM85.1261 20.0315V18.854C84.4758 18.854 83.9486 19.3812 83.9486 20.0315H85.1261ZM85.588 20.0315L86.7426 19.8006C86.6325 19.2502 86.1493 18.854 85.588 18.854V20.0315ZM91.1303 23.4185L91.9323 24.2807L91.9331 24.28L91.1303 23.4185ZM91.0603 20.4234L90.2365 21.2648L90.2453 21.2732L91.0603 20.4234ZM88.3592 18.7579L88.8828 17.7033L88.8828 17.7033L88.3592 18.7579ZM85.6999 16.9385L86.6303 16.2166L86.6241 16.2088L85.6999 16.9385ZM86.1478 12.2778L85.3261 11.4345L85.3207 11.4398L86.1478 12.2778ZM90.7944 11.5361L90.4574 12.6643L90.4622 12.6657L90.7944 11.5361ZM92.096 11.648L91.3731 10.7186L91.3731 10.7186L92.096 11.648ZM92.39 11.2142V10.0367C91.944 10.0367 91.5362 10.2887 91.3368 10.6876L92.39 11.2142ZM99.0716 4.91988L98.225 5.73827C98.2343 5.74783 98.2437 5.75723 98.2532 5.76648L99.0716 4.91988ZM97.0562 4.91988L96.2236 4.08726L96.2236 4.08727L97.0562 4.91988ZM97.0702 6.92128L96.2376 7.75389L96.2376 7.7539L97.0702 6.92128ZM99.0716 6.92128L98.239 6.08867C98.2343 6.09337 98.2296 6.09811 98.225 6.10289L99.0716 6.92128ZM99.2396 11.204H100.417C100.417 10.5537 99.8899 10.0265 99.2396 10.0265V11.204ZM98.6237 11.204V10.0265C98.472 10.0265 98.3216 10.0559 98.181 10.1129L98.6237 11.204ZM94.7609 12.7715L94.3181 11.6805C93.7218 11.9225 93.4302 12.5985 93.6635 13.1983L94.7609 12.7715ZM94.9568 13.2754L93.8594 13.7022C94.0931 14.3031 94.7666 14.6043 95.3703 14.3779L94.9568 13.2754ZM96.4824 13.2474L95.7112 14.1372C95.7229 14.1473 95.7348 14.1572 95.7468 14.1669L96.4824 13.2474ZM96.7903 13.8632L97.9439 13.6272C97.9428 13.622 97.9417 13.6168 97.9406 13.6116L96.7903 13.8632ZM96.7203 23.1145L95.6533 22.6165C95.6487 22.6264 95.6442 22.6363 95.6399 22.6463L96.7203 23.1145ZM96.2165 23.7163L95.6371 22.6912L95.6371 22.6912L96.2165 23.7163ZM94.9568 23.8982V22.7207C94.3065 22.7207 93.7793 23.2479 93.7793 23.8982H94.9568ZM94.9568 24.4021H93.7793C93.7793 25.0524 94.3065 25.5796 94.9568 25.5796V24.4021ZM101.185 24.4021V25.5796C101.835 25.5796 102.362 25.0524 102.362 24.4021H101.185ZM101.185 23.8982H102.362C102.362 23.2479 101.835 22.7207 101.185 22.7207V23.8982ZM99.9254 23.7023L99.3321 24.7194C99.338 24.7229 99.344 24.7263 99.35 24.7297L99.9254 23.7023ZM99.4075 23.1145L98.3195 23.5647C98.3258 23.58 98.3325 23.5952 98.3395 23.6103L99.4075 23.1145ZM111.994 13.0233L112.917 12.2919L112.915 12.2892L111.994 13.0233ZM112.666 20.847L113.732 21.3463L113.732 21.3463L112.666 20.847ZM110.385 23.5062L109.768 22.5034L109.763 22.5061L110.385 23.5062ZM102.561 22.0926L103.508 21.3926L103.507 21.3916L102.561 22.0926ZM101.987 14.227L100.936 13.697L100.934 13.7004L101.987 14.227ZM104.297 11.6517L104.886 12.671L104.894 12.6666L104.297 11.6517ZM105.388 12.1696L105.983 13.186L105.989 13.1826L105.388 12.1696ZM104.185 13.7091L103.098 13.2553L103.098 13.2553L104.185 13.7091ZM104.828 21.3788L103.794 21.9422L103.797 21.9477L104.828 21.3788ZM109.419 13.0653L108.472 13.7655L108.477 13.7718L109.419 13.0653ZM117.712 13.9191H116.535C116.535 14.4153 116.846 14.8582 117.312 15.0267C117.779 15.1951 118.301 15.0529 118.618 14.6711L117.712 13.9191ZM117.712 11.2039H118.89C118.89 10.5536 118.363 10.0264 117.712 10.0264V11.2039ZM117.11 11.2039V10.0264C116.959 10.0264 116.808 10.0557 116.668 10.1128L117.11 11.2039ZM113.248 12.7714L112.805 11.6803C112.514 11.7985 112.282 12.0281 112.161 12.318C112.04 12.608 112.04 12.9343 112.161 13.2243L113.248 12.7714ZM113.457 13.2753L112.371 13.7282C112.616 14.3168 113.285 14.6032 113.88 14.3743L113.457 13.2753ZM114.969 13.2473L114.198 14.1371C114.207 14.1453 114.217 14.1533 114.227 14.1612L114.969 13.2473ZM115.291 13.9331L114.135 14.1578C114.137 14.1681 114.139 14.1783 114.141 14.1885L115.291 13.9331ZM115.053 23.4083L114.086 22.7366L114.082 22.7424L115.053 23.4083ZM113.457 23.8981V22.7206C112.807 22.7206 112.28 23.2478 112.28 23.8981H113.457ZM113.457 24.402H112.28C112.28 25.0523 112.807 25.5795 113.457 25.5795V24.402ZM119.798 24.402V25.5795C120.448 25.5795 120.975 25.0523 120.975 24.402H119.798ZM119.798 23.8981H120.975C120.975 23.2478 120.448 22.7206 119.798 22.7206V23.8981ZM118.398 23.7162L117.805 24.7333C117.821 24.7429 117.838 24.7521 117.855 24.7609L118.398 23.7162ZM117.866 23.1143L118.927 22.6024C118.924 22.5975 118.922 22.5926 118.919 22.5878L117.866 23.1143ZM117.712 14.7448L116.84 13.9534C116.644 14.1701 116.535 14.4522 116.535 14.7448H117.712ZM122.555 13.7231L121.528 14.2996C121.532 14.3067 121.536 14.3139 121.54 14.3209L122.555 13.7231ZM122.961 22.8204L121.823 22.517L121.822 22.5208L122.961 22.8204ZM122.457 23.6322L123.169 24.5697L123.175 24.5655L122.457 23.6322ZM120.945 23.8981V22.7206C120.295 22.7206 119.768 23.2478 119.768 23.8981H120.945ZM120.945 24.402H119.768C119.768 25.0523 120.295 25.5795 120.945 25.5795V24.402ZM127.285 24.402V25.5795C127.936 25.5795 128.463 25.0523 128.463 24.402H127.285ZM127.285 23.8981H128.463C128.463 23.2478 127.936 22.7206 127.285 22.7206V23.8981ZM126.012 23.7022L125.418 24.7193C125.424 24.7227 125.43 24.7262 125.436 24.7296L126.012 23.7022ZM125.522 23.1563L126.6 22.6821L126.595 22.6717L125.522 23.1563ZM125.018 13.4572L126.124 13.0519L126.122 13.0466L125.018 13.4572ZM123.814 11.7357L123.137 12.6987C123.141 12.7015 123.145 12.7043 123.149 12.7071L123.814 11.7357ZM135.54 4.39178C136.112 4.0642 136.501 3.44495 136.501 2.73324H134.146C134.146 2.56661 134.239 2.42299 134.369 2.34817L135.54 4.39178ZM136.132 5.46003V3.36998H133.777V5.46003H136.132ZM143.883 4.8623C142.684 3.57839 141.402 2.71598 139.721 2.66208C138.14 2.61141 136.428 3.29177 134.382 4.43124L135.527 6.48881C137.524 5.37685 138.751 4.98718 139.645 5.01586C140.439 5.04129 141.17 5.40759 142.162 6.4697L143.883 4.8623ZM144.2 8.96528V5.666H141.845V8.96528H144.2ZM148.816 7.54776C147.964 8.04487 147.331 8.40125 146.578 8.52687C145.87 8.64505 144.932 8.57192 143.529 7.90254L142.515 10.028C144.249 10.8553 145.678 11.0646 146.966 10.8497C148.209 10.6423 149.2 10.05 150.003 9.58158L148.816 7.54776ZM149.415 7.20354C149.207 7.31904 149.005 7.43706 148.816 7.54777L150.003 9.58157C150.196 9.46896 150.378 9.36277 150.561 9.26055L149.415 7.20354ZM151.165 18.4974V8.23204H148.81V18.4974H151.165ZM139.826 19.4925C141.71 20.6837 143.364 21.3492 145.145 21.3287C146.902 21.3085 148.599 20.6207 150.562 19.5256L149.414 17.4692C147.545 18.5124 146.272 18.9606 145.118 18.9739C143.989 18.9868 142.794 18.5832 141.085 17.5022L139.826 19.4925ZM139.278 14.3361V18.4974H141.633V14.3361H139.278ZM135.573 17.0735C137.903 15.6361 139.014 15.2215 140.2 15.4854L140.712 13.1867C138.49 12.6922 136.609 13.6674 134.336 15.0691L135.573 17.0735ZM136.132 24.364V16.0713H133.777V24.364H136.132ZM134.221 25.5415H134.955V23.1865H134.221V25.5415ZM133.044 3.36677V24.364H135.399V3.36677H133.044ZM132.68 2.73324C132.68 3.43895 133.063 4.05383 133.627 4.38343L134.815 2.35012C134.944 2.42537 135.035 2.56804 135.035 2.73324H132.68ZM134.591 0.822507C133.535 0.822507 132.68 1.67798 132.68 2.73324H135.035C135.035 2.97858 134.836 3.17749 134.591 3.17749V0.822507ZM136.501 2.73324C136.501 1.67797 135.646 0.822507 134.591 0.822507V3.17749C134.345 3.17749 134.146 2.9786 134.146 2.73324H136.501ZM18.0911 9.82244L17.8945 5.37177L15.5418 5.47569L15.7384 9.92636L18.0911 9.82244ZM16.4167 11.0519H16.9148V8.69691H16.4167V11.0519ZM14.968 8.71661C15.0401 8.86264 15.1542 9.25287 15.248 10.0177L17.5855 9.73108C17.4871 8.9284 17.339 8.19897 17.0792 7.67319L14.968 8.71661ZM14.3648 8.03504C14.5788 8.15374 14.788 8.35714 14.9706 8.72192L17.0765 7.66789C16.7174 6.95032 16.2014 6.36062 15.5067 5.97547L14.3648 8.03504ZM13.1664 7.79087C13.7744 7.79087 14.1356 7.9011 14.3402 8.02104L15.5313 5.98947C14.8447 5.5869 14.0264 5.43588 13.1664 5.43588V7.79087ZM10.6632 7.79087H13.1664V5.43588H10.6632V7.79087ZM11.8406 21.1131V6.61337H9.48566V21.1131H11.8406ZM11.9295 22.5522C11.9867 22.6223 11.9916 22.6601 11.9743 22.6103C11.959 22.5665 11.9362 22.4825 11.9139 22.3453C11.8691 22.0687 11.8406 21.6649 11.8406 21.1131H9.48566C9.48566 21.7275 9.51616 22.2708 9.58929 22.722C9.65486 23.1266 9.7808 23.6437 10.1045 24.0406L11.9295 22.5522ZM12.5504 22.7067C12.0803 22.7067 11.9534 22.5801 11.9154 22.5352L10.1186 24.0576C10.7447 24.7965 11.6401 25.0617 12.5504 25.0617V22.7067ZM13.1664 22.7067H12.5504V25.0617H13.1664V22.7067ZM14.3439 24.4021V23.8842H11.9889V24.4021H14.3439ZM5.6304 25.5796H13.1664V23.2246H5.6304V25.5796ZM4.45291 23.8842V24.4021H6.80789V23.8842H4.45291ZM6.25949 22.7067H5.6304V25.0617H6.25949V22.7067ZM6.87041 22.5159C6.83711 22.5673 6.74623 22.7067 6.25949 22.7067V25.0617C7.27559 25.0617 8.25067 24.716 8.84647 23.797L6.87041 22.5159ZM6.96928 21.1131C6.96928 21.6161 6.94616 21.992 6.90875 22.2571C6.86629 22.558 6.82133 22.5921 6.86838 22.5191L8.8485 23.7938C9.08778 23.4222 9.18698 22.9664 9.24063 22.5862C9.29934 22.1702 9.32427 21.6737 9.32427 21.1131H6.96928ZM6.96928 6.61337V21.1131H9.32427V6.61337H6.96928ZM6.01048 7.79087H8.14678V5.43588H6.01048V7.79087ZM4.65339 7.91228C4.78809 7.86194 5.19118 7.79087 6.01048 7.79087V5.43588C5.16966 5.43588 4.3932 5.49543 3.8289 5.70634L4.65339 7.91228ZM4.06574 8.46689C4.28581 8.12389 4.49486 7.97427 4.66916 7.90626L3.81313 5.71237C3.07874 5.99892 2.51016 6.53043 2.08367 7.19514L4.06574 8.46689ZM3.67255 9.95809C3.72545 9.21567 3.88526 8.74816 4.06574 8.46689L2.08367 7.19513C1.61757 7.92156 1.39294 8.81632 1.32352 9.79072L3.67255 9.95809ZM2 11.0519H2.49803V8.69691H2V11.0519ZM1.03351 5.36831L0.823812 9.81899L3.17619 9.92982L3.38589 5.47914L1.03351 5.36831ZM16.7182 4.24623H2.2097V6.60122H16.7182V4.24623ZM21.3934 4.5V13.8772H23.7484V4.5H21.3934ZM21.9271 5.67749H22.5709V3.32251H21.9271V5.67749ZM18.5378 7.15749L22.3727 5.58995L21.4816 3.41005L17.6467 4.97758L18.5378 7.15749ZM19.3815 6.12008L19.1855 5.63022L16.999 6.50484L17.1949 6.9947L19.3815 6.12008ZM19.2399 5.15596C18.8299 5.15596 18.3481 5.29313 17.9087 5.44271L18.6677 7.67206C18.8646 7.60504 19.015 7.56145 19.1247 7.53563C19.2449 7.50734 19.2727 7.51095 19.2399 7.51095V5.15596ZM20.5849 5.62558C20.1718 5.26757 19.6765 5.15596 19.2399 5.15596V7.51095C19.2648 7.51095 19.25 7.51423 19.2094 7.50136C19.1651 7.48732 19.1036 7.45807 19.0426 7.40522L20.5849 5.62558ZM21.2915 6.97645C21.2103 6.55865 21.0328 5.98868 20.5563 5.60153L19.0712 7.42927C19.0213 7.38873 18.9882 7.34998 18.9683 7.32282C18.9487 7.29612 18.9407 7.27902 18.9403 7.27815C18.9398 7.2772 18.9449 7.28785 18.9528 7.31371C18.9606 7.33936 18.9701 7.37613 18.9798 7.42594L21.2915 6.97645ZM21.4251 9.90239C21.4251 9.16236 21.4157 8.55292 21.3961 8.07965C21.3777 7.63644 21.3481 7.22912 21.2851 6.94576L18.9862 7.45663C18.9861 7.45598 18.987 7.46029 18.9888 7.47058C18.9905 7.48069 18.9928 7.49477 18.9953 7.51335C19.0004 7.55097 19.0061 7.60098 19.012 7.66517C19.0236 7.7942 19.0343 7.96354 19.0432 8.17719C19.0609 8.60432 19.0701 9.17753 19.0701 9.90239H21.4251ZM21.4251 21.5049V9.90239H19.0701V21.5049H21.4251ZM21.162 23.5643C21.2889 23.2681 21.3452 22.9281 21.3767 22.6289C21.4105 22.3073 21.4251 21.9292 21.4251 21.5049H19.0701C19.0701 21.8832 19.0567 22.1722 19.0346 22.3824C19.0101 22.6151 18.9824 22.6715 18.9974 22.6366L21.162 23.5643ZM20.1584 24.6855C20.6716 24.4289 20.9801 23.9887 21.162 23.5643L18.9974 22.6366C18.9772 22.6838 18.9683 22.6884 18.9831 22.6709C19.0002 22.6505 19.0399 22.6118 19.1052 22.5791L20.1584 24.6855ZM18.2882 25.0757C18.9583 25.0757 19.6267 24.9749 20.1936 24.6672L19.07 22.5975C18.9838 22.6443 18.7565 22.7207 18.2882 22.7207V25.0757ZM19.4657 24.4021V23.8982H17.1107V24.4021H19.4657ZM24.6423 23.2246H18.2882V25.5796H24.6423V23.2246ZM23.4648 23.8982V24.4021H25.8198V23.8982H23.4648ZM22.7158 24.7342C23.2571 25.0142 23.9693 25.0757 24.6423 25.0757V22.7207C24.3535 22.7207 24.1372 22.705 23.9825 22.6815C23.8183 22.6567 23.7749 22.6306 23.7977 22.6424L22.7158 24.7342ZM21.6486 23.6505C21.879 24.1322 22.2585 24.4741 22.6725 24.7106L23.8409 22.6659C23.7862 22.6347 23.7627 22.613 23.7569 22.6073C23.7526 22.603 23.7623 22.6118 23.7732 22.6344L21.6486 23.6505ZM21.3934 21.5049C21.3934 21.9597 21.4054 22.3525 21.4327 22.6724C21.4562 22.9477 21.5002 23.3109 21.6311 23.612L23.7907 22.673C23.8187 22.7373 23.818 22.7623 23.8077 22.7063C23.7993 22.6604 23.7888 22.5847 23.7791 22.4719C23.7598 22.2459 23.7484 21.9273 23.7484 21.5049H21.3934ZM21.3934 14.731V21.5049H23.7484V14.731H21.3934ZM23.8298 12.2043C23.1417 12.5418 22.4322 13.1567 21.7116 13.926L23.4303 15.5359C24.0906 14.831 24.5661 14.4661 24.867 14.3185L23.8298 12.2043ZM25.776 11.72C25.1059 11.72 24.4531 11.8985 23.8298 12.2043L24.867 14.3185C25.2327 14.1391 25.5317 14.075 25.776 14.075V11.72ZM27.6027 12.2714C27.0575 11.8866 26.4285 11.72 25.776 11.72V14.075C26.0192 14.075 26.1554 14.1324 26.2446 14.1954L27.6027 12.2714ZM28.7312 13.8551C28.5277 13.2174 28.1612 12.649 27.5834 12.2581L26.2639 14.2087C26.3205 14.247 26.4113 14.3318 26.4877 14.5711L28.7312 13.8551ZM29.0109 16.9703C29.0109 16.2531 28.9919 15.6389 28.951 15.136C28.912 14.6552 28.8475 14.1962 28.7241 13.8336L26.4948 14.5926C26.5206 14.6686 26.5682 14.8884 26.6038 15.3266C26.6376 15.7427 26.6559 16.2879 26.6559 16.9703H29.0109ZM29.0109 21.5049V16.9703H26.6559V21.5049H29.0109ZM28.9487 23.0376C28.982 22.86 28.9932 22.6238 28.9998 22.4172C29.0073 22.18 29.0109 21.8744 29.0109 21.5049H26.6559C26.6559 21.8633 26.6524 22.1408 26.646 22.3421C26.6428 22.443 26.639 22.5179 26.6353 22.5705C26.6308 22.6325 26.6284 22.6339 26.6341 22.6036L28.9487 23.0376ZM28.0371 24.5518C28.5092 24.1741 28.7874 23.6626 28.9301 23.1202L26.6527 22.5209C26.6301 22.6065 26.606 22.6558 26.5908 22.681C26.5767 22.7043 26.5679 22.7113 26.566 22.7128L28.0371 24.5518ZM26.0559 25.0757C26.6887 25.0757 27.4507 24.9979 28.014 24.5698L26.5891 22.6948C26.6579 22.6425 26.6778 22.657 26.5693 22.6802C26.4677 22.7019 26.3024 22.7207 26.0559 22.7207V25.0757ZM25.762 25.0757H26.0559V22.7207H25.762V25.0757ZM26.9395 24.4021V23.8982H24.5845V24.4021H26.9395ZM32.0601 23.2246H25.762V25.5796H32.0601V23.2246ZM30.8826 23.8982V24.4021H33.2376V23.8982H30.8826ZM30.2352 24.7194C30.526 24.889 30.8465 24.9687 31.1193 25.0121C31.4058 25.0577 31.7239 25.0757 32.0601 25.0757V22.7207C31.7992 22.7207 31.6134 22.7061 31.4893 22.6864C31.3517 22.6645 31.3549 22.6462 31.4218 22.6852L30.2352 24.7194ZM29.2657 23.6233C29.4647 24.1008 29.8058 24.4689 30.2352 24.7194L31.4218 22.6852C31.4137 22.6805 31.4107 22.678 31.4111 22.6783C31.4116 22.6787 31.4147 22.6813 31.4191 22.6862C31.4236 22.6912 31.4281 22.6971 31.4321 22.7035C31.436 22.7098 31.4384 22.7149 31.4395 22.7176L29.2657 23.6233ZM28.9792 21.5049C28.9792 22.306 29.0331 23.0921 29.2739 23.6424L31.4314 22.6985C31.4342 22.705 31.4024 22.6247 31.3751 22.3926C31.3496 22.176 31.3342 21.8834 31.3342 21.5049H28.9792ZM28.9792 16.9703V21.5049H31.3342V16.9703H28.9792ZM28.762 14.0304C28.8846 14.4435 28.9792 15.3754 28.9792 16.9703H31.3342C31.3342 15.3928 31.2515 14.1413 31.0196 13.3602L28.762 14.0304ZM28.012 12.7398C28.2767 12.943 28.5545 13.3236 28.7609 14.0269L31.0206 13.3637C30.7231 12.3501 30.2265 11.4711 29.4462 10.8719L28.012 12.7398ZM26.8537 12.3815C27.3508 12.3815 27.7168 12.5131 28.012 12.7398L29.4462 10.8719C28.6964 10.2961 27.8121 10.0265 26.8537 10.0265V12.3815ZM25.5925 12.7306C26.0509 12.4837 26.4672 12.3815 26.8537 12.3815V10.0265C26.0272 10.0265 25.2304 10.2508 24.476 10.6571L25.5925 12.7306ZM23.4419 14.6696C24.4716 13.5379 25.1733 12.95 25.58 12.7372L24.4884 10.6505C23.6822 11.0722 22.7417 11.9399 21.7 13.0848L23.4419 14.6696ZM37.0758 20.1444C36.3824 19.3401 35.9674 18.1552 35.9758 16.4404L33.6209 16.4288C33.6106 18.5209 34.1193 20.3217 35.2921 21.6821L37.0758 20.1444ZM39.4729 21.3593C38.6042 21.3593 37.8187 21.0063 37.0758 20.1444L35.2921 21.6821C36.4153 22.985 37.8225 23.7143 39.4729 23.7143V21.3593ZM40.9544 20.9056C40.561 21.1976 40.0852 21.3593 39.4729 21.3593V23.7143C40.5402 23.7143 41.52 23.4187 42.3582 22.7964L40.9544 20.9056ZM42.1213 19.0583C41.7415 20.071 41.3241 20.6297 40.9521 20.9073L42.3605 22.7947C43.2388 22.1392 43.8664 21.1117 44.3264 19.8851L42.1213 19.0583ZM44.2961 18.7622L43.8622 18.4823L42.5855 20.4612L43.0194 20.7411L44.2961 18.7622ZM42.8281 24.0353C43.9078 22.8274 44.5879 21.4548 44.8216 19.93L42.4938 19.5732C42.3357 20.605 41.8774 21.5651 41.0723 22.4659L42.8281 24.0353ZM38.4093 25.9956C40.1579 25.9956 41.657 25.334 42.8247 24.0391L41.0758 22.462C40.3587 23.2572 39.4971 23.6406 38.4093 23.6406V25.9956ZM33.5827 23.8248C34.8928 25.2459 36.521 25.9956 38.4093 25.9956V23.6406C37.2185 23.6406 36.2061 23.196 35.3142 22.2285L33.5827 23.8248ZM31.6334 18.1841C31.6334 20.4263 32.243 22.3477 33.5763 23.8177L35.3206 22.2356C34.4706 21.2983 33.9884 19.9913 33.9884 18.1841H31.6334ZM33.6222 12.2663C32.2465 13.768 31.6334 15.7941 31.6334 18.1841H33.9884C33.9884 16.1887 34.4951 14.7998 35.3587 13.857L33.6222 12.2663ZM38.7312 10.0367C36.7091 10.0367 34.9786 10.7865 33.6224 12.266L35.3584 13.8573C36.2603 12.8734 37.3569 12.3917 38.7312 12.3917V10.0367ZM43.1171 11.8216C41.9519 10.6212 40.457 10.0367 38.7312 10.0367V12.3917C39.8791 12.3917 40.7449 12.7589 41.4272 13.4618L43.1171 11.8216ZM44.8352 16.4346C44.8352 14.6066 44.2949 13.0232 43.113 11.8175L41.4312 13.466C42.0968 14.145 42.4802 15.0902 42.4802 16.4346H44.8352ZM34.7983 17.6121H43.6577V15.2571H34.7983V17.6121ZM40.7326 14.4454H34.7983V16.8003H40.7326V14.4454ZM39.3627 14.3656C39.4176 14.4893 39.5109 14.8784 39.557 15.6896L41.9082 15.5561C41.861 14.7251 41.7583 13.9573 41.5147 13.4091L39.3627 14.3656ZM38.7542 13.6475C39.0205 13.8179 39.2206 14.0474 39.3634 14.3674L41.5139 13.4074C41.1902 12.6823 40.6905 12.0907 40.0237 11.664L38.7542 13.6475ZM37.9474 13.3854C38.2034 13.3854 38.4627 13.4571 38.7451 13.6416L40.0328 11.6699C39.4009 11.2572 38.6991 11.0304 37.9474 11.0304V13.3854ZM36.6883 13.9565C37.1117 13.5395 37.5192 13.3854 37.9474 13.3854V11.0304C36.8267 11.0304 35.844 11.4827 35.0358 12.2786L36.6883 13.9565ZM35.9705 15.735C36.054 14.8622 36.3267 14.3125 36.6882 13.9566L35.0359 12.2786C34.1844 13.117 33.748 14.2375 33.6262 15.5107L35.9705 15.735ZM55.9804 23.9107L48.6466 7.94142L46.5065 8.92425L53.8403 24.8935L55.9804 23.9107ZM55.3722 23.2246H54.9104V25.5796H55.3722V23.2246ZM61.6216 7.94219L54.3018 23.9114L56.4426 24.8927L63.7624 8.92347L61.6216 7.94219ZM63.8695 21.1131V8.43283H61.5146V21.1131H63.8695ZM63.3544 23.8235C63.6132 23.4472 63.7213 22.9828 63.7794 22.5971C63.8428 22.1762 63.8695 21.6757 63.8695 21.1131H61.5146C61.5146 21.6141 61.4899 21.986 61.4507 22.2462C61.4062 22.5416 61.3603 22.5672 61.4138 22.4894L63.3544 23.8235ZM60.6766 25.0617C61.7146 25.0617 62.737 24.741 63.361 23.8139L61.4073 22.499C61.3782 22.5423 61.2622 22.7067 60.6766 22.7067V25.0617ZM60.0048 25.0617H60.6766V22.7067H60.0048V25.0617ZM61.1823 24.4021V23.8842H58.8273V24.4021H61.1823ZM68.0664 23.2246H60.0048V25.5796H68.0664V23.2246ZM66.889 23.8842V24.4021H69.2439V23.8842H66.889ZM67.4086 25.0617H68.0664V22.7067H67.4086V25.0617ZM64.8876 24.0748C65.539 24.8142 66.4732 25.0617 67.4086 25.0617V22.7067C66.8512 22.7067 66.6937 22.5624 66.6547 22.5181L64.8876 24.0748ZM64.2017 21.1131C64.2017 21.731 64.2357 22.2816 64.3182 22.7417C64.3931 23.1585 64.5376 23.6874 64.8973 24.0857L66.645 22.5072C66.7066 22.5754 66.7146 22.616 66.6984 22.5739C66.6839 22.5361 66.66 22.4581 66.6362 22.3256C66.5881 22.0578 66.5567 21.6614 66.5567 21.1131H64.2017ZM64.2017 8.71275V21.1131H66.5567V8.71275H64.2017ZM64.7168 6.00227C64.4581 6.37865 64.35 6.84296 64.2919 7.22869C64.2284 7.6496 64.2017 8.1501 64.2017 8.71275H66.5567C66.5567 8.21171 66.5814 7.8398 66.6206 7.57959C66.6651 7.28419 66.7109 7.25864 66.6575 7.33644L64.7168 6.00227ZM67.4086 4.76408C66.3684 4.76408 65.3516 5.08543 64.719 5.99912L66.6553 7.33959C66.6945 7.28291 66.8254 7.11907 67.4086 7.11907V4.76408ZM68.0664 4.76408H67.4086V7.11907H68.0664V4.76408ZM66.889 5.42373V5.94157H69.2439V5.42373H66.889ZM62.692 6.60122H68.0664V4.24623H62.692V6.60122ZM56.9893 20.762L63.7633 5.91242L61.6208 4.93503L54.8468 19.7846L56.9893 20.762ZM47.9639 5.91908L54.8498 20.7687L56.9863 19.778L50.1003 4.92837L47.9639 5.91908ZM43.6577 6.60122H49.0321V4.24623H43.6577V6.60122ZM44.8352 5.94157V5.42373H42.4802V5.94157H44.8352ZM45.8971 5.18564C45.2815 4.85289 44.4721 4.76408 43.6577 4.76408V7.11907C44.3921 7.11907 44.7024 7.21686 44.7773 7.25734L45.8971 5.18564ZM47.1254 6.38138C46.8501 5.81106 46.3769 5.42484 45.8638 5.16831L44.8106 7.27467C45.0067 7.3727 45.0187 7.43435 45.0046 7.4052L47.1254 6.38138ZM47.5224 8.71275C47.5224 7.83919 47.434 6.99839 47.1182 6.3667L45.0118 7.41988C45.0692 7.53463 45.1674 7.90681 45.1674 8.71275H47.5224ZM47.5224 21.1131V8.71275H45.1674V21.1131H47.5224ZM47.0073 23.8235C47.2661 23.4472 47.3742 22.9829 47.4323 22.5971C47.4957 22.1762 47.5224 21.6757 47.5224 21.1131H45.1674C45.1674 21.6141 45.1428 21.986 45.1036 22.2462C45.0591 22.5416 45.0132 22.5672 45.0667 22.4894L47.0073 23.8235ZM44.3295 25.0617C45.3664 25.0617 46.3751 24.7368 47.0051 23.8267L45.0689 22.4862C45.0271 22.5465 44.8974 22.7067 44.3295 22.7067V25.0617ZM43.6577 25.0617H44.3295V22.7067H43.6577V25.0617ZM44.8352 24.4021V23.8842H42.4802V24.4021H44.8352ZM50.2637 23.2246H43.6577V25.5796H50.2637V23.2246ZM49.0862 23.8842V24.4021H51.4412V23.8842H49.0862ZM49.5919 25.0617H50.2637V22.7067H49.5919V25.0617ZM47.0709 24.0748C47.7223 24.8142 48.6565 25.0617 49.5919 25.0617V22.7067C49.0345 22.7067 48.877 22.5624 48.838 22.5181L47.0709 24.0748ZM46.399 21.1131C46.399 21.7297 46.4317 22.2777 46.5108 22.7344C46.5821 23.1466 46.7197 23.6716 47.0665 24.0698L48.8423 22.5231C48.9026 22.5922 48.9095 22.632 48.8929 22.5871C48.878 22.5472 48.8545 22.4671 48.8313 22.3328C48.7844 22.0618 48.754 21.6627 48.754 21.1131H46.399ZM46.399 8.43283V21.1131H48.754V8.43283H46.399ZM73.1891 4.10148C72.695 3.59037 72.0575 3.32251 71.3488 3.32251V5.67749C71.4016 5.67749 71.4248 5.68622 71.4329 5.68961C71.4407 5.69293 71.4616 5.70277 71.4959 5.73827L73.1891 4.10148ZM73.9399 5.91358C73.9399 5.20487 73.672 4.56737 73.1609 4.07327L71.5241 5.76648C71.5596 5.80078 71.5695 5.82167 71.5728 5.82953C71.5762 5.83756 71.5849 5.86082 71.5849 5.91358H73.9399ZM73.1751 7.75389C73.6734 7.25566 73.9399 6.62129 73.9399 5.91358H71.5849C71.5849 5.98964 71.5715 6.02706 71.5099 6.08867L73.1751 7.75389ZM71.3488 8.51865C72.0575 8.51865 72.695 8.25079 73.1891 7.73967L71.4959 6.10289C71.4616 6.13838 71.4407 6.14822 71.4329 6.15154C71.4248 6.15493 71.4016 6.16366 71.3488 6.16366V8.51865ZM69.5085 7.7539C70.0067 8.25211 70.6411 8.51865 71.3488 8.51865V6.16366C71.2728 6.16366 71.2353 6.15028 71.1737 6.08866L69.5085 7.7539ZM68.7437 5.91358C68.7437 6.6213 69.0103 7.25568 69.5085 7.75389L71.1737 6.08867C71.1121 6.02705 71.0987 5.98962 71.0987 5.91358H68.7437ZM69.4945 4.08727C68.9972 4.58455 68.7437 5.21782 68.7437 5.91358H71.0987C71.0987 5.82558 71.1159 5.79637 71.1597 5.75249L69.4945 4.08727ZM71.3488 3.32251C70.6401 3.32251 69.9986 3.58319 69.4945 4.08726L71.1597 5.75249C71.2155 5.69673 71.2552 5.67749 71.3488 5.67749V3.32251ZM73.688 21.5049V11.204H71.333V21.5049H73.688ZM73.7664 22.6642C73.776 22.6874 73.7479 22.6203 73.7236 22.3869C73.7013 22.1737 73.688 21.8829 73.688 21.5049H71.333C71.333 21.9294 71.3476 22.3081 71.3813 22.6314C71.413 22.9345 71.4689 23.271 71.5904 23.5647L73.7664 22.6642ZM73.7896 22.6852C73.7873 22.6839 73.786 22.6831 73.7824 22.679C73.7781 22.6741 73.7643 22.6572 73.7464 22.6186L71.6104 23.6103C71.8213 24.0644 72.1484 24.4542 72.603 24.7194L73.7896 22.6852ZM74.4559 22.7207C74.1899 22.7207 73.9979 22.7061 73.8671 22.6857C73.7238 22.6635 73.7154 22.6435 73.7716 22.6749L72.6209 24.7297C73.145 25.0231 73.8431 25.0757 74.4559 25.0757V22.7207ZM75.6334 24.4021V23.8982H73.2784V24.4021H75.6334ZM68.2277 25.5796H74.4559V23.2246H68.2277V25.5796ZM67.0503 23.8982V24.4021H69.4052V23.8982H67.0503ZM68.908 22.6912C68.9566 22.6637 68.9817 22.6588 68.9633 22.664C68.9474 22.6686 68.9094 22.6778 68.8432 22.6873C68.7084 22.7068 68.5077 22.7207 68.2277 22.7207V25.0757C68.5729 25.0757 68.8948 25.0593 69.1799 25.0181C69.4454 24.9798 69.7724 24.9077 70.0668 24.7414L68.908 22.6912ZM68.9108 22.6463C68.8879 22.6991 68.8718 22.7185 68.8714 22.719C68.8714 22.7191 68.8745 22.7153 68.8815 22.7095C68.8885 22.7036 68.8975 22.6971 68.908 22.6912L70.0668 24.7414C70.5532 24.4665 70.8731 24.0408 71.0716 23.5827L68.9108 22.6463ZM69.0097 21.5049C69.0097 21.8737 68.9942 22.1551 68.9693 22.3599C68.9422 22.5826 68.9119 22.6429 68.9242 22.6165L71.0583 23.6124C71.2012 23.3061 71.2688 22.9582 71.307 22.6444C71.3474 22.3127 71.3647 21.9293 71.3647 21.5049H69.0097ZM69.0097 16.5644V21.5049H71.3647V16.5644H69.0097ZM68.9076 14.0992C68.9631 14.3707 69.0097 15.1448 69.0097 16.5644H71.3647C71.3647 15.2035 71.3272 14.1768 71.2148 13.6272L68.9076 14.0992ZM69.0177 14.1669C68.9228 14.091 68.8863 14.0205 68.8821 14.0119C68.8793 14.0064 68.8821 14.011 68.8882 14.0291C68.8941 14.0471 68.9022 14.0751 68.9109 14.1148L71.2115 13.6116C71.1255 13.2185 70.9435 12.6916 70.4889 12.3279L69.0177 14.1669ZM69.1795 14.2429C69.2044 14.2429 69.1896 14.2462 69.149 14.2334C69.1047 14.2193 69.0431 14.1901 68.9821 14.1372L70.5245 12.3576C70.1114 11.9996 69.616 11.888 69.1795 11.888V14.2429ZM68.6412 14.3779C68.9444 14.2642 69.1133 14.2429 69.1795 14.2429V11.888C68.7231 11.888 68.2575 12.0067 67.8143 12.1729L68.6412 14.3779ZM66.9344 13.1983L67.1303 13.7022L69.3252 12.8486L69.1292 12.3448L66.9344 13.1983ZM71.4519 10.1129L67.589 11.6805L68.4746 13.8626L72.3374 12.2951L71.4519 10.1129ZM72.5105 10.0265H71.8947V12.3815H72.5105V10.0265ZM82.2544 11.2142V15.5809H84.6094V11.2142H82.2544ZM82.97 12.3917H83.4319V10.0367H82.97V12.3917ZM83.399 12.5775C83.7143 12.3323 83.9114 11.9642 84.0232 11.7408L81.9168 10.6876C81.8967 10.7278 81.8796 10.7598 81.8655 10.7844C81.8513 10.8094 81.8419 10.8239 81.8377 10.8302C81.833 10.8371 81.8375 10.8296 81.8519 10.813C81.8594 10.8043 81.871 10.7915 81.887 10.776C81.9028 10.7606 81.9248 10.7407 81.9532 10.7186L83.399 12.5775ZM82.3262 12.9235C82.6339 12.9235 83.0394 12.8572 83.399 12.5775L81.9531 10.7186C82.1449 10.5695 82.3171 10.5685 82.3262 10.5685V12.9235ZM81.0422 12.6657C81.2942 12.7398 81.5207 12.8004 81.7157 12.8434C81.8899 12.8818 82.1126 12.9235 82.3262 12.9235V10.5685C82.3651 10.5685 82.3773 10.5721 82.3488 10.5679C82.3246 10.5644 82.2838 10.5571 82.2229 10.5437C82.1006 10.5167 81.9307 10.4723 81.7067 10.4064L81.0422 12.6657ZM79.541 12.3917C79.8897 12.3917 80.3805 12.4681 81.0375 12.6643L81.7115 10.4078C80.9315 10.1749 80.2 10.0367 79.541 10.0367V12.3917ZM77.5496 13.1212C78.0284 12.6547 78.6572 12.3917 79.541 12.3917V10.0367C78.1295 10.0367 76.8829 10.4828 75.9061 11.4345L77.5496 13.1212ZM76.8277 14.9231C76.8277 14.168 77.0716 13.593 77.555 13.1159L75.9007 11.4398C74.9472 12.3809 74.4727 13.5694 74.4727 14.9231H76.8277ZM77.2042 16.2088C76.9791 15.9237 76.8277 15.5243 76.8277 14.9231H74.4727C74.4727 15.9453 74.7411 16.8895 75.3558 17.6681L77.2042 16.2088ZM79.4629 17.7033C78.1219 17.0374 77.4527 16.529 77.2103 16.2167L75.3497 17.6603C75.9471 18.4302 77.0506 19.1348 78.4155 19.8126L79.4629 17.7033ZM82.4642 19.5821C81.8692 18.9995 80.8142 18.3743 79.4629 17.7033L78.4155 19.8126C79.77 20.4851 80.5158 20.9702 80.8166 21.2648L82.4642 19.5821ZM83.5037 22.0469C83.5037 21.0882 83.1484 20.2383 82.4555 19.5736L80.8253 21.2732C81.0468 21.4856 81.1487 21.718 81.1487 22.0469H83.5037ZM82.5131 24.28C83.1479 23.6885 83.5037 22.9252 83.5037 22.0469H81.1487C81.1487 22.2324 81.094 22.3834 80.9077 22.5571L82.5131 24.28ZM80.1429 25.1559C81.0288 25.1559 81.8558 24.8914 82.5124 24.2807L80.9084 22.5564C80.7625 22.6921 80.5445 22.8009 80.1429 22.8009V25.1559ZM76.8785 23.8604C77.8121 24.6995 78.9124 25.1559 80.1429 25.1559V22.8009C79.5445 22.8009 78.9933 22.5948 78.4527 22.1089L76.8785 23.8604ZM75.0134 20.2625C75.3075 21.7329 75.897 22.9784 76.8785 23.8604L78.4527 22.1089C77.9599 21.666 77.5511 20.9427 77.3227 19.8006L75.0134 20.2625ZM75.7062 21.209H76.168V18.854H75.7062V21.209ZM76.8837 24.6082V20.0315H74.5287V24.6082H76.8837ZM76.168 23.4307H75.7062V25.7857H76.168V23.4307ZM76.6719 23.0668C75.8864 23.0668 75.3729 23.5656 75.1149 24.0816L77.2212 25.1348C77.2209 25.1354 77.2118 25.1537 77.1895 25.1817C77.1667 25.2103 77.1295 25.25 77.0744 25.2898C76.9501 25.3796 76.8026 25.4218 76.6719 25.4218V23.0668ZM77.7691 23.2574C77.4118 23.1491 77.0337 23.0668 76.6719 23.0668V25.4218C76.702 25.4218 76.8277 25.4328 77.0862 25.5111L77.7691 23.2574ZM80.1149 23.6266C79.4663 23.6266 78.6798 23.51 77.7428 23.2497L77.1125 25.5188C78.1909 25.8183 79.1959 25.9816 80.1149 25.9816V23.6266ZM82.3277 22.8248C81.6526 23.3706 80.9275 23.6266 80.1149 23.6266V25.9816C81.4855 25.9816 82.7292 25.5285 83.8083 24.6561L82.3277 22.8248ZM83.2201 20.9133C83.2201 21.7337 82.9301 22.3365 82.3265 22.8257L83.8094 24.6552C84.9787 23.7075 85.5751 22.4255 85.5751 20.9133H83.2201ZM81.0403 18.3187C82.714 19.135 83.2201 20.0258 83.2201 20.9133H85.5751C85.5751 18.7776 84.187 17.2332 82.0726 16.202L81.0403 18.3187ZM78.9981 17.3256L81.0415 18.3193L82.0714 16.2014L80.028 15.2077L78.9981 17.3256ZM76.8103 15.7592C77.2787 16.3786 78.0868 16.8843 78.9999 17.3265L80.0262 15.2069C79.1665 14.7906 78.799 14.4846 78.6888 14.3389L76.8103 15.7592ZM76.1242 13.7054C76.1242 14.4687 76.3486 15.1827 76.8301 15.7846L78.669 14.3134C78.5534 14.1689 78.4792 13.9871 78.4792 13.7054H76.1242ZM77.1355 11.6652C76.5475 12.1712 76.1242 12.8566 76.1242 13.7054H78.4792C78.4792 13.6916 78.4805 13.6781 78.495 13.6504C78.5127 13.6167 78.5589 13.5472 78.6715 13.4503L77.1355 11.6652ZM79.485 10.8624C78.6185 10.8624 77.7971 11.096 77.1355 11.6652L78.6715 13.4503C78.8124 13.3291 79.0453 13.2174 79.485 13.2174V10.8624ZM82.3853 11.9057C81.5845 11.1864 80.5845 10.8624 79.485 10.8624V13.2174C80.1024 13.2174 80.5113 13.388 80.8115 13.6577L82.3853 11.9057ZM84.11 15.2862C83.7414 13.8602 83.2121 12.636 82.378 11.8992L80.8189 13.6642C81.1044 13.9164 81.4895 14.5583 81.83 15.8756L84.11 15.2862ZM83.4319 14.4034H82.97V16.7584H83.4319V14.4034ZM94.0293 15.5809V11.2142H91.6743V15.5809H94.0293ZM92.39 16.7584H92.8518V14.4034H92.39V16.7584ZM90.2388 13.6642C90.5243 13.9164 90.9094 14.5583 91.2499 15.8756L93.53 15.2862C93.1614 13.8602 92.632 12.636 91.7979 11.8992L90.2388 13.6642ZM88.905 13.2174C89.5224 13.2174 89.9313 13.388 90.2315 13.6577L91.8052 11.9057C91.0044 11.1864 90.0044 10.8624 88.905 10.8624V13.2174ZM88.0915 13.4503C88.2323 13.3291 88.4653 13.2174 88.905 13.2174V10.8624C88.0384 10.8624 87.217 11.096 86.5554 11.6652L88.0915 13.4503ZM87.8991 13.7054C87.8991 13.6916 87.9004 13.678 87.9149 13.6504C87.9326 13.6167 87.9788 13.5472 88.0915 13.4503L86.5554 11.6652C85.9674 12.1712 85.5441 12.8566 85.5441 13.7054H87.8991ZM88.089 14.3134C87.9733 14.1689 87.8991 13.9871 87.8991 13.7054H85.5441C85.5441 14.4687 85.7686 15.1827 86.25 15.7846L88.089 14.3134ZM89.4461 15.2069C88.5864 14.7906 88.2189 14.4846 88.1087 14.3389L86.2303 15.7592C86.6986 16.3786 87.5067 16.8843 88.4198 17.3265L89.4461 15.2069ZM91.4913 16.2014L89.4479 15.2077L88.418 17.3256L90.4614 18.3193L91.4913 16.2014ZM94.995 20.9133C94.995 18.7776 93.607 17.2332 91.4925 16.202L90.4602 18.3187C92.134 19.135 92.64 20.0258 92.64 20.9133H94.995ZM93.2294 24.6552C94.3986 23.7075 94.995 22.4255 94.995 20.9133H92.64C92.64 21.7337 92.35 22.3365 91.7465 22.8257L93.2294 24.6552ZM89.5348 25.9816C90.9055 25.9816 92.1492 25.5285 93.2282 24.6561L91.7476 22.8248C91.0725 23.3706 90.3475 23.6266 89.5348 23.6266V25.9816ZM86.5325 25.5188C87.6108 25.8183 88.6158 25.9816 89.5348 25.9816V23.6266C88.8863 23.6266 88.0998 23.51 87.1628 23.2497L86.5325 25.5188ZM86.0918 25.4218C86.1219 25.4218 86.2476 25.4328 86.5061 25.5111L87.1891 23.2574C86.8317 23.1491 86.4536 23.0668 86.0918 23.0668V25.4218ZM86.6412 25.1348C86.6408 25.1354 86.6317 25.1536 86.6095 25.1817C86.5867 25.2103 86.5494 25.25 86.4943 25.2898C86.3701 25.3796 86.2226 25.4218 86.0918 25.4218V23.0668C85.3063 23.0668 84.7928 23.5656 84.5348 24.0816L86.6412 25.1348ZM85.1261 25.7857H85.588V23.4307H85.1261V25.7857ZM83.9486 20.0315V24.6082H86.3036V20.0315H83.9486ZM85.588 18.854H85.1261V21.209H85.588V18.854ZM87.8726 22.1089C87.3799 21.666 86.971 20.9427 86.7426 19.8006L84.4333 20.2625C84.7274 21.7329 85.317 22.9784 86.2984 23.8604L87.8726 22.1089ZM89.5628 22.8009C88.9644 22.8009 88.4133 22.5948 87.8726 22.1089L86.2984 23.8604C87.232 24.6995 88.3324 25.1559 89.5628 25.1559V22.8009ZM90.3283 22.5564C90.1825 22.6921 89.9645 22.8009 89.5628 22.8009V25.1559C90.4487 25.1559 91.2758 24.8914 91.9323 24.2807L90.3283 22.5564ZM90.5687 22.0469C90.5687 22.2324 90.5139 22.3834 90.3276 22.5571L91.9331 24.28C92.5678 23.6885 92.9236 22.9252 92.9236 22.0469H90.5687ZM90.2453 21.2732C90.4667 21.4856 90.5687 21.718 90.5687 22.0469H92.9236C92.9236 21.0882 92.5684 20.2383 91.8754 19.5736L90.2453 21.2732ZM87.8355 19.8126C89.19 20.4851 89.9358 20.9702 90.2365 21.2648L91.8841 19.5821C91.2892 18.9995 90.2342 18.3743 88.8828 17.7033L87.8355 19.8126ZM84.7696 17.6603C85.367 18.4302 86.4706 19.1348 87.8355 19.8126L88.8828 17.7033C87.5419 17.0374 86.8726 16.529 86.6303 16.2167L84.7696 17.6603ZM83.8926 14.9231C83.8926 15.9453 84.1611 16.8895 84.7758 17.6681L86.6241 16.2088C86.3991 15.9237 86.2476 15.5243 86.2476 14.9231H83.8926ZM85.3207 11.4398C84.3672 12.3809 83.8926 13.5694 83.8926 14.9231H86.2476C86.2476 14.168 86.4916 13.593 86.975 13.1159L85.3207 11.4398ZM88.961 10.0367C87.5495 10.0367 86.3028 10.4828 85.3261 11.4345L86.9695 13.1212C87.4484 12.6547 88.0772 12.3917 88.961 12.3917V10.0367ZM91.1314 10.4078C90.3515 10.1749 89.62 10.0367 88.961 10.0367V12.3917C89.3097 12.3917 89.8005 12.4681 90.4574 12.6643L91.1314 10.4078ZM91.7461 10.5685C91.785 10.5685 91.7973 10.5721 91.7688 10.5679C91.7445 10.5644 91.7037 10.5571 91.6429 10.5437C91.5206 10.5167 91.3506 10.4723 91.1267 10.4064L90.4622 12.6657C90.7141 12.7398 90.9407 12.8004 91.1356 12.8434C91.3098 12.8818 91.5326 12.9235 91.7461 12.9235V10.5685ZM91.3731 10.7186C91.5648 10.5695 91.737 10.5685 91.7461 10.5685V12.9235C92.0539 12.9235 92.4593 12.8572 92.8189 12.5775L91.3731 10.7186ZM91.3368 10.6876C91.3166 10.7278 91.2995 10.7598 91.2855 10.7844C91.2712 10.8094 91.2619 10.8239 91.2576 10.8302C91.253 10.8371 91.2575 10.8296 91.2718 10.813C91.2794 10.8043 91.291 10.7915 91.3069 10.776C91.3227 10.7606 91.3447 10.7407 91.3731 10.7186L92.8189 12.5775C93.1342 12.3323 93.3314 11.9642 93.4431 11.7408L91.3368 10.6876ZM92.8518 10.0367H92.39V12.3917H92.8518V10.0367ZM98.0779 5.67749C98.1307 5.67749 98.1539 5.68622 98.1619 5.68961C98.1698 5.69293 98.1907 5.70277 98.225 5.73827L99.9182 4.10148C99.4241 3.59037 98.7866 3.32251 98.0779 3.32251V5.67749ZM97.8888 5.75249C97.9446 5.69673 97.9842 5.67749 98.0779 5.67749V3.32251C97.3692 3.32251 96.7277 3.58319 96.2236 4.08726L97.8888 5.75249ZM97.8278 5.91358C97.8278 5.82558 97.8449 5.79637 97.8888 5.75249L96.2236 4.08727C95.7263 4.58455 95.4728 5.21782 95.4728 5.91358H97.8278ZM97.9028 6.08867C97.8412 6.02705 97.8278 5.98962 97.8278 5.91358H95.4728C95.4728 6.6213 95.7394 7.25568 96.2376 7.75389L97.9028 6.08867ZM98.0779 6.16366C98.0019 6.16366 97.9644 6.15028 97.9028 6.08866L96.2376 7.7539C96.7358 8.25211 97.3702 8.51865 98.0779 8.51865V6.16366ZM98.225 6.10289C98.1907 6.13838 98.1698 6.14822 98.1619 6.15154C98.1539 6.15493 98.1307 6.16366 98.0779 6.16366V8.51865C98.7866 8.51865 99.4241 8.25079 99.9182 7.73967L98.225 6.10289ZM98.314 5.91358C98.314 5.98964 98.3006 6.02706 98.239 6.08867L99.9042 7.75389C100.402 7.25566 100.669 6.62129 100.669 5.91358H98.314ZM98.2532 5.76648C98.2887 5.80078 98.2986 5.82167 98.3019 5.82953C98.3053 5.83756 98.314 5.86082 98.314 5.91358H100.669C100.669 5.20487 100.401 4.56737 99.89 4.07327L98.2532 5.76648ZM98.0621 11.204V21.5049H100.417V11.204H98.0621ZM98.6237 12.3815H99.2396V10.0265H98.6237V12.3815ZM95.2037 13.8626L99.0665 12.2951L98.181 10.1129L94.3181 11.6805L95.2037 13.8626ZM96.0543 12.8486L95.8583 12.3448L93.6635 13.1983L93.8594 13.7022L96.0543 12.8486ZM95.9086 11.888C95.4522 11.888 94.9866 12.0067 94.5434 12.1729L95.3703 14.3779C95.6735 14.2642 95.8424 14.2429 95.9086 14.2429V11.888ZM97.2535 12.3576C96.8405 11.9996 96.3451 11.888 95.9086 11.888V14.2429C95.9334 14.2429 95.9186 14.2462 95.8781 14.2334C95.8338 14.2193 95.7722 14.1901 95.7112 14.1372L97.2535 12.3576ZM97.9406 13.6116C97.8546 13.2185 97.6726 12.6916 97.218 12.3279L95.7468 14.1669C95.6519 14.091 95.6154 14.0205 95.6111 14.0119C95.6084 14.0064 95.6112 14.011 95.6172 14.0291C95.6232 14.0471 95.6313 14.0751 95.64 14.1148L97.9406 13.6116ZM98.0937 16.5644C98.0937 15.2035 98.0563 14.1768 97.9439 13.6272L95.6367 14.0992C95.6922 14.3707 95.7388 15.1448 95.7388 16.5644H98.0937ZM98.0937 21.5049V16.5644H95.7388V21.5049H98.0937ZM97.7873 23.6124C97.9303 23.3061 97.9979 22.9582 98.0361 22.6444C98.0765 22.3127 98.0937 21.9293 98.0937 21.5049H95.7388C95.7388 21.8737 95.7233 22.1551 95.6984 22.3599C95.6713 22.5826 95.641 22.6429 95.6533 22.6165L97.7873 23.6124ZM96.7958 24.7414C97.2822 24.4665 97.6022 24.0408 97.8007 23.5827L95.6399 22.6463C95.617 22.6991 95.6009 22.7185 95.6005 22.719C95.6004 22.7191 95.6036 22.7153 95.6105 22.7095C95.6176 22.7036 95.6266 22.6971 95.6371 22.6912L96.7958 24.7414ZM94.9568 25.0757C95.302 25.0757 95.6239 25.0593 95.9089 25.0181C96.1745 24.9798 96.5015 24.9077 96.7959 24.7414L95.6371 22.6912C95.6857 22.6637 95.7108 22.6588 95.6924 22.664C95.6764 22.6686 95.6385 22.6778 95.5723 22.6873C95.4375 22.7068 95.2368 22.7207 94.9568 22.7207V25.0757ZM96.1343 24.4021V23.8982H93.7793V24.4021H96.1343ZM101.185 23.2246H94.9568V25.5796H101.185V23.2246ZM100.007 23.8982V24.4021H102.362V23.8982H100.007ZM99.35 24.7297C99.8741 25.0231 100.572 25.0757 101.185 25.0757V22.7207C100.919 22.7207 100.727 22.7061 100.596 22.6857C100.453 22.6635 100.445 22.6435 100.501 22.6749L99.35 24.7297ZM98.3395 23.6103C98.5504 24.0644 98.8775 24.4542 99.3321 24.7194L100.519 22.6852C100.516 22.6839 100.515 22.6831 100.511 22.679C100.507 22.6741 100.493 22.6572 100.476 22.6186L98.3395 23.6103ZM98.0621 21.5049C98.0621 21.9294 98.0767 22.3081 98.1104 22.6314C98.1421 22.9345 98.1979 23.271 98.3195 23.5647L100.496 22.6642C100.505 22.6874 100.477 22.6203 100.453 22.3869C100.43 22.1737 100.417 21.8829 100.417 21.5049H98.0621ZM112.915 12.2892C111.508 10.5254 109.607 9.63448 107.32 9.63448V11.9895C108.914 11.9895 110.129 12.5728 111.074 13.7575L112.915 12.2892ZM114.669 17.362C114.669 15.4682 114.083 13.7632 112.917 12.2919L111.071 13.7547C111.902 14.8027 112.314 15.9901 112.314 17.362H114.669ZM113.732 21.3463C114.346 20.0349 114.669 18.7036 114.669 17.362H112.314C112.314 18.3158 112.087 19.3077 111.6 20.3477L113.732 21.3463ZM111.002 24.509C112.194 23.7753 113.098 22.7002 113.732 21.3463L111.6 20.3477C111.133 21.3451 110.516 22.0428 109.768 22.5034L111.002 24.509ZM107.166 25.5794C108.559 25.5794 109.85 25.225 111.006 24.5063L109.763 22.5061C108.998 22.9817 108.142 23.2244 107.166 23.2244V25.5794ZM101.614 22.7927C102.977 24.6356 104.865 25.5794 107.166 25.5794V23.2244C105.604 23.2244 104.422 22.6287 103.508 21.3926L101.614 22.7927ZM99.942 17.7259C99.942 19.5926 100.504 21.2939 101.615 22.7937L103.507 21.3916C102.696 20.2975 102.297 19.0877 102.297 17.7259H99.942ZM100.934 13.7004C100.282 15.0042 99.942 16.3497 99.942 17.7259H102.297C102.297 16.7508 102.535 15.7637 103.04 14.7535L100.934 13.7004ZM103.707 10.6325C102.522 11.3178 101.607 12.3652 100.936 13.697L103.039 14.7569C103.543 13.7561 104.167 13.0867 104.886 12.671L103.707 10.6325ZM107.32 9.63448C106.038 9.63448 104.825 9.97476 103.7 10.6368L104.894 12.6666C105.672 12.209 106.474 11.9895 107.32 11.9895V9.63448ZM105.989 13.1826C106.344 12.9717 106.639 12.8992 106.886 12.8992V10.5442C106.144 10.5442 105.44 10.7703 104.788 11.1566L105.989 13.1826ZM105.271 14.163C105.518 13.5708 105.781 13.3039 105.983 13.186L104.794 11.1532C104.006 11.6138 103.467 12.3732 103.098 13.2553L105.271 14.163ZM104.9 16.5503C104.9 15.485 105.044 14.7071 105.271 14.163L103.098 13.2553C102.71 14.1854 102.545 15.3016 102.545 16.5503H104.9ZM105.862 20.8155C105.237 19.6683 104.9 18.2608 104.9 16.5503H102.545C102.545 18.5719 102.945 20.3835 103.794 21.9422L105.862 20.8155ZM107.768 22.2307C107.105 22.2307 106.465 21.9075 105.859 20.81L103.797 21.9477C104.685 23.556 106.004 24.5857 107.768 24.5857V22.2307ZM109.082 21.5601C108.704 22.0393 108.291 22.2307 107.768 22.2307V24.5857C109.054 24.5857 110.134 24.0307 110.932 23.0171L109.082 21.5601ZM109.711 18.4397C109.711 20.2026 109.412 21.1403 109.082 21.5601L110.932 23.0171C111.777 21.9439 112.066 20.3157 112.066 18.4397H109.711ZM108.477 13.7718C109.254 14.8077 109.711 16.3197 109.711 18.4397H112.066C112.066 16.0064 111.544 13.9355 110.361 12.3588L108.477 13.7718ZM106.886 12.8992C107.503 12.8992 108.01 13.1401 108.472 13.7655L110.366 12.3651C109.503 11.199 108.321 10.5442 106.886 10.5442V12.8992ZM118.618 14.6711C120.053 12.9427 121.184 12.3814 122.009 12.3814V10.0264C120.11 10.0264 118.376 11.2752 116.806 13.1671L118.618 14.6711ZM116.535 11.2039V13.9191H118.89V11.2039H116.535ZM117.11 12.3814H117.712V10.0264H117.11V12.3814ZM113.69 13.8625L117.553 12.295L116.668 10.1128L112.805 11.6803L113.69 13.8625ZM114.544 12.8224L114.334 12.3185L112.161 13.2243L112.371 13.7282L114.544 12.8224ZM114.395 11.8878C113.937 11.8878 113.474 12.0075 113.035 12.1763L113.88 14.3743C114.169 14.2631 114.331 14.2428 114.395 14.2428V11.8878ZM115.74 12.3575C115.327 11.9994 114.832 11.8878 114.395 11.8878V14.2428C114.42 14.2428 114.405 14.2461 114.365 14.2332C114.32 14.2192 114.259 14.19 114.198 14.1371L115.74 12.3575ZM116.447 13.7083C116.366 13.2905 116.188 12.7206 115.712 12.3334L114.227 14.1612C114.177 14.1206 114.143 14.0819 114.124 14.0547C114.104 14.028 114.096 14.0109 114.096 14.01C114.095 14.0091 114.1 14.0197 114.108 14.0456C114.116 14.0712 114.125 14.108 114.135 14.1578L116.447 13.7083ZM116.58 16.7462C116.58 15.9694 116.571 15.3326 116.551 14.8415C116.533 14.383 116.504 13.9633 116.44 13.6776L114.141 14.1885C114.141 14.1874 114.145 14.2036 114.15 14.244C114.155 14.2826 114.161 14.3343 114.167 14.401C114.179 14.535 114.189 14.7117 114.198 14.9351C114.216 15.3817 114.225 15.9836 114.225 16.7462H116.58ZM116.58 21.5048V16.7462H114.225V21.5048H116.58ZM116.02 24.0799C116.272 23.7178 116.401 23.2905 116.474 22.8934C116.549 22.4825 116.58 22.0142 116.58 21.5048H114.225C114.225 21.9286 114.198 22.244 114.157 22.4676C114.114 22.7049 114.068 22.7629 114.086 22.7366L116.02 24.0799ZM113.737 25.0756C114.524 25.0756 115.468 24.8855 116.024 24.0742L114.082 22.7424C114.131 22.6712 114.18 22.6594 114.145 22.6722C114.098 22.6897 113.975 22.7206 113.737 22.7206V25.0756ZM113.457 25.0756H113.737V22.7206H113.457V25.0756ZM114.635 24.402V23.8981H112.28V24.402H114.635ZM119.798 23.2245H113.457V25.5795H119.798V23.2245ZM118.62 23.8981V24.402H120.975V23.8981H118.62ZM117.855 24.7609C118.154 24.9167 118.491 24.9839 118.771 25.0203C119.072 25.0595 119.419 25.0756 119.798 25.0756V22.7206C119.477 22.7206 119.24 22.7064 119.075 22.685C118.888 22.6607 118.875 22.637 118.941 22.6715L117.855 24.7609ZM116.806 23.6263C117.022 24.0735 117.348 24.4666 117.805 24.7333L118.991 22.6991C118.991 22.699 118.988 22.6974 118.979 22.688C118.97 22.6776 118.951 22.6524 118.927 22.6024L116.806 23.6263ZM116.535 21.5048C116.535 21.9566 116.548 22.3492 116.579 22.6701C116.604 22.9399 116.654 23.3233 116.813 23.6409L118.919 22.5878C118.959 22.6672 118.962 22.7076 118.952 22.659C118.944 22.6217 118.933 22.5536 118.923 22.4459C118.902 22.2303 118.89 21.9208 118.89 21.5048H116.535ZM116.535 14.7448V21.5048H118.89V14.7448H116.535ZM121.029 11.7479C119.455 11.7479 118.057 12.6126 116.84 13.9534L118.584 15.5362C119.569 14.4511 120.382 14.1029 121.029 14.1029V11.7479ZM123.582 13.1467C123.034 12.1709 122.083 11.7479 121.029 11.7479V14.1029C121.412 14.1029 121.479 14.2117 121.528 14.2996L123.582 13.1467ZM124.194 16.2564C124.194 15.0415 124.044 13.9303 123.569 13.1253L121.54 14.3209C121.682 14.561 121.839 15.1387 121.839 16.2564H124.194ZM124.194 21.5048V16.2564H121.839V21.5048H124.194ZM124.098 23.1238C124.156 22.9082 124.171 22.6327 124.179 22.4366C124.189 22.1933 124.194 21.8805 124.194 21.5048H121.839C121.839 21.8662 121.835 22.1413 121.826 22.3365C121.822 22.4345 121.817 22.5025 121.813 22.5461C121.807 22.6046 121.806 22.5792 121.823 22.517L124.098 23.1238ZM123.175 24.5655C123.662 24.1904 123.953 23.6751 124.099 23.1201L121.822 22.5208C121.801 22.6015 121.778 22.6464 121.764 22.6683C121.752 22.6883 121.743 22.6953 121.739 22.6989L123.175 24.5655ZM121.211 25.0756C121.844 25.0756 122.606 24.9978 123.169 24.5697L121.744 22.6947C121.813 22.6424 121.833 22.6569 121.725 22.6801C121.623 22.7018 121.458 22.7206 121.211 22.7206V25.0756ZM120.945 25.0756H121.211V22.7206H120.945V25.0756ZM122.123 24.402V23.8981H119.768V24.402H122.123ZM127.285 23.2245H120.945V25.5795H127.285V23.2245ZM126.108 23.8981V24.402H128.463V23.8981H126.108ZM125.436 24.7296C125.962 25.0238 126.667 25.0756 127.285 25.0756V22.7206C127.014 22.7206 126.818 22.7059 126.684 22.6853C126.537 22.6627 126.529 22.6423 126.587 22.6748L125.436 24.7296ZM124.444 23.6306C124.649 24.0956 124.984 24.4657 125.418 24.7193L126.605 22.6851C126.598 22.6811 126.595 22.6787 126.595 22.6784C126.594 22.6781 126.596 22.6791 126.598 22.6813C126.6 22.6835 126.601 22.6855 126.602 22.6866C126.602 22.6877 126.602 22.6865 126.6 22.6821L124.444 23.6306ZM124.148 21.5048C124.148 21.9379 124.166 22.3282 124.206 22.6652C124.244 22.985 124.31 23.3342 124.449 23.641L126.595 22.6717C126.603 22.6892 126.572 22.6186 126.544 22.3878C126.519 22.1743 126.503 21.8835 126.503 21.5048H124.148ZM124.148 16.0325V21.5048H126.503V16.0325H124.148ZM123.913 13.8626C124.044 14.2213 124.148 14.9089 124.148 16.0325H126.503C126.503 14.842 126.403 13.8128 126.124 13.0519L123.913 13.8626ZM123.149 12.7071C123.386 12.8699 123.668 13.2045 123.914 13.8679L126.122 13.0466C125.771 12.1051 125.25 11.292 124.48 10.7644L123.149 12.7071ZM122.009 12.3814C122.5 12.3814 122.858 12.5022 123.137 12.6987L124.492 10.7728C123.764 10.2601 122.917 10.0264 122.009 10.0264V12.3814Z" fill="white" mask="url(#path-1-outside-1_117_68)"/>
</svg>
