<svg width="160" height="26" viewBox="0 0 160 26" fill="none" xmlns="http://www.w3.org/2000/svg">
<mask id="path-1-outside-1_117_214" maskUnits="userSpaceOnUse" x="0" y="-0.589355" width="160" height="26" fill="black">
<rect fill="white" y="-0.589355" width="160" height="26"/>
<path fill-rule="evenodd" clip-rule="evenodd" d="M143.181 2.78062C143.402 2.65424 143.55 2.41643 143.55 2.14388C143.55 1.73893 143.222 1.41064 142.817 1.41064C142.412 1.41064 142.084 1.73893 142.084 2.14388C142.084 2.41414 142.23 2.65025 142.448 2.77742V23.7742H143.181V15.4819C145.482 14.0624 146.978 13.3675 148.682 13.7467V17.908C152.275 20.1801 154.383 20.0464 158.214 17.908V7.64269C158.019 7.75155 157.827 7.86366 157.636 7.97532C155.982 8.94085 154.386 9.87258 151.249 8.37593V5.07665C149.058 2.73062 147.225 2.61924 143.181 4.87067V2.78062ZM18.0056 8.81149L17.7947 4.33891H2.22504L2 8.81149H2.53446C2.60009 7.94885 2.80638 7.26437 3.15331 6.75804C3.50023 6.25171 3.91749 5.90947 4.40506 5.73132C4.78012 5.60005 5.41303 5.53441 6.3038 5.53441H8.59634V20.1054C8.59634 21.1744 8.4932 21.8588 8.28692 22.1589C7.94937 22.6465 7.3774 22.8902 6.57103 22.8902H5.89592V23.4106H13.9831V22.8902H13.3221C12.5813 22.8902 12.0328 22.6933 11.6765 22.2995C11.4233 22.0089 11.2968 21.2775 11.2968 20.1054V5.53441H13.9831C14.7707 5.53441 15.4037 5.66568 15.8819 5.92823C16.3694 6.18139 16.7586 6.57989 17.0492 7.12372C17.2274 7.46128 17.368 8.02387 17.4712 8.81149H18.0056ZM23.6868 3.41064V12.834C24.7276 11.6901 25.5528 10.9587 26.1622 10.6399C26.7717 10.3117 27.3812 10.1476 27.9906 10.1476C28.722 10.1476 29.3502 10.3492 29.8753 10.7524C30.4004 11.1556 30.7895 11.7885 31.0427 12.6512C31.2208 13.2512 31.3099 14.3483 31.3099 15.9423V20.4993C31.3099 21.315 31.3755 21.8729 31.5068 22.173C31.6006 22.398 31.76 22.5761 31.985 22.7074C32.21 22.8387 32.6226 22.9043 33.2227 22.9043V23.4106H26.8936V22.9043H27.1889C27.789 22.9043 28.2063 22.8152 28.4407 22.6371C28.6751 22.4496 28.8392 22.1776 28.933 21.8213C28.9611 21.6713 28.9752 21.2306 28.9752 20.4993V15.9423C28.9752 14.5358 28.9002 13.6122 28.7501 13.1715C28.6095 12.7309 28.3798 12.4027 28.061 12.187C27.7422 11.962 27.3577 11.8495 26.9077 11.8495C26.4482 11.8495 25.97 11.9714 25.4731 12.2151C24.9761 12.4589 24.3807 12.9512 23.6868 13.6919V20.4993C23.6868 21.3806 23.7337 21.9292 23.8275 22.1448C23.9306 22.3605 24.1135 22.5433 24.376 22.6933C24.6479 22.834 25.1121 22.9043 25.7684 22.9043V23.4106H19.383V22.9043C19.955 22.9043 20.4051 22.8152 20.7333 22.6371C20.9208 22.5433 21.0708 22.3652 21.1833 22.1026C21.2958 21.8401 21.3521 21.3056 21.3521 20.4993V8.83962C21.3521 7.36751 21.3146 6.46268 21.2396 6.12513C21.1739 5.78758 21.0661 5.55786 20.9161 5.43596C20.7754 5.31407 20.5832 5.25312 20.3394 5.25312C20.1425 5.25312 19.8237 5.32813 19.383 5.47816L19.1861 4.98589L23.0399 3.41064H23.6868ZM37.3321 19.9359C36.3944 18.8482 35.9303 17.3479 35.9397 15.4351H44.8426C44.8426 13.8411 44.3785 12.5706 43.4502 11.6236C42.5219 10.6672 41.3358 10.189 39.8918 10.189C38.1853 10.189 36.7648 10.8079 35.6302 12.0456C34.5051 13.2739 33.9425 14.9898 33.9425 17.1932C33.9425 19.2279 34.491 20.8501 35.588 22.0596C36.6945 23.2598 38.0212 23.8599 39.5684 23.8599C40.9936 23.8599 42.1797 23.3348 43.1267 22.2847C44.0737 21.2251 44.6457 20.0531 44.8426 18.7685L44.4066 18.4872C43.9847 19.6124 43.4596 20.4094 42.8314 20.8782C42.2125 21.3376 41.4812 21.5674 40.6373 21.5674C39.3714 21.5674 38.2697 21.0235 37.3321 19.9359ZM41.9031 14.6194H35.9397C36.0428 13.5411 36.3991 12.7019 37.0086 12.1018C37.6274 11.4923 38.326 11.1876 39.1042 11.1876C39.6105 11.1876 40.0934 11.3376 40.5529 11.6377C41.0217 11.9377 41.3733 12.3503 41.6077 12.8754C41.7578 13.2129 41.8562 13.7943 41.9031 14.6194ZM54.2717 14.4796V20.0351C54.2717 21.2353 54.4029 21.9807 54.6655 22.2714C55.0218 22.684 55.5609 22.8902 56.2829 22.8902H57.0143V23.4106H48.8427V22.8902H49.56C50.3664 22.8902 50.943 22.6277 51.2899 22.1026C51.4775 21.812 51.5712 21.1228 51.5712 20.0351V7.71444C51.5712 6.51425 51.4447 5.76883 51.1915 5.47816C50.8258 5.06559 50.282 4.85931 49.56 4.85931H48.8427V4.33891H55.8328C57.5394 4.33891 58.8849 4.51707 59.8694 4.87337C60.8539 5.2203 61.6838 5.81102 62.3589 6.64552C63.034 7.48003 63.3715 8.46925 63.3715 9.61318C63.3715 11.1697 62.8558 12.4355 61.8244 13.4106C60.8024 14.3858 59.3537 14.8734 57.4784 14.8734C57.019 14.8734 56.522 14.8406 55.9876 14.7749C55.4531 14.7093 54.8811 14.6108 54.2717 14.4796ZM54.2717 13.6779C54.7686 13.7716 55.2093 13.842 55.5937 13.8888C55.9782 13.9357 56.3064 13.9592 56.5783 13.9592C57.5534 13.9592 58.3926 13.5841 59.0958 12.834C59.8085 12.0745 60.1648 11.0947 60.1648 9.89447C60.1648 9.06934 59.996 8.30516 59.6584 7.60192C59.3209 6.88931 58.8427 6.35954 58.2238 6.01261C57.605 5.65631 56.9018 5.47816 56.1141 5.47816C55.6359 5.47816 55.0218 5.56723 54.2717 5.74538V13.6779ZM68.0583 23.3439C68.3959 23.1845 69.2257 22.5938 70.5478 21.5718C70.5572 22.3406 70.6978 22.8845 70.9697 23.2033C71.2416 23.5221 71.6073 23.6815 72.0668 23.6815C73.0232 23.6815 74.0265 22.9782 75.0766 21.5718V20.7841C74.514 21.3467 74.1343 21.689 73.9374 21.8109C73.8249 21.8765 73.6936 21.9093 73.5436 21.9093C73.4029 21.9093 73.2763 21.8624 73.1638 21.7687C73.0607 21.6749 72.9857 21.4921 72.9388 21.2201C72.8919 20.9389 72.8685 20.184 72.8685 18.9557V14.5816C72.8685 13.3345 72.7841 12.5094 72.6153 12.1062C72.3528 11.4874 71.9449 11.0326 71.3917 10.7419C70.6603 10.3575 69.7227 10.1653 68.5787 10.1653C67.0879 10.1653 65.9299 10.5028 65.1048 11.178C64.2796 11.8531 63.8671 12.5938 63.8671 13.4002C63.8671 13.8221 63.9749 14.155 64.1905 14.3988C64.4156 14.6426 64.7016 14.7645 65.0485 14.7645C65.4048 14.7645 65.6908 14.6472 65.9064 14.4128C66.1315 14.1784 66.244 13.8456 66.244 13.4142L66.2159 12.5985C66.2159 12.1859 66.394 11.8202 66.7503 11.5014C67.0973 11.1826 67.5661 11.0232 68.1568 11.0232C68.935 11.0232 69.5258 11.2623 69.9289 11.7405C70.3415 12.2187 70.5478 13.1001 70.5478 14.3847V14.891C68.3349 15.6974 66.7503 16.3819 65.7939 16.9445C64.8469 17.5071 64.1812 18.1072 63.7967 18.7448C63.5154 19.2042 63.3748 19.748 63.3748 20.3763C63.3748 21.3702 63.6608 22.1719 64.2327 22.7813C64.8141 23.3908 65.5501 23.6955 66.4409 23.6955C67.0129 23.6955 67.552 23.5783 68.0583 23.3439ZM70.5478 15.749V20.6576C69.3851 21.5952 68.4475 22.064 67.7348 22.064C67.2098 22.064 66.7456 21.8437 66.3424 21.403C65.9393 20.9529 65.7377 20.3903 65.7377 19.7152C65.7377 19.1808 65.8971 18.6885 66.2159 18.2384C66.5347 17.7884 67.0644 17.357 67.8052 16.9445C68.2177 16.7101 69.1319 16.3116 70.5478 15.749ZM78.6041 10.1476V13.045C79.6824 11.1134 80.7888 10.1476 81.9234 10.1476C82.4391 10.1476 82.8657 10.307 83.2032 10.6258C83.4407 10.8435 83.5946 11.0866 83.665 11.3553C84.1284 11.1443 84.5993 10.8205 85.0778 10.3841C85.6216 9.88711 86.1045 9.30108 86.5264 8.62597C86.7421 8.26967 87.0421 7.618 87.4266 6.67098H87.8626V10.9045H90.8724V11.889H87.8626V20.2434C87.8626 21.0779 87.9798 21.6405 88.2142 21.9312C88.458 22.2218 88.7674 22.3672 89.1425 22.3672C89.4519 22.3672 89.7519 22.2734 90.0426 22.0859C90.3333 21.889 90.5583 21.603 90.7177 21.2279H91.2662C90.9381 22.1468 90.4739 22.8407 89.8738 23.3095C89.2737 23.769 88.6549 23.9987 88.0173 23.9987C87.586 23.9987 87.164 23.8815 86.7515 23.6471C86.3389 23.4033 86.0342 23.061 85.8373 22.6203C85.6404 22.1703 85.5419 21.4811 85.5419 20.5528V11.889H83.6992C83.665 12.1772 83.5466 12.4266 83.3439 12.6371C83.1001 12.8903 82.8094 13.0168 82.4719 13.0168C82.1437 13.0168 81.7733 12.8574 81.3608 12.5386C80.9576 12.2105 80.6575 12.0464 80.4606 12.0464C80.2919 12.0464 80.109 12.1401 79.9121 12.3277C79.4902 12.7121 79.0542 13.345 78.6041 14.2264V20.4008C78.6041 21.1134 78.6932 21.6526 78.8713 22.0182C78.9932 22.2714 79.2089 22.4824 79.5183 22.6511C79.8277 22.8199 80.2731 22.9043 80.8544 22.9043V23.4106H74.2581V22.9043C74.9145 22.9043 75.402 22.8012 75.7208 22.5949C75.9552 22.4449 76.1193 22.2058 76.2131 21.8776C76.26 21.7182 76.2834 21.2634 76.2834 20.5133V15.5203C76.2834 14.0201 76.2506 13.1294 76.185 12.8481C76.1287 12.5574 76.0162 12.3464 75.8474 12.2151C75.688 12.0839 75.4864 12.0182 75.2426 12.0182C74.952 12.0182 74.6238 12.0886 74.2581 12.2292L74.1175 11.7229L78.0134 10.1476H78.6041ZM95.7569 12.8762C97.2665 11.0572 98.7058 10.1476 100.075 10.1476C100.778 10.1476 101.383 10.3258 101.889 10.6821C102.395 11.029 102.799 11.6057 103.099 12.4121C103.305 12.9746 103.408 13.8373 103.408 15V20.4993C103.408 21.315 103.474 21.8682 103.605 22.1589C103.708 22.3933 103.872 22.5761 104.097 22.7074C104.332 22.8387 104.758 22.9043 105.377 22.9043V23.4106H99.0059V22.9043H99.2731C99.8732 22.9043 100.29 22.8152 100.525 22.6371C100.769 22.4496 100.937 22.1776 101.031 21.8213C101.069 21.6807 101.087 21.24 101.087 20.4993V15.225C101.087 14.0529 100.933 13.2044 100.623 12.6793C100.323 12.1448 99.8123 11.8776 99.0903 11.8776C97.9745 11.8776 96.8634 12.4871 95.7569 13.706V20.4993C95.7569 21.3713 95.8085 21.9104 95.9116 22.1167C96.0429 22.3886 96.2211 22.5902 96.4461 22.7215C96.6805 22.8434 97.1493 22.9043 97.8526 22.9043V23.4106H91.4813V22.9043H91.7626C92.4189 22.9043 92.8596 22.7402 93.0846 22.4121C93.3191 22.0745 93.4363 21.4369 93.4363 20.4993V15.7173C93.4363 14.1701 93.3988 13.2278 93.3237 12.8903C93.2581 12.5527 93.1503 12.323 93.0003 12.2011C92.8596 12.0792 92.6674 12.0182 92.4236 12.0182C92.1611 12.0182 91.8469 12.0886 91.4813 12.2292L91.2703 11.7229L95.1522 10.1476H95.7569V12.8762ZM108.708 19.9357C107.77 18.8481 107.306 17.3478 107.316 15.435H116.219C116.219 13.841 115.754 12.5705 114.826 11.6235C113.898 10.6671 112.712 10.1889 111.268 10.1889C109.561 10.1889 108.141 10.8078 107.006 12.0454C105.881 13.2738 105.318 14.9897 105.318 17.1931C105.318 19.2278 105.867 20.8499 106.964 22.0595C108.07 23.2597 109.397 23.8598 110.944 23.8598C112.369 23.8598 113.556 23.3347 114.503 22.2845C115.45 21.225 116.022 20.0529 116.219 18.7684L115.783 18.4871C115.361 19.6123 114.836 20.4093 114.207 20.8781C113.588 21.3375 112.857 21.5672 112.013 21.5672C110.747 21.5672 109.646 21.0234 108.708 19.9357ZM113.279 14.6193H107.316C107.419 13.541 107.775 12.7018 108.384 12.1017C109.003 11.4922 109.702 11.1875 110.48 11.1875C110.986 11.1875 111.469 11.3375 111.929 11.6376C112.398 11.9376 112.749 12.3502 112.984 12.8753C113.134 13.2128 113.232 13.7942 113.279 14.6193ZM120.701 10.1476V13.045C121.779 11.1134 122.886 10.1476 124.02 10.1476C124.536 10.1476 124.963 10.307 125.3 10.6258C125.638 10.9353 125.807 11.2963 125.807 11.7088C125.807 12.0745 125.685 12.3839 125.441 12.6371C125.197 12.8903 124.907 13.0168 124.569 13.0168C124.241 13.0168 123.87 12.8574 123.458 12.5386C123.055 12.2105 122.755 12.0464 122.558 12.0464C122.389 12.0464 122.206 12.1401 122.009 12.3277C121.587 12.7121 121.151 13.345 120.701 14.2264V20.4008C120.701 21.1134 120.79 21.6526 120.968 22.0182C121.09 22.2714 121.306 22.4824 121.615 22.6511C121.925 22.8199 122.37 22.9043 122.952 22.9043V23.4106H116.355V22.9043C117.012 22.9043 117.499 22.8012 117.818 22.5949C118.052 22.4449 118.216 22.2058 118.31 21.8776C118.357 21.7182 118.38 21.2634 118.38 20.5133V15.5203C118.38 14.0201 118.348 13.1294 118.282 12.8481C118.226 12.5574 118.113 12.3464 117.944 12.2151C117.785 12.0839 117.583 12.0182 117.34 12.0182C117.049 12.0182 116.721 12.0886 116.355 12.2292L116.215 11.7229L120.11 10.1476H120.701ZM134.541 14.5771V10.1889H134.077C133.964 10.4139 133.866 10.5593 133.782 10.6249C133.697 10.6905 133.58 10.7234 133.43 10.7234C133.271 10.7234 132.952 10.653 132.474 10.5124C131.752 10.2967 131.137 10.1889 130.631 10.1889C129.478 10.1889 128.535 10.5452 127.804 11.2578C127.082 11.9704 126.721 12.8565 126.721 13.9161C126.721 14.7318 126.932 15.4069 127.354 15.9414C127.776 16.4852 128.667 17.0947 130.026 17.7698C131.386 18.4449 132.291 19.0028 132.741 19.4435C133.2 19.8842 133.43 20.428 133.43 21.075C133.43 21.6094 133.224 22.0689 132.811 22.4533C132.408 22.8284 131.883 23.0159 131.236 23.0159C130.317 23.0159 129.487 22.683 128.746 22.0173C128.006 21.3516 127.504 20.3624 127.241 19.0497H126.777V23.6488H127.241C127.363 23.405 127.532 23.2831 127.748 23.2831C127.945 23.2831 128.198 23.33 128.507 23.4238C129.52 23.7051 130.42 23.8457 131.208 23.8457C132.305 23.8457 133.294 23.4894 134.175 22.7768C135.066 22.0548 135.512 21.1078 135.512 19.9357C135.512 18.4168 134.56 17.1931 132.656 16.2649L130.603 15.2663C129.712 14.8349 129.121 14.4271 128.831 14.0426C128.531 13.6676 128.381 13.2175 128.381 12.6924C128.381 12.2705 128.582 11.886 128.985 11.5391C129.389 11.1922 129.918 11.0187 130.575 11.0187C131.437 11.0187 132.145 11.2672 132.699 11.7642C133.261 12.2611 133.721 13.1988 134.077 14.5771H134.541Z"/>
</mask>
<path fill-rule="evenodd" clip-rule="evenodd" d="M143.181 2.78062C143.402 2.65424 143.55 2.41643 143.55 2.14388C143.55 1.73893 143.222 1.41064 142.817 1.41064C142.412 1.41064 142.084 1.73893 142.084 2.14388C142.084 2.41414 142.23 2.65025 142.448 2.77742V23.7742H143.181V15.4819C145.482 14.0624 146.978 13.3675 148.682 13.7467V17.908C152.275 20.1801 154.383 20.0464 158.214 17.908V7.64269C158.019 7.75155 157.827 7.86366 157.636 7.97532C155.982 8.94085 154.386 9.87258 151.249 8.37593V5.07665C149.058 2.73062 147.225 2.61924 143.181 4.87067V2.78062ZM18.0056 8.81149L17.7947 4.33891H2.22504L2 8.81149H2.53446C2.60009 7.94885 2.80638 7.26437 3.15331 6.75804C3.50023 6.25171 3.91749 5.90947 4.40506 5.73132C4.78012 5.60005 5.41303 5.53441 6.3038 5.53441H8.59634V20.1054C8.59634 21.1744 8.4932 21.8588 8.28692 22.1589C7.94937 22.6465 7.3774 22.8902 6.57103 22.8902H5.89592V23.4106H13.9831V22.8902H13.3221C12.5813 22.8902 12.0328 22.6933 11.6765 22.2995C11.4233 22.0089 11.2968 21.2775 11.2968 20.1054V5.53441H13.9831C14.7707 5.53441 15.4037 5.66568 15.8819 5.92823C16.3694 6.18139 16.7586 6.57989 17.0492 7.12372C17.2274 7.46128 17.368 8.02387 17.4712 8.81149H18.0056ZM23.6868 3.41064V12.834C24.7276 11.6901 25.5528 10.9587 26.1622 10.6399C26.7717 10.3117 27.3812 10.1476 27.9906 10.1476C28.722 10.1476 29.3502 10.3492 29.8753 10.7524C30.4004 11.1556 30.7895 11.7885 31.0427 12.6512C31.2208 13.2512 31.3099 14.3483 31.3099 15.9423V20.4993C31.3099 21.315 31.3755 21.8729 31.5068 22.173C31.6006 22.398 31.76 22.5761 31.985 22.7074C32.21 22.8387 32.6226 22.9043 33.2227 22.9043V23.4106H26.8936V22.9043H27.1889C27.789 22.9043 28.2063 22.8152 28.4407 22.6371C28.6751 22.4496 28.8392 22.1776 28.933 21.8213C28.9611 21.6713 28.9752 21.2306 28.9752 20.4993V15.9423C28.9752 14.5358 28.9002 13.6122 28.7501 13.1715C28.6095 12.7309 28.3798 12.4027 28.061 12.187C27.7422 11.962 27.3577 11.8495 26.9077 11.8495C26.4482 11.8495 25.97 11.9714 25.4731 12.2151C24.9761 12.4589 24.3807 12.9512 23.6868 13.6919V20.4993C23.6868 21.3806 23.7337 21.9292 23.8275 22.1448C23.9306 22.3605 24.1135 22.5433 24.376 22.6933C24.6479 22.834 25.1121 22.9043 25.7684 22.9043V23.4106H19.383V22.9043C19.955 22.9043 20.4051 22.8152 20.7333 22.6371C20.9208 22.5433 21.0708 22.3652 21.1833 22.1026C21.2958 21.8401 21.3521 21.3056 21.3521 20.4993V8.83962C21.3521 7.36751 21.3146 6.46268 21.2396 6.12513C21.1739 5.78758 21.0661 5.55786 20.9161 5.43596C20.7754 5.31407 20.5832 5.25312 20.3394 5.25312C20.1425 5.25312 19.8237 5.32813 19.383 5.47816L19.1861 4.98589L23.0399 3.41064H23.6868ZM37.3321 19.9359C36.3944 18.8482 35.9303 17.3479 35.9397 15.4351H44.8426C44.8426 13.8411 44.3785 12.5706 43.4502 11.6236C42.5219 10.6672 41.3358 10.189 39.8918 10.189C38.1853 10.189 36.7648 10.8079 35.6302 12.0456C34.5051 13.2739 33.9425 14.9898 33.9425 17.1932C33.9425 19.2279 34.491 20.8501 35.588 22.0596C36.6945 23.2598 38.0212 23.8599 39.5684 23.8599C40.9936 23.8599 42.1797 23.3348 43.1267 22.2847C44.0737 21.2251 44.6457 20.0531 44.8426 18.7685L44.4066 18.4872C43.9847 19.6124 43.4596 20.4094 42.8314 20.8782C42.2125 21.3376 41.4812 21.5674 40.6373 21.5674C39.3714 21.5674 38.2697 21.0235 37.3321 19.9359ZM41.9031 14.6194H35.9397C36.0428 13.5411 36.3991 12.7019 37.0086 12.1018C37.6274 11.4923 38.326 11.1876 39.1042 11.1876C39.6105 11.1876 40.0934 11.3376 40.5529 11.6377C41.0217 11.9377 41.3733 12.3503 41.6077 12.8754C41.7578 13.2129 41.8562 13.7943 41.9031 14.6194ZM54.2717 14.4796V20.0351C54.2717 21.2353 54.4029 21.9807 54.6655 22.2714C55.0218 22.684 55.5609 22.8902 56.2829 22.8902H57.0143V23.4106H48.8427V22.8902H49.56C50.3664 22.8902 50.943 22.6277 51.2899 22.1026C51.4775 21.812 51.5712 21.1228 51.5712 20.0351V7.71444C51.5712 6.51425 51.4447 5.76883 51.1915 5.47816C50.8258 5.06559 50.282 4.85931 49.56 4.85931H48.8427V4.33891H55.8328C57.5394 4.33891 58.8849 4.51707 59.8694 4.87337C60.8539 5.2203 61.6838 5.81102 62.3589 6.64552C63.034 7.48003 63.3715 8.46925 63.3715 9.61318C63.3715 11.1697 62.8558 12.4355 61.8244 13.4106C60.8024 14.3858 59.3537 14.8734 57.4784 14.8734C57.019 14.8734 56.522 14.8406 55.9876 14.7749C55.4531 14.7093 54.8811 14.6108 54.2717 14.4796ZM54.2717 13.6779C54.7686 13.7716 55.2093 13.842 55.5937 13.8888C55.9782 13.9357 56.3064 13.9592 56.5783 13.9592C57.5534 13.9592 58.3926 13.5841 59.0958 12.834C59.8085 12.0745 60.1648 11.0947 60.1648 9.89447C60.1648 9.06934 59.996 8.30516 59.6584 7.60192C59.3209 6.88931 58.8427 6.35954 58.2238 6.01261C57.605 5.65631 56.9018 5.47816 56.1141 5.47816C55.6359 5.47816 55.0218 5.56723 54.2717 5.74538V13.6779ZM68.0583 23.3439C68.3959 23.1845 69.2257 22.5938 70.5478 21.5718C70.5572 22.3406 70.6978 22.8845 70.9697 23.2033C71.2416 23.5221 71.6073 23.6815 72.0668 23.6815C73.0232 23.6815 74.0265 22.9782 75.0766 21.5718V20.7841C74.514 21.3467 74.1343 21.689 73.9374 21.8109C73.8249 21.8765 73.6936 21.9093 73.5436 21.9093C73.4029 21.9093 73.2763 21.8624 73.1638 21.7687C73.0607 21.6749 72.9857 21.4921 72.9388 21.2201C72.8919 20.9389 72.8685 20.184 72.8685 18.9557V14.5816C72.8685 13.3345 72.7841 12.5094 72.6153 12.1062C72.3528 11.4874 71.9449 11.0326 71.3917 10.7419C70.6603 10.3575 69.7227 10.1653 68.5787 10.1653C67.0879 10.1653 65.9299 10.5028 65.1048 11.178C64.2796 11.8531 63.8671 12.5938 63.8671 13.4002C63.8671 13.8221 63.9749 14.155 64.1905 14.3988C64.4156 14.6426 64.7016 14.7645 65.0485 14.7645C65.4048 14.7645 65.6908 14.6472 65.9064 14.4128C66.1315 14.1784 66.244 13.8456 66.244 13.4142L66.2159 12.5985C66.2159 12.1859 66.394 11.8202 66.7503 11.5014C67.0973 11.1826 67.5661 11.0232 68.1568 11.0232C68.935 11.0232 69.5258 11.2623 69.9289 11.7405C70.3415 12.2187 70.5478 13.1001 70.5478 14.3847V14.891C68.3349 15.6974 66.7503 16.3819 65.7939 16.9445C64.8469 17.5071 64.1812 18.1072 63.7967 18.7448C63.5154 19.2042 63.3748 19.748 63.3748 20.3763C63.3748 21.3702 63.6608 22.1719 64.2327 22.7813C64.8141 23.3908 65.5501 23.6955 66.4409 23.6955C67.0129 23.6955 67.552 23.5783 68.0583 23.3439ZM70.5478 15.749V20.6576C69.3851 21.5952 68.4475 22.064 67.7348 22.064C67.2098 22.064 66.7456 21.8437 66.3424 21.403C65.9393 20.9529 65.7377 20.3903 65.7377 19.7152C65.7377 19.1808 65.8971 18.6885 66.2159 18.2384C66.5347 17.7884 67.0644 17.357 67.8052 16.9445C68.2177 16.7101 69.1319 16.3116 70.5478 15.749ZM78.6041 10.1476V13.045C79.6824 11.1134 80.7888 10.1476 81.9234 10.1476C82.4391 10.1476 82.8657 10.307 83.2032 10.6258C83.4407 10.8435 83.5946 11.0866 83.665 11.3553C84.1284 11.1443 84.5993 10.8205 85.0778 10.3841C85.6216 9.88711 86.1045 9.30108 86.5264 8.62597C86.7421 8.26967 87.0421 7.618 87.4266 6.67098H87.8626V10.9045H90.8724V11.889H87.8626V20.2434C87.8626 21.0779 87.9798 21.6405 88.2142 21.9312C88.458 22.2218 88.7674 22.3672 89.1425 22.3672C89.4519 22.3672 89.7519 22.2734 90.0426 22.0859C90.3333 21.889 90.5583 21.603 90.7177 21.2279H91.2662C90.9381 22.1468 90.4739 22.8407 89.8738 23.3095C89.2737 23.769 88.6549 23.9987 88.0173 23.9987C87.586 23.9987 87.164 23.8815 86.7515 23.6471C86.3389 23.4033 86.0342 23.061 85.8373 22.6203C85.6404 22.1703 85.5419 21.4811 85.5419 20.5528V11.889H83.6992C83.665 12.1772 83.5466 12.4266 83.3439 12.6371C83.1001 12.8903 82.8094 13.0168 82.4719 13.0168C82.1437 13.0168 81.7733 12.8574 81.3608 12.5386C80.9576 12.2105 80.6575 12.0464 80.4606 12.0464C80.2919 12.0464 80.109 12.1401 79.9121 12.3277C79.4902 12.7121 79.0542 13.345 78.6041 14.2264V20.4008C78.6041 21.1134 78.6932 21.6526 78.8713 22.0182C78.9932 22.2714 79.2089 22.4824 79.5183 22.6511C79.8277 22.8199 80.2731 22.9043 80.8544 22.9043V23.4106H74.2581V22.9043C74.9145 22.9043 75.402 22.8012 75.7208 22.5949C75.9552 22.4449 76.1193 22.2058 76.2131 21.8776C76.26 21.7182 76.2834 21.2634 76.2834 20.5133V15.5203C76.2834 14.0201 76.2506 13.1294 76.185 12.8481C76.1287 12.5574 76.0162 12.3464 75.8474 12.2151C75.688 12.0839 75.4864 12.0182 75.2426 12.0182C74.952 12.0182 74.6238 12.0886 74.2581 12.2292L74.1175 11.7229L78.0134 10.1476H78.6041ZM95.7569 12.8762C97.2665 11.0572 98.7058 10.1476 100.075 10.1476C100.778 10.1476 101.383 10.3258 101.889 10.6821C102.395 11.029 102.799 11.6057 103.099 12.4121C103.305 12.9746 103.408 13.8373 103.408 15V20.4993C103.408 21.315 103.474 21.8682 103.605 22.1589C103.708 22.3933 103.872 22.5761 104.097 22.7074C104.332 22.8387 104.758 22.9043 105.377 22.9043V23.4106H99.0059V22.9043H99.2731C99.8732 22.9043 100.29 22.8152 100.525 22.6371C100.769 22.4496 100.937 22.1776 101.031 21.8213C101.069 21.6807 101.087 21.24 101.087 20.4993V15.225C101.087 14.0529 100.933 13.2044 100.623 12.6793C100.323 12.1448 99.8123 11.8776 99.0903 11.8776C97.9745 11.8776 96.8634 12.4871 95.7569 13.706V20.4993C95.7569 21.3713 95.8085 21.9104 95.9116 22.1167C96.0429 22.3886 96.2211 22.5902 96.4461 22.7215C96.6805 22.8434 97.1493 22.9043 97.8526 22.9043V23.4106H91.4813V22.9043H91.7626C92.4189 22.9043 92.8596 22.7402 93.0846 22.4121C93.3191 22.0745 93.4363 21.4369 93.4363 20.4993V15.7173C93.4363 14.1701 93.3988 13.2278 93.3237 12.8903C93.2581 12.5527 93.1503 12.323 93.0003 12.2011C92.8596 12.0792 92.6674 12.0182 92.4236 12.0182C92.1611 12.0182 91.8469 12.0886 91.4813 12.2292L91.2703 11.7229L95.1522 10.1476H95.7569V12.8762ZM108.708 19.9357C107.77 18.8481 107.306 17.3478 107.316 15.435H116.219C116.219 13.841 115.754 12.5705 114.826 11.6235C113.898 10.6671 112.712 10.1889 111.268 10.1889C109.561 10.1889 108.141 10.8078 107.006 12.0454C105.881 13.2738 105.318 14.9897 105.318 17.1931C105.318 19.2278 105.867 20.8499 106.964 22.0595C108.07 23.2597 109.397 23.8598 110.944 23.8598C112.369 23.8598 113.556 23.3347 114.503 22.2845C115.45 21.225 116.022 20.0529 116.219 18.7684L115.783 18.4871C115.361 19.6123 114.836 20.4093 114.207 20.8781C113.588 21.3375 112.857 21.5672 112.013 21.5672C110.747 21.5672 109.646 21.0234 108.708 19.9357ZM113.279 14.6193H107.316C107.419 13.541 107.775 12.7018 108.384 12.1017C109.003 11.4922 109.702 11.1875 110.48 11.1875C110.986 11.1875 111.469 11.3375 111.929 11.6376C112.398 11.9376 112.749 12.3502 112.984 12.8753C113.134 13.2128 113.232 13.7942 113.279 14.6193ZM120.701 10.1476V13.045C121.779 11.1134 122.886 10.1476 124.02 10.1476C124.536 10.1476 124.963 10.307 125.3 10.6258C125.638 10.9353 125.807 11.2963 125.807 11.7088C125.807 12.0745 125.685 12.3839 125.441 12.6371C125.197 12.8903 124.907 13.0168 124.569 13.0168C124.241 13.0168 123.87 12.8574 123.458 12.5386C123.055 12.2105 122.755 12.0464 122.558 12.0464C122.389 12.0464 122.206 12.1401 122.009 12.3277C121.587 12.7121 121.151 13.345 120.701 14.2264V20.4008C120.701 21.1134 120.79 21.6526 120.968 22.0182C121.09 22.2714 121.306 22.4824 121.615 22.6511C121.925 22.8199 122.37 22.9043 122.952 22.9043V23.4106H116.355V22.9043C117.012 22.9043 117.499 22.8012 117.818 22.5949C118.052 22.4449 118.216 22.2058 118.31 21.8776C118.357 21.7182 118.38 21.2634 118.38 20.5133V15.5203C118.38 14.0201 118.348 13.1294 118.282 12.8481C118.226 12.5574 118.113 12.3464 117.944 12.2151C117.785 12.0839 117.583 12.0182 117.34 12.0182C117.049 12.0182 116.721 12.0886 116.355 12.2292L116.215 11.7229L120.11 10.1476H120.701ZM134.541 14.5771V10.1889H134.077C133.964 10.4139 133.866 10.5593 133.782 10.6249C133.697 10.6905 133.58 10.7234 133.43 10.7234C133.271 10.7234 132.952 10.653 132.474 10.5124C131.752 10.2967 131.137 10.1889 130.631 10.1889C129.478 10.1889 128.535 10.5452 127.804 11.2578C127.082 11.9704 126.721 12.8565 126.721 13.9161C126.721 14.7318 126.932 15.4069 127.354 15.9414C127.776 16.4852 128.667 17.0947 130.026 17.7698C131.386 18.4449 132.291 19.0028 132.741 19.4435C133.2 19.8842 133.43 20.428 133.43 21.075C133.43 21.6094 133.224 22.0689 132.811 22.4533C132.408 22.8284 131.883 23.0159 131.236 23.0159C130.317 23.0159 129.487 22.683 128.746 22.0173C128.006 21.3516 127.504 20.3624 127.241 19.0497H126.777V23.6488H127.241C127.363 23.405 127.532 23.2831 127.748 23.2831C127.945 23.2831 128.198 23.33 128.507 23.4238C129.52 23.7051 130.42 23.8457 131.208 23.8457C132.305 23.8457 133.294 23.4894 134.175 22.7768C135.066 22.0548 135.512 21.1078 135.512 19.9357C135.512 18.4168 134.56 17.1931 132.656 16.2649L130.603 15.2663C129.712 14.8349 129.121 14.4271 128.831 14.0426C128.531 13.6676 128.381 13.2175 128.381 12.6924C128.381 12.2705 128.582 11.886 128.985 11.5391C129.389 11.1922 129.918 11.0187 130.575 11.0187C131.437 11.0187 132.145 11.2672 132.699 11.7642C133.261 12.2611 133.721 13.1988 134.077 14.5771H134.541Z" fill="white"/>
<path d="M143.181 2.78062L142.594 1.7562C142.227 1.96653 142.001 2.35738 142.001 2.78062H143.181ZM142.448 2.77742H143.628C143.628 2.35786 143.406 1.96982 143.043 1.75815L142.448 2.77742ZM142.448 23.7742H141.267C141.267 24.4261 141.796 24.9547 142.448 24.9547V23.7742ZM143.181 23.7742V24.9547C143.833 24.9547 144.362 24.4261 144.362 23.7742H143.181ZM143.181 15.4819L142.561 14.4772C142.213 14.6922 142.001 15.0724 142.001 15.4819H143.181ZM148.682 13.7467H149.863C149.863 13.1935 149.479 12.7146 148.939 12.5944L148.682 13.7467ZM148.682 17.908H147.502C147.502 18.3128 147.709 18.6893 148.051 18.9057L148.682 17.908ZM158.214 17.908L158.79 18.9389C159.163 18.7304 159.395 18.3359 159.395 17.908H158.214ZM158.214 7.64269H159.395C159.395 7.22411 159.173 6.83684 158.812 6.62482C158.451 6.4128 158.005 6.40775 157.64 6.61154L158.214 7.64269ZM157.636 7.97532L158.231 8.99483L158.231 8.99482L157.636 7.97532ZM151.249 8.37593H150.068C150.068 8.83095 150.33 9.24546 150.74 9.44139L151.249 8.37593ZM151.249 5.07665H152.429C152.429 4.7775 152.316 4.48951 152.111 4.27089L151.249 5.07665ZM143.181 4.87067H142.001C142.001 5.28915 142.222 5.67635 142.583 5.8884C142.944 6.10045 143.39 6.10566 143.755 5.90209L143.181 4.87067ZM17.7947 4.33891L18.9739 4.28329C18.9442 3.65364 18.425 3.1584 17.7947 3.1584V4.33891ZM18.0056 8.81149V9.992C18.3284 9.992 18.637 9.85986 18.8598 9.62633C19.0826 9.39281 19.2 9.07825 19.1848 8.75587L18.0056 8.81149ZM2.22504 4.33891V3.1584C1.59611 3.1584 1.07762 3.65147 1.04601 4.27959L2.22504 4.33891ZM2 8.81149L0.820979 8.75217C0.804729 9.07515 0.921686 9.39065 1.14454 9.62499C1.36738 9.85934 1.67661 9.992 2 9.992L2 8.81149ZM2.53446 8.81149V9.992C3.1517 9.992 3.66474 9.51651 3.71157 8.90105L2.53446 8.81149ZM4.40506 5.73132L4.01508 4.61708C4.01001 4.61886 4.00496 4.62066 3.99992 4.62251L4.40506 5.73132ZM8.59634 5.53441H9.77686C9.77686 4.88244 9.24832 4.3539 8.59634 4.3539V5.53441ZM8.28692 22.1589L9.25753 22.8308L9.25971 22.8277L8.28692 22.1589ZM5.89592 22.8902V21.7097C5.24394 21.7097 4.71541 22.2383 4.71541 22.8902H5.89592ZM5.89592 23.4106H4.71541C4.71541 24.0626 5.24394 24.5912 5.89592 24.5912V23.4106ZM13.9831 23.4106V24.5912C14.6351 24.5912 15.1636 24.0626 15.1636 23.4106H13.9831ZM13.9831 22.8902H15.1636C15.1636 22.2383 14.6351 21.7097 13.9831 21.7097V22.8902ZM11.6765 22.2995L10.7863 23.0749C10.7912 23.0805 10.7961 23.086 10.8011 23.0916L11.6765 22.2995ZM11.2968 5.53441V4.3539C10.6448 4.3539 10.1163 4.88244 10.1163 5.53441H11.2968ZM15.8819 5.92823L15.3137 6.96304C15.3217 6.96743 15.3298 6.97172 15.3379 6.97593L15.8819 5.92823ZM17.0492 7.12372L18.0933 6.5727L18.0904 6.56726L17.0492 7.12372ZM17.4712 8.81149L16.3006 8.96477C16.3776 9.55248 16.8784 9.992 17.4712 9.992V8.81149ZM23.6868 12.834H22.5063C22.5063 13.3216 22.8061 13.7591 23.2609 13.935C23.7157 14.1109 24.2319 13.9891 24.56 13.6284L23.6868 12.834ZM23.6868 3.41064H24.8674C24.8674 2.75867 24.3388 2.23013 23.6868 2.23013V3.41064ZM26.1622 10.6399L26.7094 11.6859C26.7136 11.6838 26.7177 11.6815 26.7219 11.6793L26.1622 10.6399ZM31.0427 12.6512L29.9099 12.9836L29.911 12.9871L31.0427 12.6512ZM31.5068 22.173L32.5965 21.7189C32.5938 21.7125 32.5911 21.7061 32.5883 21.6998L31.5068 22.173ZM31.985 22.7074L31.3902 23.7271L31.3902 23.7271L31.985 22.7074ZM33.2227 22.9043H34.4032C34.4032 22.2523 33.8747 21.7238 33.2227 21.7238V22.9043ZM33.2227 23.4106V24.5912C33.8747 24.5912 34.4032 24.0626 34.4032 23.4106H33.2227ZM26.8936 23.4106H25.7131C25.7131 24.0626 26.2416 24.5912 26.8936 24.5912V23.4106ZM26.8936 22.9043V21.7238C26.2416 21.7238 25.7131 22.2523 25.7131 22.9043H26.8936ZM28.4407 22.6371L29.155 23.577C29.1628 23.571 29.1705 23.565 29.1782 23.5589L28.4407 22.6371ZM28.933 21.8213L30.0746 22.1218C30.0818 22.0944 30.088 22.0667 30.0933 22.0389L28.933 21.8213ZM28.7501 13.1715L27.6255 13.5305C27.6278 13.5377 27.6302 13.5448 27.6326 13.552L28.7501 13.1715ZM28.061 12.187L27.3802 13.1515C27.3866 13.156 27.393 13.1604 27.3995 13.1648L28.061 12.187ZM25.4731 12.2151L25.993 13.275L25.993 13.275L25.4731 12.2151ZM23.6868 13.6919L22.8253 12.8849C22.6204 13.1037 22.5063 13.3922 22.5063 13.6919H23.6868ZM23.8275 22.1448L22.7449 22.6155C22.7505 22.6285 22.7564 22.6414 22.7625 22.6542L23.8275 22.1448ZM24.376 22.6933L23.7903 23.7183C23.8046 23.7265 23.819 23.7343 23.8337 23.7419L24.376 22.6933ZM25.7684 22.9043H26.9489C26.9489 22.2523 26.4204 21.7238 25.7684 21.7238V22.9043ZM25.7684 23.4106V24.5912C26.4204 24.5912 26.9489 24.0626 26.9489 23.4106H25.7684ZM19.383 23.4106H18.2025C18.2025 24.0626 18.7311 24.5912 19.383 24.5912V23.4106ZM19.383 22.9043V21.7238C18.7311 21.7238 18.2025 22.2523 18.2025 22.9043H19.383ZM20.7333 22.6371L20.2053 21.5812C20.1935 21.5871 20.1817 21.5933 20.17 21.5996L20.7333 22.6371ZM21.2396 6.12513L20.0808 6.35046C20.0828 6.36074 20.0849 6.371 20.0872 6.38122L21.2396 6.12513ZM20.9161 5.43596L20.1429 6.32806C20.1524 6.33625 20.162 6.34429 20.1717 6.35217L20.9161 5.43596ZM19.383 5.47816L18.287 5.91659C18.5202 6.49963 19.169 6.79805 19.7635 6.59569L19.383 5.47816ZM19.1861 4.98589L18.7395 3.89314C18.1392 4.13852 17.8492 4.82219 18.0901 5.42432L19.1861 4.98589ZM23.0399 3.41064V2.23013C22.8867 2.23013 22.735 2.25994 22.5932 2.3179L23.0399 3.41064ZM35.9397 15.4351V14.2546C35.2899 14.2546 34.7623 14.7796 34.7592 15.4294L35.9397 15.4351ZM44.8426 15.4351V16.6157C45.4946 16.6157 46.0231 16.0871 46.0231 15.4351H44.8426ZM43.4502 11.6236L42.6031 12.4458L42.6072 12.45L43.4502 11.6236ZM35.6302 12.0456L34.76 11.2479L34.7597 11.2482L35.6302 12.0456ZM35.588 22.0596L34.7136 22.8527L34.7201 22.8598L35.588 22.0596ZM43.1267 22.2847L44.0034 23.0752L44.0069 23.0714L43.1267 22.2847ZM44.8426 18.7685L46.0095 18.9473C46.08 18.4873 45.8737 18.0288 45.4826 17.7765L44.8426 18.7685ZM44.4066 18.4872L45.0466 17.4952C44.7465 17.3016 44.3749 17.2542 44.0358 17.3664C43.6967 17.4786 43.4267 17.7383 43.3013 18.0727L44.4066 18.4872ZM42.8314 20.8782L43.5351 21.826L43.5374 21.8243L42.8314 20.8782ZM35.9397 14.6194L34.7645 14.507C34.7328 14.8381 34.8423 15.1673 35.0661 15.4134C35.2898 15.6596 35.607 15.7999 35.9397 15.7999V14.6194ZM41.9031 14.6194V15.7999C42.2278 15.7999 42.5382 15.6662 42.7612 15.4301C42.9842 15.1941 43.1001 14.8766 43.0817 14.5524L41.9031 14.6194ZM37.0086 12.1018L37.8368 12.943L37.8369 12.9429L37.0086 12.1018ZM40.5529 11.6377L39.9074 12.6261L39.9165 12.632L40.5529 11.6377ZM41.6077 12.8754L42.6865 12.3959L42.6857 12.3941L41.6077 12.8754ZM54.2717 14.4796L54.5202 13.3255C54.1715 13.2504 53.8075 13.337 53.53 13.5611C53.2525 13.7852 53.0911 14.1228 53.0911 14.4796H54.2717ZM54.6655 22.2714L55.5589 21.4998C55.5532 21.4932 55.5474 21.4866 55.5415 21.4801L54.6655 22.2714ZM57.0143 22.8902H58.1948C58.1948 22.2383 57.6663 21.7097 57.0143 21.7097V22.8902ZM57.0143 23.4106V24.5912C57.6663 24.5912 58.1948 24.0626 58.1948 23.4106H57.0143ZM48.8427 23.4106H47.6622C47.6622 24.0626 48.1907 24.5912 48.8427 24.5912V23.4106ZM48.8427 22.8902V21.7097C48.1907 21.7097 47.6622 22.2383 47.6622 22.8902H48.8427ZM51.2899 22.1026L52.2749 22.7534L52.2819 22.7426L51.2899 22.1026ZM51.1915 5.47816L52.0817 4.70279L52.0749 4.69511L51.1915 5.47816ZM48.8427 4.85931H47.6622C47.6622 5.51129 48.1907 6.03982 48.8427 6.03982V4.85931ZM48.8427 4.33891V3.1584C48.1907 3.1584 47.6622 3.68694 47.6622 4.33891H48.8427ZM59.8694 4.87337L59.4677 5.98347L59.4771 5.98678L59.8694 4.87337ZM62.3589 6.64552L63.2766 5.90305L63.2766 5.90304L62.3589 6.64552ZM61.8244 13.4106L61.0134 12.5528L61.0095 12.5565L61.8244 13.4106ZM55.9876 14.7749L56.1314 13.6032L56.1314 13.6032L55.9876 14.7749ZM55.5937 13.8888L55.7366 12.717L55.7366 12.717L55.5937 13.8888ZM54.2717 13.6779H53.0911C53.0911 14.2454 53.4951 14.7327 54.0528 14.8379L54.2717 13.6779ZM59.0958 12.834L58.235 12.0262L58.2346 12.0266L59.0958 12.834ZM59.6584 7.60192L58.5916 8.1073L58.5942 8.11277L59.6584 7.60192ZM58.2238 6.01261L57.6348 7.03574L57.6466 7.04235L58.2238 6.01261ZM54.2717 5.74538L53.9989 4.59682C53.4668 4.72319 53.0911 5.19849 53.0911 5.74538H54.2717ZM70.5478 21.5718L71.7282 21.5574C71.7228 21.1097 71.4646 20.7037 71.0615 20.5089C70.6585 20.3141 70.1799 20.364 69.8258 20.6378L70.5478 21.5718ZM68.0583 23.3439L68.5543 24.4152L68.5624 24.4114L68.0583 23.3439ZM70.9697 23.2033L70.0715 23.9693L70.0716 23.9694L70.9697 23.2033ZM75.0766 21.5718L76.0225 22.2781C76.1748 22.0741 76.2571 21.8263 76.2571 21.5718H75.0766ZM75.0766 20.7841H76.2571C76.2571 20.3067 75.9695 19.8762 75.5284 19.6935C75.0873 19.5108 74.5795 19.6118 74.2419 19.9494L75.0766 20.7841ZM73.9374 21.8109L74.5322 22.8306C74.5411 22.8254 74.55 22.82 74.5587 22.8146L73.9374 21.8109ZM73.1638 21.7687L72.3697 22.6422C72.3823 22.6536 72.395 22.6647 72.4081 22.6755L73.1638 21.7687ZM72.9388 21.2201L71.7743 21.4142L71.7754 21.4207L72.9388 21.2201ZM72.6153 12.1062L73.7043 11.6504L73.7021 11.6452L72.6153 12.1062ZM71.3917 10.7419L70.8424 11.7869L70.8426 11.787L71.3917 10.7419ZM65.1048 11.178L65.8523 12.0916L65.8523 12.0916L65.1048 11.178ZM64.1905 14.3988L63.3063 15.1809C63.3119 15.1872 63.3174 15.1934 63.3231 15.1995L64.1905 14.3988ZM65.9064 14.4128L65.0548 13.5953C65.049 13.6013 65.0433 13.6074 65.0377 13.6136L65.9064 14.4128ZM66.244 13.4142H67.4245C67.4245 13.4007 67.4243 13.3871 67.4238 13.3736L66.244 13.4142ZM66.2159 12.5985H65.0353C65.0353 12.6121 65.0356 12.6256 65.036 12.6392L66.2159 12.5985ZM66.7503 11.5014L67.5375 12.3812C67.5414 12.3777 67.5452 12.3742 67.5491 12.3707L66.7503 11.5014ZM69.9289 11.7405L69.0263 12.5015L69.0351 12.5117L69.9289 11.7405ZM70.5478 14.891L70.952 16.0002C71.4181 15.8303 71.7283 15.3872 71.7283 14.891H70.5478ZM65.7939 16.9445L65.1954 15.9269L65.191 15.9295L65.7939 16.9445ZM63.7967 18.7448L64.8036 19.3612L64.8077 19.3543L63.7967 18.7448ZM64.2327 22.7813L63.3719 23.5892L63.3785 23.5961L64.2327 22.7813ZM70.5478 20.6576L71.2889 21.5765C71.5668 21.3524 71.7283 21.0146 71.7283 20.6576H70.5478ZM70.5478 15.749H71.7283C71.7283 15.3577 71.5345 14.9919 71.2107 14.7722C70.887 14.5525 70.4755 14.5074 70.1119 14.6519L70.5478 15.749ZM66.3424 21.403L65.4631 22.1907L65.4715 22.1999L66.3424 21.403ZM66.2159 18.2384L65.2525 17.5561L65.2525 17.5561L66.2159 18.2384ZM67.8052 16.9445L68.3796 17.9759L68.3884 17.9709L67.8052 16.9445ZM78.6041 13.045H77.4236C77.4236 13.5824 77.7866 14.0521 78.3068 14.1874C78.827 14.3228 79.3729 14.0897 79.6349 13.6204L78.6041 13.045ZM78.6041 10.1476H79.7846C79.7846 9.49566 79.2561 8.96712 78.6041 8.96712V10.1476ZM83.2032 10.6258L82.3927 11.4841C82.3969 11.4881 82.4012 11.4921 82.4055 11.4961L83.2032 10.6258ZM83.665 11.3553L82.5231 11.6547C82.6114 11.9915 82.8439 12.2722 83.1584 12.4216C83.473 12.571 83.8374 12.574 84.1543 12.4297L83.665 11.3553ZM85.0778 10.3841L85.8734 11.2562L85.8741 11.2555L85.0778 10.3841ZM86.5264 8.62597L87.5275 9.25165C87.5305 9.24687 87.5334 9.24207 87.5364 9.23725L86.5264 8.62597ZM87.4266 6.67098V5.49047C86.9461 5.49047 86.5135 5.78172 86.3328 6.22695L87.4266 6.67098ZM87.8626 6.67098H89.0431C89.0431 6.019 88.5146 5.49047 87.8626 5.49047V6.67098ZM87.8626 10.9045H86.6821C86.6821 11.5564 87.2106 12.085 87.8626 12.085V10.9045ZM90.8724 10.9045H92.0529C92.0529 10.2525 91.5244 9.72394 90.8724 9.72394V10.9045ZM90.8724 11.889V13.0695C91.5244 13.0695 92.0529 12.541 92.0529 11.889H90.8724ZM87.8626 11.889V10.7085C87.2106 10.7085 86.6821 11.237 86.6821 11.889H87.8626ZM88.2142 21.9312L87.2953 22.6722C87.3 22.6781 87.3048 22.684 87.3097 22.6898L88.2142 21.9312ZM90.0426 22.0859L90.6826 23.0779C90.69 23.0731 90.6974 23.0682 90.7047 23.0633L90.0426 22.0859ZM90.7177 21.2279V20.0474C90.2442 20.0474 89.8165 20.3304 89.6312 20.7662L90.7177 21.2279ZM91.2662 21.2279L92.378 21.625C92.5071 21.2635 92.4523 20.8617 92.2312 20.5479C92.0101 20.2341 91.6501 20.0474 91.2662 20.0474V21.2279ZM89.8738 23.3095L90.5915 24.2469L90.6006 24.2398L89.8738 23.3095ZM86.7515 23.6471L86.1509 24.6634C86.1567 24.6668 86.1625 24.6702 86.1683 24.6735L86.7515 23.6471ZM85.8373 22.6203L84.7557 23.0935L84.7594 23.1019L85.8373 22.6203ZM85.5419 11.889H86.7224C86.7224 11.237 86.1939 10.7085 85.5419 10.7085V11.889ZM83.6992 11.889V10.7085C83.101 10.7085 82.5973 11.1559 82.5269 11.75L83.6992 11.889ZM83.3439 12.6371L82.4936 11.8182L82.4935 11.8182L83.3439 12.6371ZM81.3608 12.5386L80.6155 13.4542C80.6233 13.4605 80.6311 13.4667 80.639 13.4728L81.3608 12.5386ZM79.9121 12.3277L80.7072 13.2003C80.7136 13.1944 80.72 13.1885 80.7263 13.1825L79.9121 12.3277ZM78.6041 14.2264L77.5527 13.6895C77.4678 13.8558 77.4236 14.0397 77.4236 14.2264H78.6041ZM78.8713 22.0182L79.935 21.5061L79.9326 21.5012L78.8713 22.0182ZM79.5183 22.6511L78.953 23.6875L78.953 23.6875L79.5183 22.6511ZM80.8544 22.9043H82.035C82.035 22.2523 81.5064 21.7238 80.8544 21.7238V22.9043ZM80.8544 23.4106V24.5912C81.5064 24.5912 82.035 24.0626 82.035 23.4106H80.8544ZM74.2581 23.4106H73.0776C73.0776 24.0626 73.6061 24.5912 74.2581 24.5912V23.4106ZM74.2581 22.9043V21.7238C73.6061 21.7238 73.0776 22.2523 73.0776 22.9043H74.2581ZM75.7208 22.5949L75.0845 21.6006L75.0795 21.6038L75.7208 22.5949ZM76.2131 21.8776L75.0805 21.5445L75.078 21.5533L76.2131 21.8776ZM76.185 12.8481L75.026 13.0724C75.0288 13.0871 75.0319 13.1017 75.0353 13.1163L76.185 12.8481ZM75.8474 12.2151L75.097 13.1264C75.1054 13.1334 75.114 13.1403 75.1227 13.147L75.8474 12.2151ZM74.2581 12.2292L73.1207 12.5452C73.2097 12.8658 73.43 13.134 73.7273 13.2837C74.0246 13.4333 74.3712 13.4505 74.6819 13.331L74.2581 12.2292ZM74.1175 11.7229L73.6749 10.6284C73.1184 10.8535 72.8193 11.4604 72.98 12.0388L74.1175 11.7229ZM78.0134 10.1476V8.96712C77.8617 8.96712 77.7115 8.99635 77.5709 9.0532L78.0134 10.1476ZM95.7569 12.8762H94.5764C94.5764 13.3736 94.8883 13.8177 95.3562 13.9866C95.8241 14.1555 96.3477 14.0129 96.6654 13.6301L95.7569 12.8762ZM101.889 10.6821L101.21 11.6475C101.214 11.6504 101.218 11.6532 101.222 11.6559L101.889 10.6821ZM103.099 12.4121L104.207 12.0056L104.205 12.0004L103.099 12.4121ZM103.605 22.1589L104.686 21.6834L104.681 21.673L103.605 22.1589ZM104.097 22.7074L103.502 23.7271C103.508 23.7306 103.514 23.734 103.52 23.7374L104.097 22.7074ZM105.377 22.9043H106.558C106.558 22.2523 106.029 21.7238 105.377 21.7238V22.9043ZM105.377 23.4106V24.5912C106.029 24.5912 106.558 24.0626 106.558 23.4106H105.377ZM99.0059 23.4106H97.8254C97.8254 24.0626 98.3539 24.5912 99.0059 24.5912V23.4106ZM99.0059 22.9043V21.7238C98.3539 21.7238 97.8254 22.2523 97.8254 22.9043H99.0059ZM100.525 22.6371L101.239 23.577L101.245 23.5728L100.525 22.6371ZM101.031 21.8213L99.8905 21.5172L99.8896 21.5209L101.031 21.8213ZM100.623 12.6793L99.5939 13.2572C99.598 13.2644 99.6021 13.2715 99.6063 13.2786L100.623 12.6793ZM95.7569 13.706L94.8828 12.9126C94.6857 13.1298 94.5764 13.4126 94.5764 13.706H95.7569ZM95.9116 22.1167L96.9748 21.6035C96.9724 21.5985 96.97 21.5936 96.9675 21.5887L95.9116 22.1167ZM96.4461 22.7215L95.8513 23.7412C95.8678 23.7508 95.8845 23.76 95.9015 23.7688L96.4461 22.7215ZM97.8526 22.9043H99.0331C99.0331 22.2523 98.5045 21.7238 97.8526 21.7238V22.9043ZM97.8526 23.4106V24.5912C98.5045 24.5912 99.0331 24.0626 99.0331 23.4106H97.8526ZM91.4813 23.4106H90.3007C90.3007 24.0626 90.8293 24.5912 91.4813 24.5912V23.4106ZM91.4813 22.9043V21.7238C90.8293 21.7238 90.3007 22.2523 90.3007 22.9043H91.4813ZM93.0846 22.4121L92.115 21.7387L92.111 21.7444L93.0846 22.4121ZM93.3237 12.8903L92.1649 13.1156C92.1669 13.1259 92.1691 13.1361 92.1713 13.1463L93.3237 12.8903ZM93.0003 12.2011L92.2271 13.0932C92.2366 13.1014 92.2461 13.1094 92.2558 13.1173L93.0003 12.2011ZM91.4813 12.2292L90.3916 12.6832C90.6374 13.2734 91.3084 13.5605 91.905 13.331L91.4813 12.2292ZM91.2703 11.7229L90.8264 10.629C90.5345 10.7474 90.3021 10.9776 90.1808 11.2683C90.0595 11.559 90.0594 11.8862 90.1806 12.1769L91.2703 11.7229ZM95.1522 10.1476V8.96712C95 8.96712 94.8493 8.99654 94.7083 9.05376L95.1522 10.1476ZM95.7569 10.1476H96.9374C96.9374 9.49566 96.4089 8.96712 95.7569 8.96712V10.1476ZM107.316 15.435V14.2545C106.666 14.2545 106.138 14.7795 106.135 15.4293L107.316 15.435ZM108.708 19.9357L109.602 19.1649L109.602 19.1649L108.708 19.9357ZM116.219 15.435V16.6156C116.871 16.6156 117.399 16.087 117.399 15.435H116.219ZM114.826 11.6235L113.979 12.4457L113.983 12.4499L114.826 11.6235ZM107.006 12.0454L106.136 11.2477L106.136 11.248L107.006 12.0454ZM106.964 22.0595L106.09 22.8526L106.096 22.8597L106.964 22.0595ZM114.503 22.2845L115.379 23.0751L115.383 23.0713L114.503 22.2845ZM116.219 18.7684L117.385 18.9472C117.456 18.4872 117.25 18.0287 116.859 17.7764L116.219 18.7684ZM115.783 18.4871L116.423 17.4951C116.122 17.3015 115.751 17.2541 115.412 17.3663C115.073 17.4785 114.803 17.7382 114.677 18.0726L115.783 18.4871ZM114.207 20.8781L114.911 21.8259L114.913 21.8242L114.207 20.8781ZM107.316 14.6193L106.14 14.5069C106.109 14.838 106.218 15.1671 106.442 15.4133C106.666 15.6595 106.983 15.7998 107.316 15.7998V14.6193ZM113.279 14.6193V15.7998C113.604 15.7998 113.914 15.666 114.137 15.43C114.36 15.194 114.476 14.8765 114.458 14.5523L113.279 14.6193ZM108.384 12.1017L109.213 12.9429L109.213 12.9428L108.384 12.1017ZM111.929 11.6376L111.283 12.626L111.292 12.6319L111.929 11.6376ZM112.984 12.8753L114.062 12.3958L114.062 12.394L112.984 12.8753ZM120.701 13.045H119.521C119.521 13.5824 119.884 14.0521 120.404 14.1874C120.924 14.3228 121.47 14.0897 121.732 13.6204L120.701 13.045ZM120.701 10.1476H121.882C121.882 9.49566 121.353 8.96712 120.701 8.96712V10.1476ZM125.3 10.6258L124.49 11.4841C124.494 11.4881 124.498 11.4921 124.503 11.496L125.3 10.6258ZM125.441 12.6371L126.291 13.4559L126.291 13.4559L125.441 12.6371ZM123.458 12.5386L122.713 13.4542C122.72 13.4605 122.728 13.4667 122.736 13.4728L123.458 12.5386ZM122.009 12.3277L122.804 13.2003C122.811 13.1944 122.817 13.1885 122.823 13.1825L122.009 12.3277ZM120.701 14.2264L119.65 13.6895C119.565 13.8558 119.521 14.0397 119.521 14.2264H120.701ZM120.968 22.0182L122.032 21.5061L122.03 21.5012L120.968 22.0182ZM121.615 22.6511L122.181 21.6148L122.181 21.6148L121.615 22.6511ZM122.952 22.9043H124.132C124.132 22.2523 123.603 21.7238 122.952 21.7238V22.9043ZM122.952 23.4106V24.5912C123.603 24.5912 124.132 24.0626 124.132 23.4106H122.952ZM116.355 23.4106H115.175C115.175 24.0626 115.703 24.5912 116.355 24.5912V23.4106ZM116.355 22.9043V21.7238C115.703 21.7238 115.175 22.2523 115.175 22.9043H116.355ZM117.818 22.5949L117.182 21.6006L117.177 21.6038L117.818 22.5949ZM118.31 21.8776L117.178 21.5445L117.175 21.5533L118.31 21.8776ZM118.282 12.8481L117.123 13.0724C117.126 13.0871 117.129 13.1017 117.132 13.1163L118.282 12.8481ZM117.944 12.2151L117.194 13.1264C117.202 13.1334 117.211 13.1402 117.22 13.147L117.944 12.2151ZM116.355 12.2292L115.218 12.5452C115.307 12.8658 115.527 13.134 115.824 13.2837C116.122 13.4333 116.468 13.4505 116.779 13.331L116.355 12.2292ZM116.215 11.7229L115.772 10.6284C115.215 10.8535 114.916 11.4604 115.077 12.0388L116.215 11.7229ZM120.11 10.1476V8.96712C119.959 8.96712 119.809 8.99635 119.668 9.0532L120.11 10.1476ZM134.541 10.1889H135.722C135.722 9.53693 135.193 9.00839 134.541 9.00839V10.1889ZM134.541 14.5771V15.7576C135.193 15.7576 135.722 15.2291 135.722 14.5771H134.541ZM134.077 10.1889V9.00839C133.63 9.00839 133.221 9.26103 133.021 9.66096L134.077 10.1889ZM133.782 10.6249L133.057 9.69304L133.057 9.6931L133.782 10.6249ZM132.474 10.5124L132.136 11.6435L132.14 11.6449L132.474 10.5124ZM127.804 11.2578L126.98 10.4123L126.975 10.4176L127.804 11.2578ZM127.354 15.9414L128.287 15.2177L128.281 15.2099L127.354 15.9414ZM130.026 17.7698L130.551 16.7124L130.551 16.7124L130.026 17.7698ZM132.741 19.4435L131.915 20.287L131.924 20.2954L132.741 19.4435ZM132.811 22.4533L133.615 23.3177L133.616 23.317L132.811 22.4533ZM128.746 22.0173L129.536 21.1393L129.536 21.1393L128.746 22.0173ZM127.241 19.0497L128.399 18.8182C128.289 18.2664 127.804 17.8692 127.241 17.8692V19.0497ZM126.777 19.0497V17.8692C126.125 17.8692 125.597 18.3977 125.597 19.0497H126.777ZM126.777 23.6488H125.597C125.597 24.3008 126.125 24.8293 126.777 24.8293V23.6488ZM127.241 23.6488V24.8293C127.689 24.8293 128.097 24.5767 128.297 24.1767L127.241 23.6488ZM128.507 23.4238L128.165 24.5536C128.174 24.5562 128.183 24.5588 128.191 24.5612L128.507 23.4238ZM134.175 22.7768L134.918 23.6948L134.919 23.6939L134.175 22.7768ZM132.656 16.2649L133.174 15.2038L133.173 15.2032L132.656 16.2649ZM130.603 15.2663L131.119 14.2046L131.117 14.2038L130.603 15.2663ZM128.831 14.0426L129.772 13.3307C129.766 13.3221 129.759 13.3136 129.753 13.3052L128.831 14.0426ZM132.699 11.7642L131.91 12.6424L131.917 12.6489L132.699 11.7642ZM134.077 14.5771L132.934 14.8725C133.069 15.3936 133.539 15.7576 134.077 15.7576V14.5771ZM142.37 2.14388C142.37 1.97613 142.463 1.83153 142.594 1.7562L143.768 3.80504C144.341 3.47695 144.731 2.85672 144.731 2.14388H142.37ZM142.817 2.59116C142.57 2.59116 142.37 2.39091 142.37 2.14388H144.731C144.731 1.08694 143.874 0.230132 142.817 0.230132V2.59116ZM143.264 2.14388C143.264 2.39089 143.064 2.59116 142.817 2.59116V0.230132C141.76 0.230132 140.903 1.08696 140.903 2.14388H143.264ZM143.043 1.75815C143.173 1.83393 143.264 1.97757 143.264 2.14388H140.903C140.903 2.85071 141.287 3.46656 141.852 3.79668L143.043 1.75815ZM143.628 23.7742V2.77742H141.267V23.7742H143.628ZM143.181 22.5936H142.448V24.9547H143.181V22.5936ZM142.001 15.4819V23.7742H144.362V15.4819H142.001ZM148.939 12.5944C146.716 12.0996 144.834 13.0756 142.561 14.4772L143.801 16.4867C146.131 15.0493 147.241 14.6354 148.426 14.899L148.939 12.5944ZM149.863 17.908V13.7467H147.502V17.908H149.863ZM157.639 16.8772C155.77 17.9203 154.497 18.3683 153.345 18.3815C152.217 18.3945 151.022 17.9911 149.313 16.9103L148.051 18.9057C149.935 20.097 151.59 20.7628 153.372 20.7424C155.13 20.7222 156.827 20.0341 158.79 18.9389L157.639 16.8772ZM157.034 7.64269V17.908H159.395V7.64269H157.034ZM158.231 8.99482C158.424 8.88221 158.606 8.77603 158.789 8.67383L157.64 6.61154C157.432 6.72706 157.23 6.8451 157.041 6.95581L158.231 8.99482ZM150.74 9.44139C152.475 10.2689 153.904 10.4784 155.193 10.2634C156.436 10.0558 157.429 9.46323 158.231 8.99483L157.041 6.9558C156.189 7.45294 155.556 7.80902 154.804 7.93454C154.097 8.05259 153.16 7.97963 151.757 7.31046L150.74 9.44139ZM150.068 5.07665V8.37593H152.429V5.07665H150.068ZM143.755 5.90209C145.752 4.79017 146.978 4.40087 147.872 4.42952C148.664 4.45492 149.394 4.82058 150.386 5.8824L152.111 4.27089C150.912 2.98669 149.63 2.12365 147.947 2.06971C146.366 2.01901 144.653 2.69974 142.607 3.83925L143.755 5.90209ZM142.001 2.78062V4.87067H144.362V2.78062H142.001ZM16.6155 4.39454L16.8264 8.86711L19.1848 8.75587L18.9739 4.28329L16.6155 4.39454ZM2.22504 5.51943H17.7947V3.1584H2.22504V5.51943ZM3.17902 8.87081L3.40406 4.39824L1.04601 4.27959L0.820979 8.75217L3.17902 8.87081ZM2.53446 7.63098H2V9.992H2.53446V7.63098ZM2.17946 6.09078C1.6767 6.82454 1.43262 7.73259 1.35735 8.72193L3.71157 8.90105C3.76756 8.16512 3.93605 7.7042 4.12715 7.42531L2.17946 6.09078ZM3.99992 4.62251C3.24163 4.89957 2.63932 5.41964 2.17946 6.09078L4.12715 7.42531C4.36115 7.08379 4.59334 6.91937 4.81021 6.84013L3.99992 4.62251ZM6.3038 4.3539C5.40379 4.3539 4.59464 4.41424 4.01508 4.61708L4.79505 6.84556C4.9656 6.78586 5.42228 6.71493 6.3038 6.71493V4.3539ZM8.59634 4.3539H6.3038V6.71493H8.59634V4.3539ZM9.77686 20.1054V5.53441H7.41583V20.1054H9.77686ZM9.25971 22.8277C9.51938 22.45 9.62793 21.9839 9.68632 21.5964C9.75003 21.1736 9.77686 20.6708 9.77686 20.1054H7.41583C7.41583 20.609 7.39108 20.9829 7.35165 21.2446C7.30691 21.5415 7.26074 21.5677 7.31413 21.4901L9.25971 22.8277ZM6.57103 24.0708C7.61251 24.0708 8.62506 23.7444 9.25753 22.8308L7.31631 21.4869C7.27367 21.5485 7.14229 21.7097 6.57103 21.7097V24.0708ZM5.89592 24.0708H6.57103V21.7097H5.89592V24.0708ZM7.07643 23.4106V22.8902H4.71541V23.4106H7.07643ZM13.9831 22.2301H5.89592V24.5912H13.9831V22.2301ZM12.8026 22.8902V23.4106H15.1636V22.8902H12.8026ZM13.3221 24.0708H13.9831V21.7097H13.3221V24.0708ZM10.8011 23.0916C11.4586 23.8182 12.3838 24.0708 13.3221 24.0708V21.7097C12.7789 21.7097 12.607 21.5685 12.5519 21.5075L10.8011 23.0916ZM10.1163 20.1054C10.1163 20.7251 10.1491 21.2755 10.2285 21.7343C10.3002 22.1484 10.4383 22.6753 10.7863 23.0749L12.5667 21.5242C12.627 21.5934 12.6338 21.633 12.617 21.5877C12.602 21.5474 12.5783 21.4667 12.5549 21.3317C12.5077 21.0591 12.4773 20.6579 12.4773 20.1054H10.1163ZM10.1163 5.53441V20.1054H12.4773V5.53441H10.1163ZM13.9831 4.3539H11.2968V6.71493H13.9831V4.3539ZM16.45 4.89341C15.7374 4.50221 14.8869 4.3539 13.9831 4.3539V6.71493C14.6546 6.71493 15.0699 6.82916 15.3137 6.96304L16.45 4.89341ZM18.0904 6.56726C17.7016 5.83998 17.1503 5.25669 16.4259 4.88053L15.3379 6.97593C15.5886 7.1061 15.8155 7.3198 16.0081 7.68019L18.0904 6.56726ZM18.6417 8.65821C18.5357 7.84876 18.3756 7.10764 18.0933 6.57271L16.0052 7.67474C16.0792 7.81492 16.2004 8.19897 16.3006 8.96477L18.6417 8.65821ZM18.0056 7.63098H17.4712V9.992H18.0056V7.63098ZM24.8674 12.834V3.41064H22.5063V12.834H24.8674ZM25.6151 9.59385C24.8053 10.0174 23.8604 10.889 22.8137 12.0395L24.56 13.6284C25.5948 12.4911 26.3002 11.9 26.7094 11.6859L25.6151 9.59385ZM27.9906 8.96712C27.1606 8.96712 26.3604 9.19242 25.6025 9.60049L26.7219 11.6793C27.183 11.431 27.6017 11.3281 27.9906 11.3281V8.96712ZM30.5943 9.81609C29.8412 9.23787 28.9532 8.96712 27.9906 8.96712V11.3281C28.4908 11.3281 28.8592 11.4606 29.1563 11.6887L30.5943 9.81609ZM32.1754 12.3187C31.8766 11.3005 31.3778 10.4177 30.5943 9.81609L29.1563 11.6887C29.423 11.8935 29.7024 12.2765 29.9099 12.9836L32.1754 12.3187ZM32.4904 15.9423C32.4904 14.357 32.4073 13.0997 32.1744 12.3152L29.911 12.9871C30.0344 13.4027 30.1294 14.3396 30.1294 15.9423H32.4904ZM32.4904 20.4993V15.9423H30.1294V20.4993H32.4904ZM32.5883 21.6998C32.5911 21.706 32.559 21.6249 32.5316 21.3916C32.5059 21.1738 32.4904 20.8796 32.4904 20.4993H30.1294C30.1294 21.3043 30.1836 22.0937 30.4253 22.6461L32.5883 21.6998ZM32.5798 21.6877C32.5717 21.6829 32.5684 21.6803 32.5687 21.6805C32.5691 21.6808 32.5721 21.6833 32.5764 21.6882C32.5808 21.6931 32.5853 21.6989 32.5892 21.7052C32.5931 21.7114 32.5954 21.7163 32.5965 21.7189L30.4171 22.627C30.6168 23.1063 30.9592 23.4757 31.3902 23.7271L32.5798 21.6877ZM33.2227 21.7238C32.9604 21.7238 32.7735 21.7091 32.6487 21.6892C32.5102 21.6672 32.5131 21.6488 32.5798 21.6877L31.3902 23.7271C31.682 23.8973 32.0037 23.9773 32.2777 24.0209C32.5655 24.0667 32.8849 24.0848 33.2227 24.0848V21.7238ZM34.4032 23.4106V22.9043H32.0422V23.4106H34.4032ZM26.8936 24.5912H33.2227V22.2301H26.8936V24.5912ZM25.7131 22.9043V23.4106H28.0741V22.9043H25.7131ZM27.1889 21.7238H26.8936V24.0848H27.1889V21.7238ZM27.7264 21.6972C27.7952 21.6449 27.8148 21.6597 27.7055 21.683C27.6031 21.7049 27.4368 21.7238 27.1889 21.7238V24.0848C27.8248 24.0848 28.5897 24.0066 29.155 23.577L27.7264 21.6972ZM27.7913 21.5209C27.7686 21.6072 27.7443 21.657 27.7288 21.6826C27.7146 21.7062 27.7055 21.7135 27.7032 21.7153L29.1782 23.5589C29.652 23.1799 29.9313 22.6664 30.0746 22.1218L27.7913 21.5209ZM27.7947 20.4993C27.7947 20.8594 27.7912 21.1383 27.7847 21.3406C27.7815 21.442 27.7777 21.5173 27.7739 21.5702C27.7695 21.6326 27.767 21.6341 27.7727 21.6038L30.0933 22.0389C30.1267 21.8607 30.1379 21.6235 30.1445 21.416C30.1521 21.1776 30.1557 20.8705 30.1557 20.4993H27.7947ZM27.7947 15.9423V20.4993H30.1557V15.9423H27.7947ZM27.6326 13.552C27.6587 13.6287 27.7065 13.8498 27.7423 14.2903C27.7762 14.7086 27.7947 15.2565 27.7947 15.9423H30.1557C30.1557 15.2216 30.1366 14.6045 30.0955 14.0992C30.0563 13.6161 29.9916 13.1551 29.8677 12.7911L27.6326 13.552ZM27.3995 13.1648C27.457 13.2037 27.5486 13.2895 27.6255 13.5305L29.8748 12.8126C29.6704 12.1722 29.3025 11.6016 28.7224 11.2092L27.3995 13.1648ZM26.9077 13.03C27.1526 13.03 27.29 13.0878 27.3802 13.1515L28.7417 11.2226C28.1944 10.8362 27.5629 10.669 26.9077 10.669V13.03ZM25.993 13.275C26.3608 13.0945 26.6617 13.03 26.9077 13.03V10.669C26.2348 10.669 25.5792 10.8482 24.9531 11.1553L25.993 13.275ZM24.5484 14.499C25.2121 13.7905 25.6901 13.4236 25.993 13.275L24.9531 11.1553C24.2621 11.4943 23.5493 12.1119 22.8253 12.8849L24.5484 14.499ZM24.8674 20.4993V13.6919H22.5063V20.4993H24.8674ZM24.9101 21.6741C24.9381 21.7385 24.9373 21.7634 24.927 21.707C24.9185 21.6607 24.9079 21.5846 24.8982 21.4712C24.8788 21.244 24.8674 20.9237 24.8674 20.4993H22.5063C22.5063 20.9562 22.5183 21.3508 22.5458 21.6722C22.5694 21.9489 22.6135 22.3134 22.7449 22.6155L24.9101 21.6741ZM24.9617 21.6684C24.9066 21.6369 24.8827 21.6149 24.8767 21.609C24.8722 21.6044 24.8818 21.6131 24.8925 21.6355L22.7625 22.6542C22.9937 23.1376 23.3746 23.4808 23.7903 23.7183L24.9617 21.6684ZM25.7684 21.7238C25.4781 21.7238 25.2605 21.708 25.1049 21.6844C24.9398 21.6594 24.8958 21.6331 24.9184 21.6448L23.8337 23.7419C24.3771 24.023 25.0921 24.0848 25.7684 24.0848V21.7238ZM26.9489 23.4106V22.9043H24.5879V23.4106H26.9489ZM19.383 24.5912H25.7684V22.2301H19.383V24.5912ZM18.2025 22.9043V23.4106H20.5636V22.9043H18.2025ZM20.17 21.5996C20.0828 21.647 19.8538 21.7238 19.383 21.7238V24.0848C20.0562 24.0848 20.7274 23.9835 21.2965 23.6746L20.17 21.5996ZM20.0983 21.6376C20.0779 21.6852 20.0688 21.6901 20.0834 21.6727C20.1005 21.6525 20.1401 21.6138 20.2053 21.5812L21.2612 23.693C21.7761 23.4355 22.0858 22.9938 22.2684 22.5677L20.0983 21.6376ZM20.1716 20.4993C20.1716 20.8794 20.1581 21.1699 20.1359 21.3813C20.1113 21.6152 20.0834 21.6723 20.0983 21.6376L22.2684 22.5677C22.3958 22.2704 22.4523 21.929 22.4839 21.6285C22.5179 21.3054 22.5326 20.9255 22.5326 20.4993H20.1716ZM20.1716 8.83962V20.4993H22.5326V8.83962H20.1716ZM20.0872 6.38122C20.087 6.38062 20.088 6.38499 20.0898 6.39537C20.0916 6.40557 20.0938 6.41975 20.0964 6.43845C20.1015 6.47631 20.1073 6.5266 20.1131 6.59114C20.1249 6.72086 20.1356 6.89108 20.1445 7.10581C20.1623 7.5351 20.1716 8.11117 20.1716 8.83962H22.5326C22.5326 8.09596 22.5232 7.48357 22.5035 7.00803C22.485 6.56261 22.4552 6.15352 22.392 5.86904L20.0872 6.38122ZM20.1717 6.35217C20.1217 6.3116 20.0886 6.27284 20.0687 6.24571C20.0492 6.21905 20.0412 6.20202 20.0408 6.20128C20.0405 6.20047 20.0456 6.2113 20.0535 6.23739C20.0614 6.26328 20.071 6.30032 20.0808 6.35046L22.3984 5.89981C22.3168 5.48015 22.1386 4.90817 21.6605 4.51975L20.1717 6.35217ZM20.3394 6.43363C20.3647 6.43363 20.3501 6.43696 20.3096 6.42413C20.2655 6.41012 20.2039 6.38091 20.1429 6.32806L21.6892 4.54386C21.2748 4.18465 20.7777 4.07261 20.3394 4.07261V6.43363ZM19.7635 6.59569C19.9614 6.52832 20.1127 6.48448 20.223 6.45851C20.3439 6.43006 20.3721 6.43363 20.3394 6.43363V4.07261C19.9279 4.07261 19.4442 4.21031 19.0026 4.36062L19.7635 6.59569ZM18.0901 5.42432L18.287 5.91659L20.4791 5.03972L20.2822 4.54746L18.0901 5.42432ZM22.5932 2.3179L18.7395 3.89314L19.6328 6.07864L23.4865 4.50339L22.5932 2.3179ZM23.6868 2.23013H23.0399V4.59116H23.6868V2.23013ZM34.7592 15.4294C34.7489 17.5313 35.26 19.3402 36.4379 20.7067L38.2262 19.165C37.5289 18.3561 37.1117 17.1646 37.1202 15.4409L34.7592 15.4294ZM44.8426 14.2546H35.9397V16.6157H44.8426V14.2546ZM42.6072 12.45C43.2766 13.133 43.6621 14.0836 43.6621 15.4351H46.0231C46.0231 13.5987 45.4803 12.0083 44.2933 10.7973L42.6072 12.45ZM39.8918 11.3695C41.0461 11.3695 41.9169 11.7388 42.6031 12.4458L44.2973 10.8014C43.127 9.59562 41.6255 9.0085 39.8918 9.0085V11.3695ZM36.5005 12.8433C37.4073 11.854 38.5101 11.3695 39.8918 11.3695V9.0085C37.8606 9.0085 36.1223 9.76172 34.76 11.2479L36.5005 12.8433ZM35.123 17.1932C35.123 15.1875 35.6322 13.7911 36.5007 12.843L34.7597 11.2482C33.3779 12.7567 32.762 14.792 32.762 17.1932H35.123ZM36.4625 21.2665C35.6077 20.324 35.123 19.0099 35.123 17.1932H32.762C32.762 19.446 33.3743 21.3761 34.7136 22.8527L36.4625 21.2665ZM39.5684 22.6794C38.3709 22.6794 37.3528 22.2323 36.456 21.2595L34.7201 22.8598C36.0361 24.2874 37.6716 25.0404 39.5684 25.0404V22.6794ZM42.25 21.4941C41.5289 22.2938 40.6623 22.6794 39.5684 22.6794V25.0404C41.3248 25.0404 42.8305 24.3759 44.0034 23.0752L42.25 21.4941ZM43.6757 18.5896C43.5167 19.627 43.056 20.5924 42.2465 21.498L44.0069 23.0714C45.0915 21.8579 45.7747 20.4791 46.0095 18.9473L43.6757 18.5896ZM43.7666 19.4792L44.2026 19.7605L45.4826 17.7765L45.0466 17.4952L43.7666 19.4792ZM43.5374 21.8243C44.4194 21.1661 45.0498 20.134 45.512 18.9017L43.3013 18.0727C42.9195 19.0907 42.4997 19.6527 42.1253 19.9321L43.5374 21.8243ZM40.6373 22.7479C41.7092 22.7479 42.6932 22.451 43.5351 21.826L42.1277 19.9303C41.7318 20.2242 41.2531 20.3868 40.6373 20.3868V22.7479ZM36.4379 20.7067C37.5662 22.0154 38.9796 22.7479 40.6373 22.7479V20.3868C39.7633 20.3868 38.9732 20.0316 38.2262 19.165L36.4379 20.7067ZM35.9397 15.7999H41.9031V13.4389H35.9397V15.7999ZM36.1803 11.2606C35.3252 12.1026 34.8869 13.228 34.7645 14.507L37.1148 14.7318C37.1988 13.8542 37.473 13.3012 37.8368 12.943L36.1803 11.2606ZM39.1042 10.0071C37.9788 10.0071 36.9919 10.4613 36.1802 11.2607L37.8369 12.9429C38.2629 12.5234 38.6731 12.3681 39.1042 12.3681V10.0071ZM41.1984 10.6493C40.5638 10.2348 39.8591 10.0071 39.1042 10.0071V12.3681C39.362 12.3681 39.6231 12.4404 39.9074 12.6261L41.1984 10.6493ZM42.6857 12.3941C42.3606 11.666 41.8589 11.0719 41.1892 10.6434L39.9165 12.632C40.1845 12.8035 40.386 13.0346 40.5298 13.3566L42.6857 12.3941ZM43.0817 14.5524C43.0343 13.7174 42.9311 12.9462 42.6865 12.3959L40.529 13.3548C40.5844 13.4796 40.6782 13.8711 40.7245 14.6864L43.0817 14.5524ZM55.4522 20.0351V14.4796H53.0911V20.0351H55.4522ZM55.5415 21.4801C55.6058 21.5513 55.6138 21.5937 55.5967 21.5487C55.5815 21.5087 55.557 21.4272 55.5327 21.2896C55.4838 21.0118 55.4522 20.6014 55.4522 20.0351H53.0911C53.0911 20.669 53.1251 21.2315 53.2075 21.6991C53.2816 22.1201 53.4252 22.6595 53.7894 23.0627L55.5415 21.4801ZM56.2829 21.7097C55.786 21.7097 55.6239 21.575 55.5589 21.4998L53.772 23.043C54.4197 23.7929 55.3359 24.0708 56.2829 24.0708V21.7097ZM57.0143 21.7097H56.2829V24.0708H57.0143V21.7097ZM58.1948 23.4106V22.8902H55.8338V23.4106H58.1948ZM48.8427 24.5912H57.0143V22.2301H48.8427V24.5912ZM47.6622 22.8902V23.4106H50.0232V22.8902H47.6622ZM49.56 21.7097H48.8427V24.0708H49.56V21.7097ZM50.305 21.4519C50.2378 21.5536 50.0955 21.7097 49.56 21.7097V24.0708C50.6372 24.0708 51.6482 23.7018 52.2749 22.7534L50.305 21.4519ZM50.3907 20.0351C50.3907 20.5518 50.3681 20.9375 50.3312 21.2086C50.2887 21.5207 50.2438 21.5466 50.298 21.4626L52.2819 22.7426C52.5236 22.368 52.6194 21.9039 52.6706 21.5269C52.7275 21.1088 52.7517 20.6061 52.7517 20.0351H50.3907ZM50.3907 7.71444V20.0351H52.7517V7.71444H50.3907ZM50.3013 6.2535C50.2386 6.18146 50.2317 6.1399 50.2492 6.18767C50.2647 6.22986 50.2888 6.31349 50.3124 6.45286C50.3602 6.73387 50.3907 7.14692 50.3907 7.71444H52.7517C52.7517 7.08177 52.719 6.52202 52.6402 6.0576C52.5694 5.64115 52.4327 5.10585 52.0817 4.70281L50.3013 6.2535ZM49.56 6.03982C50.0551 6.03982 50.2307 6.17396 50.3081 6.2612L52.0749 4.69511C51.4209 3.95722 50.5089 3.6788 49.56 3.6788V6.03982ZM48.8427 6.03982H49.56V3.6788H48.8427V6.03982ZM47.6622 4.33891V4.85931H50.0232V4.33891H47.6622ZM55.8328 3.1584H48.8427V5.51943H55.8328V3.1584ZM60.2711 3.76332C59.1023 3.34031 57.6012 3.1584 55.8328 3.1584V5.51943C57.4775 5.51943 58.6675 5.69383 59.4677 5.98343L60.2711 3.76332ZM63.2766 5.90304C62.4682 4.9037 61.4584 4.18165 60.2618 3.75997L59.4771 5.98678C60.2494 6.25895 60.8993 6.71834 61.4411 7.38801L63.2766 5.90304ZM64.552 9.61318C64.552 8.21807 64.1334 6.96205 63.2766 5.90305L61.4411 7.388C61.9346 7.99801 62.191 8.72042 62.191 9.61318H64.552ZM62.6354 14.2685C63.9268 13.0475 64.552 11.4595 64.552 9.61318H62.191C62.191 10.8799 61.7848 11.8235 61.0134 12.5528L62.6354 14.2685ZM57.4784 16.0539C59.5551 16.0539 61.3335 15.5107 62.6393 14.2648L61.0095 12.5565C60.2712 13.2609 59.1523 13.6929 57.4784 13.6929V16.0539ZM55.8437 15.9466C56.418 16.0172 56.9635 16.0539 57.4784 16.0539V13.6929C57.0744 13.6929 56.626 13.664 56.1314 13.6032L55.8437 15.9466ZM54.0231 15.6336C54.6619 15.7712 55.2691 15.8761 55.8437 15.9466L56.1314 13.6032C55.6371 13.5425 55.1003 13.4505 54.5202 13.3255L54.0231 15.6336ZM55.7366 12.717C55.384 12.674 54.9694 12.6082 54.4905 12.5178L54.0528 14.8379C54.5678 14.9351 55.0346 15.0099 55.4508 15.0607L55.7366 12.717ZM56.5783 12.7787C56.3694 12.7787 56.0918 12.7603 55.7366 12.717L55.4508 15.0607C55.8646 15.1111 56.2433 15.1397 56.5783 15.1397V12.7787ZM58.2346 12.0266C57.7409 12.5532 57.2077 12.7787 56.5783 12.7787V15.1397C57.8991 15.1397 59.0443 14.615 59.9571 13.6414L58.2346 12.0266ZM58.9843 9.89447C58.9843 10.8437 58.7109 11.5189 58.235 12.0262L59.9567 13.6417C60.906 12.6301 61.3453 11.3457 61.3453 9.89447H58.9843ZM58.5942 8.11277C58.8508 8.64741 58.9843 9.23572 58.9843 9.89447H61.3453C61.3453 8.90296 61.1412 7.96291 60.7227 7.09108L58.5942 8.11277ZM57.6466 7.04235C58.0281 7.25627 58.3466 7.59023 58.5916 8.10729L60.7253 7.09656C60.2951 6.18839 59.6572 5.46281 58.8011 4.98288L57.6466 7.04235ZM56.1141 6.65867C56.7169 6.65867 57.2132 6.7929 57.6348 7.03567L58.8129 4.98956C57.9968 4.51971 57.0867 4.29764 56.1141 4.29764V6.65867ZM54.5444 6.89395C55.2525 6.7258 55.7662 6.65867 56.1141 6.65867V4.29764C55.5057 4.29764 54.7911 4.40867 53.9989 4.59682L54.5444 6.89395ZM55.4522 13.6779V5.74538H53.0911V13.6779H55.4522ZM69.8258 20.6378C69.1703 21.1445 68.6461 21.5371 68.2492 21.8196C68.0507 21.9609 67.8904 22.0702 67.7656 22.1503C67.7035 22.1903 67.6539 22.2206 67.6156 22.2428C67.5967 22.2538 67.5819 22.262 67.5709 22.2679C67.5655 22.2707 67.5614 22.2729 67.5585 22.2744C67.5555 22.2758 67.5542 22.2765 67.5542 22.2764L68.5624 24.4114C68.8396 24.2805 69.212 24.0324 69.6185 23.7431C70.0514 23.4349 70.6032 23.0211 71.2698 22.5057L69.8258 20.6378ZM71.8679 22.4372C71.8807 22.4522 71.8433 22.4155 71.8032 22.2607C71.7636 22.1073 71.7321 21.8791 71.7282 21.5574L69.3674 21.5862C69.3776 22.4276 69.5225 23.3256 70.0715 23.9693L71.8679 22.4372ZM72.0668 22.501C71.9749 22.501 71.9328 22.4855 71.9196 22.4797C71.9094 22.4753 71.8936 22.4673 71.8679 22.4372L70.0716 23.9694C70.5911 24.5785 71.2994 24.862 72.0668 24.862V22.501ZM74.1307 20.8655C73.1269 22.2098 72.4311 22.501 72.0668 22.501V24.862C73.6152 24.862 74.926 23.7466 76.0225 22.2781L74.1307 20.8655ZM73.8961 20.7841V21.5718H76.2571V20.7841H73.8961ZM74.5587 22.8146C74.8952 22.6063 75.3752 22.155 75.9114 21.6189L74.2419 19.9494C73.968 20.2232 73.7484 20.4337 73.5795 20.5858C73.4953 20.6618 73.4291 20.7183 73.3791 20.7585C73.3254 20.8017 73.3071 20.8127 73.316 20.8071L74.5587 22.8146ZM73.5436 23.0898C73.8704 23.0898 74.2133 23.0166 74.5322 22.8306L73.3425 20.7912C73.4365 20.7364 73.5168 20.7288 73.5436 20.7288V23.0898ZM72.4081 22.6755C72.7232 22.9382 73.1146 23.0898 73.5436 23.0898V20.7288C73.6072 20.7288 73.6797 20.7399 73.7531 20.7671C73.8259 20.7941 73.8816 20.8301 73.9196 20.8618L72.4081 22.6755ZM71.7754 21.4207C71.83 21.7374 71.9563 22.2664 72.3697 22.6422L73.9579 20.8952C74.0204 20.9519 74.0605 21.0057 74.0842 21.0424C74.1078 21.079 74.1191 21.1051 74.1224 21.1131C74.1276 21.1258 74.1162 21.1013 74.1021 21.0196L71.7754 21.4207ZM71.6879 18.9557C71.6879 20.1424 71.7076 21.0135 71.7743 21.4142L74.1032 21.0261C74.0763 20.8642 74.049 20.2257 74.049 18.9557H71.6879ZM71.6879 14.5816V18.9557H74.049V14.5816H71.6879ZM71.5263 12.5621C71.5421 12.5996 71.5918 12.7666 71.6308 13.1476C71.6674 13.5058 71.6879 13.9804 71.6879 14.5816H74.049C74.049 13.9358 74.0273 13.3743 73.9796 12.9074C73.9341 12.4632 73.8573 12.016 73.7042 11.6504L71.5263 12.5621ZM70.8426 11.787C71.1356 11.941 71.3638 12.1789 71.5285 12.5673L73.7021 11.6452C73.3417 10.7958 72.7541 10.1243 71.9408 9.69691L70.8426 11.787ZM68.5787 11.3458C69.601 11.3458 70.3329 11.5191 70.8424 11.7869L71.9409 9.697C70.9877 9.19595 69.8444 8.98478 68.5787 8.98478V11.3458ZM65.8523 12.0916C66.3963 11.6465 67.2533 11.3458 68.5787 11.3458V8.98478C66.9225 8.98478 65.4635 9.35917 64.3572 10.2643L65.8523 12.0916ZM65.0476 13.4002C65.0476 13.0542 65.2067 12.6199 65.8523 12.0916L64.3572 10.2643C63.3526 11.0862 62.6865 12.1334 62.6865 13.4002H65.0476ZM65.0747 13.6166C65.0823 13.6252 65.0787 13.6262 65.071 13.6025C65.062 13.5749 65.0476 13.5122 65.0476 13.4002H62.6865C62.6865 14.0228 62.8488 14.6637 63.3063 15.1809L65.0747 13.6166ZM65.0485 13.5839C65.031 13.5839 65.0232 13.5824 65.023 13.5824C65.0228 13.5824 65.0242 13.5826 65.0268 13.5834C65.0294 13.5842 65.0327 13.5854 65.0367 13.587C65.0451 13.5906 65.0525 13.595 65.0577 13.5987C65.0628 13.6024 65.0627 13.6032 65.058 13.598L63.3231 15.1995C63.7829 15.6976 64.3891 15.945 65.0485 15.945V13.5839ZM65.0377 13.6136C65.039 13.6121 65.0443 13.6067 65.0539 13.6C65.0636 13.5932 65.0737 13.5878 65.0825 13.5842C65.0911 13.5807 65.0946 13.5804 65.0906 13.5811C65.0863 13.5819 65.0729 13.5839 65.0485 13.5839V15.945C65.6916 15.945 66.3082 15.7197 66.7752 15.2121L65.0377 13.6136ZM65.0635 13.4142C65.0635 13.5295 65.0482 13.5888 65.0413 13.6093C65.036 13.625 65.0377 13.6131 65.0548 13.5953L66.758 15.2304C67.2559 14.7118 67.4245 14.0477 67.4245 13.4142H65.0635ZM65.036 12.6392L65.0642 13.4549L67.4238 13.3736L67.3957 12.5578L65.036 12.6392ZM65.9632 10.6217C65.4004 11.1252 65.0353 11.7954 65.0353 12.5985H67.3964C67.3964 12.5764 67.3877 12.5153 67.5375 12.3812L65.9632 10.6217ZM68.1568 9.84273C67.3484 9.84273 66.5678 10.0659 65.9516 10.6322L67.5491 12.3707C67.6267 12.2993 67.7837 12.2038 68.1568 12.2038V9.84273ZM70.8315 10.9796C70.1505 10.1719 69.1905 9.84273 68.1568 9.84273V12.2038C68.6795 12.2038 68.901 12.3527 69.0264 12.5015L70.8315 10.9796ZM71.7283 14.3847C71.7283 13.0639 71.5347 11.7946 70.8228 10.9694L69.0351 12.5117C69.1483 12.6429 69.3673 13.1364 69.3673 14.3847H71.7283ZM71.7283 14.891V14.3847H69.3673V14.891H71.7283ZM66.3925 17.962C67.2503 17.4574 68.749 16.803 70.952 16.0002L70.1436 13.7819C67.9209 14.5919 66.2503 15.3064 65.1954 15.927L66.3925 17.962ZM64.8077 19.3543C65.0549 18.9443 65.5429 18.4667 66.3969 17.9594L65.191 15.9295C64.1509 16.5475 63.3074 17.27 62.7858 18.1352L64.8077 19.3543ZM64.5553 20.3763C64.5553 19.9289 64.6536 19.6061 64.8035 19.3612L62.7899 18.1284C62.3773 18.8023 62.1943 19.5672 62.1943 20.3763H64.5553ZM65.0936 21.9735C64.7648 21.6232 64.5553 21.1304 64.5553 20.3763H62.1943C62.1943 21.61 62.5567 22.7205 63.3719 23.5892L65.0936 21.9735ZM66.4409 22.515C65.8521 22.515 65.4316 22.3278 65.087 21.9665L63.3785 23.5961C64.1966 24.4538 65.2482 24.876 66.4409 24.876V22.515ZM67.5624 22.2726C67.2155 22.4333 66.846 22.515 66.4409 22.515V24.876C67.1797 24.876 67.8886 24.7234 68.5543 24.4152L67.5624 22.2726ZM71.7283 20.6576V15.749H69.3673V20.6576H71.7283ZM67.7348 23.2445C68.8876 23.2445 70.1058 22.5306 71.2889 21.5765L69.8067 19.7386C68.6644 20.6598 68.0073 20.8835 67.7348 20.8835V23.2445ZM65.4715 22.1999C66.0643 22.8479 66.8313 23.2445 67.7348 23.2445V20.8835C67.5882 20.8835 67.4269 20.8395 67.2134 20.6061L65.4715 22.1999ZM64.5572 19.7152C64.5572 20.6444 64.8428 21.4982 65.4632 22.1907L67.2217 20.6153C67.0357 20.4076 66.9182 20.1363 66.9182 19.7152H64.5572ZM65.2525 17.5561C64.7973 18.1988 64.5572 18.9281 64.5572 19.7152H66.9182C66.9182 19.4334 66.9969 19.1782 67.1792 18.9208L65.2525 17.5561ZM67.2308 15.9131C66.4108 16.3698 65.7133 16.9056 65.2525 17.5561L67.1792 18.9208C67.356 18.6712 67.7181 18.3443 68.3796 17.9758L67.2308 15.9131ZM70.1119 14.6519C68.7127 15.2079 67.7188 15.6358 67.222 15.9181L68.3884 17.9709C68.7167 17.7843 69.5512 17.4153 70.9837 16.8461L70.1119 14.6519ZM79.7846 13.045V10.1476H77.4236V13.045H79.7846ZM81.9234 8.96712C80.0761 8.96712 78.6686 10.5076 77.5733 12.4695L79.6349 13.6204C80.6962 11.7192 81.5015 11.3281 81.9234 11.3281V8.96712ZM84.0138 9.76759C83.4321 9.21821 82.7042 8.96712 81.9234 8.96712V11.3281C82.1739 11.3281 82.2993 11.3959 82.3927 11.4841L84.0138 9.76759ZM84.807 11.056C84.6703 10.5347 84.3783 10.1015 84.0009 9.75561L82.4055 11.4961C82.5031 11.5854 82.5189 11.6386 82.5231 11.6547L84.807 11.056ZM84.2822 9.51193C83.8712 9.88686 83.5014 10.1326 83.1757 10.281L84.1543 12.4297C84.7554 12.1559 85.3275 11.7542 85.8734 11.2562L84.2822 9.51193ZM85.5254 8.0003C85.1556 8.59185 84.7401 9.09348 84.2814 9.5126L85.8741 11.2555C86.5031 10.6807 87.0533 10.0103 87.5275 9.25165L85.5254 8.0003ZM86.3328 6.22695C85.9478 7.17534 85.6782 7.74751 85.5165 8.0147L87.5364 9.23725C87.806 8.79182 88.1365 8.06067 88.5204 7.11501L86.3328 6.22695ZM87.8626 5.49047H87.4266V7.85149H87.8626V5.49047ZM89.0431 10.9045V6.67098H86.6821V10.9045H89.0431ZM90.8724 9.72394H87.8626V12.085H90.8724V9.72394ZM92.0529 11.889V10.9045H89.6919V11.889H92.0529ZM87.8626 13.0695H90.8724V10.7085H87.8626V13.0695ZM89.0431 20.2434V11.889H86.6821V20.2434H89.0431ZM89.1331 21.1901C89.1798 21.248 89.1453 21.2382 89.1062 21.0505C89.0696 20.8751 89.0431 20.6126 89.0431 20.2434H86.6821C86.6821 20.7087 86.7141 21.1448 86.7948 21.532C86.8729 21.9068 87.0142 22.3237 87.2953 22.6722L89.1331 21.1901ZM89.1425 21.1867C89.1252 21.1867 89.1181 21.185 89.1187 21.1852C89.1196 21.1854 89.1245 21.1866 89.131 21.1897C89.1375 21.1927 89.1407 21.1953 89.1401 21.1948C89.1391 21.194 89.1316 21.188 89.1187 21.1726L87.3097 22.6898C87.7748 23.2443 88.4137 23.5477 89.1425 23.5477V21.1867ZM89.4026 21.0939C89.2795 21.1734 89.1987 21.1867 89.1425 21.1867V23.5477C89.7051 23.5477 90.2244 23.3735 90.6826 23.0779L89.4026 21.0939ZM89.6312 20.7662C89.5461 20.9665 89.4544 21.0585 89.3805 21.1085L90.7047 23.0633C91.2122 22.7195 91.5705 22.2395 91.8042 21.6897L89.6312 20.7662ZM91.2662 20.0474H90.7177V22.4085H91.2662V20.0474ZM90.6006 24.2398C91.4203 23.5994 91.9955 22.6959 92.378 21.625L90.1545 20.8309C89.8806 21.5977 89.5276 22.0819 89.1471 22.3792L90.6006 24.2398ZM88.0173 25.1792C88.96 25.1792 89.8249 24.8338 90.5915 24.2468L89.1562 22.3722C88.7226 22.7042 88.3497 22.8182 88.0173 22.8182V25.1792ZM86.1683 24.6735C86.7404 24.9985 87.3615 25.1792 88.0173 25.1792V22.8182C87.8105 22.8182 87.5877 22.7644 87.3347 22.6207L86.1683 24.6735ZM84.7594 23.1019C85.0554 23.7643 85.526 24.2942 86.1509 24.6634L87.352 22.6307C87.1518 22.5124 87.0129 22.3578 86.9151 22.1388L84.7594 23.1019ZM84.3614 20.5528C84.3614 21.5247 84.4585 22.4141 84.7557 23.0935L86.9188 22.1472C86.8222 21.9264 86.7224 21.4375 86.7224 20.5528H84.3614ZM84.3614 11.889V20.5528H86.7224V11.889H84.3614ZM83.6992 13.0695H85.5419V10.7085H83.6992V13.0695ZM84.1942 13.4559C84.5742 13.0613 84.8068 12.5737 84.8715 12.028L82.5269 11.75C82.5241 11.7733 82.5197 11.7829 82.5184 11.7858C82.5169 11.7888 82.5117 11.7994 82.4936 11.8182L84.1942 13.4559ZM82.4719 14.1973C83.1448 14.1973 83.7382 13.9295 84.1942 13.4559L82.4935 11.8182C82.4799 11.8324 82.4713 11.8389 82.4685 11.8409C82.4659 11.8427 82.4671 11.8416 82.4717 11.8396C82.4764 11.8375 82.4807 11.8363 82.4831 11.8358C82.4853 11.8354 82.4821 11.8363 82.4719 11.8363V14.1973ZM80.639 13.4728C81.1448 13.8636 81.7684 14.1973 82.4719 14.1973V11.8363C82.5005 11.8363 82.4852 11.8433 82.4147 11.8129C82.3425 11.7819 82.232 11.72 82.0826 11.6045L80.639 13.4728ZM80.4606 13.2269C80.3505 13.2269 80.278 13.2049 80.2575 13.1981C80.2348 13.1906 80.2367 13.1887 80.2669 13.2052C80.3303 13.2398 80.4442 13.3147 80.6155 13.4542L82.106 11.6231C81.8742 11.4344 81.6365 11.2631 81.3998 11.1337C81.1871 11.0174 80.8536 10.8659 80.4606 10.8659V13.2269ZM80.7263 13.1825C80.7675 13.1432 80.7714 13.1488 80.7356 13.1671C80.6961 13.1874 80.6 13.2269 80.4606 13.2269V10.8659C79.8492 10.8659 79.3866 11.1979 79.098 11.4728L80.7263 13.1825ZM79.6555 14.7633C80.0812 13.9295 80.4401 13.4436 80.7072 13.2003L79.117 11.455C78.5403 11.9806 78.0271 12.7605 77.5527 13.6895L79.6555 14.7633ZM79.7846 20.4008V14.2264H77.4236V20.4008H79.7846ZM79.9326 21.5012C79.8713 21.3755 79.7846 21.0497 79.7846 20.4008H77.4236C77.4236 21.1771 77.515 21.9297 77.8101 22.5353L79.9326 21.5012ZM80.0836 21.6148C80.0085 21.5738 79.9686 21.5407 79.95 21.5225C79.933 21.5058 79.9322 21.5003 79.935 21.5061L77.8077 22.5304C78.0613 23.0571 78.4824 23.4308 78.953 23.6875L80.0836 21.6148ZM80.8544 21.7238C80.3569 21.7238 80.1415 21.6464 80.0836 21.6148L78.953 23.6875C79.5139 23.9935 80.1893 24.0848 80.8544 24.0848V21.7238ZM82.035 23.4106V22.9043H79.6739V23.4106H82.035ZM74.2581 24.5912H80.8544V22.2301H74.2581V24.5912ZM73.0776 22.9043V23.4106H75.4386V22.9043H73.0776ZM75.0795 21.6038C75.0456 21.6257 74.8331 21.7238 74.2581 21.7238V24.0848C74.9958 24.0848 75.7584 23.9767 76.3621 23.586L75.0795 21.6038ZM75.078 21.5533C75.0601 21.616 75.0448 21.6373 75.0464 21.6351C75.0472 21.6339 75.0511 21.6285 75.0587 21.6211C75.0664 21.6135 75.0753 21.6065 75.0845 21.6006L76.3572 23.5892C76.8856 23.251 77.194 22.7414 77.3482 22.2019L75.078 21.5533ZM75.1029 20.5133C75.1029 20.8792 75.0971 21.1578 75.0869 21.3562C75.0818 21.4556 75.076 21.5245 75.071 21.5684C75.0646 21.6247 75.0633 21.603 75.0806 21.5445L77.3456 22.2107C77.4139 21.9785 77.4338 21.6906 77.4448 21.4777C77.458 21.2214 77.4639 20.8975 77.4639 20.5133H75.1029ZM75.1029 15.5203V20.5133H77.4639V15.5203H75.1029ZM75.0353 13.1163C75.0313 13.0992 75.0403 13.1369 75.0517 13.2721C75.0619 13.3934 75.0713 13.558 75.0791 13.7706C75.0947 14.195 75.1029 14.7764 75.1029 15.5203H77.4639C77.4639 14.7641 77.4557 14.1499 77.4385 13.6836C77.4229 13.2601 77.3978 12.8507 77.3346 12.5798L75.0353 13.1163ZM75.1227 13.147C75.0615 13.0994 75.0293 13.0508 75.0168 13.0274C75.0062 13.0076 75.0151 13.0163 75.026 13.0724L77.344 12.6237C77.2543 12.1603 77.0404 11.6475 76.5722 11.2833L75.1227 13.147ZM75.2426 13.1988C75.2587 13.1988 75.2446 13.2009 75.2112 13.19C75.1754 13.1783 75.1343 13.1572 75.097 13.1264L76.5979 11.3039C76.1904 10.9683 75.7085 10.8377 75.2426 10.8377V13.1988ZM74.6819 13.331C74.9565 13.2254 75.1376 13.1988 75.2426 13.1988V10.8377C74.7663 10.8377 74.2911 10.9517 73.8343 11.1274L74.6819 13.331ZM72.98 12.0388L73.1207 12.5452L75.3955 11.9133L75.2549 11.4069L72.98 12.0388ZM77.5709 9.0532L73.6749 10.6284L74.56 12.8173L78.4559 11.2421L77.5709 9.0532ZM78.6041 8.96712H78.0134V11.3281H78.6041V8.96712ZM100.075 8.96712C98.1673 8.96712 96.4262 10.2213 94.8485 12.1223L96.6654 13.6301C98.1069 11.8931 99.2443 11.3281 100.075 11.3281V8.96712ZM102.569 9.71667C101.837 9.20187 100.987 8.96712 100.075 8.96712V11.3281C100.569 11.3281 100.929 11.4497 101.21 11.6475L102.569 9.71667ZM104.205 12.0004C103.853 11.0546 103.33 10.2381 102.556 9.70825L101.222 11.6559C101.461 11.82 101.744 12.1568 101.992 12.8237L104.205 12.0004ZM104.589 15C104.589 13.8037 104.487 12.7699 104.207 12.0057L101.99 12.8185C102.123 13.1794 102.228 13.8708 102.228 15H104.589ZM104.589 20.4993V15H102.228V20.4993H104.589ZM104.681 21.673C104.689 21.6902 104.657 21.6189 104.63 21.3869C104.604 21.1722 104.589 20.8799 104.589 20.4993H102.228C102.228 20.9344 102.245 21.3265 102.285 21.6651C102.323 21.9862 102.39 22.3369 102.529 22.6448L104.681 21.673ZM104.692 21.6877C104.685 21.6836 104.682 21.6811 104.681 21.6807C104.681 21.6804 104.682 21.6813 104.684 21.6834C104.686 21.6854 104.687 21.6873 104.688 21.6884C104.689 21.6893 104.688 21.688 104.686 21.6834L102.524 22.6343C102.73 23.1011 103.066 23.4726 103.502 23.7271L104.692 21.6877ZM105.377 21.7238C105.104 21.7238 104.907 21.709 104.773 21.6883C104.625 21.6655 104.616 21.645 104.674 21.6774L103.52 23.7374C104.048 24.0328 104.756 24.0848 105.377 24.0848V21.7238ZM106.558 23.4106V22.9043H104.197V23.4106H106.558ZM99.0059 24.5912H105.377V22.2301H99.0059V24.5912ZM97.8254 22.9043V23.4106H100.186V22.9043H97.8254ZM99.2731 21.7238H99.0059V24.0848H99.2731V21.7238ZM99.8106 21.6972C99.8794 21.6449 99.8989 21.6597 99.7896 21.683C99.6873 21.7049 99.5209 21.7238 99.2731 21.7238V24.0848C99.9089 24.0848 100.674 24.0066 101.239 23.577L99.8106 21.6972ZM99.8896 21.5209C99.8682 21.6022 99.8451 21.6476 99.8313 21.6699C99.8186 21.6903 99.81 21.6976 99.8051 21.7014L101.245 23.5728C101.734 23.1963 102.026 22.6791 102.173 22.1218L99.8896 21.5209ZM99.9069 20.4993C99.9069 20.8625 99.9023 21.1389 99.8939 21.3351C99.8898 21.4336 99.885 21.5021 99.8808 21.5459C99.8751 21.6047 99.8739 21.5794 99.8905 21.5172L102.172 22.1255C102.23 21.9091 102.244 21.6327 102.253 21.4355C102.263 21.191 102.268 20.8768 102.268 20.4993H99.9069ZM99.9069 15.225V20.4993H102.268V15.225H99.9069ZM99.6063 13.2786C99.7488 13.5205 99.9069 14.1017 99.9069 15.225H102.268C102.268 14.0042 102.117 12.8882 101.64 12.0799L99.6063 13.2786ZM99.0903 13.0581C99.4761 13.0581 99.5437 13.1678 99.5939 13.2572L101.653 12.1014C101.103 11.1218 100.148 10.6971 99.0903 10.6971V13.0581ZM96.6311 14.4994C97.6212 13.4086 98.4393 13.0581 99.0903 13.0581V10.6971C97.5097 10.6971 96.1056 11.5655 94.8828 12.9126L96.6311 14.4994ZM96.9374 20.4993V13.706H94.5764V20.4993H96.9374ZM96.9675 21.5887C97.0073 21.6683 97.01 21.7087 96.9998 21.6597C96.992 21.6221 96.9811 21.5535 96.9708 21.4452C96.95 21.2285 96.9374 20.9174 96.9374 20.4993H94.5764C94.5764 20.9532 94.5896 21.3476 94.6205 21.67C94.6464 21.9411 94.6964 22.3259 94.8558 22.6446L96.9675 21.5887ZM97.0409 21.7018C97.0406 21.7016 97.0368 21.6997 97.0283 21.6901C97.0189 21.6794 96.9991 21.6539 96.9748 21.6035L94.8485 22.6299C95.0653 23.079 95.3924 23.4735 95.8513 23.7412L97.0409 21.7018ZM97.8526 21.7238C97.5299 21.7238 97.2918 21.7095 97.1257 21.6879C96.9378 21.6635 96.9245 21.6396 96.9908 21.6741L95.9015 23.7688C96.2022 23.9252 96.5404 23.9927 96.8213 24.0293C97.1241 24.0686 97.472 24.0848 97.8526 24.0848V21.7238ZM99.0331 23.4106V22.9043H96.6721V23.4106H99.0331ZM91.4813 24.5912H97.8526V22.2301H91.4813V24.5912ZM90.3007 22.9043V23.4106H92.6618V22.9043H90.3007ZM91.7626 21.7238H91.4813V24.0848H91.7626V21.7238ZM92.111 21.7444C92.1597 21.6735 92.2083 21.6619 92.1734 21.6749C92.1258 21.6927 92.0016 21.7238 91.7626 21.7238V24.0848C92.5525 24.0848 93.4999 23.8938 94.0582 23.0797L92.111 21.7444ZM92.2557 20.4993C92.2557 20.9252 92.2286 21.2424 92.1873 21.4673C92.1434 21.7059 92.097 21.7646 92.115 21.7387L94.0543 23.0854C94.3067 22.7219 94.4361 22.293 94.5094 21.8941C94.5853 21.4814 94.6168 21.011 94.6168 20.4993H92.2557ZM92.2557 15.7173V20.4993H94.6168V15.7173H92.2557ZM92.1713 13.1463C92.1711 13.1453 92.1747 13.1617 92.1801 13.2023C92.1853 13.2411 92.1911 13.2931 92.197 13.3602C92.2088 13.495 92.2196 13.6725 92.2285 13.8971C92.2464 14.346 92.2557 14.9508 92.2557 15.7173H94.6168C94.6168 14.9366 94.6073 14.2967 94.5877 13.8032C94.5694 13.3424 94.5399 12.9209 94.4761 12.6342L92.1713 13.1463ZM92.2558 13.1173C92.2059 13.0767 92.1728 13.038 92.1529 13.0108C92.1333 12.9842 92.1253 12.9671 92.125 12.9664C92.1246 12.9656 92.1297 12.9764 92.1377 13.0025C92.1456 13.0284 92.1552 13.0654 92.1649 13.1156L94.4825 12.6649C94.4009 12.2453 94.2227 11.6733 93.7447 11.2849L92.2558 13.1173ZM92.4236 13.1988C92.4488 13.1988 92.4343 13.2021 92.3938 13.1893C92.3496 13.1752 92.2881 13.146 92.2271 13.0932L93.7734 11.309C93.3589 10.9498 92.8618 10.8377 92.4236 10.8377V13.1988ZM91.905 13.331C92.1957 13.2193 92.3588 13.1988 92.4236 13.1988V10.8377C91.9633 10.8377 91.4982 10.9579 91.0575 11.1274L91.905 13.331ZM90.1806 12.1769L90.3916 12.6832L92.571 11.7752L92.36 11.2688L90.1806 12.1769ZM94.7083 9.05376L90.8264 10.629L91.7142 12.8168L95.596 11.2415L94.7083 9.05376ZM95.7569 8.96712H95.1522V11.3281H95.7569V8.96712ZM96.9374 12.8762V10.1476H94.5764V12.8762H96.9374ZM106.135 15.4293C106.125 17.5312 106.636 19.3401 107.814 20.7065L109.602 19.1649C108.905 18.356 108.488 17.1645 108.496 15.4408L106.135 15.4293ZM116.219 14.2545H107.316V16.6156H116.219V14.2545ZM113.983 12.4499C114.653 13.1328 115.038 14.0835 115.038 15.435H117.399C117.399 13.5986 116.856 12.0082 115.669 10.7971L113.983 12.4499ZM111.268 11.3694C112.422 11.3694 113.293 11.7387 113.979 12.4457L115.673 10.8013C114.503 9.59551 113.001 9.00839 111.268 9.00839V11.3694ZM107.876 12.8431C108.783 11.8539 109.886 11.3694 111.268 11.3694V9.00839C109.237 9.00839 107.498 9.76161 106.136 11.2477L107.876 12.8431ZM106.499 17.1931C106.499 15.1874 107.008 13.791 107.877 12.8428L106.136 11.248C104.754 12.7566 104.138 14.7919 104.138 17.1931H106.499ZM107.838 21.2664C106.984 20.3239 106.499 19.0098 106.499 17.1931H104.138C104.138 19.4459 104.75 21.376 106.09 22.8526L107.838 21.2664ZM110.944 22.6793C109.747 22.6793 108.729 22.2321 107.832 21.2594L106.096 22.8597C107.412 24.2873 109.047 25.0403 110.944 25.0403V22.6793ZM113.626 21.494C112.905 22.2937 112.038 22.6793 110.944 22.6793V25.0403C112.701 25.0403 114.206 24.3757 115.379 23.0751L113.626 21.494ZM115.052 18.5895C114.893 19.6269 114.432 20.5923 113.622 21.4978L115.383 23.0713C116.467 21.8577 117.151 20.479 117.385 18.9472L115.052 18.5895ZM115.143 19.4791L115.579 19.7604L116.859 17.7764L116.423 17.4951L115.143 19.4791ZM114.913 21.8242C115.795 21.166 116.426 20.1339 116.888 18.9016L114.677 18.0726C114.295 19.0906 113.876 19.6525 113.501 19.932L114.913 21.8242ZM112.013 22.7478C113.085 22.7478 114.069 22.4509 114.911 21.8259L113.504 19.9302C113.108 20.2241 112.629 20.3867 112.013 20.3867V22.7478ZM107.814 20.7065C108.942 22.0153 110.356 22.7478 112.013 22.7478V20.3867C111.139 20.3867 110.349 20.0315 109.602 19.1649L107.814 20.7065ZM107.316 15.7998H113.279V13.4388H107.316V15.7998ZM107.556 11.2605C106.701 12.1025 106.263 13.2279 106.14 14.5069L108.491 14.7317C108.575 13.8541 108.849 13.3011 109.213 12.9429L107.556 11.2605ZM110.48 10.007C109.355 10.007 108.368 10.4612 107.556 11.2606L109.213 12.9428C109.639 12.5233 110.049 12.368 110.48 12.368V10.007ZM112.574 10.6492C111.94 10.2347 111.235 10.007 110.48 10.007V12.368C110.738 12.368 110.999 12.4403 111.283 12.626L112.574 10.6492ZM114.062 12.394C113.737 11.6658 113.235 11.0718 112.565 10.6433L111.292 12.6319C111.56 12.8034 111.762 13.0345 111.906 13.3565L114.062 12.394ZM114.458 14.5523C114.41 13.7173 114.307 12.9461 114.062 12.3958L111.905 13.3547C111.96 13.4795 112.054 13.871 112.1 14.6863L114.458 14.5523ZM121.882 13.045V10.1476H119.521V13.045H121.882ZM124.02 8.96712C122.173 8.96712 120.766 10.5076 119.67 12.4695L121.732 13.6204C122.793 11.7192 123.599 11.3281 124.02 11.3281V8.96712ZM126.111 9.76759C125.529 9.21821 124.801 8.96712 124.02 8.96712V11.3281C124.271 11.3281 124.396 11.3959 124.49 11.4841L126.111 9.76759ZM126.987 11.7088C126.987 10.927 126.65 10.2613 126.098 9.75562L124.503 11.496C124.626 11.6092 124.626 11.6655 124.626 11.7088H126.987ZM126.291 13.4559C126.756 12.9731 126.987 12.3662 126.987 11.7088H124.626C124.626 11.7583 124.618 11.7787 124.617 11.7825C124.616 11.7854 124.612 11.7965 124.591 11.8182L126.291 13.4559ZM124.569 14.1973C125.242 14.1973 125.835 13.9295 126.291 13.4559L124.591 11.8182C124.577 11.8324 124.568 11.8389 124.566 11.8409C124.563 11.8427 124.564 11.8416 124.569 11.8396C124.573 11.8375 124.578 11.8363 124.58 11.8358C124.582 11.8354 124.579 11.8363 124.569 11.8363V14.1973ZM122.736 13.4728C123.242 13.8636 123.865 14.1973 124.569 14.1973V11.8363C124.598 11.8363 124.582 11.8433 124.512 11.8129C124.44 11.7819 124.329 11.72 124.18 11.6045L122.736 13.4728ZM122.558 13.2269C122.448 13.2269 122.375 13.2049 122.355 13.1981C122.332 13.1906 122.334 13.1887 122.364 13.2052C122.427 13.2398 122.541 13.3147 122.713 13.4542L124.203 11.6231C123.971 11.4344 123.734 11.2631 123.497 11.1337C123.284 11.0174 122.951 10.8659 122.558 10.8659V13.2269ZM122.823 13.1825C122.865 13.1432 122.868 13.1488 122.833 13.1671C122.793 13.1874 122.697 13.2269 122.558 13.2269V10.8659C121.946 10.8659 121.484 11.1979 121.195 11.4728L122.823 13.1825ZM121.753 14.7633C122.178 13.9295 122.537 13.4436 122.804 13.2003L121.214 11.455C120.637 11.9805 120.124 12.7605 119.65 13.6895L121.753 14.7633ZM121.882 20.4008V14.2264H119.521V20.4008H121.882ZM122.03 21.5012C121.968 21.3755 121.882 21.0497 121.882 20.4008H119.521C119.521 21.1771 119.612 21.9297 119.907 22.5353L122.03 21.5012ZM122.181 21.6148C122.106 21.5738 122.066 21.5407 122.047 21.5225C122.03 21.5058 122.029 21.5003 122.032 21.5061L119.905 22.5304C120.158 23.0571 120.579 23.4308 121.05 23.6875L122.181 21.6148ZM122.952 21.7238C122.454 21.7238 122.239 21.6464 122.181 21.6148L121.05 23.6875C121.611 23.9935 122.286 24.0848 122.952 24.0848V21.7238ZM124.132 23.4106V22.9043H121.771V23.4106H124.132ZM116.355 24.5912H122.952V22.2301H116.355V24.5912ZM115.175 22.9043V23.4106H117.536V22.9043H115.175ZM117.177 21.6038C117.143 21.6257 116.93 21.7238 116.355 21.7238V24.0848C117.093 24.0848 117.855 23.9767 118.459 23.586L117.177 21.6038ZM117.175 21.5533C117.157 21.616 117.142 21.6373 117.143 21.6351C117.144 21.6339 117.148 21.6285 117.156 21.621C117.163 21.6135 117.172 21.6064 117.182 21.6006L118.454 23.5892C118.983 23.251 119.291 22.7414 119.445 22.2019L117.175 21.5533ZM117.2 20.5133C117.2 20.8792 117.194 21.1578 117.184 21.3562C117.179 21.4556 117.173 21.5245 117.168 21.5684C117.162 21.6246 117.16 21.603 117.178 21.5445L119.443 22.2107C119.511 21.9785 119.531 21.6906 119.542 21.4777C119.555 21.2214 119.561 20.8975 119.561 20.5133H117.2ZM117.2 15.5203V20.5133H119.561V15.5203H117.2ZM117.132 13.1163C117.128 13.0992 117.137 13.1369 117.149 13.2721C117.159 13.3934 117.168 13.558 117.176 13.7706C117.192 14.195 117.2 14.7764 117.2 15.5203H119.561C119.561 14.7641 119.553 14.1499 119.536 13.6836C119.52 13.2601 119.495 12.8507 119.432 12.5798L117.132 13.1163ZM117.22 13.147C117.159 13.0994 117.126 13.0508 117.114 13.0274C117.103 13.0076 117.112 13.0163 117.123 13.0724L119.441 12.6237C119.351 12.1603 119.137 11.6475 118.669 11.2833L117.22 13.147ZM117.34 13.1988C117.356 13.1988 117.342 13.2009 117.308 13.19C117.272 13.1783 117.231 13.1572 117.194 13.1264L118.695 11.3039C118.287 10.9683 117.806 10.8377 117.34 10.8377V13.1988ZM116.779 13.331C117.054 13.2254 117.235 13.1988 117.34 13.1988V10.8377C116.863 10.8377 116.388 10.9517 115.931 11.1274L116.779 13.331ZM115.077 12.0388L115.218 12.5452L117.493 11.9133L117.352 11.4069L115.077 12.0388ZM119.668 9.0532L115.772 10.6284L116.657 12.8173L120.553 11.2421L119.668 9.0532ZM120.701 8.96712H120.11V11.3281H120.701V8.96712ZM133.361 10.1889V14.5771H135.722V10.1889H133.361ZM134.077 11.3694H134.541V9.00839H134.077V11.3694ZM134.506 11.5568C134.823 11.3108 135.021 10.9414 135.133 10.7169L133.021 9.66096C133.001 9.70146 132.984 9.7336 132.969 9.75844C132.955 9.78358 132.946 9.79822 132.941 9.80459C132.937 9.8116 132.941 9.80413 132.955 9.78757C132.963 9.77889 132.975 9.76609 132.99 9.75058C133.006 9.73518 133.028 9.71518 133.057 9.69304L134.506 11.5568ZM133.43 11.9039C133.739 11.9039 134.146 11.8374 134.506 11.5567L133.057 9.6931C133.249 9.54373 133.421 9.54285 133.43 9.54285V11.9039ZM132.14 11.6449C132.394 11.7194 132.621 11.7802 132.817 11.8234C132.992 11.862 133.216 11.9039 133.43 11.9039V9.54285C133.469 9.54285 133.481 9.54645 133.452 9.54223C133.428 9.53863 133.387 9.53131 133.326 9.51782C133.203 9.49069 133.032 9.44605 132.807 9.37985L132.14 11.6449ZM130.631 11.3694C130.982 11.3694 131.475 11.4463 132.136 11.6435L132.811 9.38126C132.028 9.14719 131.293 9.00839 130.631 9.00839V11.3694ZM128.628 12.1033C129.11 11.6339 129.742 11.3694 130.631 11.3694V9.00839C129.213 9.00839 127.961 9.45649 126.98 10.4123L128.628 12.1033ZM127.902 13.9161C127.902 13.1566 128.147 12.578 128.633 12.098L126.975 10.4176C126.017 11.3628 125.541 12.5564 125.541 13.9161H127.902ZM128.281 15.2099C128.054 14.9228 127.902 14.5208 127.902 13.9161H125.541C125.541 14.9428 125.81 15.891 126.427 16.6729L128.281 15.2099ZM130.551 16.7124C129.204 16.0433 128.531 15.5322 128.287 15.2177L126.421 16.665C127.021 17.4383 128.13 18.1461 129.501 18.8271L130.551 16.7124ZM133.567 18.6C132.969 18.0149 131.909 17.3868 130.551 16.7124L129.501 18.8271C130.862 19.503 131.612 19.9907 131.915 20.287L133.567 18.6ZM134.61 21.075C134.61 20.1123 134.254 19.2589 133.558 18.5915L131.924 20.2954C132.147 20.5094 132.249 20.7437 132.249 21.075H134.61ZM133.616 23.317C134.253 22.7231 134.61 21.9567 134.61 21.075H132.249C132.249 21.2621 132.194 21.4147 132.006 21.5896L133.616 23.317ZM131.236 24.1964C132.126 24.1964 132.956 23.9309 133.615 23.3177L132.007 21.589C131.86 21.7259 131.64 21.8354 131.236 21.8354V24.1964ZM127.957 22.8953C128.895 23.7381 130 24.1964 131.236 24.1964V21.8354C130.634 21.8354 130.079 21.628 129.536 21.1393L127.957 22.8953ZM126.084 19.2812C126.379 20.7585 126.972 22.0094 127.957 22.8953L129.536 21.1393C129.04 20.6937 128.629 19.9663 128.399 18.8182L126.084 19.2812ZM126.777 20.2302H127.241V17.8692H126.777V20.2302ZM127.958 23.6488V19.0497H125.597V23.6488H127.958ZM127.241 22.4683H126.777V24.8293H127.241V22.4683ZM127.748 22.1026C126.96 22.1026 126.445 22.603 126.186 23.1209L128.297 24.1767C128.297 24.1772 128.288 24.1954 128.266 24.2234C128.243 24.252 128.206 24.2917 128.151 24.3316C128.026 24.4214 127.879 24.4637 127.748 24.4637V22.1026ZM128.85 22.294C128.491 22.1852 128.111 22.1026 127.748 22.1026V24.4637C127.778 24.4637 127.905 24.4748 128.165 24.5536L128.85 22.294ZM131.208 22.6652C130.556 22.6652 129.765 22.548 128.823 22.2863L128.191 24.5612C129.275 24.8622 130.285 25.0262 131.208 25.0262V22.6652ZM133.433 21.8588C132.754 22.4077 132.025 22.6652 131.208 22.6652V25.0262C132.584 25.0262 133.834 24.5712 134.918 23.6948L133.433 21.8588ZM134.331 19.9357C134.331 20.761 134.039 21.3676 133.432 21.8597L134.919 23.6939C136.093 22.7421 136.692 21.4546 136.692 19.9357H134.331ZM132.139 17.3259C133.821 18.1464 134.331 19.0425 134.331 19.9357H136.692C136.692 17.791 135.298 16.2398 133.174 15.2038L132.139 17.3259ZM130.087 16.3279L132.14 17.3265L133.173 15.2032L131.119 14.2046L130.087 16.3279ZM127.889 14.7546C128.359 15.3765 129.171 15.8845 130.088 16.3288L131.117 14.2038C130.253 13.7854 129.884 13.4776 129.772 13.3307L127.889 14.7546ZM127.2 12.6924C127.2 13.4589 127.426 14.1758 127.909 14.7801L129.753 13.3052C129.636 13.1593 129.561 12.9761 129.561 12.6924H127.2ZM128.216 10.6443C127.625 11.1524 127.2 11.8405 127.2 12.6924H129.561C129.561 12.6781 129.563 12.664 129.577 12.6359C129.595 12.6016 129.642 12.5315 129.755 12.434L128.216 10.6443ZM130.575 9.83821C129.704 9.83821 128.88 10.0727 128.216 10.6443L129.755 12.434C129.898 12.3116 130.132 12.1992 130.575 12.1992V9.83821ZM133.487 10.8859C132.683 10.1636 131.679 9.83821 130.575 9.83821V12.1992C131.196 12.1992 131.607 12.3708 131.91 12.6424L133.487 10.8859ZM135.22 14.2816C134.849 12.8488 134.318 11.6193 133.48 10.8794L131.917 12.6489C132.205 12.9029 132.592 13.5487 132.934 14.8725L135.22 14.2816ZM134.541 13.3966H134.077V15.7576H134.541V13.3966Z" fill="white" mask="url(#path-1-outside-1_117_214)"/>
</svg>
