<svg width="150" height="26" viewBox="0 0 150 26" fill="none" xmlns="http://www.w3.org/2000/svg">
<mask id="path-1-outside-1_117_213" maskUnits="userSpaceOnUse" x="0" y="-0.589355" width="150" height="26" fill="black">
<rect fill="white" y="-0.589355" width="150" height="26"/>
<path fill-rule="evenodd" clip-rule="evenodd" d="M133.615 2.14388C133.615 2.41643 133.466 2.65424 133.246 2.78062V4.87067C137.289 2.61924 139.122 2.73062 141.313 5.07665V8.37593C144.45 9.87258 146.046 8.94085 147.7 7.97532C147.892 7.86366 148.084 7.75155 148.279 7.64269V17.908C144.447 20.0464 142.339 20.1801 138.747 17.908V13.7467C137.043 13.3675 135.547 14.0624 133.246 15.4819V23.7742H132.512V2.77742C132.295 2.65025 132.148 2.41414 132.148 2.14388C132.148 1.73893 132.477 1.41064 132.882 1.41064C133.287 1.41064 133.615 1.73893 133.615 2.14388ZM17.7947 4.33892L18.0056 8.81149H17.4712C17.368 8.02387 17.2274 7.46128 17.0492 7.12373C16.7586 6.57989 16.3694 6.18139 15.8819 5.92823C15.4037 5.66569 14.7707 5.53442 13.9831 5.53442H11.2968V20.1054C11.2968 21.2775 11.4233 22.0089 11.6765 22.2995C12.0328 22.6933 12.5813 22.8902 13.3221 22.8902H13.9831V23.4106H5.89592V22.8902H6.57103C7.3774 22.8902 7.94937 22.6465 8.28692 22.1589C8.4932 21.8588 8.59634 21.1744 8.59634 20.1054V5.53442H6.3038C5.41303 5.53442 4.78012 5.60005 4.40506 5.73132C3.91749 5.90947 3.50023 6.25172 3.15331 6.75804C2.80638 7.26437 2.60009 7.94886 2.53446 8.81149H2L2.22504 4.33892H17.7947ZM23.6866 12.834V3.41064H23.0397L19.1859 4.98589L19.3828 5.47816C19.8235 5.32813 20.1423 5.25312 20.3392 5.25312C20.583 5.25312 20.7752 5.31407 20.9159 5.43596C21.0659 5.55786 21.1737 5.78758 21.2394 6.12513C21.3144 6.46268 21.3519 7.36751 21.3519 8.83962V20.4993C21.3519 21.3056 21.2956 21.8401 21.1831 22.1026C21.0706 22.3652 20.9206 22.5433 20.7331 22.6371C20.4049 22.8152 19.9548 22.9043 19.3828 22.9043V23.4106H25.7682V22.9043C25.1119 22.9043 24.6477 22.834 24.3758 22.6933C24.1133 22.5433 23.9304 22.3605 23.8273 22.1448C23.7335 21.9292 23.6866 21.3806 23.6866 20.4993V13.6919C24.3805 12.9512 24.9759 12.4589 25.4729 12.2151C25.9698 11.9714 26.448 11.8495 26.9075 11.8495C27.3575 11.8495 27.742 11.962 28.0608 12.187C28.3796 12.4027 28.6093 12.7309 28.7499 13.1715C28.9 13.6122 28.975 14.5358 28.975 15.9423V20.4993C28.975 21.2306 28.9609 21.6713 28.9328 21.8213C28.839 22.1776 28.6749 22.4496 28.4405 22.6371C28.2061 22.8152 27.7888 22.9043 27.1887 22.9043H26.8934V23.4106H33.2225V22.9043C32.6224 22.9043 32.2098 22.8387 31.9848 22.7074C31.7598 22.5761 31.6004 22.398 31.5066 22.173C31.3753 21.8729 31.3097 21.315 31.3097 20.4993V15.9423C31.3097 14.3483 31.2206 13.2512 31.0425 12.6512C30.7893 11.7885 30.4002 11.1556 29.8751 10.7524C29.35 10.3492 28.7218 10.1476 27.9904 10.1476C27.381 10.1476 26.7715 10.3117 26.162 10.6399C25.5526 10.9587 24.7274 11.6901 23.6866 12.834ZM35.9397 15.435C35.9304 17.3478 36.3945 18.8481 37.3321 19.9357C38.2698 21.0234 39.3715 21.5672 40.6373 21.5672C41.4812 21.5672 42.2126 21.3375 42.8314 20.8781C43.4597 20.4093 43.9847 19.6123 44.4067 18.4871L44.8427 18.7684C44.6458 20.0529 44.0738 21.225 43.1268 22.2845C42.1798 23.3347 40.9936 23.8598 39.5684 23.8598C38.0213 23.8598 36.6945 23.2597 35.5881 22.0595C34.4911 20.8499 33.9425 19.2278 33.9425 17.1931C33.9425 14.9897 34.5051 13.2738 35.6303 12.0454C36.7649 10.8078 38.1854 10.1889 39.8919 10.1889C41.3359 10.1889 42.522 10.6671 43.4503 11.6235C44.3785 12.5705 44.8427 13.841 44.8427 15.435H35.9397ZM35.9397 14.6193H41.9032C41.8563 13.7942 41.7578 13.2128 41.6078 12.8753C41.3734 12.3502 41.0218 11.9376 40.5529 11.6376C40.0935 11.3375 39.6106 11.1875 39.1043 11.1875C38.326 11.1875 37.6275 11.4922 37.0086 12.1017C36.3992 12.7018 36.0429 13.541 35.9397 14.6193ZM64.8483 8.81149L64.6373 4.33892H49.0677L48.8427 8.81149H49.3771C49.4428 7.94886 49.6491 7.26437 49.996 6.75804C50.3429 6.25172 50.7602 5.90947 51.2477 5.73132C51.6228 5.60005 52.2557 5.53442 53.1465 5.53442H55.439V20.1054C55.439 21.1744 55.3359 21.8588 55.1296 22.1589C54.792 22.6465 54.2201 22.8902 53.4137 22.8902H52.7386V23.4106H60.8258V22.8902H60.1648C59.424 22.8902 58.8755 22.6933 58.5192 22.2995C58.266 22.0089 58.1394 21.2775 58.1394 20.1054V5.53442H60.8258C61.6134 5.53442 62.2463 5.66569 62.7245 5.92823C63.2121 6.18139 63.6012 6.57989 63.8919 7.12373C64.0701 7.46128 64.2107 8.02387 64.3138 8.81149H64.8483ZM68.1129 3.41064C68.5067 3.41064 68.8396 3.55129 69.1115 3.83259C69.3928 4.1045 69.5335 4.43737 69.5335 4.83118C69.5335 5.22499 69.3928 5.56254 69.1115 5.84384C68.8396 6.12513 68.5067 6.26578 68.1129 6.26578C67.7191 6.26578 67.3816 6.12513 67.1003 5.84384C66.819 5.56254 66.6783 5.22499 66.6783 4.83118C66.6783 4.43737 66.8143 4.1045 67.0862 3.83259C67.3675 3.55129 67.7097 3.41064 68.1129 3.41064ZM69.2803 10.1476V20.4993C69.2803 21.3056 69.3366 21.8448 69.4491 22.1167C69.571 22.3792 69.7444 22.5761 69.9695 22.7074C70.2039 22.8387 70.6258 22.9043 71.2353 22.9043V23.4106H64.9765V22.9043C65.6047 22.9043 66.0267 22.8434 66.2423 22.7215C66.458 22.5996 66.6268 22.398 66.7487 22.1167C66.8799 21.8354 66.9456 21.2963 66.9456 20.4993V15.5344C66.9456 14.1373 66.9034 13.2325 66.819 12.8199C66.7533 12.5199 66.6502 12.3136 66.5096 12.2011C66.3689 12.0792 66.1767 12.0182 65.9329 12.0182C65.6704 12.0182 65.3516 12.0886 64.9765 12.2292L64.7796 11.7229L68.6615 10.1476H69.2803ZM80.6812 22.4815C81.6939 21.5626 82.3737 20.2545 82.7206 18.5574L82.3127 18.3605C81.8252 19.495 81.3235 20.278 80.8078 20.7093C80.0765 21.3375 79.2513 21.6516 78.3324 21.6516C77.0479 21.6516 76.0258 21.0656 75.2663 19.8935C74.5162 18.7121 74.1412 17.3525 74.1412 15.8148C74.1412 14.3052 74.5209 13.0909 75.2804 12.172C75.8524 11.4782 76.6072 11.1312 77.5448 11.1312C78.1262 11.1312 78.5809 11.2719 78.9091 11.5532C79.2373 11.8439 79.4248 12.2658 79.4717 12.819C79.5279 13.3722 79.6358 13.7473 79.7952 13.9442C80.0765 14.3005 80.4937 14.4786 81.0469 14.4786C81.4595 14.4786 81.7783 14.3708 82.0033 14.1552C82.2377 13.9301 82.3549 13.6394 82.3549 13.2831C82.3549 12.5612 81.9471 11.8673 81.1313 11.2016C80.3156 10.5265 79.2748 10.1889 78.0089 10.1889C76.3212 10.1889 74.8725 10.8218 73.663 12.0876C72.4628 13.3535 71.8627 14.999 71.8627 17.0243C71.8627 19.1153 72.4065 20.7749 73.4942 22.0033C74.5818 23.2316 75.857 23.8457 77.3198 23.8457C78.5481 23.8457 79.6686 23.391 80.6812 22.4815ZM87.314 3.41064V16.2376V20.5133C87.314 21.3478 87.3703 21.8963 87.4828 22.1589C87.6047 22.4214 87.7735 22.609 87.9891 22.7215C88.2048 22.834 88.6736 22.8949 89.3956 22.9043V23.4106H82.8414V22.9043C83.4978 22.9043 83.9901 22.8246 84.3182 22.6652C84.5151 22.5621 84.6652 22.4027 84.7683 22.187C84.909 21.8776 84.9793 21.3431 84.9793 20.5836V8.85368C84.9793 7.36282 84.9465 6.45331 84.8808 6.12513C84.8152 5.78758 84.7074 5.55786 84.5573 5.43596C84.4073 5.30469 84.2104 5.23906 83.9666 5.23906C83.7697 5.23906 83.4743 5.31876 83.0805 5.47816L82.8414 4.98589L86.667 3.41064H87.314ZM87.314 16.2376L90.5911 13.2419C91.2849 12.6043 91.6881 12.2011 91.8007 12.0323C91.8757 11.9198 91.9132 11.8073 91.9132 11.6948C91.9132 11.5072 91.8335 11.3478 91.6741 11.2166C91.524 11.0759 91.2709 10.9962 90.9146 10.9775V10.5274H96.5123V10.9775C95.7435 10.9962 95.1012 11.1134 94.5855 11.3291C94.0791 11.5447 93.5212 11.9292 92.9118 12.4824L89.6066 15.5344L92.9118 19.7116C93.8307 20.8649 94.4495 21.5963 94.7683 21.9057C95.2184 22.3464 95.6122 22.6324 95.9497 22.7637C96.1842 22.8574 96.592 22.9043 97.1734 22.9043V23.4106H90.9146V22.9043C91.2709 22.8949 91.51 22.8434 91.6319 22.7496C91.7631 22.6465 91.8288 22.5058 91.8288 22.3277C91.8288 22.112 91.6413 21.7651 91.2662 21.2869L87.314 16.2376ZM99.3819 19.9357C98.4443 18.8481 97.9802 17.3478 97.9895 15.435H106.892C106.892 13.841 106.428 12.5705 105.5 11.6235C104.572 10.6671 103.386 10.1889 101.942 10.1889C100.235 10.1889 98.8147 10.8078 97.6801 12.0454C96.5549 13.2738 95.9923 14.9897 95.9923 17.1931C95.9923 19.2278 96.5409 20.8499 97.6379 22.0595C98.7443 23.2597 100.071 23.8598 101.618 23.8598C103.043 23.8598 104.23 23.3347 105.177 22.2845C106.124 21.225 106.696 20.0529 106.892 18.7684L106.456 18.4871C106.035 19.6123 105.509 20.4093 104.881 20.8781C104.262 21.3375 103.531 21.5672 102.687 21.5672C101.421 21.5672 100.32 21.0234 99.3819 19.9357ZM103.953 14.6193H97.9895C98.0927 13.541 98.449 12.7018 99.0584 12.1017C99.6773 11.4922 100.376 11.1875 101.154 11.1875C101.66 11.1875 102.143 11.3375 102.603 11.6376C103.072 11.9376 103.423 12.3502 103.658 12.8753C103.808 13.2128 103.906 13.7942 103.953 14.6193ZM111.095 6.67089V10.9044H114.105V11.8889H111.095V20.2433C111.095 21.0778 111.212 21.6404 111.446 21.9311C111.69 22.2218 112 22.3671 112.375 22.3671C112.684 22.3671 112.984 22.2733 113.275 22.0858C113.566 21.8889 113.791 21.6029 113.95 21.2278H114.498C114.17 22.1467 113.706 22.8406 113.106 23.3094C112.506 23.7689 111.887 23.9986 111.25 23.9986C110.818 23.9986 110.396 23.8814 109.984 23.647C109.571 23.4032 109.266 23.0609 109.07 22.6203C108.873 22.1702 108.774 21.481 108.774 20.5527V11.8889H106.735V11.4248C107.25 11.2185 107.776 10.8715 108.31 10.384C108.854 9.88702 109.337 9.30099 109.759 8.62588C109.974 8.26958 110.274 7.61791 110.659 6.67089H111.095ZM123.499 14.5771V10.1889H123.035C122.923 10.4139 122.824 10.5593 122.74 10.6249C122.655 10.6905 122.538 10.7234 122.388 10.7234C122.229 10.7234 121.91 10.653 121.432 10.5124C120.71 10.2967 120.096 10.1889 119.589 10.1889C118.436 10.1889 117.494 10.5452 116.762 11.2578C116.04 11.9704 115.679 12.8565 115.679 13.9161C115.679 14.7318 115.89 15.4069 116.312 15.9414C116.734 16.4852 117.625 17.0947 118.984 17.7698C120.344 18.4449 121.249 19.0028 121.699 19.4435C122.158 19.8842 122.388 20.428 122.388 21.075C122.388 21.6094 122.182 22.0689 121.769 22.4533C121.366 22.8284 120.841 23.0159 120.194 23.0159C119.275 23.0159 118.445 22.683 117.705 22.0173C116.964 21.3516 116.462 20.3624 116.2 19.0497H115.735V23.6488H116.2C116.322 23.405 116.49 23.2831 116.706 23.2831C116.903 23.2831 117.156 23.33 117.465 23.4238C118.478 23.7051 119.378 23.8457 120.166 23.8457C121.263 23.8457 122.252 23.4894 123.134 22.7768C124.024 22.0548 124.47 21.1078 124.47 19.9357C124.47 18.4168 123.518 17.1931 121.615 16.2649L119.561 15.2663C118.67 14.8349 118.08 14.4271 117.789 14.0426C117.489 13.6676 117.339 13.2175 117.339 12.6924C117.339 12.2705 117.54 11.886 117.944 11.5391C118.347 11.1922 118.877 11.0187 119.533 11.0187C120.396 11.0187 121.104 11.2672 121.657 11.7642C122.219 12.2611 122.679 13.1988 123.035 14.5771H123.499Z"/>
</mask>
<path fill-rule="evenodd" clip-rule="evenodd" d="M133.615 2.14388C133.615 2.41643 133.466 2.65424 133.246 2.78062V4.87067C137.289 2.61924 139.122 2.73062 141.313 5.07665V8.37593C144.45 9.87258 146.046 8.94085 147.7 7.97532C147.892 7.86366 148.084 7.75155 148.279 7.64269V17.908C144.447 20.0464 142.339 20.1801 138.747 17.908V13.7467C137.043 13.3675 135.547 14.0624 133.246 15.4819V23.7742H132.512V2.77742C132.295 2.65025 132.148 2.41414 132.148 2.14388C132.148 1.73893 132.477 1.41064 132.882 1.41064C133.287 1.41064 133.615 1.73893 133.615 2.14388ZM17.7947 4.33892L18.0056 8.81149H17.4712C17.368 8.02387 17.2274 7.46128 17.0492 7.12373C16.7586 6.57989 16.3694 6.18139 15.8819 5.92823C15.4037 5.66569 14.7707 5.53442 13.9831 5.53442H11.2968V20.1054C11.2968 21.2775 11.4233 22.0089 11.6765 22.2995C12.0328 22.6933 12.5813 22.8902 13.3221 22.8902H13.9831V23.4106H5.89592V22.8902H6.57103C7.3774 22.8902 7.94937 22.6465 8.28692 22.1589C8.4932 21.8588 8.59634 21.1744 8.59634 20.1054V5.53442H6.3038C5.41303 5.53442 4.78012 5.60005 4.40506 5.73132C3.91749 5.90947 3.50023 6.25172 3.15331 6.75804C2.80638 7.26437 2.60009 7.94886 2.53446 8.81149H2L2.22504 4.33892H17.7947ZM23.6866 12.834V3.41064H23.0397L19.1859 4.98589L19.3828 5.47816C19.8235 5.32813 20.1423 5.25312 20.3392 5.25312C20.583 5.25312 20.7752 5.31407 20.9159 5.43596C21.0659 5.55786 21.1737 5.78758 21.2394 6.12513C21.3144 6.46268 21.3519 7.36751 21.3519 8.83962V20.4993C21.3519 21.3056 21.2956 21.8401 21.1831 22.1026C21.0706 22.3652 20.9206 22.5433 20.7331 22.6371C20.4049 22.8152 19.9548 22.9043 19.3828 22.9043V23.4106H25.7682V22.9043C25.1119 22.9043 24.6477 22.834 24.3758 22.6933C24.1133 22.5433 23.9304 22.3605 23.8273 22.1448C23.7335 21.9292 23.6866 21.3806 23.6866 20.4993V13.6919C24.3805 12.9512 24.9759 12.4589 25.4729 12.2151C25.9698 11.9714 26.448 11.8495 26.9075 11.8495C27.3575 11.8495 27.742 11.962 28.0608 12.187C28.3796 12.4027 28.6093 12.7309 28.7499 13.1715C28.9 13.6122 28.975 14.5358 28.975 15.9423V20.4993C28.975 21.2306 28.9609 21.6713 28.9328 21.8213C28.839 22.1776 28.6749 22.4496 28.4405 22.6371C28.2061 22.8152 27.7888 22.9043 27.1887 22.9043H26.8934V23.4106H33.2225V22.9043C32.6224 22.9043 32.2098 22.8387 31.9848 22.7074C31.7598 22.5761 31.6004 22.398 31.5066 22.173C31.3753 21.8729 31.3097 21.315 31.3097 20.4993V15.9423C31.3097 14.3483 31.2206 13.2512 31.0425 12.6512C30.7893 11.7885 30.4002 11.1556 29.8751 10.7524C29.35 10.3492 28.7218 10.1476 27.9904 10.1476C27.381 10.1476 26.7715 10.3117 26.162 10.6399C25.5526 10.9587 24.7274 11.6901 23.6866 12.834ZM35.9397 15.435C35.9304 17.3478 36.3945 18.8481 37.3321 19.9357C38.2698 21.0234 39.3715 21.5672 40.6373 21.5672C41.4812 21.5672 42.2126 21.3375 42.8314 20.8781C43.4597 20.4093 43.9847 19.6123 44.4067 18.4871L44.8427 18.7684C44.6458 20.0529 44.0738 21.225 43.1268 22.2845C42.1798 23.3347 40.9936 23.8598 39.5684 23.8598C38.0213 23.8598 36.6945 23.2597 35.5881 22.0595C34.4911 20.8499 33.9425 19.2278 33.9425 17.1931C33.9425 14.9897 34.5051 13.2738 35.6303 12.0454C36.7649 10.8078 38.1854 10.1889 39.8919 10.1889C41.3359 10.1889 42.522 10.6671 43.4503 11.6235C44.3785 12.5705 44.8427 13.841 44.8427 15.435H35.9397ZM35.9397 14.6193H41.9032C41.8563 13.7942 41.7578 13.2128 41.6078 12.8753C41.3734 12.3502 41.0218 11.9376 40.5529 11.6376C40.0935 11.3375 39.6106 11.1875 39.1043 11.1875C38.326 11.1875 37.6275 11.4922 37.0086 12.1017C36.3992 12.7018 36.0429 13.541 35.9397 14.6193ZM64.8483 8.81149L64.6373 4.33892H49.0677L48.8427 8.81149H49.3771C49.4428 7.94886 49.6491 7.26437 49.996 6.75804C50.3429 6.25172 50.7602 5.90947 51.2477 5.73132C51.6228 5.60005 52.2557 5.53442 53.1465 5.53442H55.439V20.1054C55.439 21.1744 55.3359 21.8588 55.1296 22.1589C54.792 22.6465 54.2201 22.8902 53.4137 22.8902H52.7386V23.4106H60.8258V22.8902H60.1648C59.424 22.8902 58.8755 22.6933 58.5192 22.2995C58.266 22.0089 58.1394 21.2775 58.1394 20.1054V5.53442H60.8258C61.6134 5.53442 62.2463 5.66569 62.7245 5.92823C63.2121 6.18139 63.6012 6.57989 63.8919 7.12373C64.0701 7.46128 64.2107 8.02387 64.3138 8.81149H64.8483ZM68.1129 3.41064C68.5067 3.41064 68.8396 3.55129 69.1115 3.83259C69.3928 4.1045 69.5335 4.43737 69.5335 4.83118C69.5335 5.22499 69.3928 5.56254 69.1115 5.84384C68.8396 6.12513 68.5067 6.26578 68.1129 6.26578C67.7191 6.26578 67.3816 6.12513 67.1003 5.84384C66.819 5.56254 66.6783 5.22499 66.6783 4.83118C66.6783 4.43737 66.8143 4.1045 67.0862 3.83259C67.3675 3.55129 67.7097 3.41064 68.1129 3.41064ZM69.2803 10.1476V20.4993C69.2803 21.3056 69.3366 21.8448 69.4491 22.1167C69.571 22.3792 69.7444 22.5761 69.9695 22.7074C70.2039 22.8387 70.6258 22.9043 71.2353 22.9043V23.4106H64.9765V22.9043C65.6047 22.9043 66.0267 22.8434 66.2423 22.7215C66.458 22.5996 66.6268 22.398 66.7487 22.1167C66.8799 21.8354 66.9456 21.2963 66.9456 20.4993V15.5344C66.9456 14.1373 66.9034 13.2325 66.819 12.8199C66.7533 12.5199 66.6502 12.3136 66.5096 12.2011C66.3689 12.0792 66.1767 12.0182 65.9329 12.0182C65.6704 12.0182 65.3516 12.0886 64.9765 12.2292L64.7796 11.7229L68.6615 10.1476H69.2803ZM80.6812 22.4815C81.6939 21.5626 82.3737 20.2545 82.7206 18.5574L82.3127 18.3605C81.8252 19.495 81.3235 20.278 80.8078 20.7093C80.0765 21.3375 79.2513 21.6516 78.3324 21.6516C77.0479 21.6516 76.0258 21.0656 75.2663 19.8935C74.5162 18.7121 74.1412 17.3525 74.1412 15.8148C74.1412 14.3052 74.5209 13.0909 75.2804 12.172C75.8524 11.4782 76.6072 11.1312 77.5448 11.1312C78.1262 11.1312 78.5809 11.2719 78.9091 11.5532C79.2373 11.8439 79.4248 12.2658 79.4717 12.819C79.5279 13.3722 79.6358 13.7473 79.7952 13.9442C80.0765 14.3005 80.4937 14.4786 81.0469 14.4786C81.4595 14.4786 81.7783 14.3708 82.0033 14.1552C82.2377 13.9301 82.3549 13.6394 82.3549 13.2831C82.3549 12.5612 81.9471 11.8673 81.1313 11.2016C80.3156 10.5265 79.2748 10.1889 78.0089 10.1889C76.3212 10.1889 74.8725 10.8218 73.663 12.0876C72.4628 13.3535 71.8627 14.999 71.8627 17.0243C71.8627 19.1153 72.4065 20.7749 73.4942 22.0033C74.5818 23.2316 75.857 23.8457 77.3198 23.8457C78.5481 23.8457 79.6686 23.391 80.6812 22.4815ZM87.314 3.41064V16.2376V20.5133C87.314 21.3478 87.3703 21.8963 87.4828 22.1589C87.6047 22.4214 87.7735 22.609 87.9891 22.7215C88.2048 22.834 88.6736 22.8949 89.3956 22.9043V23.4106H82.8414V22.9043C83.4978 22.9043 83.9901 22.8246 84.3182 22.6652C84.5151 22.5621 84.6652 22.4027 84.7683 22.187C84.909 21.8776 84.9793 21.3431 84.9793 20.5836V8.85368C84.9793 7.36282 84.9465 6.45331 84.8808 6.12513C84.8152 5.78758 84.7074 5.55786 84.5573 5.43596C84.4073 5.30469 84.2104 5.23906 83.9666 5.23906C83.7697 5.23906 83.4743 5.31876 83.0805 5.47816L82.8414 4.98589L86.667 3.41064H87.314ZM87.314 16.2376L90.5911 13.2419C91.2849 12.6043 91.6881 12.2011 91.8007 12.0323C91.8757 11.9198 91.9132 11.8073 91.9132 11.6948C91.9132 11.5072 91.8335 11.3478 91.6741 11.2166C91.524 11.0759 91.2709 10.9962 90.9146 10.9775V10.5274H96.5123V10.9775C95.7435 10.9962 95.1012 11.1134 94.5855 11.3291C94.0791 11.5447 93.5212 11.9292 92.9118 12.4824L89.6066 15.5344L92.9118 19.7116C93.8307 20.8649 94.4495 21.5963 94.7683 21.9057C95.2184 22.3464 95.6122 22.6324 95.9497 22.7637C96.1842 22.8574 96.592 22.9043 97.1734 22.9043V23.4106H90.9146V22.9043C91.2709 22.8949 91.51 22.8434 91.6319 22.7496C91.7631 22.6465 91.8288 22.5058 91.8288 22.3277C91.8288 22.112 91.6413 21.7651 91.2662 21.2869L87.314 16.2376ZM99.3819 19.9357C98.4443 18.8481 97.9802 17.3478 97.9895 15.435H106.892C106.892 13.841 106.428 12.5705 105.5 11.6235C104.572 10.6671 103.386 10.1889 101.942 10.1889C100.235 10.1889 98.8147 10.8078 97.6801 12.0454C96.5549 13.2738 95.9923 14.9897 95.9923 17.1931C95.9923 19.2278 96.5409 20.8499 97.6379 22.0595C98.7443 23.2597 100.071 23.8598 101.618 23.8598C103.043 23.8598 104.23 23.3347 105.177 22.2845C106.124 21.225 106.696 20.0529 106.892 18.7684L106.456 18.4871C106.035 19.6123 105.509 20.4093 104.881 20.8781C104.262 21.3375 103.531 21.5672 102.687 21.5672C101.421 21.5672 100.32 21.0234 99.3819 19.9357ZM103.953 14.6193H97.9895C98.0927 13.541 98.449 12.7018 99.0584 12.1017C99.6773 11.4922 100.376 11.1875 101.154 11.1875C101.66 11.1875 102.143 11.3375 102.603 11.6376C103.072 11.9376 103.423 12.3502 103.658 12.8753C103.808 13.2128 103.906 13.7942 103.953 14.6193ZM111.095 6.67089V10.9044H114.105V11.8889H111.095V20.2433C111.095 21.0778 111.212 21.6404 111.446 21.9311C111.69 22.2218 112 22.3671 112.375 22.3671C112.684 22.3671 112.984 22.2733 113.275 22.0858C113.566 21.8889 113.791 21.6029 113.95 21.2278H114.498C114.17 22.1467 113.706 22.8406 113.106 23.3094C112.506 23.7689 111.887 23.9986 111.25 23.9986C110.818 23.9986 110.396 23.8814 109.984 23.647C109.571 23.4032 109.266 23.0609 109.07 22.6203C108.873 22.1702 108.774 21.481 108.774 20.5527V11.8889H106.735V11.4248C107.25 11.2185 107.776 10.8715 108.31 10.384C108.854 9.88702 109.337 9.30099 109.759 8.62588C109.974 8.26958 110.274 7.61791 110.659 6.67089H111.095ZM123.499 14.5771V10.1889H123.035C122.923 10.4139 122.824 10.5593 122.74 10.6249C122.655 10.6905 122.538 10.7234 122.388 10.7234C122.229 10.7234 121.91 10.653 121.432 10.5124C120.71 10.2967 120.096 10.1889 119.589 10.1889C118.436 10.1889 117.494 10.5452 116.762 11.2578C116.04 11.9704 115.679 12.8565 115.679 13.9161C115.679 14.7318 115.89 15.4069 116.312 15.9414C116.734 16.4852 117.625 17.0947 118.984 17.7698C120.344 18.4449 121.249 19.0028 121.699 19.4435C122.158 19.8842 122.388 20.428 122.388 21.075C122.388 21.6094 122.182 22.0689 121.769 22.4533C121.366 22.8284 120.841 23.0159 120.194 23.0159C119.275 23.0159 118.445 22.683 117.705 22.0173C116.964 21.3516 116.462 20.3624 116.2 19.0497H115.735V23.6488H116.2C116.322 23.405 116.49 23.2831 116.706 23.2831C116.903 23.2831 117.156 23.33 117.465 23.4238C118.478 23.7051 119.378 23.8457 120.166 23.8457C121.263 23.8457 122.252 23.4894 123.134 22.7768C124.024 22.0548 124.47 21.1078 124.47 19.9357C124.47 18.4168 123.518 17.1931 121.615 16.2649L119.561 15.2663C118.67 14.8349 118.08 14.4271 117.789 14.0426C117.489 13.6676 117.339 13.2175 117.339 12.6924C117.339 12.2705 117.54 11.886 117.944 11.5391C118.347 11.1922 118.877 11.0187 119.533 11.0187C120.396 11.0187 121.104 11.2672 121.657 11.7642C122.219 12.2611 122.679 13.1988 123.035 14.5771H123.499Z" fill="white" stroke="white" stroke-width="2"/>
<path d="M133.246 2.78062L132.659 1.7562C132.292 1.96653 132.065 2.35738 132.065 2.78062H133.246ZM133.246 4.87067H132.065C132.065 5.28915 132.287 5.67635 132.647 5.8884C133.008 6.10045 133.454 6.10566 133.82 5.90209L133.246 4.87067ZM141.313 5.07665H142.494C142.494 4.7775 142.38 4.48951 142.176 4.27089L141.313 5.07665ZM141.313 8.37593H140.133C140.133 8.83095 140.394 9.24546 140.805 9.44139L141.313 8.37593ZM147.7 7.97532L148.295 8.99483L148.295 8.99482L147.7 7.97532ZM148.279 7.64269H149.459C149.459 7.22411 149.238 6.83684 148.877 6.62482C148.516 6.4128 148.07 6.40775 147.704 6.61154L148.279 7.64269ZM148.279 17.908L148.854 18.9389C149.228 18.7304 149.459 18.3359 149.459 17.908H148.279ZM138.747 17.908H137.566C137.566 18.3128 137.774 18.6893 138.116 18.9057L138.747 17.908ZM138.747 13.7467H139.927C139.927 13.1935 139.543 12.7146 139.003 12.5944L138.747 13.7467ZM133.246 15.4819L132.626 14.4772C132.277 14.6922 132.065 15.0724 132.065 15.4819H133.246ZM133.246 23.7742V24.9547C133.898 24.9547 134.426 24.4261 134.426 23.7742H133.246ZM132.512 23.7742H131.332C131.332 24.4261 131.86 24.9547 132.512 24.9547V23.7742ZM132.512 2.77742H133.693C133.693 2.35786 133.47 1.96982 133.108 1.75815L132.512 2.77742ZM18.0056 8.81149V9.992C18.3284 9.992 18.637 9.85986 18.8598 9.62634C19.0826 9.39281 19.2 9.07825 19.1848 8.75587L18.0056 8.81149ZM17.7947 4.33892L18.9739 4.28329C18.9442 3.65364 18.425 3.1584 17.7947 3.1584V4.33892ZM17.4712 8.81149L16.3006 8.96477C16.3776 9.55248 16.8784 9.992 17.4712 9.992V8.81149ZM17.0492 7.12373L18.0933 6.5727L18.0904 6.56726L17.0492 7.12373ZM15.8819 5.92823L15.3137 6.96304C15.3217 6.96743 15.3298 6.97172 15.3379 6.97593L15.8819 5.92823ZM11.2968 5.53442V4.3539C10.6448 4.3539 10.1163 4.88244 10.1163 5.53442H11.2968ZM11.6765 22.2995L10.7863 23.0749C10.7912 23.0805 10.7961 23.086 10.8011 23.0916L11.6765 22.2995ZM13.9831 22.8902H15.1636C15.1636 22.2383 14.6351 21.7097 13.9831 21.7097V22.8902ZM13.9831 23.4106V24.5912C14.6351 24.5912 15.1636 24.0626 15.1636 23.4106H13.9831ZM5.89592 23.4106H4.71541C4.71541 24.0626 5.24394 24.5912 5.89592 24.5912V23.4106ZM5.89592 22.8902V21.7097C5.24394 21.7097 4.71541 22.2383 4.71541 22.8902H5.89592ZM8.28692 22.1589L9.25753 22.8308L9.25971 22.8277L8.28692 22.1589ZM8.59634 5.53442H9.77686C9.77686 4.88244 9.24832 4.3539 8.59634 4.3539V5.53442ZM4.40506 5.73132L4.01508 4.61708C4.01001 4.61886 4.00496 4.62067 3.99992 4.62251L4.40506 5.73132ZM2.53446 8.81149V9.992C3.1517 9.992 3.66474 9.51651 3.71157 8.90105L2.53446 8.81149ZM2 8.81149L0.820979 8.75217C0.804729 9.07515 0.921686 9.39065 1.14454 9.62499C1.36738 9.85934 1.67661 9.992 2 9.992L2 8.81149ZM2.22504 4.33892V3.1584C1.59611 3.1584 1.07762 3.65147 1.04601 4.27959L2.22504 4.33892ZM23.6866 3.41064H24.8672C24.8672 2.75867 24.3386 2.23013 23.6866 2.23013V3.41064ZM23.6866 12.834H22.5061C22.5061 13.3216 22.8059 13.7591 23.2607 13.935C23.7155 14.1109 24.2317 13.9891 24.5598 13.6284L23.6866 12.834ZM23.0397 3.41064V2.23013C22.8865 2.23013 22.7348 2.25994 22.593 2.3179L23.0397 3.41064ZM19.1859 4.98589L18.7393 3.89314C18.139 4.13852 17.849 4.82219 18.0899 5.42432L19.1859 4.98589ZM19.3828 5.47816L18.2868 5.91659C18.52 6.49963 19.1688 6.79805 19.7633 6.59569L19.3828 5.47816ZM20.9159 5.43596L20.1427 6.32806C20.1522 6.33625 20.1618 6.34429 20.1715 6.35218L20.9159 5.43596ZM21.2394 6.12513L20.0806 6.35046C20.0826 6.36074 20.0847 6.371 20.087 6.38122L21.2394 6.12513ZM21.1831 22.1026L20.0981 21.6376L20.0981 21.6376L21.1831 22.1026ZM20.7331 22.6371L20.2051 21.5812C20.1933 21.5871 20.1815 21.5933 20.1698 21.5996L20.7331 22.6371ZM19.3828 22.9043V21.7238C18.7309 21.7238 18.2023 22.2523 18.2023 22.9043H19.3828ZM19.3828 23.4106H18.2023C18.2023 24.0626 18.7309 24.5912 19.3828 24.5912V23.4106ZM25.7682 23.4106V24.5912C26.4202 24.5912 26.9487 24.0626 26.9487 23.4106H25.7682ZM25.7682 22.9043H26.9487C26.9487 22.2523 26.4202 21.7238 25.7682 21.7238V22.9043ZM24.3758 22.6933L23.7901 23.7183C23.8044 23.7265 23.8188 23.7343 23.8335 23.7419L24.3758 22.6933ZM23.8273 22.1448L22.7447 22.6155C22.7503 22.6285 22.7562 22.6414 22.7623 22.6542L23.8273 22.1448ZM23.6866 13.6919L22.8251 12.8849C22.6202 13.1037 22.5061 13.3922 22.5061 13.6919H23.6866ZM25.4729 12.2151L25.9928 13.275L25.9928 13.275L25.4729 12.2151ZM28.0608 12.187L27.38 13.1515C27.3864 13.156 27.3928 13.1604 27.3993 13.1648L28.0608 12.187ZM28.7499 13.1715L27.6253 13.5305C27.6276 13.5377 27.63 13.5448 27.6324 13.552L28.7499 13.1715ZM28.9328 21.8213L30.0744 22.1218C30.0816 22.0944 30.0878 22.0667 30.0931 22.0389L28.9328 21.8213ZM28.4405 22.6371L29.1548 23.577C29.1626 23.571 29.1703 23.565 29.178 23.5589L28.4405 22.6371ZM26.8934 22.9043V21.7238C26.2414 21.7238 25.7129 22.2523 25.7129 22.9043H26.8934ZM26.8934 23.4106H25.7129C25.7129 24.0626 26.2414 24.5912 26.8934 24.5912V23.4106ZM33.2225 23.4106V24.5912C33.8745 24.5912 34.403 24.0626 34.403 23.4106H33.2225ZM33.2225 22.9043H34.403C34.403 22.2523 33.8745 21.7238 33.2225 21.7238V22.9043ZM31.9848 22.7074L31.39 23.7271L31.39 23.7271L31.9848 22.7074ZM31.5066 22.173L32.5963 21.7189C32.5936 21.7125 32.5909 21.7061 32.5881 21.6998L31.5066 22.173ZM31.0425 12.6512L29.9097 12.9836L29.9108 12.9871L31.0425 12.6512ZM29.8751 10.7524L30.5941 9.81609L30.5941 9.81609L29.8751 10.7524ZM26.162 10.6399L26.7092 11.6859C26.7134 11.6838 26.7175 11.6815 26.7217 11.6793L26.162 10.6399ZM37.3321 19.9357L36.438 20.7065L36.438 20.7065L37.3321 19.9357ZM35.9397 15.435V14.2545C35.29 14.2545 34.7624 14.7795 34.7592 15.4293L35.9397 15.435ZM42.8314 20.8781L43.5351 21.8259L43.5375 21.8242L42.8314 20.8781ZM44.4067 18.4871L45.0467 17.4951C44.7466 17.3015 44.3749 17.2541 44.0359 17.3663C43.6968 17.4785 43.4267 17.7382 43.3013 18.0726L44.4067 18.4871ZM44.8427 18.7684L46.0096 18.9472C46.0801 18.4872 45.8737 18.0287 45.4827 17.7764L44.8427 18.7684ZM43.1268 22.2845L44.0035 23.0751L44.007 23.0713L43.1268 22.2845ZM35.5881 22.0595L34.7137 22.8526L34.7201 22.8597L35.5881 22.0595ZM35.6303 12.0454L34.7601 11.2477L34.7598 11.248L35.6303 12.0454ZM43.4503 11.6235L42.6032 12.4457L42.6072 12.4499L43.4503 11.6235ZM44.8427 15.435V16.6156C45.4947 16.6156 46.0232 16.087 46.0232 15.435H44.8427ZM41.9032 14.6193V15.7998C42.2279 15.7998 42.5383 15.666 42.7613 15.43C42.9843 15.194 43.1002 14.8765 43.0818 14.5523L41.9032 14.6193ZM35.9397 14.6193L34.7646 14.5069C34.7329 14.838 34.8424 15.1671 35.0661 15.4133C35.2899 15.6595 35.6071 15.7998 35.9397 15.7998V14.6193ZM41.6078 12.8753L42.6866 12.3958L42.6858 12.394L41.6078 12.8753ZM40.5529 11.6376L39.9074 12.626L39.9166 12.6319L40.5529 11.6376ZM37.0086 12.1017L37.8369 12.9429L37.837 12.9428L37.0086 12.1017ZM64.6373 4.33892L65.8165 4.28329C65.7868 3.65364 65.2677 3.1584 64.6373 3.1584V4.33892ZM64.8483 8.81149V9.992C65.1711 9.992 65.4797 9.85986 65.7025 9.62634C65.9253 9.39281 66.0427 9.07825 66.0275 8.75587L64.8483 8.81149ZM49.0677 4.33892V3.1584C48.4388 3.1584 47.9203 3.65147 47.8887 4.27959L49.0677 4.33892ZM48.8427 8.81149L47.6637 8.75217C47.6474 9.07515 47.7644 9.39065 47.9872 9.62499C48.2101 9.85934 48.5193 9.992 48.8427 9.992V8.81149ZM49.3771 8.81149V9.992C49.9944 9.992 50.5074 9.51651 50.5542 8.90105L49.3771 8.81149ZM51.2477 5.73132L50.8578 4.61709C50.8527 4.61886 50.8476 4.62067 50.8426 4.62251L51.2477 5.73132ZM55.439 5.53442H56.6195C56.6195 4.88244 56.091 4.3539 55.439 4.3539V5.53442ZM55.1296 22.1589L56.1002 22.8308L56.1024 22.8277L55.1296 22.1589ZM52.7386 22.8902V21.7097C52.0866 21.7097 51.5581 22.2383 51.5581 22.8902H52.7386ZM52.7386 23.4106H51.5581C51.5581 24.0626 52.0866 24.5912 52.7386 24.5912V23.4106ZM60.8258 23.4106V24.5912C61.4778 24.5912 62.0063 24.0626 62.0063 23.4106H60.8258ZM60.8258 22.8902H62.0063C62.0063 22.2383 61.4778 21.7097 60.8258 21.7097V22.8902ZM58.5192 22.2995L57.629 23.0749C57.6339 23.0805 57.6388 23.086 57.6438 23.0916L58.5192 22.2995ZM58.1394 5.53442V4.3539C57.4875 4.3539 56.9589 4.88244 56.9589 5.53442H58.1394ZM62.7245 5.92823L62.1564 6.96304C62.1644 6.96743 62.1724 6.97172 62.1805 6.97593L62.7245 5.92823ZM63.8919 7.12373L64.9359 6.5727L64.933 6.56726L63.8919 7.12373ZM64.3138 8.81149L63.1433 8.96477C63.2203 9.55248 63.7211 9.992 64.3138 9.992V8.81149ZM69.1115 3.83259L68.2628 4.65307C68.272 4.66266 68.2815 4.67209 68.291 4.68136L69.1115 3.83259ZM69.1115 5.84384L68.2768 5.00909C68.2721 5.0138 68.2674 5.01856 68.2628 5.02335L69.1115 5.84384ZM67.0862 3.83259L67.921 4.66734L67.921 4.66732L67.0862 3.83259ZM69.2803 10.1476H70.4608C70.4608 9.49566 69.9323 8.96712 69.2803 8.96712V10.1476ZM69.4491 22.1167L68.3583 22.5681C68.3646 22.5834 68.3713 22.5987 68.3783 22.6138L69.4491 22.1167ZM69.9695 22.7074L69.3746 23.7271C69.3806 23.7306 69.3866 23.734 69.3927 23.7374L69.9695 22.7074ZM71.2353 22.9043H72.4158C72.4158 22.2523 71.8873 21.7238 71.2353 21.7238V22.9043ZM71.2353 23.4106V24.5912C71.8873 24.5912 72.4158 24.0626 72.4158 23.4106H71.2353ZM64.9765 23.4106H63.796C63.796 24.0626 64.3245 24.5912 64.9765 24.5912V23.4106ZM64.9765 22.9043V21.7238C64.3245 21.7238 63.796 22.2523 63.796 22.9043H64.9765ZM66.7487 22.1167L65.6789 21.6175C65.6743 21.6274 65.6698 21.6373 65.6655 21.6473L66.7487 22.1167ZM66.819 12.8199L67.9755 12.5834C67.9745 12.5781 67.9734 12.5729 67.9722 12.5677L66.819 12.8199ZM66.5096 12.2011L65.7364 13.0932C65.7481 13.1033 65.76 13.1132 65.7721 13.1229L66.5096 12.2011ZM64.9765 12.2292L63.8763 12.6571C64.1105 13.2595 64.7858 13.5615 65.391 13.3346L64.9765 12.2292ZM64.7796 11.7229L64.3357 10.629C63.7378 10.8716 63.4455 11.5494 63.6794 12.1508L64.7796 11.7229ZM68.6615 10.1476V8.96712C68.5093 8.96712 68.3586 8.99654 68.2176 9.05376L68.6615 10.1476ZM82.7206 18.5574L83.8772 18.7938C83.9854 18.2645 83.7204 17.7292 83.2338 17.4943L82.7206 18.5574ZM80.6812 22.4815L81.4701 23.3597L81.4745 23.3557L80.6812 22.4815ZM82.3127 18.3605L82.826 17.2974C82.5359 17.1574 82.2013 17.1419 81.8996 17.2546C81.5979 17.3674 81.3553 17.5985 81.2281 17.8944L82.3127 18.3605ZM80.8078 20.7093L80.0505 19.8038C80.0465 19.8071 80.0425 19.8104 80.0386 19.8138L80.8078 20.7093ZM75.2663 19.8935L74.2697 20.5263L74.2756 20.5355L75.2663 19.8935ZM75.2804 12.172L76.1903 12.9241L76.1913 12.9229L75.2804 12.172ZM78.9091 11.5532L79.6918 10.6695C79.687 10.6652 79.6822 10.661 79.6774 10.6569L78.9091 11.5532ZM79.4717 12.819L78.2954 12.9187C78.2959 12.9253 78.2965 12.9319 78.2972 12.9384L79.4717 12.819ZM79.7952 13.9442L80.7217 13.2127C80.7187 13.2089 80.7157 13.2052 80.7127 13.2014L79.7952 13.9442ZM82.0033 14.1552L82.8201 15.0075L82.8209 15.0068L82.0033 14.1552ZM81.1313 11.2016L80.3786 12.111L80.3849 12.1162L81.1313 11.2016ZM73.663 12.0876L72.8095 11.2721L72.8063 11.2754L73.663 12.0876ZM87.314 3.41064H88.4945C88.4945 2.75867 87.966 2.23013 87.314 2.23013V3.41064ZM87.4828 22.1589L86.3977 22.6239C86.4023 22.6347 86.4071 22.6454 86.4121 22.656L87.4828 22.1589ZM87.9891 22.7215L88.5352 21.6749L88.5352 21.6748L87.9891 22.7215ZM89.3956 22.9043H90.5761C90.5761 22.2583 90.0569 21.7323 89.4109 21.7239L89.3956 22.9043ZM89.3956 23.4106V24.5912C90.0476 24.5912 90.5761 24.0626 90.5761 23.4106H89.3956ZM82.8414 23.4106H81.6609C81.6609 24.0626 82.1895 24.5912 82.8414 24.5912V23.4106ZM82.8414 22.9043V21.7238C82.1895 21.7238 81.6609 22.2523 81.6609 22.9043H82.8414ZM84.3182 22.6652L84.834 23.7271C84.8447 23.7219 84.8554 23.7165 84.866 23.711L84.3182 22.6652ZM84.7683 22.187L85.8333 22.6964C85.8366 22.6894 85.8398 22.6825 85.843 22.6755L84.7683 22.187ZM84.8808 6.12513L83.722 6.35046L83.7232 6.35665L84.8808 6.12513ZM84.5573 5.43596L83.78 6.32439C83.7908 6.33385 83.8017 6.3431 83.8129 6.35216L84.5573 5.43596ZM83.0805 5.47816L82.0187 5.99392C82.29 6.55256 82.9478 6.80544 83.5235 6.57243L83.0805 5.47816ZM82.8414 4.98589L82.392 3.8943C82.0908 4.01831 81.8542 4.26123 81.7383 4.56559C81.6223 4.86995 81.6373 5.20869 81.7796 5.50166L82.8414 4.98589ZM86.667 3.41064V2.23013C86.5128 2.23013 86.3601 2.26034 86.2176 2.31905L86.667 3.41064ZM90.5911 13.2419L91.3876 14.1132L91.3899 14.1111L90.5911 13.2419ZM91.8007 12.0323L90.8184 11.3775L90.8184 11.3775L91.8007 12.0323ZM91.6741 11.2166L90.8666 12.0778C90.8851 12.0951 90.9041 12.1118 90.9236 12.1278L91.6741 11.2166ZM90.9146 10.9775H89.7341C89.7341 11.6053 90.2255 12.1233 90.8525 12.1563L90.9146 10.9775ZM90.9146 10.5274V9.34687C90.2626 9.34687 89.7341 9.8754 89.7341 10.5274H90.9146ZM96.5123 10.5274H97.6928C97.6928 9.8754 97.1643 9.34687 96.5123 9.34687V10.5274ZM96.5123 10.9775L96.5411 12.1576C97.1817 12.142 97.6928 11.6182 97.6928 10.9775H96.5123ZM94.5855 11.3291L94.13 10.2399L94.1229 10.243L94.5855 11.3291ZM92.9118 12.4824L92.1183 11.6082L92.1109 11.6151L92.9118 12.4824ZM89.6066 15.5344L88.8057 14.6671C88.3523 15.0858 88.2979 15.783 88.6808 16.2669L89.6066 15.5344ZM92.9118 19.7116L91.986 20.4441L91.9885 20.4473L92.9118 19.7116ZM94.7683 21.9057L95.5942 21.0622L95.5905 21.0586L94.7683 21.9057ZM95.9497 22.7637L96.3882 21.6675L96.3776 21.6634L95.9497 22.7637ZM97.1734 22.9043H98.3539C98.3539 22.2523 97.8253 21.7238 97.1734 21.7238V22.9043ZM97.1734 23.4106V24.5912C97.8253 24.5912 98.3539 24.0626 98.3539 23.4106H97.1734ZM90.9146 23.4106H89.7341C89.7341 24.0626 90.2626 24.5912 90.9146 24.5912V23.4106ZM90.9146 22.9043L90.8835 21.7242C90.2439 21.741 89.7341 22.2644 89.7341 22.9043H90.9146ZM91.6319 22.7496L92.3517 23.6854L92.3612 23.6779L91.6319 22.7496ZM91.2662 21.2869L90.3366 22.0145L90.3373 22.0154L91.2662 21.2869ZM97.9895 15.435V14.2545C97.3398 14.2545 96.8122 14.7795 96.809 15.4293L97.9895 15.435ZM99.3819 19.9357L98.4878 20.7065L98.4878 20.7065L99.3819 19.9357ZM106.892 15.435V16.6156C107.544 16.6156 108.073 16.087 108.073 15.435H106.892ZM105.5 11.6235L104.653 12.4457L104.657 12.4499L105.5 11.6235ZM97.6801 12.0454L96.8099 11.2477L96.8096 11.248L97.6801 12.0454ZM97.6379 22.0595L96.7635 22.8526L96.77 22.8597L97.6379 22.0595ZM105.177 22.2845L106.053 23.0751L106.057 23.0712L105.177 22.2845ZM106.892 18.7684L108.059 18.9472C108.13 18.4872 107.924 18.0287 107.532 17.7764L106.892 18.7684ZM106.456 18.4871L107.096 17.4951C106.796 17.3015 106.425 17.2541 106.086 17.3663C105.747 17.4785 105.477 17.7382 105.351 18.0726L106.456 18.4871ZM104.881 20.8781L105.585 21.8259L105.587 21.8242L104.881 20.8781ZM97.9895 14.6193L96.8144 14.5069C96.7827 14.838 96.8922 15.1671 97.1159 15.4133C97.3397 15.6595 97.6569 15.7998 97.9895 15.7998V14.6193ZM103.953 14.6193V15.7998C104.278 15.7998 104.588 15.666 104.811 15.43C105.034 15.194 105.15 14.8765 105.132 14.5523L103.953 14.6193ZM99.0584 12.1017L99.8867 12.9429L99.8868 12.9428L99.0584 12.1017ZM102.603 11.6376L101.957 12.626L101.966 12.6319L102.603 11.6376ZM103.658 12.8753L104.736 12.3958L104.736 12.394L103.658 12.8753ZM111.095 10.9044H109.914C109.914 11.5563 110.443 12.0849 111.095 12.0849V10.9044ZM111.095 6.67089H112.275C112.275 6.01891 111.747 5.49038 111.095 5.49038V6.67089ZM114.105 10.9044H115.285C115.285 10.2524 114.757 9.72385 114.105 9.72385V10.9044ZM114.105 11.8889V13.0694C114.757 13.0694 115.285 12.5409 115.285 11.8889H114.105ZM111.095 11.8889V10.7084C110.443 10.7084 109.914 11.2369 109.914 11.8889H111.095ZM111.446 21.9311L110.528 22.6722C110.532 22.678 110.537 22.6839 110.542 22.6897L111.446 21.9311ZM113.275 22.0858L113.915 23.0778C113.922 23.073 113.93 23.0681 113.937 23.0632L113.275 22.0858ZM113.95 21.2278V20.0473C113.476 20.0473 113.049 20.3303 112.864 20.7661L113.95 21.2278ZM114.498 21.2278L115.61 21.6249C115.739 21.2634 115.685 20.8616 115.463 20.5478C115.242 20.234 114.882 20.0473 114.498 20.0473V21.2278ZM113.106 23.3094L113.824 24.2468L113.833 24.2397L113.106 23.3094ZM109.984 23.647L109.383 24.6633C109.389 24.6667 109.395 24.6701 109.401 24.6734L109.984 23.647ZM109.07 22.6203L107.988 23.0934L107.992 23.1018L109.07 22.6203ZM108.774 11.8889H109.955C109.955 11.2369 109.426 10.7084 108.774 10.7084V11.8889ZM106.735 11.8889H105.554C105.554 12.5409 106.083 13.0694 106.735 13.0694V11.8889ZM106.735 11.4248L106.296 10.3287C105.848 10.508 105.554 10.942 105.554 11.4248H106.735ZM108.31 10.384L109.106 11.2561L109.106 11.2554L108.31 10.384ZM109.759 8.62588L110.76 9.25155C110.763 9.24677 110.766 9.24197 110.769 9.23716L109.759 8.62588ZM110.659 6.67089V5.49038C110.178 5.49038 109.746 5.78163 109.565 6.22686L110.659 6.67089ZM123.499 10.1889H124.68C124.68 9.53693 124.151 9.00839 123.499 9.00839V10.1889ZM123.499 14.5771V15.7576C124.151 15.7576 124.68 15.2291 124.68 14.5771H123.499ZM123.035 10.1889V9.00839C122.588 9.00839 122.179 9.26103 121.979 9.66096L123.035 10.1889ZM122.74 10.6249L122.015 9.69307L122.015 9.69307L122.74 10.6249ZM121.432 10.5124L121.094 11.6435L121.099 11.6449L121.432 10.5124ZM116.762 11.2578L115.938 10.4123L115.933 10.4176L116.762 11.2578ZM116.312 15.9414L117.245 15.2177L117.239 15.2099L116.312 15.9414ZM118.984 17.7698L119.509 16.7124L119.509 16.7124L118.984 17.7698ZM121.699 19.4435L120.873 20.287L120.882 20.2954L121.699 19.4435ZM121.769 22.4533L122.573 23.3177L122.574 23.317L121.769 22.4533ZM117.705 22.0173L116.915 22.8953L116.915 22.8953L117.705 22.0173ZM116.2 19.0497L117.357 18.8181C117.247 18.2663 116.762 17.8692 116.2 17.8692V19.0497ZM115.735 19.0497V17.8692C115.084 17.8692 114.555 18.3977 114.555 19.0497H115.735ZM115.735 23.6488H114.555C114.555 24.3008 115.084 24.8293 115.735 24.8293V23.6488ZM116.2 23.6488V24.8293C116.647 24.8293 117.056 24.5767 117.256 24.1768L116.2 23.6488ZM117.465 23.4238L117.123 24.5536C117.132 24.5562 117.141 24.5588 117.149 24.5612L117.465 23.4238ZM123.134 22.7768L123.876 23.6948L123.877 23.6939L123.134 22.7768ZM121.615 16.2649L122.132 15.2038L122.131 15.2032L121.615 16.2649ZM119.561 15.2663L120.077 14.2046L120.076 14.2038L119.561 15.2663ZM117.789 14.0426L118.731 13.3307C118.724 13.3221 118.717 13.3136 118.711 13.3052L117.789 14.0426ZM117.944 11.5391L118.714 12.434L118.714 12.434L117.944 11.5391ZM121.657 11.7642L120.868 12.6424L120.875 12.6489L121.657 11.7642ZM123.035 14.5771L121.892 14.8725C122.027 15.3936 122.497 15.7576 123.035 15.7576V14.5771ZM133.832 3.80504C134.405 3.47695 134.795 2.85672 134.795 2.14388H132.434C132.434 1.97613 132.527 1.83153 132.659 1.7562L133.832 3.80504ZM134.426 4.87067V2.78062H132.065V4.87067H134.426ZM142.176 4.27089C140.977 2.98669 139.695 2.12365 138.012 2.06971C136.43 2.01901 134.718 2.69974 132.671 3.83925L133.82 5.90209C135.817 4.79017 137.043 4.40087 137.936 4.42952C138.729 4.45492 139.459 4.82058 140.45 5.8824L142.176 4.27089ZM142.494 8.37593V5.07665H140.133V8.37593H142.494ZM147.105 6.9558C146.253 7.45294 145.621 7.80902 144.868 7.93454C144.161 8.05259 143.224 7.97963 141.821 7.31046L140.805 9.44139C142.539 10.2689 143.969 10.4784 145.257 10.2634C146.501 10.0558 147.493 9.46323 148.295 8.99483L147.105 6.9558ZM147.704 6.61154C147.497 6.72706 147.295 6.8451 147.105 6.95581L148.295 8.99482C148.488 8.88221 148.67 8.77603 148.854 8.67383L147.704 6.61154ZM149.459 17.908V7.64269H147.098V17.908H149.459ZM138.116 18.9057C139.999 20.097 141.655 20.7628 143.437 20.7424C145.194 20.7222 146.892 20.0341 148.854 18.9389L147.704 16.8772C145.834 17.9203 144.562 18.3683 143.409 18.3815C142.281 18.3945 141.087 17.9911 139.378 16.9103L138.116 18.9057ZM137.566 13.7467V17.908H139.927V13.7467H137.566ZM133.865 16.4867C136.196 15.0493 137.306 14.6354 138.49 14.899L139.003 12.5944C136.78 12.0996 134.898 13.0756 132.626 14.4772L133.865 16.4867ZM134.426 23.7742V15.4819H132.065V23.7742H134.426ZM132.512 24.9547H133.246V22.5936H132.512V24.9547ZM131.332 2.77742V23.7742H133.693V2.77742H131.332ZM130.968 2.14388C130.968 2.85071 131.352 3.46656 131.917 3.79668L133.108 1.75815C133.238 1.83393 133.329 1.97757 133.329 2.14388H130.968ZM132.882 0.230132C131.825 0.230132 130.968 1.08696 130.968 2.14388H133.329C133.329 2.39089 133.129 2.59116 132.882 2.59116V0.230132ZM134.795 2.14388C134.795 1.08694 133.939 0.230132 132.882 0.230132V2.59116C132.635 2.59116 132.434 2.39091 132.434 2.14388H134.795ZM19.1848 8.75587L18.9739 4.28329L16.6155 4.39454L16.8264 8.86711L19.1848 8.75587ZM17.4712 9.992H18.0056V7.63098H17.4712V9.992ZM16.0052 7.67474C16.0792 7.81492 16.2004 8.19897 16.3006 8.96477L18.6417 8.65821C18.5357 7.84876 18.3756 7.10764 18.0933 6.57271L16.0052 7.67474ZM15.3379 6.97593C15.5886 7.1061 15.8155 7.3198 16.0081 7.68019L18.0904 6.56726C17.7016 5.83998 17.1503 5.25669 16.4259 4.88053L15.3379 6.97593ZM13.9831 6.71493C14.6546 6.71493 15.0699 6.82916 15.3137 6.96304L16.45 4.89342C15.7374 4.50221 14.8869 4.3539 13.9831 4.3539V6.71493ZM11.2968 6.71493H13.9831V4.3539H11.2968V6.71493ZM12.4773 20.1054V5.53442H10.1163V20.1054H12.4773ZM12.5667 21.5242C12.627 21.5934 12.6338 21.633 12.617 21.5877C12.602 21.5474 12.5783 21.4667 12.5549 21.3317C12.5077 21.0591 12.4773 20.6579 12.4773 20.1054H10.1163C10.1163 20.7251 10.1491 21.2755 10.2285 21.7343C10.3002 22.1484 10.4383 22.6753 10.7863 23.0749L12.5667 21.5242ZM13.3221 21.7097C12.7789 21.7097 12.607 21.5685 12.5519 21.5075L10.8011 23.0916C11.4586 23.8182 12.3838 24.0708 13.3221 24.0708V21.7097ZM13.9831 21.7097H13.3221V24.0708H13.9831V21.7097ZM15.1636 23.4106V22.8902H12.8026V23.4106H15.1636ZM5.89592 24.5912H13.9831V22.2301H5.89592V24.5912ZM4.71541 22.8902V23.4106H7.07643V22.8902H4.71541ZM6.57103 21.7097H5.89592V24.0708H6.57103V21.7097ZM7.31631 21.4869C7.27367 21.5485 7.14229 21.7097 6.57103 21.7097V24.0708C7.61251 24.0708 8.62506 23.7444 9.25753 22.8308L7.31631 21.4869ZM7.41583 20.1054C7.41583 20.609 7.39108 20.9829 7.35165 21.2446C7.30691 21.5415 7.26074 21.5677 7.31413 21.4901L9.25971 22.8277C9.51938 22.45 9.62793 21.9839 9.68632 21.5964C9.75003 21.1736 9.77686 20.6708 9.77686 20.1054H7.41583ZM7.41583 5.53442V20.1054H9.77686V5.53442H7.41583ZM6.3038 6.71493H8.59634V4.3539H6.3038V6.71493ZM4.79505 6.84556C4.9656 6.78586 5.42228 6.71493 6.3038 6.71493V4.3539C5.40379 4.3539 4.59464 4.41424 4.01508 4.61708L4.79505 6.84556ZM4.12715 7.42531C4.36115 7.08379 4.59334 6.91937 4.81021 6.84013L3.99992 4.62251C3.24163 4.89957 2.63932 5.41964 2.17946 6.09078L4.12715 7.42531ZM3.71157 8.90105C3.76756 8.16512 3.93605 7.7042 4.12715 7.42531L2.17946 6.09078C1.6767 6.82454 1.43262 7.73259 1.35735 8.72193L3.71157 8.90105ZM2 9.992H2.53446V7.63098H2V9.992ZM1.04601 4.27959L0.820979 8.75217L3.17902 8.87081L3.40406 4.39824L1.04601 4.27959ZM17.7947 3.1584H2.22504V5.51943H17.7947V3.1584ZM22.5061 3.41064V12.834H24.8672V3.41064H22.5061ZM23.0397 4.59116H23.6866V2.23013H23.0397V4.59116ZM19.6326 6.07864L23.4863 4.50339L22.593 2.3179L18.7393 3.89314L19.6326 6.07864ZM20.4789 5.03972L20.282 4.54746L18.0899 5.42432L18.2868 5.91659L20.4789 5.03972ZM20.3392 4.07261C19.9277 4.07261 19.444 4.21031 19.0024 4.36062L19.7633 6.59569C19.9612 6.52832 20.1125 6.48448 20.2228 6.45851C20.3437 6.43006 20.3719 6.43363 20.3392 6.43363V4.07261ZM21.689 4.54386C21.2746 4.18465 20.7775 4.07261 20.3392 4.07261V6.43363C20.3645 6.43363 20.3499 6.43696 20.3094 6.42413C20.2653 6.41012 20.2037 6.38091 20.1427 6.32806L21.689 4.54386ZM22.3982 5.89981C22.3166 5.48015 22.1384 4.90817 21.6603 4.51975L20.1715 6.35218C20.1215 6.31161 20.0884 6.27284 20.0685 6.24571C20.049 6.21905 20.041 6.20202 20.0406 6.20128C20.0403 6.20047 20.0454 6.21129 20.0533 6.23739C20.0612 6.26327 20.0708 6.30032 20.0806 6.35046L22.3982 5.89981ZM22.5324 8.83962C22.5324 8.09596 22.523 7.48357 22.5033 7.00803C22.4848 6.56261 22.455 6.15352 22.3918 5.86904L20.087 6.38122C20.0868 6.38062 20.0878 6.38499 20.0896 6.39537C20.0914 6.40557 20.0936 6.41975 20.0962 6.43845C20.1013 6.47631 20.1071 6.5266 20.1129 6.59114C20.1247 6.72086 20.1354 6.89108 20.1443 7.10581C20.1621 7.5351 20.1714 8.11117 20.1714 8.83962H22.5324ZM22.5324 20.4993V8.83962H20.1714V20.4993H22.5324ZM22.2682 22.5677C22.3956 22.2704 22.4521 21.929 22.4837 21.6285C22.5177 21.3054 22.5324 20.9255 22.5324 20.4993H20.1714C20.1714 20.8794 20.1579 21.1699 20.1357 21.3813C20.1111 21.6152 20.0832 21.6723 20.0981 21.6376L22.2682 22.5677ZM21.261 23.693C21.7759 23.4355 22.0856 22.9938 22.2682 22.5677L20.0981 21.6376C20.0777 21.6852 20.0686 21.6901 20.0832 21.6727C20.1003 21.6525 20.1399 21.6138 20.2051 21.5812L21.261 23.693ZM19.3828 24.0848C20.056 24.0848 20.7272 23.9835 21.2963 23.6746L20.1698 21.5996C20.0826 21.647 19.8536 21.7238 19.3828 21.7238V24.0848ZM20.5634 23.4106V22.9043H18.2023V23.4106H20.5634ZM25.7682 22.2301H19.3828V24.5912H25.7682V22.2301ZM24.5877 22.9043V23.4106H26.9487V22.9043H24.5877ZM23.8335 23.7419C24.3769 24.023 25.0919 24.0848 25.7682 24.0848V21.7238C25.4779 21.7238 25.2603 21.708 25.1047 21.6844C24.9396 21.6594 24.8956 21.6331 24.9182 21.6448L23.8335 23.7419ZM22.7623 22.6542C22.9935 23.1376 23.3744 23.4808 23.7901 23.7183L24.9615 21.6684C24.9064 21.6369 24.8825 21.6149 24.8765 21.609C24.872 21.6044 24.8816 21.6131 24.8923 21.6355L22.7623 22.6542ZM22.5061 20.4993C22.5061 20.9562 22.5181 21.3508 22.5456 21.6722C22.5692 21.9489 22.6133 22.3134 22.7447 22.6155L24.9099 21.6741C24.9379 21.7385 24.9371 21.7634 24.9268 21.707C24.9183 21.6607 24.9077 21.5846 24.898 21.4712C24.8786 21.244 24.8672 20.9237 24.8672 20.4993H22.5061ZM22.5061 13.6919V20.4993H24.8672V13.6919H22.5061ZM24.9529 11.1553C24.2619 11.4943 23.5491 12.1119 22.8251 12.8849L24.5482 14.499C25.2119 13.7905 25.6899 13.4236 25.9928 13.275L24.9529 11.1553ZM26.9075 10.669C26.2346 10.669 25.579 10.8482 24.9529 11.1553L25.9928 13.275C26.3606 13.0945 26.6615 13.03 26.9075 13.03V10.669ZM28.7415 11.2226C28.1942 10.8362 27.5627 10.669 26.9075 10.669V13.03C27.1524 13.03 27.2898 13.0878 27.38 13.1515L28.7415 11.2226ZM29.8746 12.8126C29.6702 12.1722 29.3023 11.6016 28.7222 11.2092L27.3993 13.1648C27.4568 13.2037 27.5484 13.2895 27.6253 13.5305L29.8746 12.8126ZM30.1555 15.9423C30.1555 15.2216 30.1364 14.6045 30.0953 14.0992C30.0561 13.6161 29.9914 13.1551 29.8675 12.7911L27.6324 13.552C27.6585 13.6287 27.7063 13.8498 27.7421 14.2903C27.776 14.7086 27.7945 15.2565 27.7945 15.9423H30.1555ZM30.1555 20.4993V15.9423H27.7945V20.4993H30.1555ZM30.0931 22.0389C30.1265 21.8607 30.1377 21.6235 30.1443 21.416C30.1519 21.1776 30.1555 20.8705 30.1555 20.4993H27.7945C27.7945 20.8594 27.791 21.1383 27.7845 21.3406C27.7813 21.442 27.7775 21.5173 27.7737 21.5702C27.7693 21.6326 27.7668 21.6341 27.7725 21.6038L30.0931 22.0389ZM29.178 23.5589C29.6518 23.1799 29.9311 22.6664 30.0744 22.1218L27.7911 21.5209C27.7684 21.6072 27.7441 21.657 27.7286 21.6826C27.7144 21.7062 27.7053 21.7135 27.703 21.7153L29.178 23.5589ZM27.1887 24.0848C27.8246 24.0848 28.5895 24.0066 29.1548 23.577L27.7262 21.6972C27.795 21.6449 27.8146 21.6597 27.7053 21.683C27.6029 21.7049 27.4366 21.7238 27.1887 21.7238V24.0848ZM26.8934 24.0848H27.1887V21.7238H26.8934V24.0848ZM28.0739 23.4106V22.9043H25.7129V23.4106H28.0739ZM33.2225 22.2301H26.8934V24.5912H33.2225V22.2301ZM32.042 22.9043V23.4106H34.403V22.9043H32.042ZM31.39 23.7271C31.6818 23.8973 32.0035 23.9773 32.2775 24.0209C32.5653 24.0667 32.8847 24.0848 33.2225 24.0848V21.7238C32.9602 21.7238 32.7733 21.7091 32.6485 21.6892C32.51 21.6672 32.5129 21.6488 32.5796 21.6877L31.39 23.7271ZM30.4169 22.627C30.6166 23.1063 30.959 23.4757 31.39 23.7271L32.5796 21.6877C32.5715 21.6829 32.5682 21.6803 32.5685 21.6805C32.5689 21.6809 32.5719 21.6833 32.5763 21.6882C32.5806 21.6931 32.5851 21.6989 32.589 21.7052C32.5929 21.7114 32.5952 21.7163 32.5963 21.7189L30.4169 22.627ZM30.1292 20.4993C30.1292 21.3043 30.1834 22.0937 30.4251 22.6461L32.5881 21.6998C32.5909 21.706 32.5588 21.6249 32.5314 21.3916C32.5057 21.1738 32.4902 20.8796 32.4902 20.4993H30.1292ZM30.1292 15.9423V20.4993H32.4902V15.9423H30.1292ZM29.9108 12.9871C30.0342 13.4027 30.1292 14.3396 30.1292 15.9423H32.4902C32.4902 14.357 32.4071 13.0997 32.1742 12.3152L29.9108 12.9871ZM29.1561 11.6887C29.4228 11.8935 29.7022 12.2765 29.9097 12.9836L32.1752 12.3187C31.8764 11.3005 31.3776 10.4177 30.5941 9.81609L29.1561 11.6887ZM27.9904 11.3281C28.4906 11.3281 28.859 11.4606 29.1561 11.6887L30.5941 9.81609C29.841 9.23787 28.953 8.96712 27.9904 8.96712V11.3281ZM26.7217 11.6793C27.1828 11.431 27.6015 11.3281 27.9904 11.3281V8.96712C27.1604 8.96712 26.3602 9.19242 25.6023 9.60049L26.7217 11.6793ZM24.5598 13.6284C25.5946 12.4911 26.3 11.9 26.7092 11.6859L25.6149 9.59385C24.8051 10.0174 23.8602 10.889 22.8135 12.0395L24.5598 13.6284ZM38.2263 19.1649C37.5289 18.356 37.1118 17.1645 37.1202 15.4408L34.7592 15.4293C34.7489 17.5312 35.2601 19.3401 36.438 20.7065L38.2263 19.1649ZM40.6373 20.3867C39.7634 20.3867 38.9733 20.0315 38.2263 19.1649L36.438 20.7065C37.5663 22.0153 38.9797 22.7478 40.6373 22.7478V20.3867ZM42.1277 19.9302C41.7319 20.2241 41.2531 20.3867 40.6373 20.3867V22.7478C41.7093 22.7478 42.6933 22.4509 43.5351 21.8259L42.1277 19.9302ZM43.3013 18.0726C42.9196 19.0906 42.4998 19.6526 42.1254 19.932L43.5375 21.8242C44.4195 21.166 45.0499 20.1339 45.512 18.9016L43.3013 18.0726ZM45.4827 17.7764L45.0467 17.4951L43.7667 19.4791L44.2027 19.7604L45.4827 17.7764ZM44.007 23.0713C45.0916 21.8577 45.7748 20.479 46.0096 18.9472L43.6758 18.5895C43.5168 19.6269 43.056 20.5923 42.2466 21.4978L44.007 23.0713ZM39.5684 25.0403C41.3249 25.0403 42.8306 24.3757 44.0035 23.0751L42.2501 21.494C41.5289 22.2937 40.6624 22.6793 39.5684 22.6793V25.0403ZM34.7201 22.8597C36.0362 24.2873 37.6716 25.0403 39.5684 25.0403V22.6793C38.371 22.6793 37.3529 22.2321 36.4561 21.2594L34.7201 22.8597ZM32.762 17.1931C32.762 19.4459 33.3744 21.376 34.7137 22.8526L36.4625 21.2664C35.6077 20.3239 35.1231 19.0098 35.1231 17.1931H32.762ZM34.7598 11.248C33.378 12.7566 32.762 14.7919 32.762 17.1931H35.1231C35.1231 15.1874 35.6323 13.791 36.5008 12.8428L34.7598 11.248ZM39.8919 9.00839C37.8607 9.00839 36.1224 9.76161 34.7601 11.2477L36.5005 12.8431C37.4073 11.8539 38.5101 11.3694 39.8919 11.3694V9.00839ZM44.2974 10.8013C43.1271 9.59551 41.6256 9.00839 39.8919 9.00839V11.3694C41.0462 11.3694 41.917 11.7387 42.6032 12.4457L44.2974 10.8013ZM46.0232 15.435C46.0232 13.5986 45.4804 12.0082 44.2933 10.7971L42.6072 12.4499C43.2767 13.1328 43.6622 14.0835 43.6622 15.435H46.0232ZM35.9397 16.6156H44.8427V14.2545H35.9397V16.6156ZM41.9032 13.4388H35.9397V15.7998H41.9032V13.4388ZM40.529 13.3547C40.5845 13.4795 40.6782 13.871 40.7245 14.6863L43.0818 14.5523C43.0343 13.7173 42.9312 12.9461 42.6866 12.3958L40.529 13.3547ZM39.9166 12.6319C40.1846 12.8034 40.3861 13.0345 40.5298 13.3565L42.6858 12.394C42.3607 11.6658 41.859 11.0718 41.1893 10.6433L39.9166 12.6319ZM39.1043 12.368C39.3621 12.368 39.6232 12.4403 39.9075 12.626L41.1984 10.6492C40.5638 10.2347 39.8591 10.007 39.1043 10.007V12.368ZM37.837 12.9428C38.263 12.5233 38.6732 12.368 39.1043 12.368V10.007C37.9789 10.007 36.992 10.4612 36.1803 11.2606L37.837 12.9428ZM37.1149 14.7317C37.1988 13.8541 37.4731 13.3011 37.8369 12.9429L36.1804 11.2605C35.3253 12.1025 34.8869 13.2279 34.7646 14.5069L37.1149 14.7317ZM63.4581 4.39454L63.6691 8.86711L66.0275 8.75587L65.8165 4.28329L63.4581 4.39454ZM49.0677 5.51943H64.6373V3.1584H49.0677V5.51943ZM50.0217 8.87081L50.2467 4.39824L47.8887 4.27959L47.6637 8.75217L50.0217 8.87081ZM49.3771 7.63098H48.8427V9.992H49.3771V7.63098ZM49.0221 6.09078C48.5194 6.82454 48.2753 7.73259 48.2 8.72193L50.5542 8.90105C50.6102 8.16512 50.7787 7.7042 50.9698 7.4253L49.0221 6.09078ZM50.8426 4.62251C50.0843 4.89957 49.482 5.41963 49.0221 6.09078L50.9698 7.4253C51.2038 7.0838 51.436 6.91937 51.6529 6.84013L50.8426 4.62251ZM53.1465 4.3539C52.2465 4.3539 51.4373 4.41424 50.8578 4.61709L51.6377 6.84556C51.8083 6.78586 52.265 6.71493 53.1465 6.71493V4.3539ZM55.439 4.3539H53.1465V6.71493H55.439V4.3539ZM56.6195 20.1054V5.53442H54.2585V20.1054H56.6195ZM56.1024 22.8277C56.3621 22.45 56.4706 21.9839 56.529 21.5964C56.5927 21.1736 56.6195 20.6708 56.6195 20.1054H54.2585C54.2585 20.609 54.2338 20.9829 54.1943 21.2446C54.1496 21.5415 54.1034 21.5677 54.1568 21.4901L56.1024 22.8277ZM53.4137 24.0708C54.4552 24.0708 55.4677 23.7444 56.1002 22.8308L54.159 21.4869C54.1164 21.5485 53.985 21.7097 53.4137 21.7097V24.0708ZM52.7386 24.0708H53.4137V21.7097H52.7386V24.0708ZM53.9191 23.4106V22.8902H51.5581V23.4106H53.9191ZM60.8258 22.2301H52.7386V24.5912H60.8258V22.2301ZM59.6453 22.8902V23.4106H62.0063V22.8902H59.6453ZM60.1648 24.0708H60.8258V21.7097H60.1648V24.0708ZM57.6438 23.0916C58.3013 23.8182 59.2264 24.0708 60.1648 24.0708V21.7097C59.6216 21.7097 59.4497 21.5685 59.3946 21.5075L57.6438 23.0916ZM56.9589 20.1054C56.9589 20.7251 56.9918 21.2755 57.0712 21.7343C57.1428 22.1484 57.281 22.6753 57.629 23.0749L59.4094 21.5242C59.4697 21.5934 59.4765 21.633 59.4596 21.5877C59.4447 21.5474 59.421 21.4667 59.3976 21.3317C59.3504 21.0591 59.32 20.6579 59.32 20.1054H56.9589ZM56.9589 5.53442V20.1054H59.32V5.53442H56.9589ZM60.8258 4.3539H58.1394V6.71493H60.8258V4.3539ZM63.2927 4.89342C62.5801 4.50221 61.7296 4.3539 60.8258 4.3539V6.71493C61.4973 6.71493 61.9126 6.82916 62.1564 6.96304L63.2927 4.89342ZM64.933 6.56726C64.5443 5.83998 63.993 5.25669 63.2685 4.88053L62.1805 6.97593C62.4312 7.1061 62.6582 7.31981 62.8508 7.68019L64.933 6.56726ZM65.4844 8.65821C65.3784 7.84876 65.2183 7.10764 64.9359 6.57271L62.8479 7.67474C62.9219 7.81492 63.043 8.19897 63.1433 8.96477L65.4844 8.65821ZM64.8483 7.63098H64.3138V9.992H64.8483V7.63098ZM69.9603 3.0121C69.4643 2.499 68.8244 2.23013 68.1129 2.23013V4.59116C68.1663 4.59116 68.19 4.59999 68.1985 4.60355C68.2067 4.60705 68.228 4.61716 68.2628 4.65307L69.9603 3.0121ZM70.714 4.83118C70.714 4.11974 70.4451 3.47982 69.932 2.98381L68.291 4.68136C68.3269 4.71607 68.3371 4.73737 68.3406 4.74564C68.3441 4.75407 68.353 4.77783 68.353 4.83118H70.714ZM69.9463 6.67859C70.4464 6.17842 70.714 5.54162 70.714 4.83118H68.353C68.353 4.90836 68.3392 4.94667 68.2768 5.00909L69.9463 6.67859ZM68.1129 7.44629C68.8244 7.44629 69.4643 7.17742 69.9603 6.66432L68.2628 5.02335C68.228 5.05926 68.2067 5.06937 68.1985 5.07287C68.19 5.07643 68.1663 5.08527 68.1129 5.08527V7.44629ZM66.2655 6.67859C66.7657 7.17874 67.4025 7.44629 68.1129 7.44629V5.08527C68.0358 5.08527 67.9975 5.07152 67.935 5.00909L66.2655 6.67859ZM65.4978 4.83118C65.4978 5.54164 65.7654 6.17843 66.2655 6.67859L67.935 5.00909C67.8726 4.94665 67.8588 4.90834 67.8588 4.83118H65.4978ZM66.2515 2.99783C65.7523 3.49704 65.4978 4.13271 65.4978 4.83118H67.8588C67.8588 4.74202 67.8763 4.71197 67.921 4.66734L66.2515 2.99783ZM68.1129 2.23013C67.4014 2.23013 66.7575 2.49181 66.2515 2.99785L67.921 4.66732C67.9775 4.61077 68.0181 4.59116 68.1129 4.59116V2.23013ZM70.4608 20.4993V10.1476H68.0998V20.4993H70.4608ZM70.5399 21.6653C70.5494 21.6882 70.5211 21.6204 70.4966 21.3859C70.4743 21.1714 70.4608 20.8792 70.4608 20.4993H68.0998C68.0998 20.9257 68.1145 21.3062 68.1484 21.6309C68.1801 21.9355 68.2363 22.2733 68.3583 22.5681L70.5399 21.6653ZM70.5643 21.6877C70.5618 21.6862 70.5602 21.6852 70.5564 21.6809C70.5519 21.6758 70.5379 21.6585 70.5198 21.6196L68.3783 22.6138C68.59 23.0697 68.9184 23.461 69.3746 23.7271L70.5643 21.6877ZM71.2353 21.7238C70.9679 21.7238 70.7748 21.7091 70.6432 21.6886C70.499 21.6662 70.4902 21.646 70.5463 21.6774L69.3927 23.7374C69.9186 24.032 70.6195 24.0848 71.2353 24.0848V21.7238ZM72.4158 23.4106V22.9043H70.0548V23.4106H72.4158ZM64.9765 24.5912H71.2353V22.2301H64.9765V24.5912ZM63.796 22.9043V23.4106H66.157V22.9043H63.796ZM65.6614 21.6938C65.7101 21.6663 65.7351 21.6614 65.7165 21.6667C65.7003 21.6713 65.662 21.6806 65.5954 21.6902C65.4597 21.7098 65.2579 21.7238 64.9765 21.7238V24.0848C65.3233 24.0848 65.6466 24.0683 65.9329 24.027C66.1996 23.9885 66.5278 23.9161 66.8232 23.7492L65.6614 21.6938ZM65.6655 21.6473C65.6424 21.7006 65.6261 21.7204 65.6255 21.721C65.6253 21.7213 65.6284 21.7176 65.6352 21.7118C65.6421 21.706 65.651 21.6997 65.6614 21.6938L66.8232 23.7492C67.3113 23.4733 67.6325 23.0461 67.8318 22.5861L65.6655 21.6473ZM65.7651 20.4993C65.7651 20.8699 65.7496 21.1527 65.7245 21.3587C65.6972 21.5827 65.6667 21.6436 65.6789 21.6175L67.8184 22.6159C67.9619 22.3085 68.0298 21.9592 68.0682 21.644C68.1088 21.3108 68.1261 20.9256 68.1261 20.4993H65.7651ZM65.7651 15.5344V20.4993H68.1261V15.5344H65.7651ZM65.6624 13.0565C65.7183 13.3297 65.7651 14.1079 65.7651 15.5344H68.1261C68.1261 14.1667 68.0884 13.1353 67.9755 12.5834L65.6624 13.0565ZM65.7721 13.1229C65.6771 13.0469 65.6407 12.9764 65.6365 12.9681C65.6338 12.9627 65.6367 12.9675 65.6428 12.9858C65.6488 13.004 65.657 13.0321 65.6657 13.0722L67.9722 12.5677C67.8859 12.1728 67.7031 11.6442 67.247 11.2793L65.7721 13.1229ZM65.9329 13.1988C65.9581 13.1988 65.9436 13.2021 65.9031 13.1893C65.8589 13.1752 65.7974 13.146 65.7364 13.0932L67.2827 11.309C66.8682 10.9498 66.3711 10.8377 65.9329 10.8377V13.1988ZM65.391 13.3346C65.6959 13.2202 65.866 13.1988 65.9329 13.1988V10.8377C65.4747 10.8377 65.0072 10.9569 64.562 11.1239L65.391 13.3346ZM63.6794 12.1508L63.8763 12.6571L66.0767 11.8013L65.8798 11.295L63.6794 12.1508ZM68.2176 9.05376L64.3357 10.629L65.2235 12.8168L69.1053 11.2415L68.2176 9.05376ZM69.2803 8.96712H68.6615V11.3281H69.2803V8.96712ZM81.564 18.321C81.2538 19.8384 80.6704 20.8972 79.8879 21.6072L81.4745 23.3557C82.7174 22.2279 83.4935 20.6707 83.8772 18.7938L81.564 18.321ZM81.7995 19.4236L82.2074 19.6205L83.2338 17.4943L82.826 17.2974L81.7995 19.4236ZM81.5652 21.6148C82.2972 21.0026 82.8881 20.0115 83.3973 18.8266L81.2281 17.8944C80.7622 18.9786 80.3498 19.5534 80.0505 19.8038L81.5652 21.6148ZM78.3324 22.8321C79.5483 22.8321 80.643 22.4071 81.577 21.6048L80.0386 19.8138C79.5099 20.268 78.9543 20.4711 78.3324 20.4711V22.8321ZM74.2756 20.5355C75.2302 22.0085 76.6079 22.8321 78.3324 22.8321V20.4711C77.4879 20.4711 76.8215 20.1227 76.257 19.2516L74.2756 20.5355ZM72.9606 15.8148C72.9606 17.5537 73.3878 19.1372 74.2697 20.5263L76.2629 19.2608C75.6447 18.287 75.3217 17.1514 75.3217 15.8148H72.9606ZM74.3705 11.4199C73.3937 12.6017 72.9606 14.1054 72.9606 15.8148H75.3217C75.3217 14.5049 75.6481 13.5801 76.1903 12.9241L74.3705 11.4199ZM77.5448 9.95073C76.272 9.95073 75.1765 10.4421 74.3695 11.4211L76.1913 12.9229C76.5282 12.5142 76.9424 12.3118 77.5448 12.3118V9.95073ZM79.6774 10.6569C79.0711 10.1372 78.3101 9.95073 77.5448 9.95073V12.3118C77.9422 12.3118 78.0908 12.4066 78.1408 12.4495L79.6774 10.6569ZM80.648 12.7193C80.5826 11.948 80.3032 11.2109 79.6918 10.6695L78.1264 12.4369C78.1714 12.4768 78.267 12.5836 78.2954 12.9187L80.648 12.7193ZM80.7127 13.2014C80.7715 13.274 80.7607 13.2982 80.7293 13.189C80.7011 13.0908 80.6699 12.933 80.6461 12.6996L78.2972 12.9384C78.3549 13.5053 78.4807 14.1966 78.8776 14.6869L80.7127 13.2014ZM81.0469 13.2981C80.8956 13.2981 80.8163 13.2737 80.7826 13.2593C80.7556 13.2478 80.7401 13.236 80.7217 13.2127L78.8686 14.6757C79.4229 15.3778 80.22 15.6592 81.0469 15.6592V13.2981ZM81.1865 13.3028C81.1959 13.2938 81.2056 13.2868 81.2135 13.2821C81.2211 13.2776 81.2233 13.2774 81.2172 13.2795C81.2036 13.2841 81.1526 13.2981 81.0469 13.2981V15.6592C81.6625 15.6592 82.3116 15.4948 82.8201 15.0075L81.1865 13.3028ZM81.1744 13.2831C81.1744 13.3075 81.1724 13.3217 81.1714 13.3276C81.1703 13.3333 81.17 13.3323 81.1722 13.3269C81.1744 13.3213 81.1778 13.3149 81.1818 13.309C81.1857 13.3033 81.1879 13.3015 81.1858 13.3035L82.8209 15.0068C83.3108 14.5364 83.5354 13.9265 83.5354 13.2831H81.1744ZM80.3849 12.1162C81.056 12.6638 81.1744 13.055 81.1744 13.2831H83.5354C83.5354 12.0673 82.8381 11.0707 81.8777 10.287L80.3849 12.1162ZM78.0089 11.3694C79.056 11.3694 79.8141 11.6438 80.3787 12.111L81.884 10.2921C80.8171 9.40915 79.4936 9.00839 78.0089 9.00839V11.3694ZM74.5165 12.9032C75.5126 11.8607 76.6569 11.3694 78.0089 11.3694V9.00839C75.9855 9.00839 74.2324 9.78295 72.8095 11.2721L74.5165 12.9032ZM73.0432 17.0243C73.0432 15.249 73.5607 13.9112 74.5196 12.8999L72.8063 11.2754C71.3648 12.7957 70.6822 14.749 70.6822 17.0243H73.0432ZM74.378 21.2206C73.5294 20.2623 73.0432 18.9085 73.0432 17.0243H70.6822C70.6822 19.3221 71.2836 21.2875 72.6104 22.7859L74.378 21.2206ZM77.3198 22.6652C76.2383 22.6652 75.272 22.2302 74.378 21.2206L72.6104 22.7859C73.8917 24.2329 75.4758 25.0262 77.3198 25.0262V22.6652ZM79.8924 21.6032C79.0711 22.3408 78.2246 22.6652 77.3198 22.6652V25.0262C78.8716 25.0262 80.266 24.4411 81.4701 23.3597L79.8924 21.6032ZM88.4945 16.2376V3.41064H86.1335V16.2376H88.4945ZM88.4945 20.5133V16.2376H86.1335V20.5133H88.4945ZM88.5678 21.6939C88.5841 21.7318 88.5556 21.6745 88.5306 21.4301C88.508 21.2106 88.4945 20.9085 88.4945 20.5133H86.1335C86.1335 20.9527 86.1481 21.342 86.1819 21.671C86.2131 21.9752 86.2689 22.3234 86.3977 22.6239L88.5678 21.6939ZM88.5352 21.6748C88.5449 21.6799 88.5542 21.686 88.5625 21.6924C88.5707 21.6988 88.5759 21.7041 88.5783 21.7067C88.5831 21.7121 88.5721 21.7018 88.5535 21.6618L86.4121 22.656C86.622 23.1082 86.9552 23.5136 87.4431 23.7681L88.5352 21.6748ZM89.4109 21.7239C89.0745 21.7195 88.8267 21.7033 88.6547 21.6809C88.5694 21.6698 88.5163 21.6589 88.4883 21.6519C88.4555 21.6435 88.4804 21.6463 88.5352 21.6749L87.443 23.7681C87.7415 23.9238 88.0829 23.9875 88.3503 24.0222C88.6471 24.0608 88.9946 24.0797 89.3803 24.0847L89.4109 21.7239ZM90.5761 23.4106V22.9043H88.2151V23.4106H90.5761ZM82.8414 24.5912H89.3956V22.2301H82.8414V24.5912ZM81.6609 22.9043V23.4106H84.022V22.9043H81.6609ZM83.8025 21.6033C83.7166 21.645 83.44 21.7238 82.8414 21.7238V24.0848C83.5556 24.0848 84.2635 24.0042 84.834 23.7271L83.8025 21.6033ZM83.7033 21.6777C83.6995 21.6857 83.703 21.676 83.7188 21.6592C83.7352 21.6417 83.7543 21.6279 83.7705 21.6195L84.866 23.711C85.3061 23.4804 85.629 23.1235 85.8333 22.6964L83.7033 21.6777ZM83.7988 20.5836C83.7988 20.9309 83.7825 21.1998 83.7561 21.4001C83.7431 21.4992 83.7286 21.5734 83.7153 21.6264C83.7018 21.6807 83.6923 21.7014 83.6936 21.6985L85.843 22.6755C86.0978 22.1149 86.1598 21.3537 86.1598 20.5836H83.7988ZM83.7988 8.85368V20.5836H86.1598V8.85368H83.7988ZM83.7232 6.35665C83.7232 6.35659 83.7242 6.36156 83.7259 6.3726C83.7276 6.38344 83.7296 6.39826 83.732 6.41759C83.7367 6.45668 83.7419 6.5082 83.7471 6.57387C83.7576 6.70578 83.7671 6.87857 83.7749 7.09597C83.7906 7.53051 83.7988 8.11475 83.7988 8.85368H86.1598C86.1598 8.10176 86.1515 7.48581 86.1344 7.01084C86.1183 6.56515 86.0926 6.16445 86.0384 5.89361L83.7232 6.35665ZM83.8129 6.35216C83.763 6.31159 83.7299 6.27283 83.71 6.2457C83.6904 6.21904 83.6824 6.20202 83.6821 6.20129C83.6817 6.20047 83.6868 6.2113 83.6948 6.23739C83.7027 6.26328 83.7123 6.30032 83.722 6.35046L86.0396 5.89981C85.958 5.48013 85.7798 4.90818 85.3018 4.51976L83.8129 6.35216ZM83.9666 6.41957C83.9832 6.41957 83.9647 6.42183 83.9238 6.40821C83.8798 6.39354 83.8278 6.36623 83.78 6.32439L85.3347 4.54753C84.9242 4.18836 84.4299 4.05854 83.9666 4.05854V6.41957ZM83.5235 6.57243C83.6918 6.50429 83.8171 6.46229 83.905 6.43858C84.0012 6.41262 84.0127 6.41957 83.9666 6.41957V4.05854C83.5246 4.05854 83.0469 4.21821 82.6376 4.38388L83.5235 6.57243ZM81.7796 5.50166L82.0187 5.99392L84.1424 4.96239L83.9033 4.47012L81.7796 5.50166ZM86.2176 2.31905L82.392 3.8943L83.2909 6.07749L87.1165 4.50224L86.2176 2.31905ZM87.314 2.23013H86.667V4.59116H87.314V2.23013ZM89.7946 12.3706L86.5175 15.3663L88.1105 17.109L91.3876 14.1132L89.7946 12.3706ZM90.8184 11.3775C90.8367 11.35 90.7908 11.4149 90.5791 11.6265C90.3944 11.8113 90.1338 12.0589 89.7923 12.3726L91.3899 14.1111C91.7423 13.7873 92.0302 13.5144 92.2486 13.296C92.4401 13.1045 92.6521 12.8834 92.7829 12.6871L90.8184 11.3775ZM90.7327 11.6948C90.7327 11.5307 90.7906 11.4192 90.8184 11.3775L92.7829 12.6871C92.9607 12.4204 93.0937 12.0839 93.0937 11.6948H90.7327ZM90.9236 12.1278C90.8959 12.105 90.8423 12.0522 90.7975 11.9625C90.7511 11.8697 90.7327 11.7744 90.7327 11.6948H93.0937C93.0937 11.1159 92.825 10.6351 92.4245 10.3053L90.9236 12.1278ZM90.8525 12.1563C90.9057 12.1591 90.9457 12.1637 90.9742 12.1683C91.0029 12.173 91.0162 12.177 91.0172 12.1773C91.0222 12.1789 90.9527 12.1585 90.8666 12.0778L92.4815 10.3553C92.0248 9.92719 91.4256 9.8222 90.9766 9.79857L90.8525 12.1563ZM89.7341 10.5274V10.9775H92.0951V10.5274H89.7341ZM96.5123 9.34687H90.9146V11.7079H96.5123V9.34687ZM97.6928 10.9775V10.5274H95.3318V10.9775H97.6928ZM95.0409 12.4182C95.3808 12.276 95.8675 12.174 96.5411 12.1576L96.4835 9.79729C95.6194 9.81837 94.8215 9.95078 94.13 10.24L95.0409 12.4182ZM93.7052 13.3565C94.2605 12.8524 94.7074 12.5603 95.0481 12.4152L94.1229 10.243C93.4509 10.5292 92.7819 11.0059 92.1183 11.6083L93.7052 13.3565ZM90.4074 16.4017L93.7126 13.3497L92.1109 11.6151L88.8057 14.6671L90.4074 16.4017ZM93.8375 18.9791L90.5323 14.8019L88.6808 16.2669L91.986 20.4441L93.8375 18.9791ZM95.5905 21.0586C95.3361 20.8117 94.7654 20.1437 93.835 18.976L91.9885 20.4473C92.8959 21.5862 93.5629 22.3809 93.9461 22.7528L95.5905 21.0586ZM96.3776 21.6634C96.2602 21.6178 96.0022 21.4617 95.5942 21.0622L93.9424 22.7492C94.4345 23.2311 94.9642 23.647 95.5219 23.8639L96.3776 21.6634ZM97.1734 21.7238C96.9109 21.7238 96.7113 21.713 96.5663 21.6964C96.4102 21.6784 96.3666 21.659 96.3882 21.6676L95.5113 23.8598C95.9757 24.0455 96.5872 24.0848 97.1734 24.0848V21.7238ZM98.3539 23.4106V22.9043H95.9929V23.4106H98.3539ZM90.9146 24.5912H97.1734V22.2301H90.9146V24.5912ZM89.7341 22.9043V23.4106H92.0951V22.9043H89.7341ZM90.9121 21.8139C90.986 21.7571 91.048 21.7288 91.0776 21.7169C91.1081 21.7046 91.1223 21.7025 91.1122 21.7046C91.1031 21.7066 91.08 21.7109 91.0396 21.715C90.9998 21.7191 90.9482 21.7225 90.8835 21.7242L90.9456 24.0844C91.1671 24.0786 91.3945 24.0591 91.61 24.0126C91.8107 23.9693 92.0937 23.8837 92.3516 23.6853L90.9121 21.8139ZM90.6483 22.3277C90.6483 22.2697 90.6596 22.1751 90.7098 22.0675C90.7611 21.9576 90.8339 21.8753 90.9025 21.8213L92.3612 23.6779C92.7987 23.3341 93.0093 22.84 93.0093 22.3277H90.6483ZM90.3373 22.0154C90.5031 22.2269 90.5998 22.3748 90.6496 22.4671C90.6739 22.512 90.6776 22.5264 90.6737 22.5146C90.6709 22.5064 90.6483 22.4382 90.6483 22.3277H93.0093C93.0093 21.9214 92.8482 21.5693 92.7266 21.3444C92.589 21.0897 92.4043 20.8251 92.1951 20.5583L90.3373 22.0154ZM86.3844 16.9653L90.3366 22.0145L92.1958 20.5592L88.2436 15.51L86.3844 16.9653ZM96.809 15.4293C96.7987 17.5312 97.3099 19.3401 98.4878 20.7065L100.276 19.1649C99.5787 18.356 99.1616 17.1645 99.17 15.4408L96.809 15.4293ZM106.892 14.2545H97.9895V16.6156H106.892V14.2545ZM104.657 12.4499C105.326 13.1328 105.712 14.0835 105.712 15.435H108.073C108.073 13.5986 107.53 12.0082 106.343 10.7971L104.657 12.4499ZM101.942 11.3694C103.096 11.3694 103.967 11.7387 104.653 12.4457L106.347 10.8013C105.177 9.59551 103.675 9.00839 101.942 9.00839V11.3694ZM98.5503 12.8431C99.4571 11.8539 100.56 11.3694 101.942 11.3694V9.00839C99.9105 9.00839 98.1722 9.76161 96.8099 11.2477L98.5503 12.8431ZM97.1729 17.1931C97.1729 15.1874 97.6821 13.791 98.5506 12.8428L96.8096 11.248C95.4278 12.7566 94.8118 14.7919 94.8118 17.1931H97.1729ZM98.5123 21.2664C97.6575 20.3239 97.1729 19.0098 97.1729 17.1931H94.8118C94.8118 19.4459 95.4242 21.376 96.7635 22.8526L98.5123 21.2664ZM101.618 22.6793C100.421 22.6793 99.4027 22.2321 98.5059 21.2594L96.77 22.8597C98.086 24.2873 99.7214 25.0403 101.618 25.0403V22.6793ZM104.3 21.494C103.579 22.2937 102.712 22.6793 101.618 22.6793V25.0403C103.375 25.0403 104.88 24.3757 106.053 23.0751L104.3 21.494ZM105.726 18.5895C105.567 19.6269 105.106 20.5923 104.296 21.4978L106.057 23.0712C107.141 21.8577 107.825 20.479 108.059 18.9472L105.726 18.5895ZM105.816 19.4791L106.252 19.7604L107.532 17.7764L107.096 17.4951L105.816 19.4791ZM105.587 21.8242C106.469 21.166 107.1 20.1339 107.562 18.9016L105.351 18.0726C104.969 19.0906 104.55 19.6526 104.175 19.932L105.587 21.8242ZM102.687 22.7478C103.759 22.7478 104.743 22.4509 105.585 21.8259L104.178 19.9302C103.782 20.2241 103.303 20.3867 102.687 20.3867V22.7478ZM98.4878 20.7065C99.6161 22.0153 101.029 22.7478 102.687 22.7478V20.3867C101.813 20.3867 101.023 20.0315 100.276 19.1649L98.4878 20.7065ZM97.9895 15.7998H103.953V13.4388H97.9895V15.7998ZM98.2302 11.2605C97.3751 12.1025 96.9367 13.2279 96.8144 14.5069L99.1647 14.7317C99.2486 13.8541 99.5229 13.3011 99.8867 12.9429L98.2302 11.2605ZM101.154 10.007C100.029 10.007 99.0418 10.4612 98.2301 11.2606L99.8868 12.9428C100.313 12.5233 100.723 12.368 101.154 12.368V10.007ZM103.248 10.6492C102.614 10.2347 101.909 10.007 101.154 10.007V12.368C101.412 12.368 101.673 12.4403 101.957 12.626L103.248 10.6492ZM104.736 12.394C104.41 11.6658 103.909 11.0718 103.239 10.6433L101.966 12.6319C102.234 12.8034 102.436 13.0345 102.58 13.3565L104.736 12.394ZM105.132 14.5523C105.084 13.7173 104.981 12.9461 104.736 12.3958L102.579 13.3547C102.634 13.4795 102.728 13.871 102.774 14.6863L105.132 14.5523ZM112.275 10.9044V6.67089H109.914V10.9044H112.275ZM114.105 9.72385H111.095V12.0849H114.105V9.72385ZM115.285 11.8889V10.9044H112.924V11.8889H115.285ZM111.095 13.0694H114.105V10.7084H111.095V13.0694ZM112.275 20.2433V11.8889H109.914V20.2433H112.275ZM112.365 21.19C112.412 21.2479 112.378 21.2381 112.338 21.0504C112.302 20.875 112.275 20.6125 112.275 20.2433H109.914C109.914 20.7086 109.946 21.1447 110.027 21.5319C110.105 21.9067 110.246 22.3236 110.528 22.6722L112.365 21.19ZM112.375 21.1866C112.357 21.1866 112.35 21.1849 112.351 21.1851C112.352 21.1853 112.357 21.1865 112.363 21.1896C112.37 21.1926 112.373 21.1952 112.372 21.1947C112.371 21.1939 112.364 21.1879 112.351 21.1725L110.542 22.6897C111.007 23.2442 111.646 23.5476 112.375 23.5476V21.1866ZM112.635 21.0938C112.512 21.1733 112.431 21.1866 112.375 21.1866V23.5476C112.937 23.5476 113.457 23.3734 113.915 23.0778L112.635 21.0938ZM112.864 20.7661C112.778 20.9664 112.687 21.0584 112.613 21.1084L113.937 23.0632C114.444 22.7194 114.803 22.2394 115.036 21.6896L112.864 20.7661ZM114.498 20.0473H113.95V22.4084H114.498V20.0473ZM113.833 24.2397C114.653 23.5993 115.228 22.6958 115.61 21.6249L113.387 20.8308C113.113 21.5976 112.76 22.0819 112.379 22.3792L113.833 24.2397ZM111.25 25.1791C112.192 25.1791 113.057 24.8337 113.824 24.2468L112.388 22.3721C111.955 22.7041 111.582 22.8181 111.25 22.8181V25.1791ZM109.401 24.6734C109.973 24.9984 110.594 25.1791 111.25 25.1791V22.8181C111.043 22.8181 110.82 22.7644 110.567 22.6206L109.401 24.6734ZM107.992 23.1018C108.288 23.7642 108.758 24.2941 109.383 24.6633L110.584 22.6306C110.384 22.5123 110.245 22.3577 110.147 22.1387L107.992 23.1018ZM107.594 20.5527C107.594 21.5247 107.691 22.414 107.988 23.0934L110.151 22.1471C110.054 21.9263 109.955 21.4374 109.955 20.5527H107.594ZM107.594 11.8889V20.5527H109.955V11.8889H107.594ZM106.735 13.0694H108.774V10.7084H106.735V13.0694ZM105.554 11.4248V11.8889H107.915V11.4248H105.554ZM107.514 9.51185C107.055 9.93133 106.647 10.1882 106.296 10.3287L107.173 12.5208C107.854 12.2487 108.497 11.8118 109.106 11.2561L107.514 9.51185ZM108.758 8.00022C108.388 8.59176 107.972 9.09338 107.514 9.5125L109.106 11.2554C109.735 10.6806 110.286 10.0102 110.76 9.25155L108.758 8.00022ZM109.565 6.22686C109.18 7.17523 108.91 7.74742 108.749 8.01461L110.769 9.23716C111.038 8.79173 111.369 8.06059 111.753 7.11492L109.565 6.22686ZM111.095 5.49038H110.659V7.8514H111.095V5.49038ZM122.319 10.1889V14.5771H124.68V10.1889H122.319ZM123.035 11.3694H123.499V9.00839H123.035V11.3694ZM123.464 11.5568C123.781 11.3108 123.979 10.9414 124.091 10.7169L121.979 9.66096C121.959 9.70146 121.942 9.7336 121.928 9.75844C121.913 9.78358 121.904 9.79822 121.899 9.8046C121.895 9.81161 121.899 9.80414 121.914 9.78759C121.921 9.77892 121.933 9.76611 121.949 9.75061C121.964 9.73521 121.986 9.71521 122.015 9.69307L123.464 11.5568ZM122.388 11.9039C122.697 11.9039 123.104 11.8374 123.464 11.5568L122.015 9.69307C122.207 9.54374 122.379 9.54285 122.388 9.54285V11.9039ZM121.099 11.6449C121.352 11.7194 121.579 11.7802 121.775 11.8234C121.95 11.862 122.174 11.9039 122.388 11.9039V9.54285C122.427 9.54285 122.439 9.54645 122.41 9.54223C122.386 9.53863 122.345 9.53131 122.284 9.51782C122.161 9.49069 121.99 9.44605 121.765 9.37985L121.099 11.6449ZM119.589 11.3694C119.94 11.3694 120.433 11.4463 121.094 11.6435L121.77 9.38126C120.986 9.14719 120.251 9.00839 119.589 9.00839V11.3694ZM117.586 12.1033C118.068 11.6339 118.7 11.3694 119.589 11.3694V9.00839C118.171 9.00839 116.919 9.45649 115.938 10.4123L117.586 12.1033ZM116.86 13.9161C116.86 13.1566 117.105 12.578 117.591 12.098L115.933 10.4176C114.975 11.3628 114.499 12.5564 114.499 13.9161H116.86ZM117.239 15.2099C117.012 14.9228 116.86 14.5208 116.86 13.9161H114.499C114.499 14.9428 114.768 15.891 115.386 16.6729L117.239 15.2099ZM119.509 16.7124C118.162 16.0433 117.489 15.5322 117.245 15.2177L115.379 16.665C115.979 17.4383 117.088 18.1461 118.459 18.8271L119.509 16.7124ZM122.525 18.6C121.927 18.0149 120.867 17.3868 119.509 16.7124L118.459 18.8271C119.821 19.503 120.57 19.9907 120.873 20.287L122.525 18.6ZM123.569 21.075C123.569 20.1123 123.212 19.2589 122.516 18.5915L120.882 20.2954C121.105 20.5094 121.208 20.7437 121.208 21.075H123.569ZM122.574 23.317C123.211 22.7231 123.569 21.9567 123.569 21.075H121.208C121.208 21.2621 121.152 21.4147 120.964 21.5896L122.574 23.317ZM120.194 24.1964C121.084 24.1964 121.914 23.9309 122.573 23.3177L120.965 21.589C120.818 21.7259 120.598 21.8354 120.194 21.8354V24.1964ZM116.915 22.8953C117.853 23.7381 118.958 24.1964 120.194 24.1964V21.8354C119.592 21.8354 119.037 21.628 118.494 21.1393L116.915 22.8953ZM115.042 19.2812C115.337 20.7585 115.93 22.0094 116.915 22.8953L118.494 21.1393C117.998 20.6937 117.587 19.9663 117.357 18.8181L115.042 19.2812ZM115.735 20.2302H116.2V17.8692H115.735V20.2302ZM116.916 23.6488V19.0497H114.555V23.6488H116.916ZM116.2 22.4683H115.735V24.8293H116.2V22.4683ZM116.706 22.1026C115.918 22.1026 115.403 22.603 115.144 23.1209L117.256 24.1768C117.255 24.1773 117.246 24.1954 117.224 24.2234C117.201 24.252 117.164 24.2917 117.109 24.3316C116.984 24.4214 116.837 24.4637 116.706 24.4637V22.1026ZM117.808 22.294C117.449 22.1852 117.069 22.1026 116.706 22.1026V24.4637C116.737 24.4637 116.863 24.4748 117.123 24.5536L117.808 22.294ZM120.166 22.6652C119.514 22.6652 118.723 22.548 117.781 22.2863L117.149 24.5612C118.233 24.8622 119.243 25.0262 120.166 25.0262V22.6652ZM122.391 21.8588C121.712 22.4077 120.983 22.6652 120.166 22.6652V25.0262C121.543 25.0262 122.792 24.5712 123.876 23.6948L122.391 21.8588ZM123.289 19.9357C123.289 20.761 122.997 21.3676 122.39 21.8597L123.877 23.6939C125.051 22.7421 125.65 21.4546 125.65 19.9357H123.289ZM121.097 17.3259C122.78 18.1464 123.289 19.0425 123.289 19.9357H125.65C125.65 17.791 124.256 16.2398 122.132 15.2038L121.097 17.3259ZM119.045 16.3279L121.098 17.3265L122.131 15.2032L120.077 14.2046L119.045 16.3279ZM116.847 14.7546C117.318 15.3765 118.129 15.8845 119.047 16.3288L120.076 14.2038C119.212 13.7854 118.842 13.4776 118.731 13.3307L116.847 14.7546ZM116.158 12.6924C116.158 13.4589 116.384 14.1758 116.867 14.7801L118.711 13.3052C118.594 13.1593 118.519 12.9761 118.519 12.6924H116.158ZM117.174 10.6443C116.583 11.1524 116.158 11.8405 116.158 12.6924H118.519C118.519 12.6781 118.521 12.664 118.536 12.6359C118.554 12.6016 118.6 12.5315 118.714 12.434L117.174 10.6443ZM119.533 9.83821C118.663 9.83821 117.838 10.0727 117.174 10.6443L118.714 12.434C118.856 12.3116 119.091 12.1992 119.533 12.1992V9.83821ZM122.446 10.8859C121.641 10.1636 120.637 9.83821 119.533 9.83821V12.1992C120.154 12.1992 120.566 12.3708 120.868 12.6424L122.446 10.8859ZM124.178 14.2816C123.808 12.8488 123.276 11.6193 122.438 10.8794L120.875 12.6489C121.163 12.9029 121.55 13.5487 121.892 14.8725L124.178 14.2816ZM123.499 13.3966H123.035V15.7576H123.499V13.3966Z" fill="white" mask="url(#path-1-outside-1_117_213)"/>
</svg>
